<svg id="Øsm" xmlns="http://www.w3.org/2000/svg" width="399.44mm" height="20.79mm" viewBox="0 0 1132.28 58.94"><defs><style>.cls-1{fill:#b5bfbc;}</style></defs><title>headersissel</title><rect class="cls-1" width="1132.28" height="58.94"/><path d="M18,47.54l-.19.38a1.14,1.14,0,0,0-.77-.38c-.2,0-.29-.07-.29-.28,0-.4-.51-.6-1-.43,0,0-.06,0-.08,0a2.59,2.59,0,0,0-1.14.07s-.12-.06-.16-.11c-.37-.46-.78-.91-1.1-1.39a13.36,13.36,0,0,1-1.13-2c-.52-1.22-1-2.46-1.39-3.71A11.79,11.79,0,0,1,10.38,38c-.07-.35-.16-.7-.2-1a5.33,5.33,0,0,1,0-.8c0-.55,0-1.09,0-1.64s0-1,.07-1.56a6.12,6.12,0,0,1,.26-.93c.13-.51.24-1,.39-1.53s.31-.94.45-1.41c.23-.74.4-1.49.68-2.22.37-.91.83-1.8,1.23-2.7.25-.57.49-1.14.69-1.72a22.68,22.68,0,0,1,1.48-3.26c.15-.28.28-.57.43-.86s.4-.72.59-1.09c.49-1,1-2,1.47-2.93.21-.4.53-.76.77-1.15.37-.59.72-1.18,1.07-1.78a2.61,2.61,0,0,1,.66-.84,6.12,6.12,0,0,0,.77-1c1-1.32,1.91-2.66,3-3.94a13,13,0,0,1,2.1-2c.32-.24.62-.15,1-.22l-.07.2a2.44,2.44,0,0,0,.45-.12.64.64,0,0,0,.3-.2c.18-.28.47-.25.78-.21a1.2,1.2,0,0,0,.23,0,.77.77,0,0,0,.32.22.89.89,0,0,0,.63,0l-.51-.13a1,1,0,0,1,.24-.05l.94.14a.32.32,0,0,1,.14,0c.51.29,1.06.55,1.53.87a3.91,3.91,0,0,1,.75.77c.3.37.57.77.88,1.14a13.71,13.71,0,0,1,1.78,2.35c.14.25.34.48.48.73.71,1.17,1.4,2.35,2.11,3.52.27.45.56.88.81,1.29l-.65-.09a.4.4,0,0,1-.21-.06.93.93,0,0,0-.62-.29c-.29,0-.35,0-.34.22a.19.19,0,0,1-.08.17,1.84,1.84,0,0,0-.09-.25,1.27,1.27,0,0,0-.17-.14v.39h-.38c.19.31.19.31.3.21l.45.09a.86.86,0,0,0,.86.41,7.3,7.3,0,0,1,.81,0c.33,0,.39,0,.27-.29,0,0,0-.05,0-.1a1.71,1.71,0,0,1,.21.26c.43.67.87,1.33,1.25,2s.51,1.14.79,1.71c.19.4.43.78.64,1.18s.49,1,.76,1.49c.36.65.77,1.28,1.12,1.94.45.86.89,1.73,1.3,2.61.21.45.35.92.52,1.39.33.86.66,1.73,1,2.6a12.25,12.25,0,0,1,.35,1.42c.18.88.36,1.76.5,2.65.07.4,0,.82.07,1.24s.09,1.06.11,1.59c0,.16-.08.33-.09.51,0,.45-.09.91-.13,1.37s-.08,1.08-.15,1.62c0,.15-.16.29-.21.45-.2.63-.37,1.26-.57,1.9-.14.42-.3.85-.48,1.27-.08.17-.27.3-.36.46-.21.4-.37.81-.57,1.2a2.76,2.76,0,0,1-.58.81A7.84,7.84,0,0,0,43.7,47a9.85,9.85,0,0,1-2,2.14c-.42.28-.88.52-1.31.79-.59.36-1.15.74-1.75,1.1a6.73,6.73,0,0,1-.9.42c-.71.28-1.45.52-2.14.82a1.82,1.82,0,0,1-.68.13c-.56,0-1.1.17-1.65.26s-1.19.24-1.79.28-1.22,0-1.83-.05c-.33,0-.67,0-1,0l-.36,0-2.18-.15a10,10,0,0,1-2.73-.59c-.87-.31-1.76-.61-2.63-.93a13.09,13.09,0,0,1-2.23-1.07,5.87,5.87,0,0,1-.58-.39c-.18-.15-.17-.75,0-.85s.15-.21.13-.34-.18-.33.11-.46C18.33,48,18.21,47.66,18,47.54ZM39.49,47c-.05,0-.14,0-.14.05a1.55,1.55,0,0,0,0,.31l.35-.08-.18-.09.24-.12-.38,0a1.08,1.08,0,0,0,.11-.11l.22,0c-.14-.15-.25-.3-.51-.16Zm1.22-.77-.29,0,.25.48h.11l0-.23c0-.09,0-.18,0-.27h.17v.18l.18-.08,0,.21.18-.1.52.52a.17.17,0,0,1,0,.1c0,.34,0,.36.34.45.24-.25.27-.59.64-.75A.55.55,0,0,1,42.6,46a2,2,0,0,1-.26-.06c-.38-.16-.54-.14-.7.17a.42.42,0,0,1-.47.27L40.92,46Zm-.74.65-.3-.34c0,.1-.06.22,0,.28s.2,0,.3.05l-.13.2a1.58,1.58,0,0,1,.06.26.9.9,0,0,1-.11.27l.08,0,.12-.25.08.14c0-.11.07-.18.05-.24A2.78,2.78,0,0,0,40,46.85Zm.18-1.09-.37,0c.39.13,0,.44.22.59l.16-.38H40l.16-.12.27.13,0,0-.16-.15.27-.26-.05,0-.41.27a.41.41,0,0,0-.12-.17c-.06-.06-.22-.13-.24-.11-.18.16-.17,0-.21-.08a1.82,1.82,0,0,0-.15-.23h-.05l.17.41Zm.45,1.59c0-.23-.17-.35-.34-.48l-.08.06.2.18-.09.09.31.15-.42.2a1.23,1.23,0,0,0,.89-.19L41,46.77s-.21.06-.2.08a2.44,2.44,0,0,0,.13.44Zm5.08-8.76c-.31-.08.07-.22,0-.31s-.19.13-.22.11c-.22-.11-.3,0-.42.11l0,0,.27-.14.16.27-.32-.1v.05l.64.52.13-.08s-.08-.11-.13-.13c-.26-.08-.21-.21-.1-.35l.13.24.09,0-.08-.21.28.06L46,38.26Zm-1.59-.66-.28.17-.06-.17-.4.25.44,0v.05l-.35.11-.28-.19,0,0,.13.14c-.24,0-.33.12-.22.17a.7.7,0,0,0,.49,0,.58.58,0,0,1,.72,0l-.5,0c.15,0,.23,0,.28,0,.25.12.3.1.37-.15l-.49-.14v-.05l.16,0c0-.08,0-.15,0-.22l.15.13,0,0-.14-.26.25,0-.31-.15Zm-1.52-14,0-.24-.37-.06-.07.64-.19-.09.25-.83-.18.13h0c.09-.16.13-.31-.06-.46l-.14.59.25-.12c-.18.38-.28,0-.46,0l.13.3h.23l-.11.23-.33,0,.26.11-.33.07v0h.25l-.1.3.47-.16c-.09.42-.09.42-.38.27l.05.52-.19.28.33.15c-.5.27-.15.48.07.7l-.05,0L41.28,26l0,0h.21v-.09L41,26l.63.46.31-.08a1.33,1.33,0,0,0,0,.2,1.52,1.52,0,0,0,.09.17l.18-.35.27,0-.16.23.16.21c.19-.52.19-.52.41-.6l.16.2a5.27,5.27,0,0,1,.41-.41c.12-.08.31-.1.41-.19s.09-.21.14-.32h-.16c0-.12.09-.25-.14-.29,0,0,0-.1,0-.15s.08-.3.12-.44l-.09,0c-.15.21-.09.48-.17.71,0,0-.11,0-.1,0,0-.24-.21-.27-.4-.35L43,25c-.16-.12-.15-.21,0-.28s.16-.11,0-.19l0-.23c-.06-.18-.21-.2-.4-.13l-.09-.28.27.19.08-.35.58.17c-.08-.11-.12-.14-.13-.19a1.37,1.37,0,0,1,0-.2l-.12.18-.2-.2.13-.1v-.07a1.45,1.45,0,0,1-.3,0s-.08-.09-.08-.13.05-.11.07-.17c-.28.2-.32.32-.16.41l-.18.23.17,0C42.71,23.72,42.79,23.85,42.57,23.93Zm-4.81-2.31v-.24c-.15,0-.32,0-.49,0s-.44.06-.26-.23c0,0-.06-.08-.09-.12l-.06,0v.17l-.14-.17-.15.35h.18l-.34.16s0-.06,0-.07l.09-.27c.08-.29.36-.35.67-.16,0,0,.1,0,.12,0l-.19-.72-.22.13.07-.2-.06,0-.17.19-.52-.24.13-.14-.07,0-.15.22a3.19,3.19,0,0,1-.3.42c-.08.08-.29.1-.16.28,0,0-.07.1-.13.12s-.26,0-.37.08-.32.18-.48.27l0,.08c.33-.09.62-.09.69.25l-.31,0a.64.64,0,0,0,.83.13h0a1.52,1.52,0,0,0-.22.22s0,.14,0,.14c.25.1.34.15.36.19l.57-.32h0l-.37.44h.15v.2l.21-.12-.09-.19.09-.05.39.3-.06.08-.26-.07a.5.5,0,0,0,.57.46,2.92,2.92,0,0,1-.39.07s-.07.05-.11.08a.75.75,0,0,0,.12.07h.37v.11l-.41,0,.63.36-.16.1a.23.23,0,0,0,.37,0,.46.46,0,0,1,.47-.16.57.57,0,0,0,.21-.06l-.61-.13,0-.06c.34,0,1-.25,1.1-.45l-.46.12c.25-.14.26-.17.11-.41l-.2.28L38.1,23l.07-.06.25-.11-.23-.23.19,0,0,.12.51-.11c.05.23-.46.13-.3.41l.23-.11.06.48c.29-.13,0-.4.13-.56l.25.39.26-.07-.08,0,.18-.47.08,0-.12.7a1.76,1.76,0,0,0-.39-.06s-.07.13-.09.16l.34.12.13-.23.26-.17a.92.92,0,0,1,0,.18c0,.05-.06.09-.12.19.51-.26.51-.26.71-.22l-.09-.49.34.29.09-.05-.21-.38.38,0c.06-.12.1-.28.32-.18l.34-.36.06.3-.22.13.08.07.33-.3,0,.52c.07-.07.16-.12.16-.16a.84.84,0,0,0-.12-.48c-.09-.12-.1-.15,0-.23s0-.06.08-.15l-.27.18.09-.55-.24-.1.3-.11L41.72,21l.07,0,.22.19c0-.24-.18-.38-.48-.32l.1.1-.27,0v-.34a.82.82,0,0,0-.19-.06c-.28,0-.43-.08-.26-.34,0,0-.06-.11-.1-.16l-.11,0,.06.46h0l-.31,0,.16-.38-.29-.56-.19.22,0,0,.12-.09c0,.18,0,.18-.23.21l-.14.32.17.06-.19.1.47.36,0-.05-.07-.11.08,0,.22.28-.54,0-.27-.42-.19.35-.24-.16.18,0-.07-.64-.32.15.35-.38-.27,0c-.06,0-.16,0-.16.07,0,.28-.22.21-.44.11l.13.19-.12.28-.13-.11.08.27h0l-.13-.27h-.07l0,.5h.06l-.09.12.23.08c-.12,0-.21,0-.22,0a1.81,1.81,0,0,1-.18-.27l-.42.39,0,0,.15-.09.07.57a.74.74,0,0,1-.13-.08ZM35,41.82h1.61l0,.18.81,0-.19.16,0,0L37.7,42l0,.13c.31-.05.59-.11.89-.14s.61-.05.9-.08v.3c0,.13,0,.27,0,.41,0,.38,0,.76.46,1,.09,0,.15.14.25.18.33.17.66.34,1,.48.12,0,.21.06.19.2a3.56,3.56,0,0,0,0,.65s.07.05.14.1v-.21l.07,0,.24.36.4-.1,0,.28.24,0-.12.14.26.33.16-.07c.16-.08.2-.21.06-.23l-.12.16-.13-.23c.2-.11.32-.32.59-.36s.49-.25.42-.53a1,1,0,0,1,0-.39h.08l.12.36c0-.11,0-.24.06-.33s.26-.33.37-.5.2-.48-.08-.68a.54.54,0,0,1-.1-.84,2.13,2.13,0,0,0,.34-1.23.72.72,0,0,0-.43-.79c-.51-.27-.74-.3-1.08.11a.72.72,0,0,0-.13.3c-.06.2-.18.42-.13.6a.65.65,0,0,1-.14.58c-.12.17-.32.36-.16.58-.28.5-1,.74-1,1.36l-.69-.17a.67.67,0,0,1-.15-.06,2.66,2.66,0,0,0-.46-.35.5.5,0,0,1-.3-.42.92.92,0,0,1,.35-.82s.14-.07.17,0a2.44,2.44,0,0,0,.85.23.1.1,0,0,1,.07,0,.22.22,0,0,0,.36,0s-.07-.2-.16-.25-.41-.19-.61-.29-.27-.17-.07-.32a.45.45,0,0,0,.12-.2c.21-.46.42-.93.65-1.4,0-.08.14-.14.2-.21.29-.34.57-.69.86-1a1.94,1.94,0,0,1,.3-.21l-.11-.2-.17.22-.1-.2,0,0-.25-.16a4.11,4.11,0,0,0,.55,0c.35-.07.35-.08.43-.24l-.31.14c-.26-.12-.21-.23,0-.32-.26-.13-.27.39-.57.09l0,.22h-.06c-.33-.29-.66-.58-1-.88a.25.25,0,0,1-.08-.14c0-.37,0-.74,0-1.11a1.38,1.38,0,0,1,.48-1.2c.27-.23.43-.56.7-.8s.18-.23.11-.38c-.22-.48-.41-1-.64-1.43a8.05,8.05,0,0,0-1.11-1.92c-.21-.23-.37-.52-.65-.66a.76.76,0,0,1-.44-.69c0-.07,0-.14,0-.2a6.69,6.69,0,0,1-.38-2.3c.08-.4-.32-.75-.73-.92a3.2,3.2,0,0,0-1.77-.33.24.24,0,0,1-.15,0,10.06,10.06,0,0,1-.86-.7,1.41,1.41,0,0,1-.4-.6c0-.23-.17-.3-.4-.34s-.22,0-.34,0a8.7,8.7,0,0,1-2-.24.51.51,0,0,0-.3,0A.28.28,0,0,1,32,23c-.29-.28-.6-.56-.86-.85a4.25,4.25,0,0,1-.35-.58,2.36,2.36,0,0,0-.22-.38c-.13-.17-.31-.38-.23-.54a.86.86,0,0,1,.48-.52c.3-.11.44-.46.38-.57-.12.07-.28.15-.43.25a7.33,7.33,0,0,0-.64.45,1,1,0,0,0-.22.29c-.19.43-.36.87-.56,1.3a5,5,0,0,1-.31.61c-.06.09-.17.16-.24.25a.66.66,0,0,1-.81.3.43.43,0,0,0-.43.11,1.45,1.45,0,0,0-.31.35c-.09.23-.29.29-.54.33-1.06.16-2.12.32-3.18.5a.77.77,0,0,0-.43.18,11,11,0,0,0-.7,1c-.28.41-.55.83-.82,1.26a.42.42,0,0,0-.08.21.33.33,0,0,1-.29.3l-1.8.43c-.74.19-1.48.4-2.21.61a.45.45,0,0,0-.24.23c-.21.43-.39.86-.6,1.29a6.85,6.85,0,0,1-1.12,1.43c-.25.28-.59.56-.66.87s-.39.4-.65.5a1.73,1.73,0,0,1-.54,0l-.3,0a.58.58,0,0,0,.61.11l.44.07c-.51.44-1.22.25-1.88.31,0,.06,0,.11,0,.11.55,0,1.1,0,1.65.1.07,0,.15-.05.22-.07-.07-.18.53-.91.81-1,.17.11.34.2.49.31a1.1,1.1,0,0,1,.28.29,2.77,2.77,0,0,1,.48,1.39c0,.51,0,1,.06,1.52a.32.32,0,0,0,.12.22c.23.2.49.38.74.57s.44.3.65.47.54.45.82.66a6.94,6.94,0,0,0,.88.62,1,1,0,0,0,.5,0,2.24,2.24,0,0,0,.44-.07,3.25,3.25,0,0,1,2,.47,1.26,1.26,0,0,1,.56.43,1,1,0,0,0,1,.32,16.57,16.57,0,0,0,2.79-.82c.84-.38.86-.37,1.63.07l.11.07c.71.42,1.41.84,2.11,1.28a.31.31,0,0,1,.11.27,2.43,2.43,0,0,1-.18.58.52.52,0,0,1-.19.2c-.16.1-.33.17-.49.27s0,.07-.05.11.09,0,.12,0a1.08,1.08,0,0,0,.77-.63,1.45,1.45,0,0,1,.56-.77c.66-.47,1.28-.95,1.92-1.43l.09-.09c.08-.18.25-.21.45-.19l.29,0h1.15v0l-.64.14,0,.09h.24l1.67-.2c.58-.07,1.16-.16,1.74-.25a.69.69,0,0,0,.59-.42c.18-.4.39-.79.59-1.19a1.08,1.08,0,0,1,.52-.56c.17-.09.27-.07.36.07a6.86,6.86,0,0,0,1.15,1.45.42.42,0,0,1,.09.14,4.7,4.7,0,0,1,.37.54.42.42,0,0,1,0,.37,1.89,1.89,0,0,1-.45.61c-.59.52-.67,1.24-1,1.84a1.09,1.09,0,0,1-.59.48l-1,.11a3.18,3.18,0,0,1-.43.06c-.42,0-.85-.07-1.27-.11,0-.41,0-.41-.35-.73l-.35-.26.15-.17,0-.07a4.17,4.17,0,0,0-.51.09.55.55,0,0,0-.42.38,6.22,6.22,0,0,1,.5.4.82.82,0,0,1,.14.26,2,2,0,0,1-.33.09,2.2,2.2,0,0,1-.93,0c-.22-.12-.3-.44-.4-.69a10.7,10.7,0,0,1-.41-1.07c-.11-.32-.2-.65-.31-1-.09.08-.15.11-.15.15,0,.3,0,.6,0,.89a.7.7,0,0,0,.06.38c.19.34.43.67.63,1a2.73,2.73,0,0,1,.27.54c.06.15,0,.33.14.46s.13.54-.23.66-.69.22-1,.35a1.16,1.16,0,0,0-.39.26c-.3.27-.6.54-.55,1,0,0,0,.09,0,.14-.15.59-.25,1.19-.45,1.77a1.32,1.32,0,0,1-1.1,1.09l-1.26.2c-.06,0-.16,0-.17,0a4.7,4.7,0,0,1-.49-1,2.93,2.93,0,0,0-.6-1.49c-.17-.17-.3-.37-.46-.55A.88.88,0,0,0,27,44.39a3.71,3.71,0,0,0-.95.58l-1.21.9c-.38.26-.73.54-1.13.78s-.68.16-.81-.24c0,0,0,0,0-.07l.47-.22a2.19,2.19,0,0,0-.58-.1.48.48,0,0,0-.39.41c0,.33.51.79.91.76a.76.76,0,0,0,.16,0,6.67,6.67,0,0,0,.64-.37c.27-.19.51-.4.78-.6.07,0,.21-.06.28-.13a8.16,8.16,0,0,1,.74-.7c.34-.25.55-.63,1.1-.7s.57,0,.73.29c.28.59.54,1.19.82,1.79.19.4.4.8.6,1.19l-.58,0a1.33,1.33,0,0,0-1.16.53c-.12.19-.3.35-.42.54a4.73,4.73,0,0,0-.31.64,6.28,6.28,0,0,0-.25.73c-.14.45-.25.91-.4,1.36-.1.28-.28.54-.08.89a2.21,2.21,0,0,0,.36-.45c.26-.71.49-1.42.76-2.13a6.47,6.47,0,0,1,.55-1.16,1.27,1.27,0,0,1,.6-.52,9.75,9.75,0,0,1,1.22-.24.45.45,0,0,0,.34.4c.4.16.81.29,1.21.45.08,0,.13.13.2.2h.07l0-.13c.13,0,.26,0,.38.09a3,3,0,0,0,.39.13c.25,0,.39.1.41.3a3,3,0,0,1,0,.52s-.09.08-.14.09c-.35.11-.7.22-1.06.31a.28.28,0,0,1-.18,0c-.25-.13-.49-.27-.75-.39a5.13,5.13,0,0,0-.69-.25.4.4,0,0,0-.24,0l-.73.33c.13.11.13.23-.08.32a.26.26,0,0,0-.09.14,3.8,3.8,0,0,1-1.14,1.49,1.48,1.48,0,0,0-.35.47l.07.06c.08-.06.19-.09.23-.16s.3-.21.54-.16a5.38,5.38,0,0,0,2.08.09c.4-.07.82-.08,1.22-.13s.68-.09,1-.15c.09,0,.18-.05.27-.06.85-.11,1.71-.19,2.55-.34a4.18,4.18,0,0,0,1.39-.35,4.9,4.9,0,0,1,.91-.34c.15-.06.39-.09.44-.18a2.55,2.55,0,0,1,.86-.77A1.07,1.07,0,0,0,39.05,49a.51.51,0,0,1,0-.53,2.53,2.53,0,0,0,.33-.63,1.35,1.35,0,0,0,.06-.35l-.09,0-.51.72c-.07-.18-.05-.37-.11-.53-.16-.42-.34-.84-.52-1.25-.08-.17,0-.27.18-.34s.38-.21.27-.43l-.45-.06,0,.07.38.2-.4.2c-.22-.13.11-.4-.3-.47a.88.88,0,0,0,0,.29c.07.18,0,.29-.2.36s-.53.18-.8.27l-.08,0L37,46.1l-.15,0a2.19,2.19,0,0,0-.11.2.68.68,0,0,1-.58.47,1.23,1.23,0,0,0-.31.14.53.53,0,0,0,.26,0,3.2,3.2,0,0,0,.54-.08c.41-.13.81-.29,1.21-.44.14,0,.22,0,.25.09s.09.38.15.57.23.65.33,1,.32.54.11.82-.41.31-.52.11-.31-.25-.46-.38a.53.53,0,0,1-.18-.25c0-.2-.14-.18-.3-.1l-.49.22V49.9l-.08,0c-.28-.28-.56-.56-.85-.83a.77.77,0,0,0-.3-.15c-.2-.05-.42-.06-.63-.11s-.23-.11-.13-.25.1-.25.06-.27a1.08,1.08,0,0,0-.41-.1h-.84l-.29,0c.23.13.39.29.58.31a1.59,1.59,0,0,0,.56-.16l0,.06-.23.21c-.25.2-.25.31,0,.49a1,1,0,0,1,.18.19c.26,0,.54-.1.82-.17a.3.3,0,0,1,.38.18,2.43,2.43,0,0,0,.38.41c.16.14.35.26.6.45l-.72.5a.23.23,0,0,1-.15,0,5.94,5.94,0,0,1-.75-.23,2,2,0,0,0-.88-.28c-.41,0-.81-.17-1.22,0,0,0-.06,0-.09,0,0-.37.39-.7.13-1.07a1.5,1.5,0,0,1-.3,0,5.37,5.37,0,0,1-2.1-.69h-.07a2.73,2.73,0,0,1-.52-.23c-.1-.07-.08-.19.1-.22l.36,0c.39-.06.79-.12,1.17-.2s.94-.25,1.42-.35a5.68,5.68,0,0,1,.72-.05A4.15,4.15,0,0,0,34.92,47a1,1,0,0,0,.63-.75.78.78,0,0,0,0-.28l-.18.2a1.35,1.35,0,0,1-1,.69l-1.92.27c.13-.44.29-.89.39-1.34s.15-1,.29-1.5a1.2,1.2,0,0,1,.95-.84c.32-.07.65-.14,1-.24s.54-.48.3-.79A5.68,5.68,0,0,1,35,41.82ZM20.72,17.61l0,.08c.15,0,.3-.05.44-.09a.3.3,0,0,1,.38.12c.36.46.16.89,0,1.32s-.38.57-.5.87-.15.63-.25.94a.64.64,0,0,1-.22.32c-.18.13-.4.22-.58.35s-.35.29-.55.42-.38.26-.4.49-.05.56-.09.83a.37.37,0,0,1-.15.22,5.92,5.92,0,0,0-.73.52.75.75,0,0,1-.61.26,1.65,1.65,0,0,0-.35.08c.55.16.71.14,1-.12.1-.09.23-.16.33-.25a.42.42,0,0,1,.48,0l.91.31c.3.1.41.05.46-.21s.07-.24.09-.36.23-.36.53-.41c.79-.13,1.58-.27,2.36-.43.28-.06.54-.19.81-.27a.83.83,0,0,1,.35-.05,3.09,3.09,0,0,1,.52.07.3.3,0,0,0,.38-.16c.11-.22.21-.44.33-.66a.55.55,0,0,1,.19-.14,3.83,3.83,0,0,1,1.22-.09c.4,0,.42-.05.5-.37s.2-.64.29-1c0-.08.08-.18,0-.25-.12-.25.07-.38.27-.5l1.24-.72c.33-.18.35-.24.19-.55,0-.05-.06-.1-.08-.15a21,21,0,0,1-1-2,2,2,0,0,0-.63-1.08c-.3-.23-.06-.71.34-.81s.58-.13.62-.48l-.33.1c-.38.15-.8.24-1,.63a.71.71,0,0,1-.38.34c-.61.22-1.24.4-1.85.61a.64.64,0,0,0-.35.26c-.13.31-.19.63-.31.93,0,.09-.11.22-.21.24a1.12,1.12,0,0,0-.84.9.37.37,0,0,1-.22.18,8.68,8.68,0,0,0-.91.25.46.46,0,0,1-.64-.2c-.13-.18-.22-.37-.34-.55a.69.69,0,0,0-.19-.12l-.09.14a.24.24,0,0,1-.09.06Zm-.15,31.73a4.72,4.72,0,0,0-.16.45.24.24,0,0,0,.08.21,2.39,2.39,0,0,0,.58.28.75.75,0,0,0,.47,0,.74.74,0,0,0,.37-.72,1.09,1.09,0,0,1,.16-.51.81.81,0,0,0,.05-.88,6.55,6.55,0,0,0-.9-1.38A1.24,1.24,0,0,1,21,45.39a2.76,2.76,0,0,0,0-.76c0-.12-.14-.29-.08-.35.27-.26.14-.47,0-.71a1.07,1.07,0,0,1-.14-.39c-.08-.25-.14-.5-.23-.74a2,2,0,0,0-.25-.41c-.14-.18-.34-.07-.52-.08-.58,0-1.16-.08-1.73-.14-.37,0-.38-.06-.27-.35a.86.86,0,0,1,.1-.16c.11-.16.22-.31,0-.49a.8.8,0,0,0-.86-.3c-.59.21-.65.17-.27.65s.25.81-.39,1a1.52,1.52,0,0,0-1,.73c-.08.14,0,.21.13.3A1.64,1.64,0,0,1,17,42l.07-.26c.12.07.21.16.31.17.38,0,.77.08,1.15.11l1.28.09a.34.34,0,0,1,.2.09,1.56,1.56,0,0,1,.4,1.11c0,.39,0,.78,0,1.17,0,.06.07.12.07.18s0,.28,0,.42-.06.12-.06.18v.95l-.22.08-.07.12c.32-.2.31,0,.38.09s.22.32.36.45a4.78,4.78,0,0,1,1,1.42c0,.08,0,.22-.08.32s-.43.48-.22.81l-.07.05ZM47.2,32.26a1.58,1.58,0,0,0-.38-.28c-.47-.21-1-.41-1.45-.6-.15-.06-.25-.1-.13-.27s-.05-.18-.11-.27-.12,0-.21-.06l.11.35-.12,0-.28-.37-.07.09-.23-.32.42.07L45,30h.08v.19l.27-.17c-.19-.09-.45-.11-.35-.3a1.48,1.48,0,0,1-.32-.21,2,2,0,0,1-.21-.3l-.26.1-.1-.18c-.1.1-.23.18-.28.28a1,1,0,0,0-.09.89c.07.15,0,.15-.23.13l.2-.1a.89.89,0,0,1-.73-.4,3.72,3.72,0,0,0-1.3-1.22,4.08,4.08,0,0,0-.68-.26c-.09-.14-.16-.16-.46-.12a2.11,2.11,0,0,0-.25,0,.65.65,0,0,0-.17.08c.06,0,.13.08.19.07a1.36,1.36,0,0,1,.93.24A4.82,4.82,0,0,1,42.54,30c.14.18.31.35.47.52l.17,0,0,.17c.41,0,.54.31.75.47l-.13.06.07.08.33-.1.08.27h.08l.06-.18.2.24-.32,0v.1a1,1,0,0,0,.3,0c.25-.05.25-.06.39.1-.27,0-.6-.09-.75.19l1.1-.18C45.94,31.83,46.4,32.3,47.2,32.26ZM13.33,44.87l.09,0,0-.38a6.56,6.56,0,0,1-.09-1.08.92.92,0,0,1,.56-.85.9.9,0,0,0,.49-.65c.09-.27-.1-.47-.42-.54s-.46-.18-.4-.45a.56.56,0,0,0-.32-.62,2,2,0,0,1-.24,0c-.31,0-.47.13-.34.37s.27.6,0,.89a.93.93,0,0,0-.19.21c-.07.14-.23.28,0,.48.12-.13.21-.24.31-.33.25-.25.51-.52,1-.33.11,0,.3.1.31.16s.11.4-.19.51a.8.8,0,0,0-.25.11,1.74,1.74,0,0,0-.68,1.1,1.15,1.15,0,0,0,0,.37,8.33,8.33,0,0,0,.22.86C13.13,44.78,13.25,44.82,13.33,44.87ZM18.94,44c-.47-.1-.54,0-.5.34,0,.1,0,.26-.05.29a2.4,2.4,0,0,1-1.1.37.71.71,0,0,0-.42.06,3.79,3.79,0,0,0-.7.62c-.06.06,0,.2,0,.27l.86-.32s.07-.14.14-.17a3.61,3.61,0,0,1,.71-.21,2.53,2.53,0,0,0,1-.55.15.15,0,0,0,0-.07C18.91,44.38,18.92,44.17,18.94,44ZM12.85,38.2c0,.15-.06.29-.08.42a1.7,1.7,0,0,0,0,.39c0,.12-.14.27.14.38.07-.37.12-.7.2-1a.73.73,0,0,1,.22-.39,7.57,7.57,0,0,1,1.07-.7,2,2,0,0,0,1-1.34c0-.08,0-.19,0-.28a1.17,1.17,0,0,0-.25.5,1.38,1.38,0,0,1-.83,1.06l-2.19,1.15c-.17.09-.19.14-.14.26ZM36.6,13.33a.41.41,0,0,1-.33-.42.51.51,0,0,0-.26-.37.33.33,0,0,0-.38.52c.15.11.11.17,0,.23s0,.13,0,.15-.08.18-.12.26l.06,0,.08-.13.45.25.1-.12.11.12ZM22.22,10.52c-.24,0-.29-.32-.64-.22l.34.14c-.55,0-.55,0-.52.29l.38.08v.08l-.39,0,.07.08-.35.25,0,.07c.22-.19.38-.08.56,0l-.11-.21.45,0,.14.19c.24-.2.26,0,.33.14l.08,0-.1-.32.37-.21-.05,0-.23.08c-.2-.4.36-.06.36-.26l-.45-.21.13.17-.05,0-.25-.17ZM43.9,28.73l-.16.5.13,0,.07-.25.35,0,.11-.57.32.23a.85.85,0,0,1,0-.18.59.59,0,0,1,0-.14h.15l-.15-.44-.26,0-.26-.45-.21.15c.08.08.18.14.17.17-.1.25-.22.49-.33.73l-.08,0ZM32.64,20.35l0-.08-1.13.22c0-.08-.11-.18-.26,0a.52.52,0,0,1-.15.06l-.34.15.82.31c.15-.11.34-.23.54-.36a1.18,1.18,0,0,1,.22-.17A2.37,2.37,0,0,1,32.64,20.35Zm2,21.41a8.47,8.47,0,0,0-2.64.31.19.19,0,0,0,.14.06l2.29-.23C34.48,41.89,34.55,41.81,34.62,41.76ZM30,4.88l.24.14-.39.2,0,0,.55-.17-.12.27c.34-.15.36-.45.08-.64l-.18.11.05-.44c-.29.13-.63,0-.77.28.23.26.42-.13.65,0ZM12.1,32.37l0,.08,1.12-.11c.09,0,.21-.06.27,0,.21.11.24,0,.37-.13l-.71-.09c-.13.24-.43.18-.66.17l-.3-.36-.11,0C12.4,32.09,12.3,32.23,12.1,32.37Zm31.65-.29-.09.19.05,0L44,32,44,32l-.06.14.34.07v.06l-.28,0c-.06.28.26,0,.34.17l-.11.51c.34-.09.25-.36.37-.56l-.21,0,0,0,.23-.13c-.36,0-.44-.4-.82-.27l.1-.18-.06,0-.21.24Zm-30.47-.31-.06-.08-1.35-.12-.09.17a1.35,1.35,0,0,0,.29.05,3.57,3.57,0,0,1,1,.07C13.12,31.87,13.2,31.8,13.28,31.77Zm18.85-12c.16.16.16.16.39-.08-.2-.12-.21-.13-.45,0a.73.73,0,0,1-.54.09c-.27,0-.31,0-.22.25l.12-.2h.09l.13.46c.06-.23,0-.47.41-.42C32.08,19.88,32.11,19.81,32.13,19.77Zm10.69,7.82c-.38.08-.14.55-.58.58l.14.23.13-.24.08.06c-.07.07-.15.13-.21.2a.08.08,0,0,0,0,.1.2.2,0,0,0,.11.09s.08,0,.1-.05l.33-.71-.06,0-.17.27h0l.07-.35H43Zm.54-1.28L43,26.7l-.33-.07,0,.07.38.12.2-.2c.07.19-.17.39.07.49l.52-.46,0,0-.36.21Zm-8.3-9h.11c0-.07,0-.16,0-.23a1.4,1.4,0,0,1,.09-.17l.09.21.13-.28.23,0-.38-.17-.13.2h0l0-.24-.08,0-.08.21-.23-.07-.05.05C35.12,16.88,35.11,17.09,35.06,17.31ZM23.68,9.62V9.55l.39,0c-.06-.12-.07-.11-.29-.06s-.18.23,0,.43l-.28-.13-.2.11.12.15-.14.06.13.17.13-.31c.36.08.28-.23.5-.33Zm1.57,40.47.22.4.17-.28-.16-.09,0,0,.34.08c-.14-.15-.33-.26-.19-.47,0,0-.09-.06-.14-.1l-.08,0C25.62,49.86,25.43,50,25.25,50.09Zm-9.39-5.61-.31-.42-.22,0-.34.35.32.12,0-.34Zm27.87-5.57c-.1-.1-.14-.18-.21-.2a.68.68,0,0,0-.37,0,1.11,1.11,0,0,0-.3.22Zm-3.62-21s0,0-.06,0c-.27.06-.54.13-.8.21-.06,0-.08.11-.12.16.19,0,.33-.2.46,0ZM34.55,45.57l-.07,0s-.15.1-.15.15.11.1.17.15.5,0,.45.33l.08,0-.2-.47H34.6l.1.18-.25-.08Zm3.32-29.3h.07s.05-.07.05-.1c0-.2.09-.29.34-.28.07,0,.14-.12.2-.19-.13,0-.21.09-.31.12l-.63.15,0,.11.26,0ZM22.56,10.35l.11-.07-.34-.73h-.08a3,3,0,0,0,.1.32c0,.11.09.22.13.32l-.19.06ZM31.35,44l-.06,0,.11.45-.11.1.37.23.06-.06c-.31-.1-.21-.28-.13-.42l-.21-.12.19-.07Zm-9-31.15-.06-.05-.68.07.22.09-.27.14.06.08Zm7.15,31.72-.24.31.11.19h0l0-.19.19.16.08,0-.13-.24c.14-.18.12-.23-.23-.32ZM13.43,35.72c-.41-.24-.7-.24-.92,0Zm25.1-16c-.36-.06-.65-.29-1,0l.22.08c.21-.18.25-.18.46,0ZM42,27.67c.13-.19.25-.32.43-.13l.17-.09-.31-.17-.11.11L42,27.2Zm.46-5.76,0-.06-.42-.05.37.52.06,0V22l-.14,0v0ZM31.87,6.4v.07l.48.09,0-.19h.23v0l-.34-.12-.09.31L32,6.3ZM29.79,19.65v.08l.87,0-.15-.21c-.22.07-.42.22-.59,0ZM32.3,21.3v-.07l-.74-.09-.14.16Zm5.22,19.85-.07,0,.12.36c.27-.28.21.09.36.1l-.13-.56-.13.26ZM12.39,31.09l.6.1,0-.08-.85-.19.07.25ZM30.65,5.82a.67.67,0,0,0,.7-.26l0-.06ZM15.92,46.07c.2-.2.19-.28,0-.38l-.42.19.4.09Zm28.75-9.73-.37-.42.09.67Zm-1.34-7.79c.21.06-.17.34.13.34l.21-.57-.23.17-.23-.09-.05.25h.05ZM39.75,17.77l-.35-.15-.2.14C39.44,17.91,39.44,17.91,39.75,17.77Zm3,28.45,0,.05H43l-.09.18.22,0,0-.24.21,0,0,0-.2-.15ZM38.11,24.08,38,23.92h0v.26l.34.12,0-.42h-.08Zm2.78.12.08-.77C40.78,23.72,40.58,23.94,40.89,24.2Zm4.73,13h-.09v.61h.14ZM31.54,19.43c.25.09.41-.28.66,0l-.13-.3-.3.15Zm11.57,4.46c0,.37.17.54.48.42-.27,0-.27-.12-.2-.24Zm2.1,12.48,0,.07a4.31,4.31,0,0,0,.43-.15s0-.13-.05-.24ZM34.43,19.27v0l.52.11c.17,0,.4-.07.41-.14ZM19.56,13.89l.24.11,0-.08c-.08,0-.2-.1-.25-.07a1.64,1.64,0,0,0-.33.26l0,0,.33,0ZM37.14,45.76h.07s0,0,0,0a3.59,3.59,0,0,0,0-.47s-.06-.07-.1-.1-.07.06-.08.09a.43.43,0,0,0,0,.16C37.11,45.51,37.13,45.63,37.14,45.76Zm-.67-.46-.14.19a1.33,1.33,0,0,0,.41,0c.11-.06.16-.19.24-.29l-.09,0-.2.24ZM32.2,6.61c-.5-.1-.56-.08-.7.2l.43-.16v.1Zm10.15,16.1v.05l.3,0-.09.17.06,0,.28-.44ZM11.93,33.49l.47.31.17-.23-.06,0-.24.1C12.19,33.51,12.13,33.36,11.93,33.49ZM31.37,6.18l-.09.29.09,0L31.59,6l-.45.21,0,0ZM20.72,12.67l-.32-.14-.07.22.26-.07s.06,0,.08,0a.48.48,0,0,0,.2-.12s-.05-.11-.12-.22Zm19.52,6.51-.09,0a2.92,2.92,0,0,0-.14.38s.12.09.2.11a.81.81,0,0,0,.22,0C40.07,19.54,40.05,19.48,40.24,19.18Zm4.48,13.39,0,.06.21.08-.36.11V33l.48-.37ZM37.6,47.42l.43.2,0,0-.21-.34Zm6.08-20,.07,0,.48-.33-.31-.09,0,.15-.07,0Zm-7.46,12.3h.11c0-.08,0-.22,0-.23h-.41l.13.18.06-.09Zm-23.9-6.85-.24-.3-.06.05.35.37.24-.33-.06,0ZM35.86,48.82l.11,0c0-.09-.07-.22-.15-.25a1.31,1.31,0,0,0-.43.06l.28.14.15-.16Zm9.25-7.34,0,.07.37-.07-.15.19c.1,0,.21,0,.21,0a.91.91,0,0,0-.05-.26ZM20.91,14c0,.16-.08.23-.27.16l0-.14h-.08a1.76,1.76,0,0,0,0,.23.2.2,0,0,0,.14,0,3.37,3.37,0,0,0,.34-.09Zm8.92,5.84c-.27.18.13.37,0,.55l.19-.18H30Zm7.45,27-.09,0-.07.15L37,46.8H37v.43l.17-.26Zm1.84-29.66-.29.19.08.08.29-.14-.1.31C39.31,17.53,39.33,17.35,39.12,17.12ZM23.83,48.71c0-.14,0-.24,0-.34s-.06-.12-.06-.18,0-.09,0-.14l-.19.05Zm13.93-30c0-.17-.45-.13-.14-.41-.13,0-.27.07-.27.08s.07.23.12.41C37.52,18.54,37.64,18.67,37.76,18.7ZM18.51,46.93c0,.07.14.13.17.21s.16.25.25.18a2.49,2.49,0,0,1-.11-.26C18.75,46.88,18.64,46.85,18.51,46.93ZM31.16,5l0,0,.26-.17.16.21c.22-.29-.08-.25-.2-.32ZM28.45,42.7l-.05,0V43c.48,0,.49,0,.52-.19l-.36.12ZM38.54,17.85l-.14.5.3-.09Zm5.56,8s-.11,0-.14,0-.31.23-.46.35l.07,0ZM12.46,36.59l.22-.21-.55,0v.07ZM35,9.75l-.19-.18a.83.83,0,0,0-.13.18,1.72,1.72,0,0,0-.07.21h0l.09-.14.08.11-.18-.17Zm2.59,14.43c.25-.07.15.16.31.26l-.05-.53ZM20.92,12.34l.44-.34L21,12Zm18,11.18s0,0,0,0c-.19-.17-.32.06-.48.06s-.08.05-.11.08,0,.05,0,.05a.4.4,0,0,0,.15,0ZM32.38,7l.25-.11h-.72v.07h.26A.86.86,0,0,1,32.38,7ZM27.6,4.14l.43.18.19-.22ZM37.79,16.76l0,.5h0l.19-.44Zm2.66,31.7.06.06c.08-.23.26-.15.43-.1l0-.06-.25-.18ZM25.3,7.52l-.23-.12.09.25.35-.27-.18-.17ZM37,18.42l.05.46h0l.16-.31ZM13.17,36.12a.92.92,0,0,0-.23-.11,2.24,2.24,0,0,0-.38,0C13.09,36.22,13.09,36.22,13.17,36.12Zm30-8.06L43.05,28l-.36.42.09,0Zm-4-11.62-.06,0,.12.33.28-.12a1.35,1.35,0,0,1-.22-.12A.81.81,0,0,1,39.16,16.44Zm-4.55-6.33c-.23.13,0,.23,0,.37l.26-.11C34.63,10.39,34.6,10.27,34.61,10.11ZM33.36,17.5v.07l.62-.06s.06-.08.11-.13Z" transform="translate(0.96 1.01)"/><path d="M18.89,32.27a.78.78,0,0,1-.77-.29.67.67,0,0,1,.13-.84c.23-.17.35,0,.47.13a.49.49,0,0,0,.67.17c.21-.1.23-.23,0-.33a3.84,3.84,0,0,0-.6-.2.63.63,0,0,1-.55-.49c-.05-.21-.07-.45.21-.57a6.66,6.66,0,0,1,.9-.26s.1,0,.15,0c.59-.08.69,0,.63.46,0,.13-.16.25-.25.38-.12-.11-.29-.2-.36-.32a.39.39,0,0,0-.61-.12c-.22.15-.2.31,0,.41s.36.13.54.19c.51.15.72.5.57.92-.05.14,0,.31-.12.43S19.58,32.25,18.89,32.27Zm-.22-.4c.57.18,1.06.11,1.07-.18a4.46,4.46,0,0,1-.51.07,1.64,1.64,0,0,1-.72-.07c-.13-.08-.09-.34-.12-.5-.24.12-.17.62.19.94Z" transform="translate(0.96 1.01)"/><path d="M35.76,31.77c.3.15.32.25.08.41s-1.07.31-1.27,0c-.07-.1-.11-.3,0-.35a.87.87,0,0,0,.32-.77c0-.29,0-.58,0-.86h-.14a1.05,1.05,0,0,0-.06.24c0,.17,0,.36-.31.35s-.19-.22-.22-.36a.38.38,0,0,1,0-.15c0-.47.08-.5.67-.5.35,0,.69,0,1,0a.51.51,0,0,1,.36.24,1.2,1.2,0,0,1,.06.62c0,.08-.19.15-.29.23a.92.92,0,0,1-.22-.22,2.39,2.39,0,0,0-.18-.44,2.1,2.1,0,0,0,.25,1.58c-.69.43-.4-.22-.57-.34l-.17.65c.13,0,.26,0,.39,0C35.75,32.12,35.84,32,35.76,31.77Z" transform="translate(0.96 1.01)"/><path d="M32,30.55c0-.19,0-.35.09-.5s.09-.34.15-.35a4.29,4.29,0,0,1,.7.08c0,.09,0,.19-.08.27a6.77,6.77,0,0,0-.78.95.54.54,0,0,0,.28.67c.11.06.23.23.19.29a.67.67,0,0,1-.4.17,1.9,1.9,0,0,1-.63,0c-.31-.06-.37-.24-.14-.42.41-.33.29-.71.08-1,0-.05-.1-.11-.08-.15.09-.21-.09-.27-.28-.33l-.06,0-.25-.35a2.09,2.09,0,0,1,.59-.13c.17,0,.29.11.2.31S31.61,30.41,32,30.55Z" transform="translate(0.96 1.01)"/><path d="M38.94,29.9H38V30a3.38,3.38,0,0,1,.45,0l.36.08a2.28,2.28,0,0,0-.18.46,5.34,5.34,0,0,0,0,1c0,.1.21.19.32.29s.22.18.21.26-.15.22-.25.24a4.79,4.79,0,0,1-1.07,0c-.31,0-.4-.33-.16-.48a.84.84,0,0,0,.4-.8,3.54,3.54,0,0,1,0-.46c0-.17,0-.3-.26-.36a.28.28,0,0,1-.16-.22c0-.05.16-.13.25-.14.33,0,.67,0,1,0Z" transform="translate(0.96 1.01)"/><path d="M28.2,31.37c-.05-.06-.13-.12-.14-.18,0-.23,0-.46-.09-.68a1.31,1.31,0,0,0-.22-.42c-.15-.22-.05-.38.26-.38s.86,0,1.29,0c.16,0,.42.09.45.18a.7.7,0,0,1-.09.52c-.08.14-.25.13-.37,0s-.1-.15-.18-.17-.4-.08-.47,0-.11.27-.16.41c.12,0,.27,0,.33,0s.08-.18.11-.27l.24.14-.09.31.22.36-.1,0L29.11,31l-.22.14c-.38-.25-.45-.06-.43.27l-.23-.23,0,.2Z" transform="translate(0.96 1.01)"/><path d="M24.75,30.77c-.43-.64-.05-1.11.82-1.12a1.08,1.08,0,0,0,.18,0c.64,0,.64,0,.58.51,0,.12,0,.24,0,.36l-.35-.27a.79.79,0,0,0-1.2.18C24.69,30.53,24.74,30.65,24.75,30.77Z" transform="translate(0.96 1.01)"/><path d="M26.48,32.09l-1.22.08V32.1l.32-.18L25,31.69l0-.06.32.05c.48.08.71-.12.59-.49a1.3,1.3,0,0,1,0-.34c.26,0,.51,0,.76,0,0,0,0,.17,0,.18-.33.13-.21.36-.22.56ZM26.32,31H26.2c0,.17-.18.39.16.54Z" transform="translate(0.96 1.01)"/><path d="M28.19,31.37a2.3,2.3,0,0,0,.57.32,2.57,2.57,0,0,0,.68,0v.08h-.88c.08.29.36.22.58.24l.37,0v.09c-.52,0-1,0-1.55,0A.37.37,0,0,1,27.7,32s.05-.15.12-.2.39-.19.38-.4Z" transform="translate(0.96 1.01)"/><path d="M22.16,31.61l.72.24,0,.08-.32,0,0,.06.27.07v.08a2.11,2.11,0,0,1-.64-.09c-.1,0-.06-.26-.08-.4Z" transform="translate(0.96 1.01)"/><path class="cls-1" d="M18.67,31.87l-.09.26c-.36-.32-.43-.82-.19-.94,0,.16,0,.42.12.5a1.64,1.64,0,0,0,.72.07,4.46,4.46,0,0,0,.51-.07C19.73,32,19.24,32.05,18.67,31.87Z" transform="translate(0.96 1.01)"/><path class="cls-1" d="M35.76,31.77c.08.23,0,.35-.34.32-.13,0-.26,0-.39,0l.17-.65c.17.12-.12.77.57.34Z" transform="translate(0.96 1.01)"/><path class="cls-1" d="M26.32,31l0,.55c-.34-.15-.12-.37-.16-.54Z" transform="translate(0.96 1.01)"/><path d="M25.65,31.7c-.41.53-.82.18-1-.75l0-.2c-.12-.69-.12-.69.28-.68h.27c-.05.14-.09.28-.14.41a1.1,1.1,0,0,0,.33,1.27C25.48,31.79,25.56,31.72,25.65,31.7Z" transform="translate(0.96 1.01)"/></svg>
