<?xml version="1.0" encoding="utf-8"?>
<!-- Generator: Adobe Illustrator 23.0.3, SVG Export Plug-In . SVG Version: 6.00 Build 0)  -->
<svg version="1.1" id="Øsm" xmlns="http://www.w3.org/2000/svg" xmlns:xlink="http://www.w3.org/1999/xlink" x="0px" y="0px"
	 viewBox="0 0 1131.5 56" style="enable-background:new 0 0 1131.5 56;" xml:space="preserve">
<style type="text/css">
	.st0{fill:#B5BFBC;}
	.st1{fill:#FFFFFF;}
</style>
<title>header-dark</title>
<rect x="-1.5" y="-0.3" class="st0" width="1132.3" height="58.9"/>
<path class="st1" d="M13.2,48.5c-0.1,0.1-0.1,0.3-0.2,0.4c-0.2-0.2-0.4-0.3-0.7-0.4c-0.2,0-0.3-0.1-0.3-0.3c0-0.4-0.5-0.6-0.9-0.4
	c0,0,0,0-0.1,0c-0.3-0.1-0.7,0-1,0.1c0,0-0.1-0.1-0.1-0.1c-0.3-0.5-0.7-0.9-1-1.4c-0.4-0.7-0.8-1.3-1-2C7.4,43.2,7,42,6.7,40.7
	c-0.2-0.5-0.2-1.1-0.3-1.7c-0.1-0.3-0.1-0.7-0.2-1c0-0.3,0-0.5,0-0.8c0-0.5,0-1.1,0-1.6c0-0.5,0-1,0.1-1.6c0-0.3,0.2-0.6,0.2-0.9
	c0.1-0.5,0.2-1,0.4-1.5c0.1-0.5,0.3-0.9,0.4-1.4c0.2-0.7,0.4-1.5,0.6-2.2c0.3-0.9,0.7-1.8,1.1-2.7c0.2-0.6,0.4-1.1,0.6-1.7
	c0.4-1.1,0.8-2.2,1.3-3.3c0.1-0.3,0.2-0.6,0.4-0.9c0.2-0.4,0.4-0.7,0.5-1.1c0.4-1,0.9-2,1.3-2.9c0.2-0.4,0.5-0.8,0.7-1.2
	c0.3-0.6,0.6-1.2,0.9-1.8c0.2-0.3,0.3-0.6,0.6-0.8c0.3-0.3,0.5-0.7,0.7-1c0.9-1.3,1.7-2.7,2.6-3.9c0.5-0.7,1.1-1.4,1.9-2
	c0.3-0.2,0.6-0.2,0.9-0.2c0,0.1,0,0.1-0.1,0.2c0.2,0,0.3-0.1,0.4-0.1c0.1,0,0.2-0.1,0.3-0.2C22.1,4,22.4,4,22.7,4.1
	c0.1,0,0.1,0,0.2,0c0.1,0.1,0.1,0.2,0.3,0.2c0.2,0.1,0.3,0.1,0.6,0c-0.2,0-0.3-0.1-0.4-0.1c0.1,0,0.2-0.1,0.2-0.1
	c0.3,0,0.6,0.1,0.8,0.1c0,0,0.1,0,0.1,0c0.5,0.3,0.9,0.5,1.4,0.9c0.3,0.2,0.5,0.5,0.7,0.8c0.3,0.4,0.5,0.8,0.8,1.1
	c0.6,0.8,1.2,1.5,1.6,2.3c0.1,0.3,0.3,0.5,0.4,0.7c0.6,1.2,1.2,2.4,1.9,3.5c0.2,0.4,0.5,0.9,0.7,1.3c-0.2,0-0.4-0.1-0.6-0.1
	c-0.1,0-0.1,0-0.2-0.1c-0.1-0.2-0.3-0.3-0.6-0.3c-0.3,0-0.3,0-0.3,0.2c0,0.1,0,0.1-0.1,0.2c0-0.1,0-0.2-0.1-0.3
	c0-0.1-0.1-0.1-0.2-0.1c0,0.2,0,0.3,0,0.4c-0.1,0-0.2,0-0.3,0c0.2,0.3,0.2,0.3,0.3,0.2c0.1,0,0.3,0.1,0.4,0.1
	c0.1,0.3,0.4,0.4,0.8,0.4c0.2,0,0.5,0,0.7,0c0.3,0,0.3,0,0.2-0.3c0,0,0-0.1,0-0.1c0.1,0.1,0.1,0.2,0.2,0.3c0.4,0.7,0.8,1.3,1.1,2
	c0.3,0.6,0.5,1.1,0.7,1.7c0.2,0.4,0.4,0.8,0.6,1.2c0.2,0.5,0.4,1,0.7,1.5c0.3,0.7,0.7,1.3,1,1.9c0.4,0.9,0.8,1.7,1.2,2.6
	c0.2,0.5,0.3,0.9,0.5,1.4c0.3,0.9,0.6,1.7,0.9,2.6c0.1,0.5,0.2,0.9,0.3,1.4c0.2,0.9,0.3,1.8,0.4,2.6c0.1,0.4,0,0.8,0.1,1.2
	c0,0.5,0.1,1.1,0.1,1.6c0,0.2-0.1,0.3-0.1,0.5c0,0.5-0.1,0.9-0.1,1.4c0,0.5-0.1,1.1-0.1,1.6c0,0.2-0.1,0.3-0.2,0.4
	c-0.2,0.6-0.3,1.3-0.5,1.9c-0.1,0.4-0.3,0.9-0.4,1.3c-0.1,0.2-0.2,0.3-0.3,0.5c-0.2,0.4-0.3,0.8-0.5,1.2c-0.1,0.3-0.3,0.6-0.5,0.8
	c-0.3,0.3-0.6,0.7-0.8,1.1c-0.5,0.8-1,1.5-1.8,2.1c-0.4,0.3-0.8,0.5-1.2,0.8c-0.5,0.4-1,0.7-1.6,1.1c-0.2,0.2-0.5,0.3-0.8,0.4
	c-0.6,0.3-1.3,0.5-1.9,0.8c-0.2,0.1-0.4,0.1-0.6,0.1c-0.5,0.1-1,0.2-1.5,0.3c-0.5,0.1-1.1,0.2-1.6,0.3c-0.5,0-1.1,0-1.6,0
	c-0.3,0-0.6,0-0.9,0c-0.1,0-0.2,0-0.3,0c-0.6,0-1.3-0.1-1.9-0.1c-0.8-0.1-1.7-0.3-2.4-0.6c-0.8-0.3-1.6-0.6-2.3-0.9
	c-0.7-0.3-1.4-0.6-2-1.1c-0.2-0.1-0.4-0.2-0.5-0.4c-0.2-0.1-0.2-0.7,0-0.9c0.2-0.1,0.1-0.2,0.1-0.3c0-0.2-0.2-0.3,0.1-0.5
	C13.4,49,13.3,48.7,13.2,48.5z M32.3,48c0,0-0.1,0-0.1,0.1c0,0.1,0,0.2,0,0.3c0.1,0,0.2-0.1,0.3-0.1c-0.1,0-0.1-0.1-0.2-0.1
	c0.1,0,0.1-0.1,0.2-0.1c-0.1,0-0.2,0-0.3,0C32.2,48,32.3,48,32.3,48c0.1,0,0.1,0,0.2,0c-0.1-0.1-0.2-0.3-0.5-0.2
	C32.1,47.8,32.2,47.9,32.3,48z M33.4,47.2c-0.1,0-0.1,0-0.2,0c0.1,0.2,0.2,0.3,0.2,0.5c0,0,0.1,0,0.1,0c0-0.1,0-0.2,0-0.2
	C33.4,47.4,33.4,47.3,33.4,47.2c0,0,0.1,0,0.1,0c0,0.1,0,0.1,0,0.2c0.1,0,0.1-0.1,0.2-0.1c0,0.1,0,0.1,0,0.2c0.1,0,0.1-0.1,0.2-0.1
	c0.2,0.2,0.3,0.3,0.5,0.5c0,0,0,0.1,0,0.1c0,0.3,0,0.4,0.3,0.4c0.2-0.2,0.2-0.6,0.6-0.8c-0.2-0.2-0.2-0.5-0.1-0.7
	c-0.1,0-0.2,0-0.2-0.1c-0.3-0.2-0.5-0.1-0.6,0.2c-0.1,0.2-0.2,0.3-0.4,0.3c-0.1-0.2-0.2-0.3-0.2-0.4C33.5,47,33.5,47.1,33.4,47.2z
	 M32.7,47.9c-0.1-0.1-0.2-0.2-0.3-0.3c0,0.1-0.1,0.2,0,0.3C32.5,47.8,32.6,47.8,32.7,47.9c0,0.1-0.1,0.1-0.1,0.2
	c0,0.1,0.1,0.2,0.1,0.3c0,0.1-0.1,0.2-0.1,0.3c0,0,0,0,0.1,0c0-0.1,0.1-0.2,0.1-0.2c0,0,0,0.1,0.1,0.1c0-0.1,0.1-0.2,0-0.2
	C32.8,48.1,32.8,48,32.7,47.9z M32.9,46.8c-0.1,0-0.2,0-0.3,0c0.4,0.1,0,0.4,0.2,0.6c0-0.1,0.1-0.2,0.1-0.4c0,0,0,0-0.1,0
	c0.1-0.1,0.1-0.1,0.1-0.1c0.1,0,0.2,0.1,0.2,0.1c0,0,0,0,0,0c-0.1-0.1-0.1-0.1-0.1-0.1c0.1-0.1,0.2-0.2,0.2-0.3c0,0,0,0,0,0
	C33.1,46.6,33,46.7,32.9,46.8c0-0.1-0.1-0.1-0.1-0.2c-0.1-0.1-0.2-0.1-0.2-0.1c-0.2,0.2-0.2,0-0.2-0.1c0-0.1-0.1-0.2-0.1-0.2
	c0,0,0,0,0,0c0.1,0.1,0.1,0.3,0.2,0.4C32.5,46.6,32.7,46.7,32.9,46.8z M33.3,48.4c0-0.2-0.2-0.3-0.3-0.5c0,0,0,0-0.1,0.1
	C33,48,33,48,33.1,48.1c0,0-0.1,0.1-0.1,0.1C33.1,48.3,33.2,48.3,33.3,48.4c-0.1,0.1-0.2,0.1-0.4,0.2c0.3,0.1,0.6-0.1,0.8-0.2
	c0-0.2-0.1-0.4-0.1-0.6c0,0-0.2,0.1-0.2,0.1c0,0.1,0.1,0.3,0.1,0.4C33.5,48.3,33.4,48.3,33.3,48.4z M37.8,39.6
	c-0.3-0.1,0.1-0.2,0-0.3c-0.1,0-0.2,0.1-0.2,0.1c-0.2-0.1-0.3,0-0.4,0.1c0,0,0,0,0,0.1c0.1,0,0.2-0.1,0.2-0.1c0,0.1,0.1,0.2,0.1,0.3
	c-0.1,0-0.2-0.1-0.3-0.1c0,0,0,0,0,0c0.2,0.2,0.4,0.3,0.6,0.5c0,0,0.1,0,0.1-0.1c0,0-0.1-0.1-0.1-0.1C37.7,39.9,37.7,39.7,37.8,39.6
	c0,0.1,0.1,0.2,0.1,0.2c0,0,0.1,0,0.1,0c0-0.1,0-0.1-0.1-0.2c0.1,0,0.1,0,0.2,0.1c0-0.1-0.1-0.2-0.1-0.4
	C38,39.4,37.9,39.5,37.8,39.6z M36.4,38.9c-0.1,0.1-0.2,0.1-0.3,0.2c0-0.1,0-0.1,0-0.2c-0.1,0.1-0.2,0.1-0.4,0.2c0.2,0,0.3,0,0.4,0
	c0,0,0,0,0,0c-0.1,0-0.2,0.1-0.3,0.1c-0.1-0.1-0.2-0.1-0.3-0.2c0,0,0,0,0,0c0,0,0.1,0.1,0.1,0.1c-0.2,0-0.3,0.1-0.2,0.2
	c0.1,0.1,0.3,0.1,0.4,0c0.2-0.1,0.4-0.2,0.6,0c0,0-0.4,0-0.4,0c0.1,0,0.2,0,0.2,0c0.2,0.1,0.3,0.1,0.3-0.1c-0.1,0-0.3-0.1-0.4-0.1
	c0,0,0,0,0,0c0.1,0,0.1,0,0.1,0C36.4,39.1,36.4,39,36.4,38.9c0,0,0.1,0.1,0.1,0.1c0,0,0,0,0,0c0-0.1-0.1-0.2-0.1-0.3
	c0.1,0,0.2,0,0.2,0c-0.1,0-0.2-0.1-0.3-0.2C36.4,38.7,36.4,38.8,36.4,38.9z M35,24.9c0-0.1,0-0.2,0-0.2c-0.1,0-0.2,0-0.3-0.1
	c0,0.2,0,0.4-0.1,0.6c-0.1,0-0.1-0.1-0.2-0.1c0.1-0.3,0.1-0.5,0.2-0.8c-0.1,0.1-0.1,0.1-0.2,0.1c0,0,0,0,0,0c0,0,0,0,0,0
	c0.1-0.2,0.1-0.3-0.1-0.5c0,0.2-0.1,0.4-0.1,0.6c0.1-0.1,0.2-0.1,0.2-0.1c-0.2,0.4-0.3,0-0.4,0c0,0.1,0.1,0.2,0.1,0.3
	c0.1,0,0.2,0,0.2,0c0,0.1-0.1,0.2-0.1,0.2c-0.1,0-0.2,0-0.3,0c0.1,0.1,0.2,0.1,0.2,0.1c-0.1,0-0.2,0.1-0.3,0.1c0,0,0,0,0,0
	c0.1,0,0.2,0,0.2,0c0,0.1-0.1,0.2-0.1,0.3c0.1-0.1,0.3-0.1,0.4-0.2c-0.1,0.4-0.1,0.4-0.3,0.3c0,0.2,0,0.4,0,0.5
	c-0.1,0.1-0.1,0.2-0.2,0.3c0.1,0.1,0.2,0.1,0.3,0.2c-0.5,0.3-0.1,0.5,0.1,0.7c0,0,0,0,0,0c-0.2-0.1-0.3-0.2-0.5-0.3c0,0,0,0,0,0
	c0.1,0,0.1,0,0.2,0c0,0,0-0.1,0-0.1c-0.2,0-0.3,0.1-0.4,0.1c0.2,0.2,0.4,0.3,0.6,0.5c0.1,0,0.2-0.1,0.3-0.1c0,0.1,0,0.1,0,0.2
	c0,0,0,0.1,0.1,0.2c0.1-0.1,0.1-0.2,0.2-0.3c0,0,0.1,0,0.2,0c-0.1,0.1-0.1,0.2-0.1,0.2c0.1,0.1,0.1,0.1,0.1,0.2
	c0.2-0.5,0.2-0.5,0.4-0.6c0.1,0.1,0.1,0.2,0.1,0.2c0.1-0.2,0.2-0.3,0.4-0.4c0.1-0.1,0.3-0.1,0.4-0.2c0.1-0.1,0.1-0.2,0.1-0.3
	c-0.1,0-0.1,0-0.1,0c0-0.1,0.1-0.2-0.1-0.3c0,0,0-0.1,0-0.2c0-0.1,0.1-0.3,0.1-0.4c0,0-0.1,0-0.1,0c-0.1,0.2-0.1,0.5-0.2,0.7
	c0,0-0.1,0-0.1,0c0-0.2-0.2-0.3-0.4-0.3c0,0,0,0.1-0.1,0.1c-0.1-0.1-0.1-0.2,0-0.3c0.1,0,0.1-0.1,0-0.2c0-0.1,0-0.2,0-0.2
	c-0.1-0.2-0.2-0.2-0.4-0.1C35.1,25.1,35.1,25,35,24.9c0.1,0.1,0.2,0.1,0.2,0.2c0-0.1,0.1-0.3,0.1-0.3c0.2,0.1,0.3,0.1,0.5,0.2
	c-0.1-0.1-0.1-0.1-0.1-0.2c0,0,0-0.1,0-0.2c-0.1,0.1-0.1,0.1-0.1,0.2c-0.1-0.1-0.1-0.1-0.2-0.2c0,0,0.1-0.1,0.1-0.1c0,0,0-0.1,0-0.1
	c-0.1,0-0.2,0-0.3,0c0,0-0.1-0.1-0.1-0.1c0-0.1,0-0.1,0.1-0.2c-0.3,0.2-0.3,0.3-0.1,0.4c0,0.1-0.1,0.1-0.2,0.2c0.1,0,0.1,0,0.2-0.1
	C35.2,24.7,35.2,24.9,35,24.9z M30.8,22.6c0-0.1,0-0.1,0-0.2c-0.1,0-0.3,0-0.4,0c-0.1,0-0.4,0.1-0.2-0.2c0,0-0.1-0.1-0.1-0.1
	c0,0,0,0,0,0c0,0.1,0,0.1,0,0.2c0-0.1-0.1-0.1-0.1-0.2c-0.1,0.1-0.1,0.2-0.1,0.3c0.1,0,0.1,0,0.2,0c-0.1,0.1-0.2,0.1-0.3,0.2
	c0,0,0-0.1,0-0.1c0-0.1,0.1-0.2,0.1-0.3c0.1-0.3,0.3-0.4,0.6-0.2c0,0,0.1,0,0.1,0c-0.1-0.2-0.1-0.5-0.2-0.7
	c-0.1,0.1-0.1,0.1-0.2,0.1c0-0.1,0-0.1,0.1-0.2c0,0,0,0-0.1,0c-0.1,0.1-0.1,0.1-0.2,0.2c-0.2-0.1-0.3-0.2-0.5-0.2
	c0,0,0.1-0.1,0.1-0.1c0,0,0,0-0.1,0c0,0.1-0.1,0.1-0.1,0.2c-0.1,0.1-0.2,0.3-0.3,0.4c-0.1,0.1-0.3,0.1-0.1,0.3c0,0-0.1,0.1-0.1,0.1
	c-0.1,0-0.2,0-0.3,0.1c-0.2,0.1-0.3,0.2-0.4,0.3c0,0,0,0.1,0,0.1c0.3-0.1,0.6-0.1,0.6,0.3c-0.1,0-0.2,0-0.3,0
	c0.2,0.2,0.5,0.3,0.7,0.1c0,0,0,0,0,0C29,23,28.9,23,28.9,23.1c0,0,0,0.1,0,0.1c0.2,0.1,0.3,0.1,0.3,0.2c0.2-0.1,0.3-0.2,0.5-0.3
	l0,0c-0.1,0.2-0.2,0.3-0.3,0.4c0,0,0.1,0,0.1,0c0,0.1,0,0.1,0,0.2c0.1,0,0.1-0.1,0.2-0.1c0-0.1-0.1-0.1-0.1-0.2c0,0,0.1,0,0.1-0.1
	c0.1,0.1,0.2,0.2,0.4,0.3c0,0,0,0.1-0.1,0.1c-0.1,0-0.1,0-0.2-0.1c0,0.3,0.2,0.5,0.5,0.5c-0.1,0-0.2,0-0.3,0.1c0,0-0.1,0.1-0.1,0.1
	c0,0,0.1,0.1,0.1,0.1c0.1,0,0.2,0,0.3,0c0,0,0,0.1,0,0.1c-0.1,0-0.2,0-0.4,0c0.2,0.1,0.4,0.2,0.6,0.4c0,0-0.1,0.1-0.1,0.1
	c0.1,0.1,0.2,0.1,0.3,0c0.1-0.1,0.2-0.2,0.4-0.2c0,0,0.1,0,0.2-0.1c-0.2,0-0.4-0.1-0.5-0.1c0,0,0,0,0-0.1c0.3,0,0.9-0.3,1-0.5
	c-0.2,0-0.3,0.1-0.4,0.1c0.2-0.1,0.2-0.2,0.1-0.4c-0.1,0.1-0.1,0.2-0.2,0.3c-0.1,0-0.1-0.1-0.1-0.1c0,0,0,0,0.1-0.1
	c0.1,0,0.1-0.1,0.2-0.1c-0.1-0.1-0.1-0.1-0.2-0.2c0.1,0,0.1,0,0.2,0c0,0.1,0,0.1,0,0.1c0.2,0,0.3-0.1,0.4-0.1c0,0.2-0.4,0.1-0.3,0.4
	c0.1,0,0.1-0.1,0.2-0.1c0,0.2,0,0.3,0.1,0.5c0.3-0.1,0-0.4,0.1-0.6c0.1,0.1,0.2,0.3,0.2,0.4c0.1,0,0.2-0.1,0.2-0.1c0,0,0,0-0.1,0
	c0.1-0.2,0.1-0.3,0.2-0.5c0,0,0,0,0.1,0c0,0.2-0.1,0.5-0.1,0.7c-0.1,0-0.2-0.1-0.3-0.1c0,0-0.1,0.1-0.1,0.2c0.1,0,0.2,0.1,0.3,0.1
	c0-0.1,0.1-0.1,0.1-0.2c0.1,0,0.1-0.1,0.2-0.2c0,0.1,0,0.1,0,0.2c0,0,0,0.1-0.1,0.2c0.5-0.3,0.5-0.3,0.6-0.2c0-0.2-0.1-0.3-0.1-0.5
	c0.1,0.1,0.2,0.2,0.3,0.3c0,0,0.1,0,0.1,0c-0.1-0.1-0.1-0.2-0.2-0.4c0.1,0,0.2,0,0.3,0c0.1-0.1,0.1-0.3,0.3-0.2
	c0.1-0.1,0.2-0.2,0.3-0.4c0,0.1,0,0.2,0.1,0.3c-0.1,0.1-0.1,0.1-0.2,0.1c0,0,0,0,0.1,0.1c0.1-0.1,0.2-0.2,0.3-0.3c0,0.2,0,0.3,0,0.5
	c0.1-0.1,0.1-0.1,0.1-0.2c0-0.2,0-0.4-0.1-0.5c-0.1-0.1-0.1-0.1,0-0.2c0,0,0-0.1,0.1-0.2C34.4,23,34.3,23,34.3,23
	c0-0.2,0.1-0.4,0.1-0.5c0,0-0.1-0.1-0.2-0.1c0.1-0.1,0.2-0.1,0.3-0.1c0-0.1-0.1-0.2-0.1-0.3c0,0,0,0,0.1,0c0.1,0.1,0.1,0.1,0.2,0.2
	c0-0.2-0.2-0.4-0.4-0.3c0,0,0.1,0.1,0.1,0.1c-0.1,0-0.2,0-0.2,0c0-0.1,0-0.2,0-0.3c-0.1,0-0.1-0.1-0.2-0.1c-0.3,0-0.4-0.1-0.2-0.3
	c0,0-0.1-0.1-0.1-0.2c0,0-0.1,0-0.1,0c0,0.2,0,0.3,0.1,0.5l0,0c-0.1,0-0.2,0-0.3,0c0.1-0.1,0.1-0.3,0.1-0.4
	c-0.1-0.2-0.2-0.4-0.3-0.6c-0.1,0.1-0.1,0.2-0.2,0.2c0,0,0,0,0,0c0,0,0.1-0.1,0.1-0.1c0,0.2,0,0.2-0.2,0.2c0,0.1-0.1,0.2-0.1,0.3
	c0,0,0.1,0,0.1,0.1c-0.1,0-0.1,0.1-0.2,0.1c0.1,0.1,0.3,0.2,0.4,0.4c0,0,0,0,0.1-0.1c0,0,0-0.1-0.1-0.1c0,0,0,0,0.1,0
	c0.1,0.1,0.1,0.2,0.2,0.3c-0.2,0-0.4,0-0.5,0c-0.1-0.1-0.1-0.3-0.2-0.4c-0.1,0.2-0.1,0.3-0.2,0.4c-0.1,0-0.1-0.1-0.2-0.2
	c0.1,0,0.1,0,0.2,0c0-0.2,0-0.4-0.1-0.6c-0.1,0.1-0.2,0.1-0.3,0.2c0.1-0.1,0.2-0.2,0.3-0.4c-0.1,0-0.2,0-0.2,0c-0.1,0-0.1,0-0.1,0.1
	c0,0.3-0.2,0.2-0.4,0.1c0,0.1,0.1,0.1,0.1,0.2c0,0.1-0.1,0.2-0.1,0.3c0,0-0.1-0.1-0.1-0.1c0,0.1,0,0.2,0.1,0.3c0,0,0,0,0,0
	c0-0.1-0.1-0.2-0.1-0.3c0,0,0,0-0.1,0c0,0.2,0,0.3,0,0.5c0,0,0,0,0.1,0c0,0-0.1,0.1-0.1,0.1c0,0,0.1,0,0.2,0.1c-0.1,0-0.2,0-0.2,0
	c-0.1-0.1-0.1-0.2-0.2-0.3c-0.1,0.1-0.2,0.3-0.4,0.4c0,0,0,0,0,0c0,0,0.1-0.1,0.1-0.1c0,0.2,0,0.4,0.1,0.6c0,0-0.1-0.1-0.1-0.1
	C30.8,22.7,30.8,22.7,30.8,22.6z M28.3,42.8c0.5,0,1,0,1.4,0c0,0,0,0.1,0,0.2c0.2,0,0.5,0,0.7,0c0,0-0.1,0.1-0.2,0.2c0,0,0,0,0,0
	c0.1-0.1,0.3-0.1,0.4-0.2c0,0,0,0.1,0,0.1c0.3,0,0.5-0.1,0.8-0.1c0.3,0,0.5-0.1,0.8-0.1c0,0.1,0,0.2,0,0.3c0,0.1,0,0.3,0,0.4
	c0,0.4,0,0.8,0.4,1c0.1,0.1,0.1,0.1,0.2,0.2c0.3,0.2,0.6,0.3,0.9,0.5c0.1,0,0.2,0.1,0.2,0.2c0,0.2,0,0.4,0,0.6c0,0,0.1,0.1,0.1,0.1
	c0-0.1,0-0.2,0-0.2c0,0,0,0,0.1,0c0.1,0.1,0.1,0.2,0.2,0.4c0.1,0,0.2-0.1,0.4-0.1c0,0.1,0,0.2,0,0.3c0.1,0,0.2,0,0.2,0
	c0,0-0.1,0.1-0.1,0.1c0.1,0.1,0.1,0.2,0.2,0.3c0,0,0.1,0,0.1-0.1c0.1-0.1,0.2-0.2,0-0.2c0,0.1-0.1,0.1-0.1,0.2
	c0-0.1-0.1-0.1-0.1-0.2c0.2-0.1,0.3-0.3,0.5-0.4c0.3-0.1,0.4-0.2,0.4-0.5c0-0.1,0-0.3,0-0.4c0,0,0,0,0.1,0c0,0.1,0.1,0.2,0.1,0.4
	c0-0.1,0-0.2,0.1-0.3c0.1-0.2,0.2-0.3,0.3-0.5c0.1-0.2,0.2-0.5-0.1-0.7c-0.3-0.3-0.3-0.6-0.1-0.8c0.2-0.4,0.3-0.8,0.3-1.2
	c0-0.3,0-0.6-0.4-0.8c-0.5-0.3-0.7-0.3-1,0.1c-0.1,0.1-0.1,0.2-0.1,0.3c-0.1,0.2-0.2,0.4-0.1,0.6c0.1,0.2,0,0.4-0.1,0.6
	c-0.1,0.2-0.3,0.4-0.1,0.6C34.7,44.1,34,44.3,34,45c-0.2-0.1-0.4-0.1-0.6-0.2c0,0-0.1,0-0.1-0.1c-0.1-0.1-0.3-0.3-0.4-0.3
	c-0.2-0.1-0.2-0.2-0.3-0.4c0-0.3,0.1-0.6,0.3-0.8c0,0,0.1-0.1,0.2-0.1c0.2,0.1,0.5,0.2,0.8,0.2c0,0,0,0,0.1,0c0.1,0.1,0.2,0.1,0.3,0
	c0,0-0.1-0.2-0.1-0.3c-0.2-0.1-0.4-0.2-0.5-0.3c-0.2-0.1-0.2-0.2-0.1-0.3c0.1,0,0.1-0.1,0.1-0.2c0.2-0.5,0.4-0.9,0.6-1.4
	c0-0.1,0.1-0.1,0.2-0.2c0.3-0.3,0.5-0.7,0.8-1c0.1-0.1,0.2-0.1,0.3-0.2c0,0-0.1-0.1-0.1-0.2c-0.1,0.1-0.1,0.1-0.1,0.2
	c0-0.1-0.1-0.1-0.1-0.2c0,0,0,0,0,0c-0.1,0-0.1-0.1-0.2-0.2c0.2,0,0.4,0,0.5,0c0.3-0.1,0.3-0.1,0.4-0.2c-0.1,0-0.2,0.1-0.3,0.1
	c-0.2-0.1-0.2-0.2,0-0.3c-0.2-0.1-0.2,0.4-0.5,0.1c0,0.1,0,0.1,0,0.2c0,0,0,0-0.1,0c-0.3-0.3-0.6-0.6-0.9-0.9c0,0-0.1-0.1-0.1-0.1
	c0-0.4,0-0.7,0-1.1c0-0.5,0.1-0.8,0.4-1.2c0.2-0.2,0.4-0.6,0.6-0.8c0.1-0.1,0.2-0.2,0.1-0.4c-0.2-0.5-0.4-1-0.6-1.4
	c-0.3-0.7-0.5-1.3-1-1.9c-0.2-0.2-0.3-0.5-0.6-0.7c-0.3-0.2-0.4-0.4-0.4-0.7c0-0.1,0-0.1,0-0.2c-0.1-0.8-0.5-1.5-0.3-2.3
	c0.1-0.4-0.3-0.8-0.6-0.9c-0.5-0.2-1-0.4-1.6-0.3c0,0-0.1,0-0.1,0c-0.3-0.2-0.5-0.4-0.8-0.7c-0.2-0.2-0.3-0.4-0.4-0.6
	c0-0.2-0.2-0.3-0.4-0.3c-0.1,0-0.2,0-0.3,0c-0.6,0-1.2-0.1-1.8-0.2c-0.1,0-0.2,0-0.3,0c-0.2,0.1-0.2,0-0.3-0.1
	c-0.3-0.3-0.5-0.6-0.8-0.9c-0.1-0.2-0.2-0.4-0.3-0.6c-0.1-0.1-0.1-0.3-0.2-0.4c-0.1-0.2-0.3-0.4-0.2-0.5c0.1-0.2,0.2-0.4,0.4-0.5
	c0.3-0.1,0.4-0.5,0.3-0.6c-0.1,0.1-0.3,0.2-0.4,0.3c-0.2,0.1-0.4,0.3-0.6,0.4c-0.1,0.1-0.2,0.2-0.2,0.3c-0.2,0.4-0.3,0.9-0.5,1.3
	c-0.1,0.2-0.2,0.4-0.3,0.6c-0.1,0.1-0.2,0.2-0.2,0.3c-0.2,0.3-0.4,0.4-0.7,0.3c-0.2,0-0.3,0-0.4,0.1c-0.1,0.1-0.2,0.2-0.3,0.4
	c-0.1,0.2-0.3,0.3-0.5,0.3C20,25,19,25.2,18.1,25.3c-0.1,0-0.3,0.1-0.4,0.2c-0.2,0.3-0.4,0.6-0.6,1c-0.2,0.4-0.5,0.8-0.7,1.3
	c0,0.1-0.1,0.1-0.1,0.2c0,0.2-0.1,0.3-0.3,0.3c-0.5,0.1-1.1,0.3-1.6,0.4c-0.7,0.2-1.3,0.4-2,0.6c-0.1,0-0.2,0.1-0.2,0.2
	c-0.2,0.4-0.3,0.9-0.5,1.3c-0.2,0.5-0.6,1-1,1.4c-0.2,0.3-0.5,0.6-0.6,0.9c-0.1,0.4-0.3,0.4-0.6,0.5c-0.1,0.1-0.3,0-0.5,0
	c-0.1,0-0.2,0-0.3,0.1c0.2,0.2,0.4,0.2,0.5,0.1c0.2,0,0.3,0.1,0.4,0.1c-0.5,0.4-1.1,0.2-1.7,0.3c0,0.1,0,0.1,0,0.1
	c0.5,0,1,0,1.5,0.1c0.1,0,0.1,0,0.2-0.1c-0.1-0.2,0.5-0.9,0.7-1c0.1,0.1,0.3,0.2,0.4,0.3c0.1,0.1,0.2,0.2,0.2,0.3
	c0.2,0.4,0.4,0.9,0.4,1.4c0,0.5,0,1,0.1,1.5c0,0.1,0,0.2,0.1,0.2c0.2,0.2,0.4,0.4,0.7,0.6c0.2,0.2,0.4,0.3,0.6,0.5
	c0.2,0.2,0.5,0.4,0.7,0.7c0.3,0.2,0.5,0.4,0.8,0.6c0.1,0.1,0.3,0,0.4,0c0.1,0,0.3,0,0.4-0.1c0.7-0.1,1.2,0.2,1.8,0.5
	c0.2,0.1,0.4,0.2,0.5,0.4c0.2,0.3,0.6,0.4,0.9,0.3c0.8-0.2,1.7-0.4,2.5-0.8c0.7-0.4,0.8-0.4,1.5,0.1c0,0,0.1,0,0.1,0.1
	c0.6,0.4,1.3,0.8,1.9,1.3c0.1,0,0.1,0.2,0.1,0.3c0,0.2-0.1,0.4-0.2,0.6c0,0.1-0.1,0.1-0.2,0.2c-0.1,0.1-0.3,0.2-0.4,0.3
	c0,0,0,0.1,0,0.1c0,0,0.1,0,0.1,0c0.3,0,0.6-0.4,0.7-0.6c0.1-0.3,0.2-0.6,0.5-0.8c0.6-0.5,1.1-1,1.7-1.4c0,0,0.1-0.1,0.1-0.1
	c0.1-0.2,0.2-0.2,0.4-0.2c0.1,0,0.2,0,0.3,0c0.3,0,0.7,0,1,0c0,0,0,0,0,0c-0.2,0-0.4,0.1-0.6,0.1c0,0,0,0.1,0,0.1c0.1,0,0.1,0,0.2,0
	c0.5-0.1,1-0.1,1.5-0.2c0.5-0.1,1-0.2,1.6-0.3c0.3,0,0.4-0.2,0.5-0.4c0.2-0.4,0.4-0.8,0.5-1.2c0.1-0.2,0.2-0.4,0.5-0.6
	c0.2-0.1,0.2-0.1,0.3,0.1c0.3,0.5,0.6,1,1,1.4c0,0,0.1,0.1,0.1,0.1c0.1,0.2,0.2,0.4,0.3,0.5c0.1,0.1,0.1,0.3,0,0.4
	c-0.1,0.2-0.2,0.4-0.4,0.6c-0.5,0.5-0.6,1.2-0.9,1.8c-0.1,0.2-0.4,0.5-0.5,0.5c-0.3,0-0.6,0.1-0.9,0.1c-0.1,0-0.3,0.1-0.4,0.1
	c-0.4,0-0.8-0.1-1.1-0.1c0-0.4,0-0.4-0.3-0.7c-0.1-0.1-0.2-0.2-0.3-0.3c0-0.1,0.1-0.1,0.1-0.2c0,0,0,0,0-0.1c-0.2,0-0.3,0-0.5,0.1
	c-0.2,0.1-0.3,0.2-0.4,0.4c0.2,0.2,0.3,0.3,0.4,0.4c0.1,0.1,0.1,0.2,0.1,0.3c-0.1,0-0.2,0.1-0.3,0.1c-0.3,0-0.6,0.1-0.8,0
	c-0.2-0.1-0.3-0.4-0.4-0.7c-0.1-0.4-0.3-0.7-0.4-1.1c-0.1-0.3-0.2-0.6-0.3-1c-0.1,0.1-0.1,0.1-0.1,0.1c0,0.3,0,0.6,0,0.9
	c0,0.1,0,0.3,0.1,0.4c0.2,0.3,0.4,0.7,0.6,1c0.1,0.2,0.2,0.4,0.2,0.5c0.1,0.2,0,0.3,0.1,0.5c0.2,0.3,0.1,0.5-0.2,0.7
	c-0.3,0.1-0.6,0.2-0.9,0.4c-0.1,0.1-0.3,0.2-0.3,0.3c-0.3,0.3-0.5,0.5-0.5,1c0,0,0,0.1,0,0.1c-0.1,0.6-0.2,1.2-0.4,1.8
	c-0.1,0.5-0.3,1-1,1.1c-0.4,0.1-0.8,0.1-1.1,0.2c-0.1,0-0.1,0-0.2,0c-0.2-0.3-0.4-0.7-0.4-1c-0.1-0.5-0.2-1-0.5-1.5
	c-0.1-0.2-0.3-0.4-0.4-0.6c-0.2-0.2-0.5-0.4-0.9-0.2c-0.3,0.1-0.6,0.4-0.8,0.6c-0.4,0.3-0.7,0.6-1.1,0.9c-0.3,0.3-0.7,0.5-1,0.8
	c-0.4,0.2-0.6,0.2-0.7-0.2c0,0,0,0,0-0.1c0.1-0.1,0.2-0.1,0.4-0.2c-0.2,0-0.4-0.1-0.5-0.1c-0.2,0-0.3,0.2-0.4,0.4
	c0,0.3,0.5,0.8,0.8,0.8c0,0,0.1,0,0.1,0c0.2-0.1,0.4-0.2,0.6-0.4c0.2-0.2,0.5-0.4,0.7-0.6c0.1-0.1,0.2-0.1,0.3-0.1
	c0.2-0.2,0.4-0.5,0.7-0.7c0.3-0.3,0.5-0.6,1-0.7c0.4-0.1,0.5-0.1,0.7,0.3c0.3,0.6,0.5,1.2,0.7,1.8c0.2,0.4,0.4,0.8,0.5,1.2
	c-0.1,0-0.3,0-0.5,0c-0.4,0-0.8,0.1-1,0.5c-0.1,0.2-0.3,0.4-0.4,0.5c-0.1,0.2-0.2,0.4-0.3,0.6c-0.1,0.2-0.2,0.5-0.2,0.7
	c-0.1,0.5-0.2,0.9-0.4,1.4c-0.1,0.3-0.2,0.5-0.1,0.9c0.1-0.2,0.3-0.3,0.3-0.5c0.2-0.7,0.4-1.4,0.7-2.1c0.1-0.4,0.3-0.8,0.5-1.2
	c0.1-0.2,0.3-0.4,0.5-0.5c0.3-0.1,0.7-0.2,1.1-0.2c0,0.2,0.1,0.3,0.3,0.4c0.4,0.2,0.7,0.3,1.1,0.4c0.1,0,0.1,0.1,0.2,0.2
	c0,0,0,0,0.1,0c0,0,0-0.1,0-0.1c0.1,0,0.2,0,0.3,0.1c0.1,0,0.2,0.1,0.3,0.1c0.2,0,0.3,0.1,0.4,0.3c0,0.2,0,0.4,0,0.5
	c0,0-0.1,0.1-0.1,0.1c-0.3,0.1-0.6,0.2-0.9,0.3c0,0-0.1,0-0.2,0c-0.2-0.1-0.4-0.3-0.7-0.4C24,51,23.8,51,23.6,50.9
	c-0.1,0-0.2,0-0.2,0c-0.2,0.1-0.4,0.2-0.7,0.3c0.1,0.1,0.1,0.2-0.1,0.3c0,0-0.1,0.1-0.1,0.1c-0.3,0.5-0.5,1.1-1,1.5
	c-0.1,0.1-0.2,0.3-0.3,0.5c0,0,0,0,0.1,0.1c0.1-0.1,0.2-0.1,0.2-0.2c0.1-0.2,0.3-0.2,0.5-0.2c0.6,0.2,1.2,0.2,1.9,0.1
	c0.4-0.1,0.7-0.1,1.1-0.1c0.3,0,0.6-0.1,0.9-0.1c0.1,0,0.2-0.1,0.2-0.1c0.8-0.1,1.5-0.2,2.3-0.3c0.4-0.1,0.9-0.1,1.2-0.4
	c0.2-0.2,0.5-0.2,0.8-0.3c0.1-0.1,0.3-0.1,0.4-0.2c0.2-0.3,0.5-0.5,0.8-0.8c0.3-0.3,0.5-0.8,0.4-1.2c-0.1-0.2-0.1-0.3,0-0.5
	c0.1-0.2,0.2-0.4,0.3-0.6c0-0.1,0-0.2,0.1-0.3c0,0-0.1,0-0.1,0c-0.2,0.2-0.3,0.5-0.5,0.7c-0.1-0.2,0-0.4-0.1-0.5
	c-0.1-0.4-0.3-0.8-0.5-1.3c-0.1-0.2,0-0.3,0.2-0.3c0.2-0.1,0.3-0.2,0.2-0.4c-0.1,0-0.3,0-0.4-0.1c0,0,0,0,0,0.1
	c0.1,0.1,0.2,0.1,0.3,0.2c-0.1,0.1-0.3,0.1-0.4,0.2c-0.2-0.1,0.1-0.4-0.3-0.5c0,0.1,0,0.2,0,0.3c0.1,0.2,0,0.3-0.2,0.4
	c-0.2,0.1-0.5,0.2-0.7,0.3c0,0,0,0-0.1,0c0-0.1,0.1-0.3,0.1-0.4c-0.1,0-0.1,0-0.1,0c0,0.1-0.1,0.1-0.1,0.2c-0.1,0.2-0.2,0.4-0.5,0.5
	c-0.1,0-0.2,0.1-0.3,0.1c0.1,0,0.2,0,0.2,0c0.2,0,0.3,0,0.5-0.1c0.4-0.1,0.7-0.3,1.1-0.4c0.1,0,0.2,0,0.2,0.1c0,0.2,0.1,0.4,0.1,0.6
	c0.1,0.3,0.2,0.7,0.3,1c0.1,0.3,0.3,0.5,0.1,0.8c-0.1,0.2-0.4,0.3-0.5,0.1c-0.1-0.2-0.3-0.2-0.4-0.4c-0.1-0.1-0.1-0.2-0.2-0.3
	c0-0.2-0.1-0.2-0.3-0.1c-0.1,0.1-0.3,0.1-0.4,0.2c0,0.5,0,1,0,1.5c0,0,0,0-0.1,0c-0.3-0.3-0.5-0.6-0.8-0.8C28.9,50,28.8,50,28.7,50
	c-0.2,0-0.4-0.1-0.6-0.1c-0.1,0-0.2-0.1-0.1-0.3c0-0.1,0.1-0.2,0-0.3c-0.1-0.1-0.2-0.1-0.4-0.1c-0.2,0-0.5,0-0.7,0
	c-0.1,0-0.1,0-0.3,0c0.2,0.1,0.4,0.3,0.5,0.3c0.2,0,0.3-0.1,0.5-0.2c0,0,0,0,0,0.1c-0.1,0.1-0.1,0.1-0.2,0.2c-0.2,0.2-0.2,0.3,0,0.5
	c0.1,0.1,0.1,0.1,0.2,0.2c0.2-0.1,0.5-0.1,0.7-0.2c0.2,0,0.3,0,0.3,0.2c0.1,0.2,0.2,0.3,0.3,0.4c0.1,0.1,0.3,0.3,0.5,0.5
	c-0.2,0.2-0.4,0.3-0.6,0.5c0,0-0.1,0.1-0.1,0c-0.2-0.1-0.5-0.1-0.7-0.2c-0.3-0.1-0.5-0.3-0.8-0.3c-0.4,0-0.7-0.2-1.1,0
	c0,0-0.1,0-0.1,0c0-0.4,0.4-0.7,0.1-1.1c-0.1,0-0.2,0-0.3,0c-0.7-0.1-1.3-0.3-1.9-0.7c0,0,0,0-0.1,0c-0.2-0.1-0.3-0.1-0.5-0.2
	c-0.1-0.1-0.1-0.2,0.1-0.2c0.1,0,0.2,0,0.3,0c0.3-0.1,0.7-0.1,1-0.2c0.4-0.1,0.8-0.2,1.3-0.3c0.2,0,0.4,0,0.6-0.1
	c0.4,0,0.8-0.2,1.1-0.4c0.3-0.2,0.5-0.4,0.6-0.7c0-0.1,0-0.2,0-0.3c-0.1,0.1-0.1,0.2-0.2,0.2c-0.2,0.3-0.5,0.6-0.9,0.7
	c-0.6,0.1-1.2,0.2-1.7,0.3c0.1-0.4,0.3-0.9,0.4-1.3c0.1-0.5,0.1-1,0.3-1.5c0.1-0.4,0.4-0.7,0.8-0.8c0.3-0.1,0.6-0.1,0.9-0.2
	c0.4-0.1,0.5-0.5,0.3-0.8C28.5,43.3,28.4,43.1,28.3,42.8z M15.6,18.6C15.6,18.6,15.6,18.7,15.6,18.6c0.1,0,0.3,0,0.4,0
	c0.2,0,0.2,0,0.3,0.1c0.3,0.5,0.1,0.9,0,1.3c-0.1,0.3-0.3,0.6-0.5,0.9c-0.1,0.3-0.1,0.6-0.2,0.9c0,0.1-0.1,0.2-0.2,0.3
	c-0.2,0.1-0.4,0.2-0.5,0.3c-0.2,0.1-0.3,0.3-0.5,0.4c-0.2,0.1-0.3,0.3-0.4,0.5c0,0.3,0,0.6-0.1,0.8c0,0.1-0.1,0.2-0.1,0.2
	c-0.2,0.2-0.5,0.3-0.6,0.5c-0.2,0.2-0.3,0.2-0.5,0.3c-0.1,0-0.2,0-0.3,0.1c0.5,0.2,0.6,0.1,0.9-0.1c0.1-0.1,0.2-0.2,0.3-0.2
	c0.1-0.1,0.3-0.1,0.4-0.1c0.3,0.1,0.5,0.2,0.8,0.3c0.3,0.1,0.4,0.1,0.4-0.2c0-0.1,0.1-0.2,0.1-0.4c0-0.2,0.2-0.4,0.5-0.4
	c0.7-0.1,1.4-0.3,2.1-0.4c0.3-0.1,0.5-0.2,0.7-0.3c0.1,0,0.2-0.1,0.3-0.1c0.2,0,0.3,0,0.5,0.1c0.2,0,0.3,0,0.3-0.2
	c0.1-0.2,0.2-0.4,0.3-0.7c0-0.1,0.1-0.1,0.2-0.1c0.3-0.2,0.7-0.1,1.1-0.1c0.4,0,0.4,0,0.5-0.4c0.1-0.3,0.2-0.6,0.3-1
	c0-0.1,0.1-0.2,0-0.2c-0.1-0.3,0.1-0.4,0.2-0.5c0.4-0.2,0.7-0.5,1.1-0.7c0.3-0.2,0.3-0.2,0.2-0.6c0,0-0.1-0.1-0.1-0.1
	c-0.3-0.7-0.6-1.3-0.9-2c-0.1-0.4-0.2-0.8-0.6-1.1c-0.3-0.2-0.1-0.7,0.3-0.8c0.3-0.1,0.5-0.1,0.6-0.5c-0.1,0-0.2,0.1-0.3,0.1
	c-0.3,0.1-0.7,0.2-0.9,0.6c-0.1,0.1-0.2,0.3-0.3,0.3c-0.5,0.2-1.1,0.4-1.6,0.6c-0.1,0-0.3,0.2-0.3,0.3c-0.1,0.3-0.2,0.6-0.3,0.9
	c0,0.1-0.1,0.2-0.2,0.2c-0.5,0.1-0.6,0.5-0.8,0.9c0,0.1-0.1,0.2-0.2,0.2c-0.3,0.1-0.6,0.1-0.8,0.2c-0.3,0.1-0.4,0-0.6-0.2
	c-0.1-0.2-0.2-0.4-0.3-0.6c0-0.1-0.1-0.1-0.2-0.1c0,0-0.1,0.1-0.1,0.1c0,0,0,0-0.1,0.1C15.8,18.5,15.7,18.5,15.6,18.6z M15.4,50.3
	c0,0.1-0.1,0.3-0.1,0.4c0,0.1,0,0.2,0.1,0.2c0.2,0.1,0.3,0.2,0.5,0.3c0.1,0,0.3,0,0.4,0c0.3-0.2,0.3-0.5,0.3-0.7
	c0-0.2,0.1-0.4,0.1-0.5c0.1-0.3,0.2-0.6,0-0.9c-0.3-0.5-0.5-1-0.8-1.4c-0.4-0.5-0.3-0.9-0.2-1.4c0.1-0.2,0-0.5,0-0.8
	c0-0.1-0.1-0.3-0.1-0.3c0.2-0.3,0.1-0.5,0-0.7c-0.1-0.1-0.1-0.3-0.1-0.4c-0.1-0.2-0.1-0.5-0.2-0.7c0-0.1-0.1-0.3-0.2-0.4
	C15,42.9,14.8,43,14.7,43c-0.5,0-1-0.1-1.5-0.1c-0.3,0-0.3-0.1-0.2-0.3c0-0.1,0.1-0.1,0.1-0.2c0.1-0.2,0.2-0.3,0-0.5
	c-0.2-0.2-0.4-0.4-0.8-0.3c-0.5,0.2-0.6,0.2-0.2,0.6c0.3,0.5,0.2,0.8-0.3,1c-0.4,0.1-0.7,0.4-0.9,0.7c-0.1,0.1,0,0.2,0.1,0.3
	c0.2-0.7,0.7-1.1,1.4-1.1c0-0.1,0-0.2,0.1-0.3c0.1,0.1,0.2,0.2,0.3,0.2c0.3,0,0.7,0.1,1,0.1c0.4,0,0.8,0.1,1.1,0.1
	c0.1,0,0.1,0,0.2,0.1c0.3,0.3,0.4,0.7,0.3,1.1c0,0.4,0,0.8,0,1.2c0,0.1,0.1,0.1,0.1,0.2c0,0.1,0,0.3,0,0.4c0,0.1,0,0.1,0,0.2
	c0,0.3,0,0.6,0,1c-0.1,0-0.1,0.1-0.2,0.1c0,0,0,0.1-0.1,0.1c0.3-0.2,0.3,0,0.3,0.1c0.1,0.1,0.2,0.3,0.3,0.5c0.4,0.4,0.7,0.9,0.9,1.4
	c0,0.1,0,0.2-0.1,0.3c-0.1,0.3-0.4,0.5-0.2,0.8c0,0,0,0-0.1,0C16,50.5,15.7,50.4,15.4,50.3z M39.2,33.3C39,33.1,38.9,33,38.8,33
	c-0.4-0.2-0.9-0.4-1.3-0.6c-0.1-0.1-0.2-0.1-0.1-0.3c0-0.1,0-0.2-0.1-0.3c0,0-0.1,0-0.2-0.1c0,0.1,0.1,0.2,0.1,0.4c0,0-0.1,0-0.1,0
	C37,32,37,31.9,36.9,31.8c0,0,0,0-0.1,0.1c-0.1-0.1-0.1-0.2-0.2-0.3c0.2,0,0.3,0.1,0.4,0.1c0.1-0.2,0.2-0.5,0.3-0.7c0,0,0,0,0.1,0
	c0,0.1,0,0.1,0,0.2c0.1-0.1,0.2-0.1,0.2-0.2c-0.2-0.1-0.4-0.1-0.3-0.3c-0.1-0.1-0.2-0.1-0.3-0.2c-0.1-0.1-0.1-0.2-0.2-0.3
	c-0.1,0-0.2,0.1-0.2,0.1c0-0.1-0.1-0.1-0.1-0.2c-0.1,0.1-0.2,0.2-0.2,0.3c-0.1,0.3-0.2,0.6-0.1,0.9c0.1,0.2,0,0.2-0.2,0.1
	c0.1,0,0.1-0.1,0.2-0.1c-0.3,0-0.5-0.2-0.7-0.4c-0.3-0.5-0.7-0.9-1.2-1.2c-0.2-0.1-0.4-0.2-0.6-0.3c-0.1-0.1-0.1-0.2-0.4-0.1
	c-0.1,0-0.2,0-0.2,0c-0.1,0-0.1,0.1-0.2,0.1c0.1,0,0.1,0.1,0.2,0.1c0.3-0.1,0.6,0.1,0.8,0.2c0.5,0.3,0.8,0.8,1.1,1.3
	c0.1,0.2,0.3,0.3,0.4,0.5c0,0,0.1,0,0.1,0c0,0.1,0,0.1,0,0.2c0.4,0,0.5,0.3,0.7,0.5c0,0-0.1,0-0.1,0.1c0,0,0,0.1,0.1,0.1
	c0.1,0,0.2-0.1,0.3-0.1c0,0.1,0,0.2,0.1,0.3c0,0,0,0,0.1,0c0-0.1,0-0.1,0.1-0.2c0.1,0.1,0.1,0.2,0.2,0.2c-0.1,0-0.2,0-0.3,0
	c0,0,0,0.1,0,0.1c0.1,0,0.2,0,0.3,0c0.2-0.1,0.2-0.1,0.3,0.1c-0.2,0-0.5-0.1-0.7,0.2c0.3-0.1,0.7-0.1,1-0.2
	C38.1,32.8,38.5,33.3,39.2,33.3z M9,45.9C9,45.9,9,45.8,9,45.9C9.1,45.7,9,45.6,9,45.5c0-0.4-0.1-0.7-0.1-1.1c0-0.3,0.1-0.7,0.5-0.9
	c0.3-0.1,0.4-0.4,0.4-0.6c0.1-0.3-0.1-0.5-0.4-0.5c-0.3-0.1-0.4-0.2-0.4-0.4c0.1-0.3-0.1-0.5-0.3-0.6c-0.1,0-0.1,0-0.2,0
	c-0.3,0-0.4,0.1-0.3,0.4c0.1,0.3,0.2,0.6,0,0.9c-0.1,0.1-0.1,0.1-0.2,0.2c-0.1,0.1-0.2,0.3,0,0.5c0.1-0.1,0.2-0.2,0.3-0.3
	c0.2-0.3,0.5-0.5,0.9-0.3c0.1,0,0.3,0.1,0.3,0.2c0,0.2,0.1,0.4-0.2,0.5c-0.1,0-0.2,0.1-0.2,0.1c-0.4,0.3-0.5,0.7-0.6,1.1
	c0,0.1,0,0.2,0,0.4c0.1,0.3,0.1,0.6,0.2,0.9C8.8,45.8,8.9,45.8,9,45.9z M14,44.9c-0.4-0.1-0.5,0-0.4,0.3c0,0.1,0,0.3,0,0.3
	c-0.3,0.1-0.6,0.4-1,0.4c-0.1,0-0.3,0-0.4,0.1c-0.2,0.2-0.4,0.4-0.6,0.6c-0.1,0.1,0,0.2,0,0.3c0.3-0.1,0.5-0.2,0.8-0.3
	c0,0,0.1-0.1,0.1-0.2c0.2-0.1,0.4-0.2,0.6-0.2c0.2,0,0.8-0.4,0.9-0.5c0,0,0,0,0-0.1C14,45.4,14,45.2,14,44.9z M8.6,39.2
	c0,0.2-0.1,0.3-0.1,0.4c0,0.1,0,0.3,0,0.4c0,0.1-0.1,0.3,0.1,0.4c0.1-0.4,0.1-0.7,0.2-1C8.8,39.2,8.9,39,9,39c0.3-0.3,0.6-0.5,1-0.7
	c0.6-0.3,0.7-0.8,0.9-1.3c0-0.1,0-0.2,0-0.3c-0.1,0.2-0.2,0.3-0.2,0.5c-0.1,0.5-0.3,0.8-0.7,1.1c-0.7,0.4-1.3,0.8-2,1.1
	c-0.2,0.1-0.2,0.1-0.1,0.3C8,39.5,8.3,39.3,8.6,39.2z M29.7,14.3c-0.2-0.1-0.3-0.2-0.3-0.4c0-0.1-0.1-0.3-0.2-0.4
	c-0.2-0.1-0.3,0-0.4,0.2c0,0.1,0,0.3,0.1,0.3c0.1,0.1,0.1,0.2,0,0.2c-0.2,0.1,0,0.1,0,0.2c0,0.1-0.1,0.2-0.1,0.3c0,0,0,0,0.1,0
	c0,0,0-0.1,0.1-0.1c0.1,0.1,0.3,0.2,0.4,0.3c0,0,0.1-0.1,0.1-0.1c0,0.1,0.1,0.1,0.1,0.1C29.6,14.7,29.6,14.5,29.7,14.3z M16.9,11.5
	c-0.2,0-0.3-0.3-0.6-0.2c0.1,0,0.2,0.1,0.3,0.1c-0.5,0-0.5,0-0.5,0.3c0.1,0,0.2,0.1,0.3,0.1c0,0,0,0.1,0,0.1c-0.1,0-0.2,0-0.3,0
	c0,0,0.1,0.1,0.1,0.1c-0.1,0.1-0.2,0.2-0.3,0.2c0,0,0,0,0,0.1c0.2-0.2,0.3-0.1,0.5,0c0-0.1-0.1-0.2-0.1-0.2c0.1,0,0.2,0,0.4,0
	c0,0,0.1,0.1,0.1,0.2c0.2-0.2,0.2,0,0.3,0.1c0,0,0,0,0.1,0c0-0.1-0.1-0.2-0.1-0.3c0.1-0.1,0.2-0.1,0.3-0.2c0,0,0,0,0-0.1
	c-0.1,0-0.1,0.1-0.2,0.1c-0.2-0.4,0.3-0.1,0.3-0.3c-0.1-0.1-0.2-0.1-0.4-0.2c0.1,0.1,0.1,0.1,0.1,0.2c0,0,0,0,0,0
	C17.1,11.6,17.1,11.5,16.9,11.5C17,11.5,16.9,11.5,16.9,11.5z M36.2,29.7c-0.1,0.2-0.1,0.3-0.1,0.5c0,0,0.1,0,0.1,0
	c0-0.1,0-0.2,0.1-0.3c0.1,0,0.2,0,0.3,0c0-0.2,0.1-0.4,0.1-0.6c0.1,0.1,0.2,0.1,0.3,0.2c0-0.1,0-0.1,0-0.2c0,0,0-0.1,0-0.1
	c0.1,0,0.1,0,0.1,0c0-0.2-0.1-0.3-0.1-0.4c-0.1,0-0.2,0-0.2,0c-0.1-0.2-0.2-0.3-0.2-0.5c-0.1,0.1-0.1,0.1-0.2,0.1
	c0.1,0.1,0.2,0.1,0.1,0.2c-0.1,0.2-0.2,0.5-0.3,0.7c0,0,0,0-0.1,0C36.1,29.6,36.2,29.7,36.2,29.7z M26.2,21.4
	C26.2,21.3,26.2,21.3,26.2,21.4c-0.4,0-0.7,0.1-1,0.1c0-0.1-0.1-0.2-0.2,0c0,0-0.1,0-0.1,0.1c-0.1,0-0.2,0.1-0.3,0.1
	c0.3,0.1,0.5,0.2,0.7,0.3c0.1-0.1,0.3-0.2,0.5-0.4c0.1-0.1,0.1-0.1,0.2-0.2C26,21.4,26.1,21.4,26.2,21.4z M28,42.8
	c-0.8-0.1-1.6,0.1-2.4,0.3c0,0,0.1,0.1,0.1,0.1c0.7-0.1,1.4-0.1,2-0.2C27.8,42.9,27.9,42.8,28,42.8z M23.8,5.9C23.9,5.9,24,6,24.1,6
	c-0.1,0.1-0.2,0.1-0.3,0.2c0,0,0,0,0,0.1c0.1-0.1,0.3-0.1,0.5-0.2c0,0.1-0.1,0.2-0.1,0.3c0.3-0.2,0.3-0.5,0.1-0.6
	c-0.1,0-0.1,0.1-0.2,0.1c0-0.1,0-0.3,0-0.4c-0.3,0.1-0.6,0-0.7,0.3c0.2,0.3,0.4-0.1,0.6,0C23.9,5.8,23.9,5.8,23.8,5.9z M7.9,33.4
	C7.9,33.4,7.9,33.4,7.9,33.4c0.4,0,0.7,0,1,0c0.1,0,0.2-0.1,0.2,0c0.2,0.1,0.2,0,0.3-0.1c-0.2,0-0.4-0.1-0.6-0.1
	c-0.1,0.2-0.4,0.2-0.6,0.2C8.2,33.1,8.1,33,8,32.9c0,0-0.1,0-0.1,0C8.2,33.1,8.1,33.2,7.9,33.4z M36.1,33.1c0,0.1-0.1,0.1-0.1,0.2
	c0,0,0,0,0,0c0.1-0.1,0.2-0.2,0.2-0.3c0,0,0,0,0,0c0,0,0,0.1,0,0.1c0.1,0,0.2,0,0.3,0.1c0,0,0,0,0,0.1c-0.1,0-0.2,0-0.2-0.1
	c0,0.3,0.2,0,0.3,0.2c0,0.2-0.1,0.3-0.1,0.5c0.3-0.1,0.2-0.4,0.3-0.6c-0.1,0-0.1,0-0.2,0c0,0,0,0,0,0c0.1,0,0.1-0.1,0.2-0.1
	c-0.3,0-0.4-0.4-0.7-0.3c0-0.1,0.1-0.1,0.1-0.2c0,0,0,0,0,0C36.1,32.8,36,32.9,36,33C36,33,36.1,33,36.1,33.1z M8.9,32.8
	C8.9,32.7,8.9,32.7,8.9,32.8c-0.5-0.1-0.9-0.2-1.3-0.2c0,0.1-0.1,0.1-0.1,0.2c0.1,0,0.2,0.1,0.3,0.1c0.3,0,0.6,0,0.9,0.1
	C8.8,32.9,8.9,32.8,8.9,32.8z M25.7,20.8c0.1,0.2,0.1,0.2,0.3-0.1C25.9,20.6,25.9,20.6,25.7,20.8c-0.2,0-0.4,0.1-0.5,0
	c-0.2,0-0.3,0-0.2,0.3c0-0.1,0.1-0.1,0.1-0.2c0,0,0.1,0,0.1,0c0,0.1,0.1,0.3,0.1,0.5c0-0.2,0-0.5,0.4-0.4
	C25.7,20.9,25.7,20.8,25.7,20.8z M35.3,28.6c-0.3,0.1-0.1,0.5-0.5,0.6c0,0.1,0.1,0.1,0.1,0.2c0.1-0.1,0.1-0.2,0.1-0.2
	c0,0,0,0,0.1,0.1c-0.1,0.1-0.1,0.1-0.2,0.2c0,0,0,0.1,0,0.1c0,0,0.1,0.1,0.1,0.1c0,0,0.1,0,0.1-0.1c0.1-0.2,0.2-0.5,0.3-0.7
	c0,0,0,0-0.1,0c-0.1,0.1-0.1,0.2-0.2,0.3c0,0,0,0,0,0c0-0.1,0-0.2,0.1-0.3c0.1,0,0.1,0,0.2,0C35.3,28.7,35.3,28.6,35.3,28.6z
	 M35.8,27.3c-0.1,0.1-0.2,0.3-0.3,0.4c-0.1,0-0.2-0.1-0.3-0.1c0,0,0,0,0,0.1c0.1,0,0.2,0.1,0.3,0.1c0.1-0.1,0.1-0.1,0.2-0.2
	c0.1,0.2-0.2,0.4,0.1,0.5c0.2-0.2,0.3-0.3,0.5-0.5c0,0,0,0,0,0c-0.1,0.1-0.2,0.1-0.3,0.2C35.8,27.6,35.8,27.5,35.8,27.3z M28.4,18.3
	c0,0,0.1,0,0.1,0c0-0.1,0-0.2,0-0.2c0-0.1,0.1-0.1,0.1-0.2c0,0.1,0,0.1,0.1,0.2c0-0.1,0.1-0.2,0.1-0.3c0.1,0,0.1,0,0.2,0
	c-0.1-0.1-0.2-0.1-0.3-0.2c0,0.1-0.1,0.1-0.1,0.2c0,0,0,0,0,0c0-0.1,0-0.2,0-0.2c0,0,0,0-0.1,0c0,0.1,0,0.1-0.1,0.2
	c-0.1,0-0.1,0-0.2-0.1c0,0,0,0,0,0C28.4,17.9,28.4,18.1,28.4,18.3z M18.2,10.6C18.2,10.6,18.2,10.6,18.2,10.6
	c0.1-0.1,0.2-0.1,0.3-0.1c-0.1-0.1-0.1-0.1-0.3-0.1c-0.3,0.1-0.2,0.2,0,0.4c-0.1-0.1-0.2-0.1-0.2-0.1c-0.1,0.1-0.1,0.1-0.2,0.1
	c0,0,0.1,0.1,0.1,0.1c0,0-0.1,0-0.1,0.1c0,0.1,0.1,0.1,0.1,0.2c0-0.1,0.1-0.2,0.1-0.3c0.3,0.1,0.3-0.2,0.4-0.3
	C18.4,10.6,18.3,10.6,18.2,10.6z M19.6,51.1c0.1,0.2,0.1,0.3,0.2,0.4c0.1-0.1,0.1-0.2,0.1-0.3c0,0-0.1-0.1-0.1-0.1c0,0,0,0,0,0
	c0.1,0,0.2,0.1,0.3,0.1C20,51,19.9,50.9,20,50.7c0,0-0.1-0.1-0.1-0.1c0,0-0.1,0-0.1,0C19.9,50.9,19.8,51,19.6,51.1z M11.2,45.5
	c-0.1-0.2-0.2-0.3-0.3-0.4c-0.1,0-0.1,0-0.2,0c-0.1,0.1-0.2,0.2-0.3,0.4c0.1,0,0.2,0.1,0.3,0.1c0-0.1,0-0.2,0-0.3
	C10.9,45.3,11.1,45.4,11.2,45.5z M36.1,39.9c-0.1-0.1-0.1-0.2-0.2-0.2c-0.1,0-0.2-0.1-0.3,0c-0.1,0-0.2,0.2-0.3,0.2
	C35.5,39.9,35.8,39.9,36.1,39.9z M32.9,18.9C32.9,18.9,32.8,18.9,32.9,18.9c-0.3,0-0.5,0.1-0.8,0.2c-0.1,0-0.1,0.1-0.1,0.2
	c0.2,0,0.3-0.2,0.4,0C32.5,19.1,32.7,19,32.9,18.9z M27.9,46.6C27.9,46.6,27.9,46.5,27.9,46.6c-0.1,0-0.2,0.1-0.2,0.1
	c0,0.1,0.1,0.1,0.1,0.1c0.1,0.1,0.5,0,0.4,0.3c0,0,0,0,0.1,0c-0.1-0.2-0.1-0.3-0.2-0.5C28.1,46.6,28,46.6,27.9,46.6
	c0.1,0.1,0.1,0.2,0.1,0.2c-0.1,0-0.2-0.1-0.2-0.1C27.8,46.7,27.9,46.6,27.9,46.6z M30.9,17.3C30.9,17.3,30.9,17.3,30.9,17.3
	c0.1,0,0.1-0.1,0.1-0.1c0-0.2,0.1-0.3,0.3-0.3c0.1,0,0.1-0.1,0.2-0.2c-0.1,0-0.2,0.1-0.3,0.1c-0.2,0.1-0.4,0.1-0.6,0.2
	c0,0,0,0.1,0,0.1c0.1,0,0.1,0,0.2,0C30.9,17.1,30.9,17.2,30.9,17.3z M17.2,11.4C17.2,11.3,17.3,11.3,17.2,11.4
	c0-0.3-0.1-0.6-0.2-0.8c0,0,0,0-0.1,0c0,0.1,0.1,0.2,0.1,0.3c0,0.1,0.1,0.2,0.1,0.3c-0.1,0-0.1,0-0.2,0.1
	C17,11.3,17.1,11.3,17.2,11.4z M25,45C25,45,25,45,25,45c0,0.2,0,0.3,0,0.5c0,0-0.1,0.1-0.1,0.1c0.1,0.1,0.2,0.2,0.3,0.2
	c0,0,0,0,0-0.1c-0.3-0.1-0.2-0.3-0.1-0.4c-0.1,0-0.1-0.1-0.2-0.1c0,0,0.1,0,0.2-0.1C25.2,45,25.1,45,25,45z M17,13.8
	C17,13.8,17,13.8,17,13.8c-0.2,0-0.4,0-0.7,0c0.1,0,0.1,0.1,0.2,0.1c-0.1,0.1-0.2,0.1-0.2,0.1c0,0,0,0.1,0.1,0.1
	C16.6,14,16.8,13.9,17,13.8z M23.4,45.5c-0.1,0.1-0.1,0.2-0.2,0.3c0,0.1,0.1,0.1,0.1,0.2c0,0,0,0,0,0c0-0.1,0-0.1,0-0.2
	c0.1,0.1,0.1,0.1,0.2,0.2c0,0,0,0,0.1,0c0-0.1-0.1-0.1-0.1-0.2c0.1-0.2,0.1-0.2-0.2-0.3C23.3,45.4,23.3,45.5,23.4,45.5z M9.1,36.7
	c-0.4-0.2-0.6-0.2-0.8,0C8.5,36.7,8.8,36.7,9.1,36.7z M31.4,20.7c-0.3-0.1-0.6-0.3-0.9,0c0.1,0,0.1,0.1,0.2,0.1
	c0.2-0.2,0.2-0.2,0.4,0C31.3,20.8,31.3,20.8,31.4,20.7z M34.6,28.7c0.1-0.2,0.2-0.3,0.4-0.1c0,0,0.1-0.1,0.2-0.1
	c-0.1-0.1-0.2-0.1-0.3-0.2c0,0-0.1,0.1-0.1,0.1c0-0.1-0.1-0.1-0.2-0.2C34.6,28.4,34.6,28.5,34.6,28.7z M35,22.9
	C35,22.9,35,22.9,35,22.9c-0.1-0.1-0.3-0.1-0.4-0.1c0.1,0.2,0.2,0.4,0.3,0.5c0,0,0,0,0.1,0C35,23.2,35,23.1,35,22.9
	c0,0.1-0.1,0.1-0.1,0.1c0,0,0,0,0,0C34.9,22.9,34.9,22.9,35,22.9z M25.5,7.4C25.5,7.4,25.5,7.4,25.5,7.4c0.1,0.1,0.3,0.1,0.4,0.2
	c0-0.1,0-0.1,0-0.2c0.1,0,0.1,0,0.2,0c0,0,0,0,0,0c-0.1,0-0.2-0.1-0.3-0.1c0,0.1,0,0.2-0.1,0.3c0-0.1-0.1-0.2-0.1-0.2
	C25.6,7.3,25.6,7.4,25.5,7.4z M23.7,20.6C23.7,20.7,23.7,20.7,23.7,20.6c0.3,0.1,0.5,0.1,0.8,0.1c-0.1-0.1-0.1-0.1-0.1-0.2
	c-0.2,0.1-0.4,0.2-0.5,0C23.7,20.6,23.7,20.6,23.7,20.6z M25.9,22.3C25.9,22.3,25.9,22.3,25.9,22.3c-0.2-0.1-0.4-0.1-0.7-0.2
	c0,0-0.1,0.1-0.1,0.2C25.4,22.3,25.6,22.3,25.9,22.3z M30.5,42.2C30.5,42.2,30.5,42.2,30.5,42.2c0,0.1,0,0.2,0,0.4
	c0.2-0.3,0.2,0.1,0.3,0.1c0-0.2-0.1-0.3-0.1-0.6c-0.1,0.1-0.1,0.2-0.1,0.3C30.6,42.3,30.6,42.2,30.5,42.2z M8.1,32.1
	c0.2,0,0.4,0.1,0.5,0.1c0,0,0-0.1,0-0.1c-0.2-0.1-0.5-0.1-0.8-0.2C8,32,8,32.1,8,32.2C8.1,32.1,8.1,32.1,8.1,32.1z M24.4,6.8
	c0.3,0,0.5,0,0.6-0.3c0,0,0,0,0-0.1C24.8,6.6,24.6,6.7,24.4,6.8z M11.3,47.1c0.2-0.2,0.2-0.3,0-0.4c-0.1,0.1-0.2,0.1-0.4,0.2
	c0.1,0,0.2,0.1,0.4,0.1C11.3,47,11.3,47,11.3,47.1z M36.9,37.3c-0.1-0.1-0.2-0.3-0.3-0.4c0,0.2,0,0.4,0.1,0.7
	C36.8,37.5,36.9,37.4,36.9,37.3z M35.7,29.5c0.2,0.1-0.2,0.3,0.1,0.3c0.1-0.2,0.1-0.4,0.2-0.6C35.9,29.4,35.9,29.4,35.7,29.5
	c0-0.1,0-0.1-0.1-0.2c0,0.1,0,0.2,0,0.2c0,0,0,0,0,0C35.7,29.6,35.7,29.6,35.7,29.5z M32.5,18.8c-0.1-0.1-0.3-0.1-0.3-0.1
	c-0.1,0.1-0.1,0.1-0.2,0.1C32.3,18.9,32.3,18.9,32.5,18.8z M35.2,47.2C35.2,47.2,35.2,47.3,35.2,47.2c0.1,0.1,0.1,0.1,0.2,0.1
	c0,0.1,0,0.1-0.1,0.2c0.1,0,0.1,0,0.2,0c0-0.1,0-0.2,0-0.2c0.1,0,0.1,0,0.2,0c0,0,0,0,0,0c-0.1-0.1-0.1-0.1-0.2-0.1
	C35.4,47.1,35.3,47.1,35.2,47.2z M31.1,25.1C31,25,31,25,31,24.9c0,0,0,0,0,0c0,0.1,0,0.2,0,0.3c0.1,0,0.2,0.1,0.3,0.1
	c0-0.2,0-0.3,0-0.4c0,0,0,0-0.1,0C31.1,24.9,31.1,25,31.1,25.1z M33.5,25.2c0-0.2,0-0.5,0.1-0.8C33.5,24.7,33.3,24.9,33.5,25.2z
	 M37.8,38.1C37.7,38.1,37.7,38.1,37.8,38.1c-0.1,0.2-0.1,0.4-0.1,0.6c0,0,0.1,0,0.1,0C37.8,38.6,37.8,38.3,37.8,38.1z M25.2,20.4
	c0.2,0.1,0.4-0.3,0.6,0c0-0.1-0.1-0.2-0.1-0.3c-0.1,0.1-0.2,0.1-0.3,0.2C25.4,20.3,25.3,20.4,25.2,20.4z M35.5,24.9
	c0,0.4,0.1,0.5,0.4,0.4c-0.2,0-0.2-0.1-0.2-0.2C35.7,25,35.6,25,35.5,24.9z M37.4,37.4C37.4,37.4,37.4,37.4,37.4,37.4
	c0.2,0,0.3,0,0.4-0.1c0,0,0-0.1,0-0.2C37.6,37.2,37.5,37.3,37.4,37.4z M27.8,20.3C27.8,20.3,27.8,20.3,27.8,20.3
	c0.2,0.1,0.3,0.1,0.5,0.1c0.2,0,0.4-0.1,0.4-0.1C28.4,20.3,28.1,20.3,27.8,20.3z M14.5,14.9c0.1,0,0.2,0.1,0.2,0.1c0,0,0,0,0-0.1
	C14.7,14.9,14.6,14.8,14.5,14.9c-0.1,0-0.2,0.1-0.3,0.2c0,0,0,0,0,0c0.1,0,0.2,0,0.3,0C14.6,15,14.6,15,14.5,14.9z M30.2,46.8
	C30.2,46.8,30.2,46.8,30.2,46.8c0.1,0,0.1,0,0.1-0.1c0-0.2,0-0.3,0-0.5c0,0-0.1-0.1-0.1-0.1c0,0-0.1,0.1-0.1,0.1c0,0.1,0,0.1,0,0.2
	C30.2,46.5,30.2,46.6,30.2,46.8z M29.6,46.3c-0.1,0.1-0.1,0.2-0.1,0.2c0.1,0,0.3,0,0.4,0c0.1-0.1,0.1-0.2,0.2-0.3c0,0-0.1,0-0.1,0
	c-0.1,0.1-0.1,0.2-0.2,0.2C29.8,46.3,29.7,46.3,29.6,46.3z M25.8,7.6c-0.4-0.1-0.5-0.1-0.6,0.2c0.1-0.1,0.3-0.1,0.4-0.2
	c0,0,0,0.1,0,0.1C25.6,7.7,25.7,7.7,25.8,7.6z M34.8,23.7C34.8,23.7,34.8,23.7,34.8,23.7c0.1,0.1,0.2,0.1,0.3,0.1
	c0,0.1-0.1,0.1-0.1,0.2c0,0,0,0,0.1,0c0.1-0.1,0.2-0.3,0.2-0.4C35.2,23.6,35,23.7,34.8,23.7z M7.7,34.5c0.1,0.1,0.3,0.2,0.4,0.3
	c0.1-0.1,0.1-0.2,0.2-0.2c0,0,0,0-0.1,0c-0.1,0-0.1,0.1-0.2,0.1C8,34.5,7.9,34.4,7.7,34.5z M25.1,7.2C25,7.3,25,7.4,25,7.5
	c0,0,0.1,0,0.1,0c0.1-0.2,0.1-0.3,0.2-0.5c-0.2,0.1-0.3,0.1-0.4,0.2c0,0,0,0,0,0C24.9,7.2,25,7.2,25.1,7.2z M15.6,13.7
	c-0.1-0.1-0.2-0.1-0.3-0.1c0,0.1,0,0.2-0.1,0.2c0.1,0,0.2-0.1,0.2-0.1C15.5,13.7,15.5,13.7,15.6,13.7c0,0,0.1,0,0.1-0.1
	c0,0-0.1-0.1-0.1-0.2C15.6,13.5,15.6,13.6,15.6,13.7z M33,20.2C32.9,20.2,32.9,20.2,33,20.2c-0.1,0.1-0.2,0.2-0.2,0.3
	c0,0,0.1,0.1,0.2,0.1c0.1,0,0.1,0,0.2,0C32.8,20.5,32.8,20.5,33,20.2z M37,33.6C37,33.6,36.9,33.6,37,33.6c0,0.1,0.1,0.1,0.2,0.1
	c-0.1,0-0.2,0.1-0.3,0.1c0,0,0,0.1,0,0.2c0.2-0.1,0.3-0.2,0.4-0.4C37.1,33.6,37,33.6,37,33.6z M30.6,48.4c0.2,0.1,0.3,0.1,0.4,0.2
	c0,0,0-0.1,0-0.1c-0.1-0.1-0.1-0.2-0.2-0.3C30.8,48.3,30.7,48.4,30.6,48.4z M36,28.4C36.1,28.4,36.1,28.5,36,28.4
	c0.2-0.1,0.3-0.2,0.5-0.3c-0.1,0-0.2-0.1-0.3-0.1c0,0.1,0,0.1,0,0.2c0,0,0,0-0.1,0C36.2,28.3,36.1,28.3,36,28.4z M29.4,40.7
	C29.4,40.7,29.4,40.7,29.4,40.7c0.1-0.1,0.1-0.2,0.1-0.2c-0.1,0-0.2,0-0.4,0c0,0.1,0.1,0.1,0.1,0.2c0,0,0-0.1,0.1-0.1
	C29.3,40.6,29.4,40.7,29.4,40.7z M8.1,33.9c-0.1-0.1-0.2-0.2-0.2-0.3c0,0,0,0-0.1,0C7.9,33.7,8,33.9,8.1,34c0.1-0.1,0.1-0.2,0.2-0.3
	c0,0,0,0-0.1,0C8.2,33.7,8.2,33.7,8.1,33.9z M29.1,49.8C29.1,49.8,29.1,49.8,29.1,49.8c0.1-0.1,0-0.2,0-0.3c-0.1,0-0.2,0-0.4,0.1
	c0.1,0.1,0.2,0.1,0.2,0.1c0,0,0.1-0.1,0.1-0.2C29,49.7,29.1,49.8,29.1,49.8z M37.3,42.5C37.3,42.5,37.3,42.5,37.3,42.5
	c0.1,0,0.2,0,0.3,0c-0.1,0.1-0.1,0.1-0.1,0.2c0.1,0,0.2,0,0.2,0c0-0.1,0-0.2,0-0.3C37.5,42.4,37.4,42.4,37.3,42.5z M15.7,15
	c0,0.2-0.1,0.2-0.2,0.2c0-0.1,0-0.1,0-0.1c0,0,0,0-0.1,0c0,0.1,0,0.2,0,0.2c0,0,0.1,0,0.1,0c0.1,0,0.2-0.1,0.3-0.1
	C15.8,15.1,15.8,15,15.7,15z M23.7,20.8c-0.2,0.2,0.1,0.4,0,0.5c0.1-0.1,0.1-0.1,0.2-0.2c0,0,0,0-0.1,0
	C23.8,21.1,23.7,20.9,23.7,20.8z M30.3,47.8C30.3,47.8,30.3,47.8,30.3,47.8c-0.1,0-0.1,0.1-0.1,0.1c0,0,0-0.1-0.1-0.1c0,0,0,0,0,0
	c0,0.1,0,0.3,0,0.4c0.1-0.1,0.1-0.2,0.2-0.3C30.3,47.9,30.3,47.8,30.3,47.8z M32,18.1c-0.1,0.1-0.2,0.1-0.3,0.2c0,0,0,0.1,0.1,0.1
	c0.1,0,0.1-0.1,0.3-0.1c0,0.1-0.1,0.2-0.1,0.3C32.1,18.5,32.2,18.3,32,18.1z M18.3,49.7c0-0.1,0-0.2,0-0.3c0-0.1,0-0.1-0.1-0.2
	c0,0,0-0.1,0-0.1c-0.1,0-0.1,0-0.2,0C18.2,49.3,18.3,49.5,18.3,49.7z M30.8,19.7c0-0.2-0.4-0.1-0.1-0.4c-0.1,0-0.2,0.1-0.2,0.1
	c0,0.1,0.1,0.2,0.1,0.4C30.5,19.5,30.7,19.7,30.8,19.7z M13.6,47.9c0.1,0.1,0.1,0.1,0.2,0.2c0.1,0.2,0.1,0.2,0.2,0.2
	c0-0.1-0.1-0.2-0.1-0.3C13.8,47.9,13.7,47.9,13.6,47.9z M24.9,6C24.9,6,24.9,6,24.9,6c0.1,0,0.2-0.1,0.3-0.1c0,0.1,0.1,0.1,0.1,0.2
	c0.2-0.3-0.1-0.2-0.2-0.3C25,5.8,24.9,5.9,24.9,6z M22.5,43.7C22.4,43.7,22.4,43.7,22.5,43.7c0,0.1,0,0.2,0,0.3c0.4,0,0.4,0,0.5-0.2
	c-0.1,0-0.2,0.1-0.3,0.1C22.5,43.8,22.5,43.8,22.5,43.7z M31.5,18.9c0,0.2-0.1,0.3-0.1,0.5c0.1,0,0.2-0.1,0.3-0.1
	C31.5,19.1,31.5,19,31.5,18.9z M36.4,26.9c0,0-0.1,0-0.1,0c-0.1,0.1-0.3,0.2-0.4,0.3c0,0,0,0,0.1,0C36.1,27.1,36.2,27,36.4,26.9z
	 M8.2,37.6c0-0.1,0.1-0.1,0.2-0.2c-0.2,0-0.3,0-0.5,0c0,0,0,0,0,0.1C8,37.5,8.1,37.5,8.2,37.6z M28.3,10.8c-0.1-0.1-0.1-0.1-0.2-0.2
	c0,0.1-0.1,0.1-0.1,0.2c0,0.1,0,0.1-0.1,0.2c0,0,0,0,0,0c0,0,0-0.1,0.1-0.1c0,0,0,0.1,0.1,0.1c-0.1-0.1-0.1-0.1-0.2-0.2
	C28.1,10.8,28.2,10.8,28.3,10.8z M30.6,25.2c0.2-0.1,0.1,0.2,0.3,0.3c0-0.2,0-0.4,0-0.5C30.7,25,30.7,25.1,30.6,25.2z M15.8,13.3
	c0.2-0.1,0.3-0.2,0.4-0.3c-0.1,0-0.2,0-0.3,0C15.8,13.1,15.8,13.2,15.8,13.3z M31.8,24.5C31.8,24.5,31.8,24.5,31.8,24.5
	c-0.2-0.2-0.3,0-0.4,0c0,0-0.1,0-0.1,0.1c0,0,0,0.1,0,0.1c0,0,0.1,0,0.1,0C31.6,24.6,31.7,24.6,31.8,24.5z M26,8
	c0.1,0,0.2-0.1,0.2-0.1c-0.2,0-0.4,0-0.6,0c0,0,0,0,0,0.1c0.1,0,0.2,0,0.2,0C25.9,7.9,25.9,7.9,26,8z M21.7,5.1
	c0.2,0.1,0.3,0.1,0.4,0.2c0.1-0.1,0.1-0.1,0.2-0.2C22.1,5.1,21.9,5.1,21.7,5.1z M30.8,17.8c0,0.2,0,0.3,0,0.5c0,0,0,0,0,0
	c0.1-0.1,0.1-0.3,0.2-0.4C30.9,17.8,30.9,17.8,30.8,17.8z M33.2,49.5C33.2,49.5,33.2,49.5,33.2,49.5c0.1-0.2,0.3-0.1,0.4,0
	c0,0,0,0,0-0.1c-0.1-0.1-0.1-0.1-0.2-0.2C33.3,49.3,33.2,49.4,33.2,49.5z M19.7,8.5c-0.1,0-0.1-0.1-0.2-0.1c0,0.1,0,0.1,0.1,0.2
	c0.1-0.1,0.2-0.2,0.3-0.3c0,0-0.1-0.1-0.2-0.2C19.7,8.3,19.7,8.4,19.7,8.5z M30.1,19.4c0,0.2,0,0.3,0,0.5c0,0,0,0,0,0
	c0-0.1,0.1-0.2,0.1-0.3C30.2,19.5,30.2,19.5,30.1,19.4z M8.8,37.1C8.8,37.1,8.7,37,8.6,37c-0.1,0-0.2,0-0.3,0
	C8.8,37.2,8.8,37.2,8.8,37.1z M35.6,29.1c0,0-0.1,0-0.1-0.1c-0.1,0.1-0.2,0.3-0.3,0.4c0,0,0.1,0,0.1,0
	C35.3,29.3,35.5,29.2,35.6,29.1z M32,17.4C32,17.5,32,17.5,32,17.4c0,0.2,0,0.3,0,0.4c0.1,0,0.2-0.1,0.2-0.1
	c-0.1-0.1-0.1-0.1-0.2-0.1C32.1,17.5,32,17.5,32,17.4z M28,11.1c-0.2,0.1,0,0.2,0,0.4c0.1,0,0.2-0.1,0.2-0.1
	C28,11.4,27.9,11.3,28,11.1z M26.8,18.5C26.8,18.5,26.8,18.5,26.8,18.5c0.2,0.1,0.4,0,0.5,0c0,0,0.1-0.1,0.1-0.1
	C27.2,18.4,27,18.5,26.8,18.5z"/>
<path class="st0" d="M18.7,31.9c0,0.1-0.1,0.2-0.1,0.3c-0.4-0.3-0.4-0.8-0.2-0.9c0,0.2,0,0.4,0.1,0.5c0.2,0.1,0.5,0.1,0.7,0.1
	c0.2,0,0.3,0,0.5-0.1C19.7,32,19.2,32.1,18.7,31.9z"/>
<g>
	<path class="st1" d="M53.9,51c-0.9,0-2.4,0.1-3.3-1.2c-0.6-1-0.5-2.8,0.5-3.6c1-0.7,1.5-0.1,2,0.5c0.8,1.1,1.8,1.3,2.9,0.8
		c0.9-0.4,1-1,0.1-1.4c-0.8-0.4-1.7-0.6-2.6-0.8c-1.4-0.3-2.1-1.1-2.4-2.1c-0.2-0.9-0.3-1.9,0.9-2.5c1.2-0.5,2.6-0.8,3.9-1.1
		c0.2-0.1,0.4,0,0.6,0c2.6-0.3,3-0.1,2.7,2c-0.1,0.6-0.7,1.1-1.1,1.7c-0.5-0.5-1.3-0.8-1.6-1.4c-0.6-1-1.6-1.2-2.6-0.5
		c-0.9,0.6-0.9,1.3,0.2,1.8c0.7,0.3,1.5,0.5,2.3,0.8c2.2,0.7,3.1,2.2,2.5,4c-0.2,0.6-0.1,1.3-0.5,1.8C57.7,50.8,56.9,51,53.9,51z
		 M53,49.3c2.4,0.8,4.5,0.5,4.6-0.8c-0.8,0.1-1.5,0.3-2.2,0.3c-1.1,0-2.4,0.1-3.1-0.3c-0.6-0.3-0.4-1.4-0.5-2.1
		c-1,0.5-0.7,2.6,0.8,4.1C52.7,50.1,52.9,49.7,53,49.3z"/>
	<path class="st1" d="M126.4,48.9c1.3,0.6,1.3,1.1,0.3,1.8c-1.4,1-4.6,1.3-5.5,0c-0.3-0.4-0.5-1.3-0.2-1.5c1.3-0.9,1.3-2.1,1.4-3.3
		c0-1.2-0.1-2.5-0.1-3.7c-0.2,0-0.4,0-0.6,0c-0.1,0.3-0.2,0.7-0.3,1c0,0.7-0.1,1.6-1.3,1.5c-1.3,0-0.8-1-1-1.6c0-0.2,0-0.4,0.1-0.6
		c0.2-2,0.4-2.2,2.9-2.2c1.5,0,3-0.1,4.4,0c0.6,0.1,1.4,0.6,1.6,1c0.3,0.8,0.4,1.8,0.2,2.7c-0.1,0.4-0.8,0.7-1.3,1
		c-0.3-0.3-0.8-0.6-0.9-1c-0.3-0.6-0.4-1.3-0.8-1.9C124.8,44.5,125.2,46.8,126.4,48.9c-2.9,1.9-1.7-0.9-2.4-1.4
		c-0.2,0.9-0.5,1.8-0.7,2.8c0.5,0,1.1,0,1.7,0C126.3,50.4,126.8,49.9,126.4,48.9z"/>
	<path class="st1" d="M110.3,43.7c0.1-0.8,0.2-1.5,0.4-2.2c0.1-0.5,0.4-1.4,0.6-1.5c1-0.1,2,0.2,3,0.3c-0.1,0.4-0.1,0.8-0.3,1.2
		c-1.1,1.4-2.6,2.6-3.3,4.1c-0.4,0.9,0,2.1,1.2,2.9c0.4,0.3,1,1,0.8,1.3c-0.3,0.4-1.1,0.7-1.7,0.8c-0.9,0.1-1.8,0.1-2.7,0
		c-1.3-0.2-1.6-1-0.6-1.8c1.8-1.4,1.3-3.1,0.4-4.5c-0.1-0.2-0.4-0.5-0.4-0.6c0.4-0.9-0.4-1.2-1.2-1.4c-0.1,0-0.2-0.1-0.3-0.1
		c-0.4-0.5-0.7-1-1.1-1.5c0.8-0.2,1.7-0.6,2.5-0.6c0.8,0,1.3,0.5,0.9,1.4C108.2,42.2,108.6,43.1,110.3,43.7z"/>
	<path class="st1" d="M140,40.9c-1.4,0-2.7,0-4.1,0c0,0.1,0,0.2,0,0.3c0.6,0,1.3-0.1,1.9,0c0.6,0.1,1.2,0.3,1.6,0.3
		c-0.3,0.7-0.7,1.4-0.7,2c-0.1,1.4-0.2,2.8,0,4.2c0.1,0.4,0.9,0.8,1.4,1.2c0.4,0.4,1,0.8,0.9,1.1c0,0.4-0.6,1-1.1,1
		c-1.5,0.2-3.1,0.3-4.6,0.2c-1.3-0.1-1.7-1.4-0.7-2.1c1.4-0.9,1.8-2.1,1.7-3.4c0-0.7,0-1.3,0.1-2c0.1-0.7,0-1.3-1.1-1.5
		c-0.4-0.1-0.7-0.6-0.7-1c0-0.2,0.7-0.6,1.1-0.6c1.5-0.1,2.9,0,4.4,0C140,40.7,140,40.8,140,40.9z"/>
	<path class="st1" d="M93.9,47.2c-0.2-0.2-0.6-0.5-0.6-0.8c-0.2-1-0.1-2-0.4-2.9c-0.1-0.6-0.6-1.2-1-1.8c-0.7-0.9-0.2-1.7,1.1-1.7
		c1.8,0,3.7-0.1,5.5,0c0.7,0,1.8,0.4,1.9,0.8c0.2,0.7,0,1.6-0.4,2.2c-0.3,0.6-1.1,0.6-1.6-0.1c-0.2-0.3-0.5-0.7-0.8-0.7
		c-0.7-0.1-1.7-0.3-2-0.1c-0.5,0.4-0.5,1.1-0.7,1.7c0.5,0,1.1,0.2,1.4,0c0.3-0.2,0.3-0.8,0.5-1.2c0.3,0.2,0.7,0.4,1,0.6
		c-0.1,0.5-0.3,0.9-0.4,1.3c0.3,0.5,0.6,1,1,1.6c-0.1,0.1-0.3,0.1-0.4,0.2c-0.1-0.3-0.2-0.5-0.4-0.9c-0.4,0.2-0.6,0.4-0.9,0.6
		c-1.7-1.1-1.9-0.2-1.9,1.2c-0.4-0.4-0.6-0.6-1-1C94,46.8,93.9,47,93.9,47.2L93.9,47.2z"/>
	<path class="st1" d="M79.3,44.9c-1.8-2.7-0.2-4.8,3.5-4.8c0.3,0,0.5,0,0.8,0c2.8-0.1,2.8-0.1,2.5,2.2c-0.1,0.5-0.1,1-0.2,1.5
		c-0.5-0.4-1-0.8-1.5-1.2c-1.6-1.4-4.4-1-5.1,0.8C79,43.9,79.3,44.4,79.3,44.9z"/>
	<path class="st1" d="M85.5,49.8c-1.5,0.1-2.9,0.2-4.2,0.2c0-0.1,0-0.1,0-0.2c0.3-0.2,0.6-0.4,1.1-0.6c-0.7-0.3-1.3-0.5-1.9-0.8
		c0-0.1,0.1-0.1,0.1-0.2c0.4,0.1,0.7,0.1,1.1,0.2c1.6,0.3,2.4-0.4,2-1.7c-0.1-0.4,0-0.8,0-1.2c0.9,0,1.7,0,2.6,0c0,0,0.1,0.6,0,0.6
		c-1.1,0.5-0.7,1.2-0.7,1.9C85.4,48.6,85.5,49.1,85.5,49.8z M84.9,46.1c-0.1,0-0.3,0-0.4,0c0.2,0.6-0.6,1.3,0.6,1.8
		C85,47.3,84.9,46.7,84.9,46.1z"/>
	<path class="st1" d="M93.9,47.2c0.8,0.5,1.5,1.1,2.4,1.4c0.9,0.2,1.9,0.1,2.9,0.1c0,0.1,0,0.2,0,0.3c-1.2,0-2.5,0-3.8,0
		c0.3,1.2,1.5,0.9,2.5,1c0.5,0,1.1-0.1,1.6-0.1c0,0.1,0,0.3,0,0.4c-2.2,0.1-4.4,0.1-6.7,0.1c-0.4,0-1-0.3-1.1-0.6
		c-0.1-0.2,0.2-0.6,0.5-0.9C92.9,48.4,94,48.1,93.9,47.2C93.9,47.2,93.9,47.2,93.9,47.2z"/>
	<path class="st1" d="M68,48.2c1,0.3,2.1,0.7,3.1,1c0,0.1-0.1,0.2-0.1,0.3c-0.5,0-0.9,0.1-1.4,0.1c0,0.1-0.1,0.2-0.1,0.3
		c0.4,0.1,0.8,0.2,1.2,0.3c0,0.1,0,0.2-0.1,0.4c-0.9-0.1-2,0-2.8-0.4c-0.4-0.2-0.2-1.1-0.3-1.7C67.7,48.4,67.8,48.3,68,48.2z"/>
	<path class="st1" d="M126.4,48.9c0.4,1-0.1,1.5-1.5,1.4c-0.6-0.1-1.1,0-1.7,0c0.3-0.9,0.5-1.8,0.7-2.8
		C124.7,48,123.5,50.8,126.4,48.9C126.4,48.9,126.4,48.9,126.4,48.9z"/>
	<path class="st1" d="M85.8,45.7c0.1,0.7,0.1,1.5,0.2,2.4c-1.4-0.7-0.5-1.6-0.7-2.3C85.5,45.7,85.7,45.7,85.8,45.7z"/>
	<path class="st1" d="M82.8,49c-1.7,2.3-3.5,0.7-4.1-3.2c0-0.3-0.1-0.6-0.1-0.8c-0.5-3-0.5-3,1.2-2.9c0.4,0,0.8,0,1.2,0.1
		c-0.2,0.6-0.4,1.2-0.6,1.8c-0.7,1.9,0,4.8,1.4,5.4C82.1,49.4,82.5,49.1,82.8,49z"/>
</g>
</svg>
