<svg id="Layer_1" data-name="Layer 1" xmlns="http://www.w3.org/2000/svg" width="74.82mm" height="120.88mm" viewBox="0 0 212.1 342.66"><defs><style>.cls-1{fill:#fff;}</style></defs><title>logosissel</title><path d="M262.48,543.39,261.42,546a6,6,0,0,0-4.39-2.59c-1.1-.16-1.64-.55-1.64-1.94,0-2.77-2.85-4.14-5.87-3-.15.06-.3.25-.41.22-2.21-.59-4.31-.06-6.43.5-.23.06-.69-.41-.9-.73-2.11-3.17-4.42-6.24-6.21-9.59a99.47,99.47,0,0,1-6.41-13.78c-2.91-8.39-5.43-16.92-7.82-25.47-1-3.73-1.36-7.66-2-11.5-.39-2.38-.85-4.77-1.09-7.17a50.43,50.43,0,0,1-.09-5.5c0-3.77.07-7.54.16-11.3.09-3.58.1-7.17.43-10.73a56.09,56.09,0,0,1,1.43-6.33c.76-3.52,1.4-7.05,2.23-10.55.76-3.24,1.72-6.43,2.54-9.66,1.29-5.08,2.24-10.27,3.86-15.24,2-6.29,4.66-12.38,6.92-18.59,1.41-3.88,2.75-7.79,3.89-11.76A165.46,165.46,0,0,1,248,348.85c.87-1.93,1.57-3.93,2.41-5.87,1.09-2.52,2.3-5,3.35-7.52,2.77-6.69,5.39-13.45,8.28-20.09,1.19-2.75,3-5.24,4.36-7.92q3.11-6.07,6-12.26a19.3,19.3,0,0,1,3.72-5.78c1.85-1.86,2.95-4.48,4.36-6.78,5.54-9,10.77-18.28,16.73-27A78.69,78.69,0,0,1,309,241.74c1.84-1.68,3.53-1,5.45-1.57l-.4,1.38a15.76,15.76,0,0,0,2.52-.77,3.91,3.91,0,0,0,1.69-1.4c1-1.95,2.68-1.71,4.4-1.45a5.42,5.42,0,0,0,1.3-.19,4.46,4.46,0,0,0,1.84,1.49,4.22,4.22,0,0,0,3.51.21l-2.84-.87c.61-.18,1-.43,1.36-.37,1.77.27,3.54.62,5.3,1a2.09,2.09,0,0,1,.74.25,102.33,102.33,0,0,1,8.68,5.95,24.64,24.64,0,0,1,4.18,5.28c1.75,2.56,3.27,5.28,5,7.83,3.58,5.22,7.45,10.26,10,16.12.76,1.73,1.88,3.31,2.72,5,4,8,7.88,16.14,11.86,24.2,1.52,3.07,3.15,6.08,4.59,8.85-1.14-.19-2.42-.38-3.69-.62-.41-.08-.94-.14-1.15-.41a4.91,4.91,0,0,0-3.53-1.95c-1.6-.22-1.95-.2-1.89,1.48a1.45,1.45,0,0,1-.44,1.16,9.86,9.86,0,0,0-.55-1.72c-.18-.36-.6-.6-.95-.94v2.67h-2.16c1.08,2.11,1.08,2.11,1.7,1.45l2.57.58c.5,1.75,2.58,3,4.86,2.86a30.19,30.19,0,0,1,4.56.07c1.86.17,2.2-.2,1.52-2a.68.68,0,0,1,.09-.73,17.79,17.79,0,0,1,1.22,1.8c2.39,4.59,4.91,9.11,7,13.82,1.72,3.79,2.88,7.84,4.43,11.73,1.09,2.75,2.44,5.4,3.61,8.12,1.46,3.39,2.77,6.86,4.29,10.22,2,4.48,4.36,8.83,6.32,13.34q3.86,8.88,7.31,17.93c1.19,3.09,2,6.33,3,9.51,1.82,6,3.73,11.89,5.39,17.89a94.69,94.69,0,0,1,2,9.76c1,6.05,2,12.09,2.84,18.16.37,2.81.25,5.68.4,8.52.19,3.64.49,7.28.61,10.92a30.53,30.53,0,0,1-.53,3.5c-.27,3.14-.5,6.29-.72,9.43-.27,3.72-.44,7.45-.82,11.16-.1,1-.91,2-1.18,3-1.12,4.34-2.1,8.72-3.25,13-.78,3-1.67,5.87-2.71,8.74-.41,1.15-1.53,2-2,3.18-1.17,2.71-2.1,5.52-3.23,8.25a18.13,18.13,0,0,1-3.25,5.52,56,56,0,0,0-5.22,7.4c-3.35,5.22-6.55,10.56-11.33,14.65-2.32,2-4.93,3.62-7.37,5.46-3.29,2.5-6.5,5.11-9.84,7.53a32.56,32.56,0,0,1-5.11,2.91c-4,1.92-8.15,3.56-12.05,5.65a9.32,9.32,0,0,1-3.84.89c-3.13.35-6.21,1.16-9.32,1.78a85.92,85.92,0,0,1-10.1,1.91c-3.4.26-6.85-.27-10.27-.34-1.91,0-3.83.2-5.74.25a20.06,20.06,0,0,1-2-.18c-4.09-.34-8.18-.62-12.26-1a50.26,50.26,0,0,1-15.4-4.06c-4.93-2.16-9.9-4.24-14.84-6.41a66.09,66.09,0,0,1-12.58-7.37,30,30,0,0,1-3.26-2.68c-1-1-1-5.13.17-5.85s.82-1.42.74-2.28c-.12-1.12-1-2.29.61-3.2C264.2,546.79,263.56,544.18,262.48,543.39Zm121.07-4c-.28.13-.78.22-.81.39a14.46,14.46,0,0,0,0,2.12l2-.56-1-.6,1.35-.84-2.18.21c.35-.41.5-.58.65-.77l1.25-.28c-.82-1-1.44-2.06-2.87-1.12Zm6.85-5.24-1.58.16,1.39,3.35.6-.11c-.06-.53-.11-1.06-.18-1.59s-.17-1.23-.26-1.84h.95v1.26l1-.53-.26,1.38,1-.63c1,1.17,2,2.33,2.93,3.51a1.18,1.18,0,0,1,.18.72c-.07,2.31.07,2.51,1.95,3.08,1.35-1.7,1.48-4.05,3.61-5.16-1.12-1-1.51-3.67-.64-4.71a7,7,0,0,1-1.47-.41c-2.12-1.14-3-1-3.93,1.19-.55,1.36-1.26,2-2.67,1.83-.48-1.07-1-2.13-1.39-3.07Zm-4.13,4.45c-.56-.79-1.13-1.57-1.69-2.35a2.23,2.23,0,0,0,0,1.93c.29.35,1.13.26,1.72.37l-.76,1.33a6.94,6.94,0,0,1,.34,1.83,8.68,8.68,0,0,1-.58,1.86l.43.14.67-1.68.47,1a5.28,5.28,0,0,0,.27-1.67A27.09,27.09,0,0,0,386.27,538.64Zm1-7.49-2.1.13c2.25.9,0,3,1.27,4,.29-.85.58-1.69.88-2.59l-.69,0,.9-.86,1.49.89.19-.33-.94-1,1.54-1.81-.29-.32-2.27,1.84a4.42,4.42,0,0,0-.68-1.21c-.39-.35-1.26-.84-1.36-.74-1,1.11-1,.09-1.21-.53s-.57-1.08-.85-1.62l-.29.12,1,2.79Zm2.55,10.92c.08-1.55-.95-2.39-1.91-3.27l-.45.36,1.14,1.25L388,541l1.78,1c-.75.45-1.51.9-2.38,1.4,2.13.63,3.61-.6,5-1.3-.23-1.48-.42-2.72-.62-4.07-.21.09-1.15.37-1.13.54a22,22,0,0,0,.72,3Zm28.65-60.17c-1.77-.56.37-1.49-.15-2.15-.45.29-1.08.9-1.25.79-1.25-.78-1.69.28-2.39.75l.19.36,1.53-1,.86,1.82-1.79-.63-.06.3,3.63,3.58.72-.58c-.24-.28-.42-.72-.73-.83-1.48-.55-1.17-1.46-.59-2.46l.78,1.69.48-.23-.42-1.41,1.55.37-.77-2.65Zm-9-4.51-1.61,1.13-.31-1.15-2.27,1.7,2.48-.19v.31l-1.95.79-1.61-1.32-.19.24.73,1c-1.39.18-1.85.79-1.24,1.11.78.41,2.18.67,2.73.24a2.87,2.87,0,0,1,4.07,0l-2.8.25c.83,0,1.28-.14,1.57,0,1.4.81,1.67.69,2.1-1l-2.8-1,.09-.33.88-.27c0-.58.06-1.08.08-1.57l.83.92.23-.14-.78-1.8,1.43-.23L409.37,475C409.41,475.87,409.45,476.63,409.49,477.39Zm-8.57-96.19-.15-1.66-2.11-.42-.41,4.43-1.06-.64c.48-1.93.89-3.62,1.4-5.66l-1,.89a.44.44,0,0,1-.16,0s-.11-.07-.1-.09c.5-1.08.71-2.12-.35-3.12-.27,1.34-.49,2.48-.8,4l1.41-.82c-1,2.6-1.6-.17-2.57-.28l.72,2.05,1.29-.07-.6,1.61-1.91.18,1.5.74-1.87.51.08.3h1.4c-.23.76-.43,1.46-.6,2l2.65-1.1c-.46,2.85-.46,2.85-2.11,1.84l.26,3.61-1.08,1.87,1.9,1c-2.86,1.85-.86,3.3.39,4.82l-.32.24-3.08-1.85.19-.31,1.18.09-.07-.6-2.83.51,3.54,3.16,1.74-.57a10.4,10.4,0,0,0,0,1.37,6.23,6.23,0,0,0,.5,1.17c.38-.89.67-1.55,1-2.35l1.53-.3-.89,1.59.88,1.42c1.06-3.54,1.06-3.54,2.29-4.09.36.52.76,1.11.94,1.36a23,23,0,0,1,2.32-2.8c.64-.58,1.72-.71,2.3-1.32s.51-1.44.76-2.24h-.86c.15-.81.46-1.66-.81-1.93-.15,0-.29-.71-.23-1.05.17-1,.44-2,.68-3.06l-.49-.12c-.87,1.48-.52,3.3-1,4.89-.19-.07-.57-.15-.56-.2.13-1.66-1.18-1.87-2.24-2.38l-.37.84c-.95-.81-.87-1.41.08-1.91.65-.34.89-.73.17-1.26l.26-1.6c-.34-1.24-1.19-1.37-2.3-.91l-.51-1.89,1.57,1.27.45-2.4,3.25,1.17a9.4,9.4,0,0,1-.76-1.28,10.5,10.5,0,0,1-.17-1.43l-.68,1.27-1.15-1.35.72-.69v-.52a6.68,6.68,0,0,1-1.68-.24,1.13,1.13,0,0,1-.47-.92,3.53,3.53,0,0,1,.44-1.13c-1.63,1.34-1.82,2.15-.9,2.82l-1.07,1.55,1-.36C401.7,379.8,402.15,380.69,400.92,381.2Zm-27.11-15.87v-1.65a25.3,25.3,0,0,1-2.76,0c-.85-.08-2.51.41-1.47-1.57.08-.14-.35-.54-.54-.82l-.3.16v1.21l-.81-1.16-.83,2.39,1,.07-1.92,1.09c-.14-.32-.24-.42-.22-.49.15-.62.33-1.22.48-1.83.49-2,2.05-2.45,3.78-1.14.17.13.6-.06.66-.07l-1-5-1.23.89.36-1.35-.33-.18-1,1.27-2.9-1.66.72-.92-.4-.27-.87,1.5a19.33,19.33,0,0,1-1.66,2.87c-.48.59-1.66.7-.92,1.91.07.11-.4.74-.72.87-.67.27-1.48.23-2.11.56a26.26,26.26,0,0,0-2.69,1.8l.17.55c1.88-.58,3.49-.61,3.9,1.72l-1.75.17c1.54,1.65,3,2.14,4.66.88h0a14.13,14.13,0,0,0-1.25,1.55c-.16.25-.17.91-.05,1,1.41.64,1.94,1,2.07,1.28l3.22-2.2-.05,0L365,371.82h.85v1.38l1.22-.82-.53-1.31.48-.35,2.23,2-.36.54-1.43-.5c.26,1.87,1,3.17,3.21,3.18a13.33,13.33,0,0,1-2.2.46c-.24.05-.42.37-.63.57.22.16.44.44.68.46.7.06,1.4,0,2.1,0l0,.74-2.34.22,3.54,2.51-.84.66c.77.89,1.45.75,2.05,0s1.44-1.48,2.67-1.12c.27.08.66-.24,1.15-.43l-3.41-.87.12-.39c1.92,0,5.82-1.77,6.18-3.11l-2.61.83c1.44-.95,1.52-1.16.62-2.81l-1.13,1.93-.92-.83.38-.43,1.39-.76-1.26-1.6,1.06-.26.3.86,2.85-.77c.31,1.54-2.61.86-1.67,2.8l1.27-.79.35,3.34c1.66-.92-.12-2.75.73-3.86l1.44,2.68,1.42-.5-.46-.2,1-3.2.47.12c-.22,1.6-.45,3.19-.67,4.79a9.6,9.6,0,0,0-2.21-.39c-.21,0-.38.87-.48,1.11l1.91.83c.2-.42.47-1,.74-1.6l1.45-1.19a7.27,7.27,0,0,1-.08,1.28,8,8,0,0,1-.65,1.29c2.88-1.76,2.88-1.76,4-1.51l-.53-3.39,1.92,2,.52-.34c-.39-.84-.77-1.68-1.2-2.59l2.15.21c.32-.85.56-1.92,1.81-1.23l1.89-2.47.34,2-1.23,1,.46.46,1.84-2.07c-.05,1.14-.1,2.21-.16,3.57.4-.48.92-.83.9-1.13-.09-1.13-.06-2.46-.66-3.3s-.59-1,.05-1.52c.15-.13.18-.41.46-1.06l-1.55,1.24c.2-1.37.37-2.59.54-3.76l-1.38-.72,1.7-.73-.77-1.73.4-.29,1.24,1.34a2,2,0,0,0-2.76-2.22l.59.7-1.53.22v-2.37a3.79,3.79,0,0,0-1-.39c-1.62-.07-2.46-.55-1.47-2.32.12-.21-.36-.76-.56-1.15l-.63.26.35,3.14,0,0-1.76.32c.33-1,.66-1.93.9-2.61L388.27,352l-1.07,1.49.29.23.7-.61c.27,1.25.27,1.25-1.31,1.46l-.78,2.19.92.43-1,.62,2.61,2.53.32-.36-.39-.77L389,359l1.23,1.9-3.06-.25-1.5-2.9-1.1,2.43-1.31-1.1,1,.17c-.13-1.48-.25-2.91-.38-4.37l-1.8,1.06,2-2.62a11.84,11.84,0,0,0-1.55.26c-.33.1-.86.27-.89.47-.31,1.93-1.22,1.45-2.47.74l.72,1.31-.66,2-.74-.81.47,1.86h-.25l-.73-1.83-.41.07-.21,3.44.34,0-.51.86,1.3.53c-.67.07-1.18.24-1.27.12a18.43,18.43,0,0,1-1-1.82l-2.36,2.69.23.2.85-.64c.11,1.17.24,2.42.39,3.94-.31-.23-.56-.39-.78-.59S374,365.56,373.81,365.33ZM358.23,504.08h9.06l-.08,1.26,4.54.31-1,1.12.15.27,2.57-1.42.27.85c1.7-.34,3.33-.73,5-1s3.48-.35,5.12-.5c0,.86,0,1.44,0,2,0,.93.05,1.87.1,2.81.15,2.61.15,5.27,2.6,7,.5.36.85.94,1.36,1.26,1.87,1.15,3.74,2.3,5.68,3.3.65.34,1.16.37,1.08,1.36a29.85,29.85,0,0,0,.09,4.43c0,.19.42.36.82.68v-1.44l.35-.12c.46.84.91,1.68,1.35,2.5l2.28-.71c.07.92.12,1.56.15,2l1.38.15-.68,1c.43.64.95,1.44,1.49,2.26l.89-.49c.9-.52,1.09-1.44.3-1.58l-.65,1.11-.77-1.55c1.14-.79,1.82-2.2,3.34-2.48,2-.36,2.76-1.71,2.36-3.64a11.25,11.25,0,0,1,.09-2.71l.47,0c.21.83.42,1.65.64,2.48.31-.8.07-1.68.36-2.32.54-1.22,1.48-2.25,2.06-3.45.76-1.58,1.16-3.24-.45-4.65-2-1.74-1.69-3.85-.55-5.76,1.58-2.65,1.83-5.48,1.9-8.41.05-2.21-.11-4-2.41-5.48-2.88-1.85-4.18-2-6.11.79a6.21,6.21,0,0,0-.72,2.07c-.33,1.36-1,2.83-.75,4.09a5.14,5.14,0,0,1-.74,4c-.69,1.2-1.84,2.47-.93,4-1.59,3.42-5.76,5.06-5.81,9.35-1.49-.46-2.7-.82-3.9-1.2a2.22,2.22,0,0,1-.81-.41,19.67,19.67,0,0,0-2.62-2.4,3.54,3.54,0,0,1-1.71-2.85,7.1,7.1,0,0,1,2-5.64c.21-.24.77-.5,1-.39a11.43,11.43,0,0,0,4.81,1.6.73.73,0,0,1,.37.29c.67.9,1.54.9,2.07.09.19-.29-.42-1.4-.93-1.78a37.06,37.06,0,0,0-3.43-1.95c-1-.55-1.55-1.16-.43-2.18a3.52,3.52,0,0,0,.69-1.38c1.22-3.2,2.4-6.42,3.66-9.61a8.38,8.38,0,0,1,1.15-1.49c1.62-2.34,3.19-4.71,4.85-7a8.93,8.93,0,0,1,1.71-1.41l-.67-1.34-.93,1.49-.58-1.36-.11.23L399.13,479a21.65,21.65,0,0,0,3.1-.21c1.94-.47,1.93-.52,2.41-1.63l-1.78.94c-1.44-.8-1.15-1.56.08-2.19-1.43-.88-1.54,2.71-3.21.64l-.09,1.49c-.15,0-.31.07-.35,0-1.86-2-3.71-4-5.53-6.08a1.62,1.62,0,0,1-.43-1c0-2.53.18-5.07.09-7.59-.12-3.12.43-5.84,2.7-8.23,1.55-1.62,2.44-3.86,3.94-5.54a2.19,2.19,0,0,0,.61-2.61c-1.22-3.26-2.29-6.59-3.62-9.81-1.84-4.49-3.28-9.18-6.23-13.15-1.16-1.57-2.08-3.59-3.64-4.55-2-1.23-2.28-2.85-2.5-4.74-.06-.48-.2-.94-.26-1.41-.64-5.25-2.95-10.22-2.1-15.77.43-2.78-1.81-5.16-4.11-6.29-3-1.5-6.33-3-10-2.31a1.15,1.15,0,0,1-.87-.29,62.39,62.39,0,0,1-4.83-4.79,9.58,9.58,0,0,1-2.22-4.11,2.43,2.43,0,0,0-2.29-2.3,15.32,15.32,0,0,0-1.89-.26A38.77,38.77,0,0,1,345,375.62a2.42,2.42,0,0,0-1.7,0c-1,.53-1.5,0-2-.57-1.66-1.93-3.39-3.81-4.88-5.86a23.15,23.15,0,0,1-1.93-4,27.53,27.53,0,0,0-1.25-2.63c-.72-1.16-1.76-2.55-1.29-3.68s1-2.82,2.66-3.56,2.52-3.18,2.19-3.93c-.69.48-1.62,1.06-2.47,1.74a45.72,45.72,0,0,0-3.58,3.08,5.53,5.53,0,0,0-1.22,2c-1.1,3-2.08,6-3.17,8.92a41.45,41.45,0,0,1-1.78,4.17c-.32.65-1,1.13-1.35,1.76-1.24,2-2.35,2.62-4.58,2.06a2.09,2.09,0,0,0-2.38.71,9.12,9.12,0,0,0-1.76,2.42c-.54,1.55-1.62,2-3.06,2.26q-9,1.64-18,3.42a4.05,4.05,0,0,0-2.41,1.3c-1.45,2.12-2.7,4.4-3.95,6.66-1.58,2.86-3.09,5.76-4.61,8.66a3.87,3.87,0,0,0-.48,1.46,2,2,0,0,1-1.61,2.05c-3.39,1-6.79,1.91-10.15,3q-6.27,2-12.46,4.18a2.91,2.91,0,0,0-1.37,1.58c-1.18,2.93-2.19,5.93-3.37,8.86-1.48,3.68-4,6.68-6.33,9.84-1.39,1.92-3.32,3.83-3.71,6-.45,2.5-2.19,2.71-3.67,3.41-.75.36-1.89-.11-3.06-.23l-1.67.37a2.75,2.75,0,0,0,3.41.75l2.53.51c-2.88,3-6.88,1.68-10.64,2.09.12.41.16.76.23.77,3.09.33,6.21.22,9.3.7.38.06.84-.34,1.26-.52-.42-1.21,3-6.25,4.56-7,1,.72,1.92,1.36,2.76,2.13a6.69,6.69,0,0,1,1.56,2c1.46,3,2.73,6.09,2.71,9.59s.2,7,.38,10.44a2.42,2.42,0,0,0,.63,1.5c1.35,1.34,2.76,2.62,4.18,3.89,1.22,1.09,2.52,2.1,3.71,3.23,1.57,1.48,3,3.08,4.6,4.55a46.84,46.84,0,0,0,5,4.28c.68.48,1.88.32,2.83.27a16.38,16.38,0,0,0,2.47-.5c4.26-.86,7.69,1.25,11.14,3.19a7.58,7.58,0,0,1,3.13,3,5.28,5.28,0,0,0,5.68,2.21c5.33-1.68,10.81-2.88,15.77-5.66,4.73-2.64,4.81-2.51,9.18.48.22.15.41.34.63.49,4,2.91,7.95,5.78,11.86,8.75a2.39,2.39,0,0,1,.64,1.88,21.75,21.75,0,0,1-1,4A3.22,3.22,0,0,1,332,499.4c-.89.67-1.88,1.2-2.78,1.85-.19.13-.19.53-.27.8.23.07.48.23.69.19,1.77-.31,3.84-2.51,4.32-4.31a10.16,10.16,0,0,1,3.18-5.34c3.68-3.18,7.22-6.53,10.81-9.81a1.74,1.74,0,0,0,.5-.62,2.17,2.17,0,0,1,2.57-1.32c.52.05,1.06-.1,1.59-.1h6.49l0,.2-3.63,1,.14.6a10,10,0,0,0,1.34,0c3.15-.42,6.3-.83,9.43-1.33s6.55-1.15,9.82-1.73a4.1,4.1,0,0,0,3.29-2.85c1.05-2.77,2.25-5.49,3.33-8.24a7.31,7.31,0,0,1,2.94-3.81c1-.59,1.56-.5,2.06.47a44.71,44.71,0,0,0,6.49,9.95,4.84,4.84,0,0,1,.5,1,40.16,40.16,0,0,1,2.08,3.73,3.7,3.7,0,0,1,.29,2.56,14.31,14.31,0,0,1-2.53,4.15c-3.33,3.61-3.81,8.5-5.88,12.66-.65,1.31-2.24,3.16-3.36,3.27-1.91.21-3.82.48-5.72.75a12.35,12.35,0,0,1-2.41.47c-2.41-.18-4.81-.51-7.21-.78.23-2.85.23-2.85-2-5-.64-.63-1.3-1.24-1.94-1.85l.8-1.13-.2-.5a27.22,27.22,0,0,0-2.88.6,3.41,3.41,0,0,0-2.35,2.61c1.1,1.07,2,1.85,2.81,2.77a7,7,0,0,1,.79,1.78,7.43,7.43,0,0,1-1.87.61c-1.78.1-4,.71-5.23-.09s-1.69-3.06-2.29-4.74c-.87-2.44-1.61-4.92-2.3-7.41-.62-2.19-1.11-4.42-1.74-7-.48.59-.83.81-.83,1q0,3.09.19,6.18a7.18,7.18,0,0,0,.33,2.6c1.11,2.34,2.43,4.57,3.59,6.88a26.59,26.59,0,0,1,1.51,3.72c.34,1,.23,2.3.77,3.2,1.15,1.89.77,3.66-1.25,4.49s-3.94,1.54-5.84,2.44a7.31,7.31,0,0,0-2.21,1.74c-1.66,1.87-3.36,3.77-3.09,6.58a3.51,3.51,0,0,1-.22.92c-.82,4.07-1.42,8.2-2.52,12.2-.91,3.29-2.09,6.68-6.2,7.47-2.37.46-4.75.92-7.13,1.34-.32.05-.91,0-1-.17-1-2.3-2.23-4.55-2.72-7-.73-3.56-1-7.18-3.4-10.19-.94-1.2-1.67-2.56-2.58-3.78-1.25-1.68-3.17-2.61-6-1.32a20.86,20.86,0,0,0-5.31,4q-3.4,3.1-6.87,6.14c-2.09,1.84-4.11,3.77-6.36,5.4s-3.82,1.08-4.57-1.64a1.3,1.3,0,0,1,.05-.47l2.67-1.51c-1.4-.33-2.44-.93-3.26-.7a3.06,3.06,0,0,0-2.23,2.8c-.22,2.27,2.87,5.44,5.14,5.21a2.26,2.26,0,0,0,.92-.21,35.47,35.47,0,0,0,3.62-2.53c1.52-1.29,2.88-2.76,4.36-4.09.44-.39,1.2-.47,1.59-.9a62.45,62.45,0,0,1,4.16-4.83c1.93-1.74,3.15-4.3,6.22-4.81,2.34-.38,3.21-.37,4.12,2,1.6,4.08,3.05,8.22,4.63,12.3,1.09,2.79,2.28,5.53,3.38,8.18-.87.09-2.06.24-3.24.32-2.76.18-5.16.89-6.56,3.6-.67,1.3-1.7,2.41-2.36,3.71a33.08,33.08,0,0,0-1.76,4.42c-.54,1.64-1,3.31-1.41,5-.77,3.11-1.39,6.27-2.27,9.35-.54,1.91-1.54,3.71-.44,6.15a15.34,15.34,0,0,0,2-3.15c1.51-4.84,2.79-9.76,4.3-14.59a52.22,52.22,0,0,1,3.1-8,7.88,7.88,0,0,1,3.4-3.54c2.14-.94,4.6-1.15,6.88-1.66a3,3,0,0,0,1.93,2.77c2.25,1.05,4.56,2,6.8,3.07.48.24.75.9,1.14,1.36,0,.06.18,0,.38.07l.15-.88c.77.2,1.49.34,2.18.58a9.34,9.34,0,0,0,2.19.89c1.42.08,2.19.68,2.31,2.06a31.13,31.13,0,0,1,.14,3.61c0,.22-.51.51-.83.63-2,.74-3.95,1.46-5.95,2.14a1.35,1.35,0,0,1-1-.05c-1.43-.85-2.78-1.83-4.23-2.63a29.94,29.94,0,0,0-3.87-1.75,1.89,1.89,0,0,0-1.35.16c-1.38.68-2.7,1.46-4.12,2.23.7.79.72,1.59-.48,2.25-.27.14-.37.61-.53.94-1.71,3.67-3.1,7.51-6.41,10.22-.93.75-1.33,2.15-2,3.24l.4.38c.45-.36,1.08-.62,1.31-1.08.68-1.41,1.65-1.47,3-1.1a24.67,24.67,0,0,0,11.74.61c2.26-.48,4.6-.55,6.9-.88,1.93-.28,3.84-.65,5.76-1,.51-.1,1-.34,1.51-.43,4.8-.77,9.64-1.34,14.38-2.36,2.63-.56,5.42-.73,7.81-2.4a29.87,29.87,0,0,1,5.13-2.35c.86-.38,2.21-.57,2.48-1.21,1-2.4,3.11-3.7,4.88-5.31a8.28,8.28,0,0,0,2.22-7.92,3.93,3.93,0,0,1,.22-3.6,23.42,23.42,0,0,0,1.85-4.33,11.77,11.77,0,0,0,.34-2.38L383,543l-2.89,5c-.41-1.28-.29-2.54-.63-3.66-.87-2.9-1.93-5.74-3-8.6a1.61,1.61,0,0,1,1.06-2.34c1.27-.54,2.14-1.39,1.49-2.95l-2.55-.36-.19.42,2.15,1.41-2.27,1.35c-1.23-.85.6-2.74-1.72-3.23a9.07,9.07,0,0,0,.15,2c.38,1.21.16,2-1.14,2.44-1.52.54-3,1.21-4.5,1.83l-.47-.23c.26-.91.51-1.83.74-2.65l-.87-.19a13.9,13.9,0,0,0-.6,1.39,4.07,4.07,0,0,1-3.29,3.21,6.31,6.31,0,0,0-1.73,1,2.83,2.83,0,0,0,1.45-.17,17.91,17.91,0,0,0,3.07-.57c2.32-.93,4.57-2,6.84-3.05.74-.33,1.21-.18,1.39.67.26,1.29.52,2.59.86,3.86.59,2.26,1.28,4.5,1.86,6.77.48,1.84,1.77,3.67.58,5.63-.82,1.34-2.26,2.12-2.89.71s-1.78-1.66-2.59-2.55a3.81,3.81,0,0,1-1-1.73c-.23-1.36-.8-1.25-1.73-.68s-1.81,1-2.75,1.5v10.37l-.44.19c-1.6-1.91-3.16-3.85-4.81-5.72a3.57,3.57,0,0,0-1.66-1c-1.16-.34-2.38-.45-3.56-.75-.93-.24-1.3-.75-.74-1.77.3-.53.54-1.65.32-1.81a4.76,4.76,0,0,0-2.3-.69c-1.56-.11-3.14-.06-4.71,0-.44,0-.87.06-1.69.12,1.33.9,2.24,2,3.28,2.11s2.11-.68,3.17-1.07l.24.38c-.44.48-.85,1-1.32,1.45-1.41,1.37-1.37,2.12.1,3.36a6,6,0,0,1,1,1.34c1.48-.37,3.06-.74,4.63-1.16,1.14-.31,1.68.13,2.19,1.17a12.57,12.57,0,0,0,2.14,2.86c.91,1,1.95,1.81,3.37,3.11-1.48,1.25-2.76,2.36-4.06,3.44-.23.18-.61.39-.84.32a29.22,29.22,0,0,1-4.25-1.59c-1.6-.84-3-2-5-2-2.27,0-4.54-1.16-6.83,0-.13.07-.38-.09-.55-.14-.07-2.52,2.23-4.76.75-7.31a8.37,8.37,0,0,1-1.67,0c-4.2-1-8.43-1.89-11.87-4.77-.07-.06-.29.09-.39,0a14.77,14.77,0,0,1-2.92-1.62c-.59-.49-.47-1.29.56-1.46.68-.11,1.36-.16,2-.29,2.21-.45,4.44-.84,6.61-1.41,2.68-.71,5.29-1.68,8-2.36a27.37,27.37,0,0,1,4.07-.39,18.79,18.79,0,0,0,7.13-2.48,6.5,6.5,0,0,0,3.56-5.1,11.44,11.44,0,0,0-.18-2,15.64,15.64,0,0,0-1,1.41c-1.26,2.36-2.91,4.27-5.72,4.75-3.7.63-7.39,1.24-10.85,1.81.75-3,1.63-6.06,2.23-9.16.66-3.43.84-7,1.63-10.35a7.37,7.37,0,0,1,5.33-5.72c1.83-.53,3.69-1,5.47-1.65,2.45-.91,3.07-3.28,1.73-5.46A32.34,32.34,0,0,1,358.23,504.08ZM277.69,337.8l.11.52c.83-.19,1.68-.32,2.48-.58,1-.33,1.48-.19,2.14.82,2,3.14.92,6.13-.2,9.07-.78,2.05-2.15,3.89-2.85,6s-.86,4.34-1.39,6.49a4.65,4.65,0,0,1-1.26,2.18c-1,.9-2.24,1.51-3.28,2.37s-2,2.05-3.08,2.89a4.57,4.57,0,0,0-2.26,3.4c-.14,1.9-.27,3.81-.52,5.7a2.71,2.71,0,0,1-.85,1.5c-1.34,1.23-3,2.17-4.09,3.6a4.07,4.07,0,0,1-3.45,1.76,11.49,11.49,0,0,0-2,.53c3.13,1.13,4,1,5.85-.83.6-.58,1.34-1.05,1.9-1.68a2,2,0,0,1,2.7-.37c1.69.75,3.41,1.42,5.12,2.14s2.32.35,2.6-1.43c.12-.84.36-1.65.52-2.48a3.3,3.3,0,0,1,3-2.83c4.46-.9,8.91-1.85,13.32-2.94a43.13,43.13,0,0,0,4.6-1.88,4.75,4.75,0,0,1,1.93-.35,16.67,16.67,0,0,1,3,.51,1.61,1.61,0,0,0,2.14-1.09c.62-1.51,1.19-3,1.87-4.53a2.43,2.43,0,0,1,1.07-.95c2.18-1.21,4.57-.4,6.86-.65s2.38-.31,2.85-2.54,1.08-4.4,1.61-6.61c.14-.56.43-1.23.25-1.69-.7-1.72.35-2.58,1.48-3.41,2.32-1.68,4.65-3.35,7-5,1.84-1.27,2-1.69,1.1-3.79-.15-.34-.35-.66-.49-1-1.88-4.65-4.05-9.21-5.52-14-.84-2.72-1.27-5.34-3.54-7.42-1.68-1.53-.35-4.84,1.9-5.53,1.6-.49,3.3-.92,3.5-3.33-.72.27-1.3.44-1.85.7-2.13,1-4.51,1.66-5.45,4.32a4.43,4.43,0,0,1-2.12,2.38c-3.43,1.51-7,2.72-10.44,4.17a3.73,3.73,0,0,0-2,1.81c-.73,2.07-1.09,4.27-1.71,6.38-.19.63-.67,1.48-1.2,1.64-3.08,1-4.09,3.36-4.77,6.14A2.23,2.23,0,0,1,293,339.2c-1.68.62-3.55.85-5.12,1.66s-2.64.34-3.6-1.33c-.7-1.24-1.24-2.57-1.93-3.81-.2-.34-.68-.53-1-.79-.19.32-.35.65-.56.94a1.52,1.52,0,0,1-.5.44C279.42,336.82,278.55,337.3,277.69,337.8Zm-.84,217.92a27.86,27.86,0,0,0-.89,3.07,1.79,1.79,0,0,0,.43,1.51,12.64,12.64,0,0,0,3.27,1.9,3.63,3.63,0,0,0,2.66-.12c1.85-1.05,2-3.27,2.07-5a9.19,9.19,0,0,1,.91-3.52c.94-2,1.32-4,.29-6.05-1.61-3.21-2.85-6.74-5-9.48-2.5-3.12-2.21-6.07-1.46-9.47a21,21,0,0,0,.05-5.2c0-.82-.75-2-.41-2.39,1.49-1.82.79-3.24-.28-4.87a9.21,9.21,0,0,1-.8-2.73c-.44-1.69-.79-3.41-1.32-5.06a13.06,13.06,0,0,0-1.41-2.79c-.75-1.23-1.91-.49-2.94-.56-3.26-.22-6.5-.59-9.74-1-2.1-.26-2.12-.35-1.51-2.38a6.25,6.25,0,0,1,.56-1.13c.59-1.08,1.23-2.12.19-3.34-1.3-1.52-2.75-2.95-4.86-2.05-3.33,1.41-3.66,1.19-1.56,4.45s1.41,5.54-2.17,6.64a9,9,0,0,0-5.69,5c-.46.95-.2,1.42.71,2,1.16-4.78,4.27-7.24,8.84-7.88l.43-1.75c.68.48,1.17,1.08,1.74,1.17,2.15.33,4.34.52,6.51.73,2.4.23,4.8.4,7.19.64a1.74,1.74,0,0,1,1.15.57,12.35,12.35,0,0,1,2.22,7.64c0,2.69,0,5.37,0,8,0,.41.36.8.37,1.21a28.85,28.85,0,0,1-.13,2.93c0,.4-.3.8-.31,1.2,0,2.19,0,4.37,0,6.54l-1.27.57-.35.81c1.81-1.38,1.71,0,2.11.58.75,1,1.23,2.22,2.06,3.15a32.86,32.86,0,0,1,5.74,9.7,3.41,3.41,0,0,1-.44,2.19c-.8,1.78-2.45,3.3-1.28,5.62l-.35.32ZM427,438.41a12.24,12.24,0,0,0-2.09-1.93c-2.7-1.43-5.45-2.78-8.21-4.11-.86-.41-1.42-.69-.72-1.82.23-.36-.27-1.29-.6-1.87-.15-.25-.71-.27-1.23-.45l.64,2.41-.7.31-1.54-2.56-.43.62-1.28-2.18,2.39.47c.56-1.62,1.07-3.11,1.58-4.61l.42.09v1.3c.59-.45,1-.76,1.56-1.16-1.12-.64-2.54-.8-2-2.06a11.57,11.57,0,0,1-1.84-1.45,12.58,12.58,0,0,1-1.17-2.1l-1.47.72-.54-1.21a8.26,8.26,0,0,0-1.58,1.91,8.08,8.08,0,0,0-.5,6.07c.39,1-.23,1-1.29.9l1.12-.67a4.9,4.9,0,0,1-4.12-2.77,24.16,24.16,0,0,0-7.32-8.39,26.51,26.51,0,0,0-3.87-1.77c-.52-.94-.88-1.11-2.57-.81-.46.08-1,0-1.41.13a4.37,4.37,0,0,0-1,.54c.36.18.76.56,1.08.5,2.06-.35,3.67.49,5.26,1.65,3.18,2.32,5.09,5.62,7.16,8.81.81,1.24,1.75,2.39,2.63,3.58l.95-.23-.1,1.15c2.35.05,3.06,2.13,4.22,3.21l-.73.46.41.51L410,431l.41,1.85h.45l.37-1.27,1.14,1.67-1.81.29.06.67a7.66,7.66,0,0,0,1.67-.1c1.41-.4,1.4-.44,2.22.65-1.56.09-3.4-.64-4.23,1.29l6.2-1.19C419.93,435.44,422.5,438.69,427,438.41ZM236,525.06l.55-.25c-.06-.86-.12-1.72-.19-2.58a49,49,0,0,1-.5-7.42c.18-2.26.8-4.59,3.16-5.87,1.74-.94,2.35-2.7,2.78-4.44a3,3,0,0,0-2.42-3.73c-1.73-.45-2.54-1.25-2.25-3.06a4,4,0,0,0-1.8-4.25,5.08,5.08,0,0,1-1.32.23c-1.8-.19-2.64.9-2,2.58.83,2,1.56,4.08,0,6.12a7.26,7.26,0,0,0-1,1.4c-.42.95-1.32,1.93-.19,3.29.66-.86,1.16-1.59,1.73-2.26,1.46-1.73,2.92-3.52,5.58-2.27.66.31,1.74.71,1.78,1.15.1,1.2.62,2.73-1.09,3.44a5.2,5.2,0,0,0-1.37.79c-2.33,2-3.27,4.67-3.84,7.54a7.12,7.12,0,0,0-.06,2.52c.33,2,.73,4,1.25,6C234.91,524.4,235.58,524.69,236,525.06Zm31.63-6.36c-2.59-.67-3-.27-2.78,2.34.06.68.05,1.81-.31,2-2,1-3.71,2.69-6.2,2.54A3.67,3.67,0,0,0,256,526a29.62,29.62,0,0,0-4,4.26c-.32.42.08,1.4.12,1.89l4.89-2.23c.18-.28.37-1,.78-1.15a19.59,19.59,0,0,1,4-1.47c1.12-.23,5.09-2.68,5.5-3.74a1.5,1.5,0,0,0,.08-.47C267.47,521.64,267.54,520.22,267.62,518.7Zm-34.29-39.51c-.18,1.08-.38,2-.48,2.92a17.17,17.17,0,0,0-.11,2.68c0,.81-.8,1.85.79,2.57.38-2.48.67-4.81,1.14-7.1a5.28,5.28,0,0,1,1.24-2.69,39.07,39.07,0,0,1,6.05-4.79c3.56-2.13,4.52-5.66,5.54-9.2a4.91,4.91,0,0,0-.27-1.95,9,9,0,0,0-1.4,3.48,9.5,9.5,0,0,1-4.66,7.25l-12.36,7.87c-1,.62-1.1,1-.82,1.82ZM367.27,308.42c-1.39-.4-1.79-1.43-1.87-2.92a3.69,3.69,0,0,0-1.47-2.54c-1.08-.68-2.09.29-2.46,1.24a2.6,2.6,0,0,0,.33,2.34c.81.75.62,1.21-.05,1.59-1.37.79-.08.88.09,1.05-.25.66-.46,1.21-.66,1.77a1.65,1.65,0,0,0,.33.21l.41-.9,2.55,1.74.56-.84.62.81C366.14,310.88,366.65,309.76,367.27,308.42Zm-81.15-19.28c-1.31-.14-1.62-2.22-3.61-1.58l1.95,1c-3.1.33-3.1.33-2.94,2l2.16.52-.08.54-2.17-.14.36.61-2,1.69.16.47c1.27-1.26,2.15-.53,3.17.27l-.61-1.45,2.53-.14.77,1.33c1.36-1.4,1.45.14,1.88,1l.46-.26-.58-2.19,2.08-1.44-.27-.36-1.33.61c-1.13-2.75,2.06-.4,2-1.78l-2.51-1.46.7,1.16-.26.22-1.45-1.18ZM408.44,414.19l-.92,3.44.71.18.39-1.74,2,.18c.2-1.28.38-2.48.6-3.95l1.81,1.62a7.6,7.6,0,0,1-.29-1.24,6.78,6.78,0,0,1,.1-1h.88c-.3-1.05-.59-2.05-.87-3l-1.47.31-1.48-3.13c-.47.42-.91.79-1.17,1,.43.53,1,1,.94,1.2-.54,1.69-1.22,3.33-1.85,5l-.41-.11Zm-63.53-57.55-.25-.6-6.35,1.57c-.22-.59-.64-1.23-1.46,0-.15.22-.58.23-.86.37-.52.26-1,.54-1.93,1l4.65,2.12c.85-.69,1.94-1.57,3-2.47a12.76,12.76,0,0,1,1.28-1.17A15.42,15.42,0,0,1,344.91,356.64Zm11.16,147c-5.33-.58-10.09.83-14.87,2.15a.92.92,0,0,0,.77.37c4.31-.5,8.62-1,12.92-1.58C355.32,504.56,355.68,504,356.07,503.68Zm-26-253.34,1.31,1-2.19,1.36.22.38,3.13-1.17-.7,1.85a2.56,2.56,0,0,0,.45-4.44l-1,.77c.08-.89.16-1.75.28-3-1.66.87-3.56.08-4.35,1.88,1.27,1.79,2.38-.87,3.69.09Zm-101,188.84.24.54,6.33-.77c.51-.06,1.16-.36,1.5-.15,1.18.71,1.37-.3,2.08-1l-4-.61c-.71,1.65-2.43,1.27-3.7,1.2l-1.72-2.51-.6.23C230.75,437.28,230.2,438.25,229.06,439.18Zm178.5-2L407,438.5l.28.13,1.48-2.06.29.19-.32,1,1.93.43-.11.45-1.56-.34c-.31,1.87,1.45.3,1.94,1.17l-.64,3.45c1.92-.58,1.41-2.47,2.11-3.83l-1.22.23-.16-.32,1.29-.94c-2,.09-2.47-2.71-4.62-1.85l.55-1.25-.3-.12-1.19,1.62ZM235.71,435l-.32-.56-7.62-.81-.51,1.16a5.73,5.73,0,0,0,1.62.37,17.7,17.7,0,0,1,5.57.46C234.8,435.74,235.28,435.25,235.71,435Zm106.35-82.39c.9,1.08.9,1.08,2.19-.57-1.14-.8-1.22-.9-2.57.13a3.5,3.5,0,0,1-3,.64c-1.53-.28-1.76,0-1.24,1.74l.65-1.39.53-.05c.22.93.44,1.86.73,3.13.32-1.58.25-3.23,2.33-2.89C341.75,353.4,341.93,352.9,342.06,352.64Zm60.27,53.72c-2.17.53-.77,3.74-3.27,4l.76,1.61.74-1.71.47.45a17,17,0,0,0-1.21,1.34.84.84,0,0,0-.05.71,1.29,1.29,0,0,0,.62.62c.11,0,.49-.19.56-.37.65-1.6,1.26-3.21,1.88-4.81l-.34-.17-1,1.87-.28-.05.43-2.36h1.44Zm3.06-8.81c-.58.86-1.23,1.85-1.8,2.69l-1.89-.5-.12.46,2.16.88,1.1-1.41c.4,1.33-.95,2.7.43,3.37l2.91-3.17-.22-.2-2,1.48C405.72,399.73,405.56,398.66,405.39,397.55Zm-46.82-61.83.64.12a12.52,12.52,0,0,1,.21-1.63,6.7,6.7,0,0,1,.5-1.14l.51,1.4.7-1.9,1.31-.15-2.15-1.13-.7,1.38-.22-.06c.07-.56.13-1.13.2-1.69l-.42-.1-.47,1.4-1.32-.43-.28.31C358.93,332.8,358.83,334.23,358.57,335.72ZM294.4,282.9l0-.47,2.2-.24c-.38-.88-.44-.81-1.68-.45-1.85.54-1,1.59-.23,2.95l-1.54-.88-1.14.77.7,1-.81.39.74,1.23c.27-.82.5-1.51.72-2.19,2,.56,1.59-1.55,2.85-2.21Zm8.84,278,1.24,2.79.94-2-.86-.6.13-.26,1.92.52c-.78-1-1.84-1.76-1.05-3.2,0-.07-.51-.45-.79-.68l-.48.1C305.34,559.32,304.26,560.18,303.24,560.86Zm-53-38.49-1.76-2.9-1.23.25-1.88,2.45,1.79.79.11-2.3Zm157.21-38.24c-.57-.7-.81-1.28-1.2-1.41a3.34,3.34,0,0,0-2.1-.15c-.68.29-1.16,1.05-1.68,1.56ZM387,339.71s-.19-.24-.33-.2c-1.53.45-3.06.9-4.54,1.46-.32.12-.45.72-.67,1.1,1.08-.14,1.88-1.4,2.62-.15ZM355.69,529.83l-.37-.26c-.31.35-.87.72-.85,1s.58.69.91,1c.81.82,2.85,0,2.59,2.26l.43-.34c-.38-1.08-.75-2.17-1.11-3.22l-1.32-.12.56,1.24-1.43-.53Zm18.73-201.27.36.09c.1-.22.29-.44.28-.65-.05-1.39.53-2,2-2,.37,0,.75-.83,1.12-1.28-.75.26-1.22.64-1.76.83-1.18.4-2.38.7-3.58,1l.15.7,1.46-.13ZM288.05,288l.63-.49q-.94-2.52-1.9-5l-.46.08c.18.74.32,1.48.54,2.2s.53,1.51.76,2.17l-1.08.46Zm49.6,230.8-.37.19.67,3-.67.71,2.12,1.58.3-.39c-1.75-.72-1.16-1.94-.73-2.9l-1.15-.81,1-.48ZM286.8,304.85l-.29-.35-3.85.45,1.26.64-1.54,1,.33.55Zm40.35,217.88c-.48.73-.91,1.4-1.37,2.12l.63,1.27.18,0-.13-1.34,1.09,1.15.43-.23c-.2-.48-.41-1-.72-1.65.8-1.25.68-1.58-1.3-2.18Zm-90.56-60.57c-2.33-1.6-4-1.63-5.2,0ZM378.13,352.43c-2-.42-3.68-2-5.39,0L374,353c1.19-1.24,1.41-1.23,2.61,0Zm19.73,54.47c.77-1.3,1.42-2.17,2.46-.91a6.81,6.81,0,0,0,1-.58l-1.79-1.17-.62.72-1-1.28Zm2.59-39.57-.07-.38-2.38-.38c.74,1.3,1.39,2.44,2.05,3.57l.38-.2v-2l-.81-.16v-.23Zm-59.9-106.56,0,.51,2.7.63-.17-1.34h1.32v-.2l-1.92-.78-.49,2.09-.49-1.53Zm-11.71,91,0,.53,4.93.31-.85-1.44c-1.23.46-2.35,1.51-3.31-.16ZM343,363.12l0-.47-4.15-.63-.77,1.1Zm29.46,136.37-.38.17.62,2.53c1.56-2,1.24.61,2.05.67-.22-1.22-.43-2.38-.7-3.83l-.77,1.79ZM230.71,430.41l3.38.7.12-.57-4.82-1.32.44,1.7Zm103-173.62a3.48,3.48,0,0,0,4-1.74l-.23-.39ZM250.63,533.25c1.14-1.36,1-1.91-.07-2.57L248.21,532l2.22.61S250.52,532.86,250.63,533.25Zm162.12-66.81-2.05-2.86c.17,1.7.31,3.07.46,4.57Zm-7.53-53.52c1.19.46-1,2.34.72,2.39.41-1.38.76-2.57,1.18-3.95l-1.3,1.15-1.29-.62-.28,1.71.27.1ZM385,338.87l-2-1-1.12,1C383.28,339.83,383.28,339.83,385,338.87Zm17,195.41.18.38h1.15l-.48,1.21,1.25-.25c-.11-.59-.21-1.1-.31-1.68l1.18.22.11-.28-1.13-1Zm-26.29-152-.61-1.12-.23.06V383l1.89.79c-.06-1.1-.1-2-.15-2.87l-.46,0Zm15.68.79c.15-1.66.29-3.25.47-5.29C390.84,379.76,389.69,381.29,391.44,383.06ZM418.14,472l-.54,0v4.2l.81,0ZM338.72,350.31c1.41.62,2.33-1.93,3.72,0l-.75-2.06c-.65.4-1.18.7-1.68,1S339.15,350,338.72,350.31ZM404,380.93c-.18,2.58.94,3.73,2.69,2.91-1.48-.06-1.5-.84-1.1-1.67Zm11.83,85.7.19.52a16.37,16.37,0,0,0,2.41-1.08c.15-.09-.14-.88-.28-1.62ZM355,349.21l.07.21,2.9.73c1,.25,2.28-.44,2.33-.94Zm-83.88-37,1.37.73.24-.5c-.49-.2-1.18-.7-1.44-.53a11.16,11.16,0,0,0-1.84,1.8l.27.23,1.84-.28Zm99.14,218.87.4,0c.09-.11.24-.22.25-.35.08-1.06.17-2.13.17-3.2,0-.24-.37-.49-.56-.73-.17.21-.44.4-.49.64a4.06,4.06,0,0,0,0,1.1C370.13,529.41,370.21,530.27,370.28,531.12ZM366.53,528l-.8,1.33A5.82,5.82,0,0,0,368,529c.62-.39.91-1.29,1.35-2l-.48-.29-1.11,1.69Zm-24.1-265.69c-2.8-.72-3.13-.6-3.92,1.35l2.41-1.1v.72Zm57.22,110.54,0,.37,1.68.32-.5,1.21.37.18,1.53-3Zm-171.54,74,2.65,2.19,1-1.61-.37-.22-1.36.7C229.57,447,229.22,446,228.11,446.84ZM337.77,259.3l-.51,2,.49.14c.39-1.14.79-2.27,1.24-3.57l-2.53,1.46.11.25Zm-60.09,44.58-1.8-1c-.14.59-.26,1.06-.38,1.53.49-.17,1-.36,1.46-.5.12,0,.34.19.43.14.42-.23,1-.44,1.16-.82.12-.22-.32-.74-.7-1.52Zm110.07,44.69-.51-.24a16.07,16.07,0,0,0-.74,2.58c0,.2.67.6,1.1.75a4.34,4.34,0,0,0,1.25,0C386.84,351,386.68,350.64,387.75,348.57Zm25.32,92-.16.41,1.21.54-2.05.79.08,1.5,2.7-2.59Zm-40.16,102,2.38,1.42c.14-.25.3-.51.23-.39l-1.14-2.29Zm34.26-137.3.41.3,2.69-2.25-1.73-.67.26,1.07-.38-.19Zm-42.08,84.5.61-.05a8.28,8.28,0,0,0,0-1.57,13.5,13.5,0,0,0-2.31-.07c.26.45.49.83.71,1.22l.33-.62Zm-134.76-47L229,440.61l-.33.32,1.95,2.6,1.38-2.29-.39-.25ZM363.05,552.14l.62-.18c-.26-.59-.39-1.52-.82-1.69s-1.34.18-2.41.38l1.56,1,.85-1.1Zm52.2-50.4.13.47,2.05-.45-.85,1.32c.55.08,1.2-.08,1.22-.3a6.6,6.6,0,0,0-.31-1.82Zm-136.48-189c-.12,1.12-.48,1.61-1.51,1.15l-.13-1h-.47a9.72,9.72,0,0,0,0,1.62c0,.13.54.32.77.26a16.37,16.37,0,0,0,1.9-.65Zm50.3,40.12c-1.52,1.26.75,2.54.15,3.78l1.07-1.22-.45,0C329.6,354.61,329.35,353.79,329.07,352.83Zm42,185.3-.52-.24c-.14.35-.28.7-.42,1l-.48-.64-.31.09v2.92c.42-.72.72-1.23,1-1.75S370.86,538.6,371.1,538.13Zm10.37-203.7-1.63,1.29.45.56,1.6-1-.53,2.14C382.54,337.26,382.65,336,381.47,334.43Zm-86.24,217c0-1,0-1.68,0-2.35,0-.41-.3-.8-.34-1.2a3.63,3.63,0,0,1,.23-1l-1.08.31C294.42,548.57,294.76,549.75,295.23,551.42ZM373.81,345.3c0-1.17-2.56-.87-.83-2.82a9.67,9.67,0,0,0-1.5.52,26.05,26.05,0,0,0,.7,2.84C372.44,344.2,373.13,345.08,373.81,345.3ZM265.2,539.19a6.28,6.28,0,0,1,1,1.44c.48,1.41.94,1.69,1.44,1.22-.27-.7-.51-1.22-.66-1.76C266.61,538.87,266,538.65,265.2,539.19Zm71.36-288,.26.28,1.46-1.2.86,1.44c1.28-1.94-.43-1.69-1.11-2.15Zm-15.29,259-.27.31v1.69c2.69-.21,2.78-.26,2.91-1.32l-2,.79Zm56.91-170.7c-.3,1.3-.54,2.37-.8,3.47l1.72-.65C378.78,341.26,378.5,340.41,378.18,339.45Zm31.35,55.2c-.19,0-.63-.22-.79-.08-.89.76-1.72,1.6-2.56,2.41l.35.28ZM231.12,468.16l1.2-1.47-3.09.17.05.46Zm127-184.34L357,282.58a8.88,8.88,0,0,0-.73,1.23,10.2,10.2,0,0,0-.37,1.47l.26.06.49-.95.45.74-1-1.19ZM372.71,383c1.41-.48.85,1.06,1.78,1.77-.11-1.4-.19-2.42-.28-3.64Zm-93.89-81.35c1-1,1.8-1.69,2.49-2.32l-2-.24Zm101.57,76.81c0,.14,0,0-.05-.14-1.08-1.2-1.79.38-2.73.39-.2,0-.42.34-.58.56,0,0,.14.36.2.35a3.17,3.17,0,0,0,.86-.2C378.8,379.1,379.51,378.79,380.39,378.42ZM343.46,264.59l1.39-.74h-4.08l0,.48a14.62,14.62,0,0,1,1.48,0A8.33,8.33,0,0,1,343.46,264.59Zm-26.95-19.31,2.43,1.26L320,245ZM374,332c-.09,1.22-.17,2.35-.25,3.48l.28,0q.56-1.48,1.11-3Zm15,217.72.31.41c.46-1.57,1.46-1,2.41-.66l.15-.4-1.42-1.27Zm-85.47-281.2-1.3-.77.51,1.69c.79-.73,1.41-1.27,2-1.88,0,0-.47-.55-1-1.14Zm65.9,74.89c.09,1.23.16,2.2.24,3.16h.27l.89-2.13ZM235.08,465c-.53-.35-.87-.72-1.26-.79a12.32,12.32,0,0,0-2.15,0C234.66,465.62,234.66,465.62,235.08,465Zm169.19-55.38-.65-.4-2,2.87.5.32Zm-22.58-79.8-.36.33.67,2.24,1.58-.81a9.23,9.23,0,0,1-1.24-.81A5.31,5.31,0,0,1,381.69,329.78ZM356,286.28c-1.29.91-.22,1.62.11,2.53l1.46-.72C356.13,288.23,356,287.41,356,286.28ZM349,337l-.07.48c1.16-.13,2.33-.22,3.48-.42.22,0,.37-.51.63-.88Z" transform="translate(-218.14 -237.74)"/><path d="M244.17,541.15a8.78,8.78,0,0,1,2.07-.46,1.89,1.89,0,0,1,1.21.67c.59.75,1,1.67,1.57,2.39,1.57,1.85,3.2,3.64,4.84,5.42,1.27,1.38,2.65,2.66,3.84,4.1a3.36,3.36,0,0,1,.35,2.17C252.32,551.77,248.43,546.51,244.17,541.15Z" transform="translate(-218.14 -237.74)"/><path class="cls-1" d="M358.23,504.08a32.34,32.34,0,0,0,1.76,4.18c1.34,2.18.72,4.55-1.73,5.46-1.78.66-3.64,1.12-5.47,1.65a7.37,7.37,0,0,0-5.33,5.72c-.79,3.39-1,6.92-1.63,10.35-.6,3.1-1.48,6.14-2.23,9.16,3.46-.57,7.15-1.18,10.85-1.81,2.81-.48,4.46-2.39,5.72-4.75a15.64,15.64,0,0,1,1-1.41,11.44,11.44,0,0,1,.18,2,6.5,6.5,0,0,1-3.56,5.1,18.79,18.79,0,0,1-7.13,2.48,27.37,27.37,0,0,0-4.07.39c-2.68.68-5.29,1.65-8,2.36-2.17.57-4.4,1-6.61,1.41-.67.13-1.35.18-2,.29-1,.17-1.15,1-.56,1.46a14.77,14.77,0,0,0,2.92,1.62c.1,0,.32-.1.39,0,3.44,2.88,7.67,3.79,11.87,4.77a8.37,8.37,0,0,0,1.67,0c1.48,2.55-.82,4.79-.75,7.31.17,0,.42.21.55.14,2.29-1.17,4.56,0,6.83,0,2,0,3.38,1.11,5,2a29.22,29.22,0,0,0,4.25,1.59c.23.07.61-.14.84-.32,1.3-1.08,2.58-2.19,4.06-3.44-1.42-1.3-2.46-2.14-3.37-3.11a12.57,12.57,0,0,1-2.14-2.86c-.51-1-1-1.48-2.19-1.17-1.57.42-3.15.79-4.63,1.16a6,6,0,0,0-1-1.34c-1.47-1.24-1.51-2-.1-3.36.47-.46.88-1,1.32-1.45l-.24-.38c-1.06.39-2.19,1.21-3.17,1.07s-1.95-1.21-3.28-2.11c.82-.06,1.25-.12,1.69-.12,1.57,0,3.15-.06,4.71,0a4.76,4.76,0,0,1,2.3.69c.22.16,0,1.28-.32,1.81-.56,1-.19,1.53.74,1.77,1.18.3,2.4.41,3.56.75a3.57,3.57,0,0,1,1.66,1c1.65,1.87,3.21,3.81,4.81,5.72l.44-.19V549.22c.94-.51,1.87-1,2.75-1.5s1.5-.68,1.73.68a3.81,3.81,0,0,0,1,1.73c.81.89,2,1.23,2.59,2.55s2.07.63,2.89-.71c1.19-2-.1-3.79-.58-5.63-.58-2.27-1.27-4.51-1.86-6.77-.34-1.27-.6-2.57-.86-3.86-.18-.85-.65-1-1.39-.67-2.27,1-4.52,2.12-6.84,3.05a17.91,17.91,0,0,1-3.07.57,2.83,2.83,0,0,1-1.45.17,6.31,6.31,0,0,1,1.73-1,4.07,4.07,0,0,0,3.29-3.21,13.9,13.9,0,0,1,.6-1.39l.87.19c-.23.82-.48,1.74-.74,2.65l.47.23c1.5-.62,3-1.29,4.5-1.83,1.3-.45,1.52-1.23,1.14-2.44a9.07,9.07,0,0,1-.15-2c2.32.49.49,2.38,1.72,3.23l2.27-1.35-2.15-1.41.19-.42,2.55.36c.65,1.56-.22,2.41-1.49,2.95a1.61,1.61,0,0,0-1.06,2.34c1,2.86,2.08,5.7,3,8.6.34,1.12.22,2.38.63,3.66l2.89-5,.5.18a11.77,11.77,0,0,1-.34,2.38,23.42,23.42,0,0,1-1.85,4.33,3.93,3.93,0,0,0-.22,3.6,8.28,8.28,0,0,1-2.22,7.92c-1.77,1.61-3.86,2.91-4.88,5.31-.27.64-1.62.83-2.48,1.21a29.87,29.87,0,0,0-5.13,2.35c-2.39,1.67-5.18,1.84-7.81,2.4-4.74,1-9.58,1.59-14.38,2.36-.51.09-1,.33-1.51.43-1.92.35-3.83.72-5.76,1-2.3.33-4.64.4-6.9.88a24.67,24.67,0,0,1-11.74-.61c-1.36-.37-2.33-.31-3,1.1-.23.46-.86.72-1.31,1.08l-.4-.38c.63-1.09,1-2.49,2-3.24,3.31-2.71,4.7-6.55,6.41-10.22.16-.33.26-.8.53-.94,1.2-.66,1.18-1.46.48-2.25,1.42-.77,2.74-1.55,4.12-2.23a1.89,1.89,0,0,1,1.35-.16,29.94,29.94,0,0,1,3.87,1.75c1.45.8,2.8,1.78,4.23,2.63a1.35,1.35,0,0,0,1,.05c2-.68,4-1.4,5.95-2.14.32-.12.82-.41.83-.63a31.13,31.13,0,0,0-.14-3.61c-.12-1.38-.89-2-2.31-2.06a9.34,9.34,0,0,1-2.19-.89c-.69-.24-1.41-.38-2.18-.58l-.15.88c-.2,0-.34,0-.38-.07-.39-.46-.66-1.12-1.14-1.36-2.24-1.08-4.55-2-6.8-3.07a3,3,0,0,1-1.93-2.77c-2.28.51-4.74.72-6.88,1.66a7.88,7.88,0,0,0-3.4,3.54,52.22,52.22,0,0,0-3.1,8c-1.51,4.83-2.79,9.75-4.3,14.59a15.34,15.34,0,0,1-2,3.15c-1.1-2.44-.1-4.24.44-6.15.88-3.08,1.5-6.24,2.27-9.35.42-1.68.87-3.35,1.41-5a33.08,33.08,0,0,1,1.76-4.42c.66-1.3,1.69-2.41,2.36-3.71,1.4-2.71,3.8-3.42,6.56-3.6,1.18-.08,2.37-.23,3.24-.32-1.1-2.65-2.29-5.39-3.38-8.18-1.58-4.08-3-8.22-4.63-12.3-.91-2.33-1.78-2.34-4.12-2-3.07.51-4.29,3.07-6.22,4.81a62.45,62.45,0,0,0-4.16,4.83c-.39.43-1.15.51-1.59.9-1.48,1.33-2.84,2.8-4.36,4.09a35.47,35.47,0,0,1-3.62,2.53,2.26,2.26,0,0,1-.92.21c-2.27.23-5.36-2.94-5.14-5.21a3.06,3.06,0,0,1,2.23-2.8c.82-.23,1.86.37,3.26.7l-2.67,1.51a1.3,1.3,0,0,0-.05.47c.75,2.72,2.2,3.35,4.57,1.64s4.27-3.56,6.36-5.4q3.47-3,6.87-6.14a20.86,20.86,0,0,1,5.31-4c2.8-1.29,4.72-.36,6,1.32.91,1.22,1.64,2.58,2.58,3.78,2.36,3,2.67,6.63,3.4,10.19.49,2.41,1.74,4.66,2.72,7,.07.17.66.22,1,.17,2.38-.42,4.76-.88,7.13-1.34,4.11-.79,5.29-4.18,6.2-7.47,1.1-4,1.7-8.13,2.52-12.2a3.51,3.51,0,0,0,.22-.92c-.27-2.81,1.43-4.71,3.09-6.58a7.31,7.31,0,0,1,2.21-1.74c1.9-.9,3.88-1.64,5.84-2.44s2.4-2.6,1.25-4.49c-.54-.9-.43-2.16-.77-3.2a26.59,26.59,0,0,0-1.51-3.72c-1.16-2.31-2.48-4.54-3.59-6.88a7.18,7.18,0,0,1-.33-2.6q-.15-3.09-.19-6.18c0-.22.35-.44.83-1,.63,2.58,1.12,4.81,1.74,7,.69,2.49,1.43,5,2.3,7.41.6,1.68,1,3.92,2.29,4.74s3.45.19,5.23.09a7.43,7.43,0,0,0,1.87-.61,7,7,0,0,0-.79-1.78c-.78-.92-1.71-1.7-2.81-2.77a3.41,3.41,0,0,1,2.35-2.61,27.22,27.22,0,0,1,2.88-.6l.2.5-.8,1.13c.64.61,1.3,1.22,1.94,1.85,2.19,2.14,2.19,2.14,2,5,2.4.27,4.8.6,7.21.78a12.35,12.35,0,0,0,2.41-.47c1.9-.27,3.81-.54,5.72-.75,1.12-.11,2.71-2,3.36-3.27,2.07-4.16,2.55-9.05,5.88-12.66a14.31,14.31,0,0,0,2.53-4.15,3.7,3.7,0,0,0-.29-2.56,40.16,40.16,0,0,0-2.08-3.73,4.84,4.84,0,0,0-.5-1,44.71,44.71,0,0,1-6.49-9.95c-.5-1-1.1-1.06-2.06-.47a7.31,7.31,0,0,0-2.94,3.81c-1.08,2.75-2.28,5.47-3.33,8.24a4.1,4.1,0,0,1-3.29,2.85c-3.27.58-6.54,1.2-9.82,1.73s-6.28.91-9.43,1.33a10,10,0,0,1-1.34,0l-.14-.6,3.63-1,0-.2h-6.49c-.53,0-1.07.15-1.59.1a2.17,2.17,0,0,0-2.57,1.32,1.74,1.74,0,0,1-.5.62c-3.59,3.28-7.13,6.63-10.81,9.81a10.16,10.16,0,0,0-3.18,5.34c-.48,1.8-2.55,4-4.32,4.31-.21,0-.46-.12-.69-.19.08-.27.08-.67.27-.8.9-.65,1.89-1.18,2.78-1.85a3.22,3.22,0,0,0,1.08-1.38,21.75,21.75,0,0,0,1-4,2.39,2.39,0,0,0-.64-1.88c-3.91-3-7.9-5.84-11.86-8.75-.22-.15-.41-.34-.63-.49-4.37-3-4.45-3.12-9.18-.48-5,2.78-10.44,4-15.77,5.66a5.28,5.28,0,0,1-5.68-2.21,7.58,7.58,0,0,0-3.13-3c-3.45-1.94-6.88-4-11.14-3.19a16.38,16.38,0,0,1-2.47.5c-.95.05-2.15.21-2.83-.27a46.84,46.84,0,0,1-5-4.28c-1.57-1.47-3-3.07-4.6-4.55-1.19-1.13-2.49-2.14-3.71-3.23-1.42-1.27-2.83-2.55-4.18-3.89a2.42,2.42,0,0,1-.63-1.5c-.18-3.48-.4-7-.38-10.44s-1.25-6.56-2.71-9.59a6.69,6.69,0,0,0-1.56-2c-.84-.77-1.81-1.41-2.76-2.13-1.59.78-5,5.82-4.56,7-.42.18-.88.58-1.26.52-3.09-.48-6.21-.37-9.3-.7-.07,0-.11-.36-.23-.77,3.76-.41,7.76.88,10.64-2.09l-2.53-.51a2.75,2.75,0,0,1-3.41-.75l1.67-.37c1.17.12,2.31.59,3.06.23,1.48-.7,3.22-.91,3.67-3.41.39-2.15,2.32-4.06,3.71-6,2.3-3.16,4.85-6.16,6.33-9.84,1.18-2.93,2.19-5.93,3.37-8.86a2.91,2.91,0,0,1,1.37-1.58q6.19-2.21,12.46-4.18c3.36-1.07,6.76-2,10.15-3a2,2,0,0,0,1.61-2.05,3.87,3.87,0,0,1,.48-1.46c1.52-2.9,3-5.8,4.61-8.66,1.25-2.26,2.5-4.54,3.95-6.66a4.05,4.05,0,0,1,2.41-1.3q9-1.8,18-3.42c1.44-.27,2.52-.71,3.06-2.26a9.12,9.12,0,0,1,1.76-2.42,2.09,2.09,0,0,1,2.38-.71c2.23.56,3.34,0,4.58-2.06.39-.63,1-1.11,1.35-1.76a41.45,41.45,0,0,0,1.78-4.17c1.09-3,2.07-6,3.17-8.92a5.53,5.53,0,0,1,1.22-2,45.72,45.72,0,0,1,3.58-3.08c.85-.68,1.78-1.26,2.47-1.74.33.75-.48,3.17-2.19,3.93s-2.13,2.29-2.66,3.56.57,2.52,1.29,3.68a27.53,27.53,0,0,1,1.25,2.63,23.15,23.15,0,0,0,1.93,4c1.49,2,3.22,3.93,4.88,5.86.53.61,1.07,1.1,2,.57a2.42,2.42,0,0,1,1.7,0,38.77,38.77,0,0,0,11.11,1.65,15.32,15.32,0,0,1,1.89.26,2.43,2.43,0,0,1,2.29,2.3,9.58,9.58,0,0,0,2.22,4.11,62.39,62.39,0,0,0,4.83,4.79,1.15,1.15,0,0,0,.87.29c3.68-.72,7,.81,10,2.31,2.3,1.13,4.54,3.51,4.11,6.29-.85,5.55,1.46,10.52,2.1,15.77.06.47.2.93.26,1.41.22,1.89.51,3.51,2.5,4.74,1.56,1,2.48,3,3.64,4.55,2.95,4,4.39,8.66,6.23,13.15,1.33,3.22,2.4,6.55,3.62,9.81a2.19,2.19,0,0,1-.61,2.61c-1.5,1.68-2.39,3.92-3.94,5.54-2.27,2.39-2.82,5.11-2.7,8.23.09,2.52-.08,5.06-.09,7.59a1.62,1.62,0,0,0,.43,1c1.82,2.05,3.67,4.07,5.53,6.08,0,.05.2,0,.35,0l.09-1.49c1.67,2.07,1.78-1.52,3.21-.64-1.23.63-1.52,1.39-.08,2.19l1.78-.94c-.48,1.11-.47,1.16-2.41,1.63a21.65,21.65,0,0,1-3.1.21l1.38,1.08.11-.23c.2.45.39.91.58,1.36.3-.48.6-1,.93-1.49l.67,1.34a8.93,8.93,0,0,0-1.71,1.41c-1.66,2.3-3.23,4.67-4.85,7a8.38,8.38,0,0,0-1.15,1.49c-1.26,3.19-2.44,6.41-3.66,9.61a3.52,3.52,0,0,1-.69,1.38c-1.12,1-.54,1.63.43,2.18a37.06,37.06,0,0,1,3.43,1.95c.51.38,1.12,1.49.93,1.78-.53.81-1.4.81-2.07-.09a.73.73,0,0,0-.37-.29,11.43,11.43,0,0,1-4.81-1.6c-.19-.11-.75.15-1,.39a7.1,7.1,0,0,0-2,5.64,3.54,3.54,0,0,0,1.71,2.85,19.67,19.67,0,0,1,2.62,2.4,2.22,2.22,0,0,0,.81.41c1.2.38,2.41.74,3.9,1.2.05-4.29,4.22-5.93,5.81-9.35-.91-1.52.24-2.79.93-4a5.14,5.14,0,0,0,.74-4c-.26-1.26.42-2.73.75-4.09a6.21,6.21,0,0,1,.72-2.07c1.93-2.81,3.23-2.64,6.11-.79,2.3,1.47,2.46,3.27,2.41,5.48-.07,2.93-.32,5.76-1.9,8.41-1.14,1.91-1.44,4,.55,5.76,1.61,1.41,1.21,3.07.45,4.65-.58,1.2-1.52,2.23-2.06,3.45-.29.64-.05,1.52-.36,2.32-.22-.83-.43-1.65-.64-2.48l-.47,0a11.25,11.25,0,0,0-.09,2.71c.4,1.93-.41,3.28-2.36,3.64-1.52.28-2.2,1.69-3.34,2.48l.77,1.55.65-1.11c.79.14.6,1.06-.3,1.58l-.89.49c-.54-.82-1.06-1.62-1.49-2.26l.68-1-1.38-.15c0-.39-.08-1-.15-2l-2.28.71c-.44-.82-.89-1.66-1.35-2.5l-.35.12v1.44c-.4-.32-.81-.49-.82-.68a29.85,29.85,0,0,1-.09-4.43c.08-1-.43-1-1.08-1.36-1.94-1-3.81-2.15-5.68-3.3-.51-.32-.86-.9-1.36-1.26-2.45-1.76-2.45-4.42-2.6-7,0-.94-.08-1.88-.1-2.81,0-.58,0-1.16,0-2-1.64.15-3.39.25-5.12.5s-3.27.63-5,1l-.27-.85L370.86,507l-.15-.27,1-1.12-4.54-.31.08-1.26Zm-41.38-58.93c0,1.17-1,1.51-1.65,2.2-.27.31-.63.9-.51,1.14a1.62,1.62,0,0,0,1.15.82c2.23,0,4.46-.09,6.7-.16l0-.55a11.12,11.12,0,0,1-1.62.11c-.95-.07-2.16.29-2.5-1.27h3.82V447a9.28,9.28,0,0,1-2.94-.07,9.91,9.91,0,0,1-2.46-1.75l.13-1.12,1,1.29c-.09-1.82.2-2.85,1.87-1.5l.93-.77.36,1.15.44-.21-1-2c.12-.51.25-1.12.38-1.72l-1-.76c-.15.51-.16,1.16-.49,1.48s-.92,0-1.4,0c.19-.77.18-1.75.66-2.23.33-.33,1.37-.08,2,.11.33.09.55.6.78,1,.52.8,1.27.84,1.6.07a4.8,4.8,0,0,0,.38-2.85c-.12-.47-1.24-.94-1.94-1-1.85-.14-3.71-.07-5.56-.06-1.35,0-1.8.93-1.14,2.14a8.17,8.17,0,0,1,1,2.26c.23,1.23.19,2.51.36,3.75C316.27,444.52,316.64,444.82,316.85,445.15ZM374,554.31c.56-.93,0-1.5-.76-1.67-1.26-.3-1.57-1-1.15-2.2-1.51.59-1.9,2.21-1.6,6.17,1-2.12,1.08-2.38,3.21-1.94-.79,1.46-1.32,3.16-2.41,4.34-1.9,2-1.7,3.68.21,5.42a2.26,2.26,0,0,0,.26.16c6.6-2,9.29-5.93,7.84-11-.65.35-1.34.68-2,1.09s-1.12.85-1.63,1.25c.25-1.58.13-1.79-1.45-2.35ZM349.51,447.36l0,0a14.08,14.08,0,0,1-1.07-8.68,18.66,18.66,0,0,1,.78,2.44,5,5,0,0,0,.92,1.22c.45-.42,1.23-.81,1.29-1.28a9.05,9.05,0,0,0-.25-3.4,2.3,2.3,0,0,0-1.57-1.29,34.61,34.61,0,0,0-4.44,0c-2.54,0-2.7.16-2.91,2.77a3,3,0,0,0-.05.79c.13.76-.32,1.94.95,2s1.28-1,1.33-1.93a8.84,8.84,0,0,1,.27-1.32l.63,0c.05,1.59.16,3.18.13,4.76s-.09,3-1.36,4.21c-.3.29-.11,1.39.17,1.95.89,1.7,4,1.26,5.49,0C350.87,448.75,350.78,448.18,349.51,447.36Zm-72.89,2.73c3-.09,3.81-.36,4.62-1.77a10.94,10.94,0,0,0,.52-2.37,4,4,0,0,0-2.48-5.09,21.4,21.4,0,0,1-2.31-1c-1.08-.57-1.14-1.46-.21-2.27,1.09-1,2.07-.63,2.65.65A7.82,7.82,0,0,0,281,440,6.86,6.86,0,0,0,282,437.9c.27-2.6-.15-2.93-2.73-2.53-.21,0-.45-.06-.63,0a26.77,26.77,0,0,0-3.9,1.47c-1.21.65-1.13,2-.91,3.14a3.26,3.26,0,0,0,2.39,2.69,11.93,11.93,0,0,1,2.58,1.08c.94.55.85,1.25-.06,1.83-1.08.68-2,.36-2.86-1-.52-.83-1.06-1.62-2.06-.67a4.42,4.42,0,0,0-.53,4.58A3,3,0,0,0,276.62,450.09Zm56.74-9.41c-1.77-.8-2.2-1.93-1.82-3.07s-.11-1.69-.88-1.73a8.06,8.06,0,0,0-2.54.75c.36.63.72,1.25,1.09,1.87.05.08.18.12.27.16.81.35,1.57.69,1.19,1.85-.07.21.22.55.35.83.9,1.78,1.42,3.91-.36,5.72-1,1-.7,2,.62,2.28a7,7,0,0,0,2.73,0,2.66,2.66,0,0,0,1.71-1c.18-.28-.35-1.24-.8-1.6a3.29,3.29,0,0,1-1.21-3.65c.77-1.89,2.24-3.48,3.35-5.24a4.58,4.58,0,0,0,.33-1.47,13.12,13.12,0,0,0-3-.4c-.25,0-.48,1.2-.62,1.87C333.58,438.75,333.5,439.63,333.36,440.68Zm29.87-3.6,0-.34c-1.47,0-2.93-.05-4.39,0-.39,0-1.07.48-1.07.74a1.53,1.53,0,0,0,.72,1.23c1.09.34,1.16,1.05,1.09,2s-.08,1.7-.07,2.54a5,5,0,0,1-1.75,4.37,1.49,1.49,0,0,0,.69,2.66,17.32,17.32,0,0,0,4.65-.2,1.76,1.76,0,0,0,1.08-1.3c0-.46-.57-1-.94-1.43s-1.32-1-1.37-1.58a33.07,33.07,0,0,1,0-5.36,12.09,12.09,0,0,1,.75-2.54,9.57,9.57,0,0,0-1.57-.45,13.64,13.64,0,0,0-1.92,0v-.33ZM387.31,463l4.54,6.67c.54-3.35,1.5-6.16.63-9.66ZM302,441.7a5.13,5.13,0,0,1-.06-1.78,3,3,0,0,1,5.16-1c.49.5,1,1,1.52,1.47.07-.64.15-1.28.21-1.93.28-2.82.27-2.82-2.51-2.71h-.8C301.75,435.76,300.11,438.29,302,441.7Zm7.48,7.44c0-1.08,0-1.92,0-2.75,0-1.1-.48-2.36.92-3.1.13-.07,0-1,0-1-1.08-.05-2.17,0-3.26,0a8.84,8.84,0,0,0,.06,1.86c.55,2-.45,3.14-2.52,2.72l-1.41-.29-.12.35,2.42,1.26-1.37,1,0,.34Zm-18.66-2.65-.47.32c.09.77-.08,2,.32,2.2a7.44,7.44,0,0,0,2.78.5l.06-.45-1.18-.4.09-.33,1.39-.11.11-.43Zm76.53,52.2-.42.38c.61,2.13,1.39,2.86,2.48,2.1Z" transform="translate(-218.14 -237.74)"/><path class="cls-1" d="M277.69,337.8c.86-.5,1.73-1,2.58-1.49a1.52,1.52,0,0,0,.5-.44c.21-.29.37-.62.56-.94.34.26.82.45,1,.79.69,1.24,1.23,2.57,1.93,3.81,1,1.67,2,2.17,3.6,1.33s3.44-1,5.12-1.66a2.23,2.23,0,0,0,1.25-1.29c.68-2.78,1.69-5.19,4.77-6.14.53-.16,1-1,1.2-1.64.62-2.11,1-4.31,1.71-6.38a3.73,3.73,0,0,1,2-1.81c3.45-1.45,7-2.66,10.44-4.17a4.43,4.43,0,0,0,2.12-2.38c.94-2.66,3.32-3.3,5.45-4.32.55-.26,1.13-.43,1.85-.7-.2,2.41-1.9,2.84-3.5,3.33-2.25.69-3.58,4-1.9,5.53,2.27,2.08,2.7,4.7,3.54,7.42,1.47,4.78,3.64,9.34,5.52,14,.14.34.34.66.49,1,.89,2.1.74,2.52-1.1,3.79-2.36,1.62-4.69,3.29-7,5-1.13.83-2.18,1.69-1.48,3.41.18.46-.11,1.13-.25,1.69-.53,2.21-1.14,4.4-1.61,6.61s-.59,2.3-2.85,2.54-4.68-.56-6.86.65a2.43,2.43,0,0,0-1.07.95c-.68,1.48-1.25,3-1.87,4.53a1.61,1.61,0,0,1-2.14,1.09,16.67,16.67,0,0,0-3-.51,4.75,4.75,0,0,0-1.93.35,43.13,43.13,0,0,1-4.6,1.88c-4.41,1.09-8.86,2-13.32,2.94a3.3,3.3,0,0,0-3,2.83c-.16.83-.4,1.64-.52,2.48-.28,1.78-.92,2.15-2.6,1.43s-3.43-1.39-5.12-2.14a2,2,0,0,0-2.7.37c-.56.63-1.3,1.1-1.9,1.68-1.85,1.79-2.72,2-5.85.83a11.49,11.49,0,0,1,2-.53,4.07,4.07,0,0,0,3.45-1.76c1.05-1.43,2.75-2.37,4.09-3.6a2.71,2.71,0,0,0,.85-1.5c.25-1.89.38-3.8.52-5.7a4.57,4.57,0,0,1,2.26-3.4c1.12-.84,2-2,3.08-2.89s2.29-1.47,3.28-2.37a4.65,4.65,0,0,0,1.26-2.18c.53-2.15.68-4.41,1.39-6.49s2.07-3.91,2.85-6c1.12-2.94,2.24-5.93.2-9.07-.66-1-1.15-1.15-2.14-.82-.8.26-1.65.39-2.48.58Zm38.94-17.53c.86,2.11,1.8,4.42,2.69,6.59C318.94,323,317.77,320.43,316.63,320.27Z" transform="translate(-218.14 -237.74)"/><path class="cls-1" d="M375.72,374.84l.92.83,1.13-1.93c.9,1.65.82,1.86-.62,2.81l2.61-.83c-.36,1.34-4.26,3.15-6.18,3.11l-.12.39,3.41.87c-.49.19-.88.51-1.15.43-1.23-.36-2,.26-2.67,1.12s-1.28.87-2.05,0l.84-.66-3.54-2.51,2.34-.22,0-.74c-.7,0-1.4,0-2.1,0-.24,0-.46-.3-.68-.46.21-.2.39-.52.63-.57a13.33,13.33,0,0,0,2.2-.46c-2.19,0-2.95-1.31-3.21-3.18l1.43.5.36-.54-2.23-2-.48.35.53,1.31-1.22.82v-1.38H365l2.07-3.07c.25-.1.65-.13.7-.29.54-1.53,1.86-1.4,3.09-1.63l.14,1.05.44-.09c-.15-.5-.27-1.4-.47-1.41a7.75,7.75,0,0,0-4.94.94c-.07.05,0,.28-.05.56l1.21-.24-.07,1.14-3.22,2.2c-.13-.3-.66-.64-2.07-1.28-.12-.05-.11-.71.05-1a14.13,14.13,0,0,1,1.25-1.55c.14.47.25.94.43,1.38a10.81,10.81,0,0,0,.57,1.06l.3-.17-.5-1.44.31-.19.94.72c0-2-.35-2.18-2.05-1.35-1.68,1.26-3.12.77-4.66-.88l1.75-.17c-.41-2.33-2-2.3-3.9-1.72l-.17-.55a26.26,26.26,0,0,1,2.69-1.8c.63-.33,1.44-.29,2.11-.56.32-.13.79-.76.72-.87-.74-1.21.44-1.32.92-1.91a19.33,19.33,0,0,0,1.66-2.87l.87-1.5.4.27-.72.92,2.9,1.66,1-1.27.33.18-.36,1.35,1.23-.89,1,5c-.06,0-.49.2-.66.07-1.73-1.31-3.29-.86-3.78,1.14-.15.61-.33,1.21-.48,1.83,0,.07.08.17.22.49l1.92-1.09,0,0a17.47,17.47,0,0,0,3,1.46,6.55,6.55,0,0,0,2.3-.18l.45,0c.23.23.45.47.69.69s.47.36.78.59c-.15-1.52-.28-2.77-.39-3.94l-.85.64-.23-.2,2.36-2.69a18.43,18.43,0,0,0,1,1.82c.09.12.6-.05,1.27-.12l-1.3-.53.51-.86-.34,0,.21-3.44.41-.07.73,1.83h.25l-.47-1.86.74.81.66-2,2.2-.16,1.8-1.06c.13,1.46.25,2.89.38,4.37l-1-.17,1.31,1.1,1.1-2.43,1.5,2.9,3.06.25L389,359l-.44.27.39.77-.32.36L386,357.82l1-.62-.92-.43.78-2.19c1.58-.21,1.58-.21,1.31-1.46l-.7.61-.29-.23,1.07-1.49,1.64,3.87c-.24.68-.57,1.63-.9,2.61l1.76-.32v2.91l-.38-.26-2.48,1.81,1.61.7c-.4-1-.4-1,3.54-2.11l-2-.09.94-.56-1.28-2.36-.35-3.14.63-.26c.2.39.68.94.56,1.15-1,1.77-.15,2.25,1.47,2.32a3.79,3.79,0,0,1,1,.39V361l1.53-.22-.59-.7a2,2,0,0,1,2.76,2.22L396.54,361l-.4.29.77,1.73-1.7.73,1.38.72c-.17,1.17-.34,2.39-.54,3.76L397.6,367c-.28.65-.31.93-.46,1.06-.64.52-.58.76-.05,1.52s.57,2.17.66,3.3c0,.3-.5.65-.9,1.13.06-1.36.11-2.43.16-3.57l-1.84,2.07-.46-.46,1.23-1-.34-2-1.89,2.47c-1.25-.69-1.49.38-1.81,1.23l-2.15-.21c.43.91.81,1.75,1.2,2.59l-.52.34-1.92-2,.53,3.39c-1.14-.25-1.14-.25-4,1.51a8,8,0,0,0,.65-1.29,7.27,7.27,0,0,0,.08-1.28L384.3,377l0,.05c.22-1.6.45-3.19.67-4.79l-.47-.12-1,3.2.46.2-1.42.5-1.44-2.68c-.85,1.11.93,2.94-.73,3.86l-.35-3.34-1.27.79c-.94-1.94,2-1.26,1.67-2.8l-2.85.77-.3-.86-1.06.26,1.26,1.6-1.39.76c-.05-.19-.11-.38-.17-.58a9,9,0,0,0-1.63,1.5c-.1.14.63.85,1,1.3C374.67,375.79,374.47,375.23,375.72,374.84Zm4.73-10.61-1.5-1.15c-.13,1.85.47,3,1.63,3.33-.06-.74-.11-1.48-.16-2.22.27.43.54.87.82,1.29l1.32,2,.56-.56-1.7-1.17.59-.22a7.3,7.3,0,0,0-.31-1.3,3.65,3.65,0,0,0-.66-.77Zm-15.36-5c1,.55,1,.55-.91,2l-.36-.9-1.08,1.41.21.41,3.41-1.11a5.56,5.56,0,0,0,.31-1.52,1.1,1.1,0,0,0-.65-.84c-.27,0-.61.37-.92.58-.48-.23-1.22-.76-1.38-.62a11.66,11.66,0,0,0-1.56,2,4.41,4.41,0,0,0,1.64-.8A9.8,9.8,0,0,1,365.09,359.19Zm16.26,2.12,1.25,1.74-.14.18c.26.65.53,1.29.72,1.76l1.72-1c.24-1.07.54-2.35.84-3.69Zm.64,7.27-.9-1-.39.2.49,4.8c.25-.17.38-.21.4-.28.51-1.4.82-2.9,3-2.51.38.07.94-.86,1.42-1.33l-.29-.24-1.4,1.06-.23-.26.51-1-.33-.28-1,1c-.09-.24-.2-.54-.55-1.43Zm-19.71-5.35c.72,1.12,1.25,2,1.78,2.8l.75-.55.35,1c.41-.36.58-.83.43-1a7.36,7.36,0,0,0-1.29-.9v-2.16Zm11.19,7.37,2.35-1.43-.54-.8-.95.77-.22-.16.91-1.84c-1.63-.33-2.07.07-2.2,1.94l.94-.53C373.67,369.2,373.6,369.7,373.47,370.6Zm11.76-5.2.08.4c-.38.08-.87.05-1.11.28a3.41,3.41,0,0,0-.51,1.16l.5.3,3.6-4c-.8-.18-1.57-.54-1.72-.36a12.11,12.11,0,0,0-1.26,2.15Zm-15.84,4.35,1.91.24.27-1.29-1.62-.6Zm14.69.81c-1.85.42-1.11,2.14-2,3l.58.28Zm-7.38-4.35,1.85-.41v-1.11C378,365.35,376,364.36,376.7,366.21Z" transform="translate(-218.14 -237.74)"/><path class="cls-1" d="M276.85,555.72l5.31,1.53.35-.32c-1.17-2.32.48-3.84,1.28-5.62a3.41,3.41,0,0,0,.44-2.19,32.86,32.86,0,0,0-5.74-9.7c-.83-.93-1.31-2.15-2.06-3.15-.4-.55-.3-2-2.11-.58l.35-.81,1.27-.57c0-2.17,0-4.35,0-6.54,0-.4.28-.8.31-1.2a28.85,28.85,0,0,0,.13-2.93c0-.41-.37-.8-.37-1.21,0-2.68-.08-5.36,0-8a12.35,12.35,0,0,0-2.22-7.64,1.74,1.74,0,0,0-1.15-.57c-2.39-.24-4.79-.41-7.19-.64-2.17-.21-4.36-.4-6.51-.73-.57-.09-1.06-.69-1.74-1.17l-.43,1.75c-4.57.64-7.68,3.1-8.84,7.88-.91-.62-1.17-1.09-.71-2a9,9,0,0,1,5.69-5c3.58-1.1,4.28-3.36,2.17-6.64s-1.77-3,1.56-4.45c2.11-.9,3.56.53,4.86,2.05,1,1.22.4,2.26-.19,3.34a6.25,6.25,0,0,0-.56,1.13c-.61,2-.59,2.12,1.51,2.38,3.24.41,6.48.78,9.74,1,1,.07,2.19-.67,2.94.56a13.06,13.06,0,0,1,1.41,2.79c.53,1.65.88,3.37,1.32,5.06a9.21,9.21,0,0,0,.8,2.73c1.07,1.63,1.77,3,.28,4.87-.34.41.38,1.57.41,2.39a21,21,0,0,1-.05,5.2c-.75,3.4-1,6.35,1.46,9.47,2.2,2.74,3.44,6.27,5,9.48,1,2,.65,4-.29,6.05a9.19,9.19,0,0,0-.91,3.52c-.08,1.7-.22,3.92-2.07,5a3.63,3.63,0,0,1-2.66.12,12.64,12.64,0,0,1-3.27-1.9,1.79,1.79,0,0,1-.43-1.51A27.86,27.86,0,0,1,276.85,555.72ZM257.43,503c3-3.25,3.15-3.7,1.6-5.75a3.34,3.34,0,0,0-2.43-.83c-.43,0-1.34,1-1.25,1.24C255.88,499.41,256.63,501.06,257.43,503Z" transform="translate(-218.14 -237.74)"/><path class="cls-1" d="M427,438.41c-4.5.28-7.07-3-10.5-3.6L410.3,436c.83-1.93,2.67-1.2,4.23-1.29-.82-1.09-.81-1-2.22-.65a7.66,7.66,0,0,1-1.67.1l-.06-.67,1.81-.29-1.14-1.67-.37,1.27h-.45L410,431l-1.89.65-.41-.51.73-.46c-1.16-1.08-1.87-3.16-4.22-3.21l.1-1.15-.95.23c-.88-1.19-1.82-2.34-2.63-3.58-2.07-3.19-4-6.49-7.16-8.81-1.59-1.16-3.2-2-5.26-1.65-.32.06-.72-.32-1.08-.5a4.37,4.37,0,0,1,1-.54c.45-.12.95-.05,1.41-.13,1.69-.3,2.05-.13,2.57.81a26.51,26.51,0,0,1,3.87,1.77,24.16,24.16,0,0,1,7.32,8.39,4.9,4.9,0,0,0,4.12,2.77l-1.12.67c1.06.14,1.68.14,1.29-.9a8.08,8.08,0,0,1,.5-6.07,8.26,8.26,0,0,1,1.58-1.91l.54,1.21,1.47-.72a12.58,12.58,0,0,0,1.17,2.1,11.57,11.57,0,0,0,1.84,1.45c-.55,1.26.87,1.42,2,2.06-.54.4-1,.71-1.56,1.16v-1.3l-.42-.09c-.51,1.5-1,3-1.58,4.61l-2.39-.47,1.28,2.18.43-.62,1.54,2.56.7-.31-.64-2.41c.52.18,1.08.2,1.23.45.33.58.83,1.51.6,1.87-.7,1.13-.14,1.41.72,1.82,2.76,1.33,5.51,2.68,8.21,4.11A12.24,12.24,0,0,1,427,438.41Z" transform="translate(-218.14 -237.74)"/><path class="cls-1" d="M397.59,378.13c.23-.19.45-.39,1-.88-.51,2-.92,3.73-1.4,5.66l1.06.64.41-4.43,2.11.42.15,1.66,0,0,.51,1.9c1.11-.46,2-.33,2.3.91-.48.12-1.21.09-1.38.39a31.68,31.68,0,0,0-1.58,3.51l2.7-2.3c.72.53.48.92-.17,1.26-.95.5-1,1.1-.08,1.91l.37-.84c1.06.51,2.37.72,2.24,2.38,0,.05.37.13.56.2l0-.05c-.66.95.34,1.36.64,2,.16.36.28.75.56,1.53.3-.88.53-1.57.76-2.26l-.06.05h.86c-.25.8-.28,1.73-.76,2.24s-1.66.74-2.3,1.32a23,23,0,0,0-2.32,2.8c-.18-.25-.58-.84-.94-1.36-1.23.55-1.23.55-2.29,4.09l-.88-1.42.89-1.59-1.53.3c-.35.8-.64,1.46-1,2.35a6.23,6.23,0,0,1-.5-1.17,10.4,10.4,0,0,1,0-1.37l-1.74.57-3.54-3.16,2.83-.51.07.6-1.18-.09-.19.31,3.08,1.85.32-.24c-1.25-1.52-3.25-3-.39-4.82l-1.9-1,1.08-1.87-.26-3.61c1.65,1,1.65,1,2.11-1.84L395,385.2c.17-.58.37-1.28.6-2h-1.4l-.08-.3,1.87-.51-1.5-.74,1.91-.18.6-1.61-1.29.07-.72-2.05c1,.11,1.53,2.88,2.57.28Zm2.86,15.08.16-.42c-2-2.42-2-2.42-3.45-.51Zm5.94-.59-.39-.45-2.22,2.36c.26.51.49,1,.89,1.81-.17-2.39-.17-2.39,1.1-2l-.75.27.23.19h1.39l.58-.67-1.5-1Zm-8.58,2-.94,1.21a4.15,4.15,0,0,0,.61.32c.24-.3.61-.69.56-1a12.27,12.27,0,0,0-.75-2.08l-1.59,1Z" transform="translate(-218.14 -237.74)"/><path class="cls-1" d="M236,525.06c-.41-.37-1.08-.66-1.19-1.1-.52-2-.92-4-1.25-6a7.12,7.12,0,0,1,.06-2.52c.57-2.87,1.51-5.58,3.84-7.54a5.2,5.2,0,0,1,1.37-.79c1.71-.71,1.19-2.24,1.09-3.44,0-.44-1.12-.84-1.78-1.15-2.66-1.25-4.12.54-5.58,2.27-.57.67-1.07,1.4-1.73,2.26-1.13-1.36-.23-2.34.19-3.29a7.26,7.26,0,0,1,1-1.4c1.55-2,.82-4.08,0-6.12-.68-1.68.16-2.77,2-2.58a5.08,5.08,0,0,0,1.32-.23,4,4,0,0,1,1.8,4.25c-.29,1.81.52,2.61,2.25,3.06a3,3,0,0,1,2.42,3.73c-.43,1.74-1,3.5-2.78,4.44-2.36,1.28-3,3.61-3.16,5.87a49,49,0,0,0,.5,7.42c.07.86.13,1.72.19,2.58Z" transform="translate(-218.14 -237.74)"/><path class="cls-1" d="M267.62,518.7c-.08,1.52-.15,2.94-.23,4.36a1.5,1.5,0,0,1-.08.47c-.41,1.06-4.38,3.51-5.5,3.74a19.59,19.59,0,0,0-4,1.47c-.41.19-.6.87-.78,1.15l-4.89,2.23c0-.49-.44-1.47-.12-1.89a29.62,29.62,0,0,1,4-4.26,3.67,3.67,0,0,1,2.37-.39c2.49.15,4.23-1.52,6.2-2.54.36-.19.37-1.32.31-2C264.61,518.43,265,518,267.62,518.7Z" transform="translate(-218.14 -237.74)"/><path class="cls-1" d="M393,535.69c1.4.13,2.11-.47,2.66-1.83.89-2.18,1.81-2.33,3.93-1.19a7,7,0,0,0,1.47.41c-.87,1-.48,3.67.64,4.71-2.13,1.11-2.26,3.46-3.61,5.16-1.88-.57-2-.77-1.95-3.08a1.18,1.18,0,0,0-.18-.72c-1-1.18-1.95-2.34-2.93-3.51Z" transform="translate(-218.14 -237.74)"/><path class="cls-1" d="M233.33,479.19,228,482.05c-.28-.84-.16-1.2.82-1.82l12.36-7.87a9.5,9.5,0,0,0,4.66-7.25,9,9,0,0,1,1.4-3.48,4.91,4.91,0,0,1,.27,1.95c-1,3.54-2,7.07-5.54,9.2a39.07,39.07,0,0,0-6.05,4.79,5.28,5.28,0,0,0-1.24,2.69c-.47,2.29-.76,4.62-1.14,7.1-1.59-.72-.76-1.76-.79-2.57a17.17,17.17,0,0,1,.11-2.68C233,481.19,233.15,480.27,233.33,479.19Z" transform="translate(-218.14 -237.74)"/><path class="cls-1" d="M367.27,308.42c-.62,1.34-1.13,2.46-1.62,3.55l-.62-.81-.56.84-2.55-1.74-.41.9a1.65,1.65,0,0,1-.33-.21c.2-.56.41-1.11.66-1.77-.17-.17-1.46-.26-.09-1.05.67-.38.86-.84.05-1.59a2.6,2.6,0,0,1-.33-2.34c.37-.95,1.38-1.92,2.46-1.24a3.69,3.69,0,0,1,1.47,2.54C365.48,307,365.88,308,367.27,308.42Z" transform="translate(-218.14 -237.74)"/><path class="cls-1" d="M286.12,289.14l.51-.58,1.45,1.18.26-.22-.7-1.16,2.51,1.46c0,1.38-3.18-1-2,1.78l1.33-.61.27.36-2.08,1.44.58,2.19-.46.26c-.43-.85-.52-2.39-1.88-1l-.77-1.33-2.53.14.61,1.45c-1-.8-1.9-1.53-3.17-.27l-.16-.47,2-1.69-.36-.61,2.17.14.08-.54-2.16-.52c-.16-1.7-.16-1.7,2.94-2l-1.95-1C284.5,286.92,284.81,289,286.12,289.14Z" transform="translate(-218.14 -237.74)"/><path class="cls-1" d="M408.44,414.19l-1-1.23.41.11c.63-1.66,1.31-3.3,1.85-5,.07-.23-.51-.67-.94-1.2.26-.23.7-.6,1.17-1L411.4,409l1.47-.31c.28.94.57,1.94.87,3h-.88a6.78,6.78,0,0,0-.1,1,7.6,7.6,0,0,0,.29,1.24l-1.81-1.62c-.22,1.47-.4,2.67-.6,3.95l-2-.18-.39,1.74-.71-.18Z" transform="translate(-218.14 -237.74)"/><path class="cls-1" d="M344.91,356.64a15.42,15.42,0,0,0-1.9.84,12.76,12.76,0,0,0-1.28,1.17c-1.08.9-2.17,1.78-3,2.47L334.06,359c.91-.49,1.41-.77,1.93-1,.28-.14.71-.15.86-.37.82-1.22,1.24-.58,1.46,0l6.35-1.57Z" transform="translate(-218.14 -237.74)"/><path class="cls-1" d="M356.07,503.68c-.39.32-.75.88-1.18.94-4.3.58-8.61,1.08-12.92,1.58a.92.92,0,0,1-.77-.37C346,504.51,350.74,503.1,356.07,503.68Z" transform="translate(-218.14 -237.74)"/><path class="cls-1" d="M409.44,477.34l-.08,1.57-.88.27-.09.33,2.8,1c-.43,1.67-.7,1.79-2.1,1-.29-.16-.74,0-1.57,0l2.8-.25a2.87,2.87,0,0,0-4.07,0c-.55.43-1.95.17-2.73-.24-.61-.32-.15-.93,1.24-1.11l-.73-1,.19-.24,1.61,1.32,1.95-.79v-.31l-2.48.19,2.27-1.7.31,1.15,1.61-1.13Z" transform="translate(-218.14 -237.74)"/><path class="cls-1" d="M330.05,250.34l.85-1.28c-1.31-1-2.42,1.7-3.69-.09.79-1.8,2.69-1,4.35-1.88-.12,1.24-.2,2.1-.28,3l1-.77a2.56,2.56,0,0,1-.45,4.44l.7-1.85-3.13,1.17-.22-.38,2.19-1.36Z" transform="translate(-218.14 -237.74)"/><path class="cls-1" d="M400.92,381.2c1.23-.51.78-1.4.52-2.27l-1,.36,1.07-1.55c-.92-.67-.73-1.48.9-2.82a3.53,3.53,0,0,0-.44,1.13,1.13,1.13,0,0,0,.47.92,6.68,6.68,0,0,0,1.68.24v.52l-.72.69,1.15,1.35.68-1.27a10.5,10.5,0,0,0,.17,1.43,9.4,9.4,0,0,0,.76,1.28L402.91,380l-.45,2.4-1.57-1.27Z" transform="translate(-218.14 -237.74)"/><path class="cls-1" d="M229.06,439.18c1.14-.93,1.69-1.9.13-3l.6-.23,1.72,2.51c1.27.07,3,.45,3.7-1.2l4,.61c-.71.66-.9,1.67-2.08,1-.34-.21-1,.09-1.5.15l-6.33.77Z" transform="translate(-218.14 -237.74)"/><path class="cls-1" d="M407.56,437.19l-.77-.72,1.19-1.62.3.12-.55,1.25c2.15-.86,2.59,1.94,4.62,1.85l-1.29.94.16.32,1.22-.23c-.7,1.36-.19,3.25-2.11,3.83l.64-3.45c-.49-.87-2.25.7-1.94-1.17l1.56.34.11-.45-1.93-.43.32-1-.29-.19-1.48,2.06-.28-.13Z" transform="translate(-218.14 -237.74)"/><path class="cls-1" d="M235.71,435c-.43.22-.91.71-1.26.62a17.7,17.7,0,0,0-5.57-.46,5.73,5.73,0,0,1-1.62-.37l.51-1.16,7.62.81Z" transform="translate(-218.14 -237.74)"/><path class="cls-1" d="M418.43,481.86c-.58,1-.89,1.92.59,2.47.31.11.49.55.73.83l-.72.58-3.63-3.58.06-.3,1.79.63-.86-1.82-1.53,1-.19-.36c.7-.47,1.14-1.53,2.39-.75.17.11.8-.5,1.25-.79.52.66-1.62,1.59.15,2.15Z" transform="translate(-218.14 -237.74)"/><path class="cls-1" d="M342.06,352.64c-.13.26-.31.76-.4.74-2.08-.34-2,1.31-2.33,2.89-.29-1.27-.51-2.2-.73-3.13l-.53.05-.65,1.39c-.52-1.72-.29-2,1.24-1.74a3.5,3.5,0,0,0,3-.64c1.35-1,1.43-.93,2.57-.13C343,353.72,343,353.72,342.06,352.64Z" transform="translate(-218.14 -237.74)"/><path class="cls-1" d="M402.33,406.36l.79,1.1h-1.44l-.43,2.36.28.05,1-1.87.34.17c-.62,1.6-1.23,3.21-1.88,4.81-.07.18-.45.42-.56.37a1.29,1.29,0,0,1-.62-.62.84.84,0,0,1,.05-.71,17,17,0,0,1,1.21-1.34l-.47-.45-.74,1.71-.76-1.61C401.56,410.1,400.16,406.89,402.33,406.36Z" transform="translate(-218.14 -237.74)"/><path class="cls-1" d="M405.39,397.55c.17,1.11.33,2.18.55,3.6l2-1.48.22.2L405.27,403c-1.38-.67,0-2-.43-3.37l-1.1,1.41-2.16-.88.12-.46,1.89.5C404.16,399.4,404.81,398.41,405.39,397.55Z" transform="translate(-218.14 -237.74)"/><path class="cls-1" d="M389.8,542.07l1.62-.41a22,22,0,0,1-.72-3c0-.17.92-.45,1.13-.54.2,1.35.39,2.59.62,4.07-1.41.7-2.89,1.93-5,1.3.87-.5,1.63-1,2.38-1.4Z" transform="translate(-218.14 -237.74)"/><path class="cls-1" d="M373.81,365.33l-.45,0c-.5-.28-1.13-.92-1.49-.79a2.58,2.58,0,0,1-3.54-1.39c0-.06-.28,0-.51,0l.26.91,0,0-1-.07.83-2.39.81,1.16v-1.21l.3-.16c.19.28.62.68.54.82-1,2,.62,1.49,1.47,1.57a25.3,25.3,0,0,0,2.76,0Z" transform="translate(-218.14 -237.74)"/><path class="cls-1" d="M358.57,335.72c.26-1.49.36-2.92-1.49-3.62l.28-.31,1.32.43.47-1.4.42.1c-.07.56-.13,1.13-.2,1.69l.22.06.7-1.38,2.15,1.13-1.31.15-.7,1.9-.51-1.4a6.7,6.7,0,0,0-.5,1.14,12.52,12.52,0,0,0-.21,1.63Z" transform="translate(-218.14 -237.74)"/><path class="cls-1" d="M294.4,282.9l1.76-.09c-1.26.66-.82,2.77-2.85,2.21-.22.68-.45,1.37-.72,2.19l-.74-1.23.81-.39-.7-1,1.14-.77,1.54.88c-.78-1.36-1.62-2.41.23-2.95,1.24-.36,1.3-.43,1.68.45l-2.2.24Z" transform="translate(-218.14 -237.74)"/><path class="cls-1" d="M387.25,531.15l2.26-1.83.29.32-1.54,1.81.94,1-.19.33-1.49-.89-.9.86.69,0c-.3.9-.59,1.74-.88,2.59-1.27-1,1-3.13-1.27-4l2.1-.13Z" transform="translate(-218.14 -237.74)"/><path class="cls-1" d="M303.24,560.86c1-.68,2.1-1.54,1.05-3.29l.48-.1c.28.23.82.61.79.68-.79,1.44.27,2.17,1.05,3.2l-1.92-.52-.13.26.86.6-.94,2Z" transform="translate(-218.14 -237.74)"/><path class="cls-1" d="M250.27,522.37l-3-1.71-.11,2.3-1.79-.79,1.88-2.45,1.23-.25Z" transform="translate(-218.14 -237.74)"/><path class="cls-1" d="M382,355.89l-2.2.16-.72-1.31c1.25.71,2.16,1.19,2.47-.74,0-.2.56-.37.89-.47a11.84,11.84,0,0,1,1.55-.26Z" transform="translate(-218.14 -237.74)"/><path class="cls-1" d="M407.48,484.13h-5c.52-.51,1-1.27,1.68-1.56a3.34,3.34,0,0,1,2.1.15C406.67,482.85,406.91,483.43,407.48,484.13Z" transform="translate(-218.14 -237.74)"/><path class="cls-1" d="M387,339.71l-2.92,2.21c-.74-1.25-1.54,0-2.62.15.22-.38.35-1,.67-1.1,1.48-.56,3-1,4.54-1.46C386.85,339.47,387.08,339.73,387,339.71Z" transform="translate(-218.14 -237.74)"/><path class="cls-1" d="M355.69,529.83l-.59,1.11,1.43.53-.56-1.24,1.32.12c.36,1,.73,2.14,1.11,3.22l-.43.34c.26-2.28-1.78-1.44-2.59-2.26-.33-.34-.89-.67-.91-1s.54-.7.85-1Z" transform="translate(-218.14 -237.74)"/><path class="cls-1" d="M374.42,328.56V327.2l-1.46.13-.15-.7c1.2-.34,2.4-.64,3.58-1,.54-.19,1-.57,1.76-.83-.37.45-.75,1.29-1.12,1.28-1.44,0-2,.57-2,2,0,.21-.18.43-.28.65Z" transform="translate(-218.14 -237.74)"/><path class="cls-1" d="M386.27,538.64a27.09,27.09,0,0,1,.88,2.73,5.28,5.28,0,0,1-.27,1.67l-.47-1-.67,1.68-.43-.14a8.68,8.68,0,0,0,.58-1.86,6.94,6.94,0,0,0-.34-1.83l.76-1.33Z" transform="translate(-218.14 -237.74)"/><path class="cls-1" d="M406.36,390.48c.49-1.59.14-3.41,1-4.89l.49.12c-.24,1-.51,2-.68,3.06-.06.34.08,1,.23,1.05,1.27.27,1,1.12.81,1.93l.06-.05-1.54-.35,1.1-.83-1.52-.09Z" transform="translate(-218.14 -237.74)"/><path class="cls-1" d="M288.05,288l-1.51-.62,1.08-.46c-.23-.66-.53-1.4-.76-2.17s-.36-1.46-.54-2.2l.46-.08q1,2.52,1.9,5Z" transform="translate(-218.14 -237.74)"/><path class="cls-1" d="M337.65,518.76l1.21.94-1,.48L339,521c-.43,1-1,2.18.73,2.9l-.3.39-2.12-1.58L338,522l-.67-3Z" transform="translate(-218.14 -237.74)"/><path class="cls-1" d="M286.8,304.85l-4.09,2.24-.33-.55,1.54-1-1.26-.64,3.85-.45Z" transform="translate(-218.14 -237.74)"/><path class="cls-1" d="M387.26,531.15,383.83,530l-1-2.79.29-.12c.28.54.62,1.06.85,1.62s.18,1.64,1.21.53c.1-.1,1,.39,1.36.74a4.51,4.51,0,0,1,.68,1.2Z" transform="translate(-218.14 -237.74)"/><path d="M403.44,385.57l-2.7,2.3a31.68,31.68,0,0,1,1.58-3.51c.17-.3.9-.27,1.38-.39C403.62,384.5,403.53,385,403.44,385.57Z" transform="translate(-218.14 -237.74)"/><path class="cls-1" d="M327.15,522.73l-1.19-.91c2,.6,2.1.93,1.3,2.18.31.69.52,1.17.72,1.65l-.43.23-1.09-1.15.13,1.34-.18,0-.63-1.27C326.24,524.13,326.67,523.46,327.15,522.73Z" transform="translate(-218.14 -237.74)"/><path class="cls-1" d="M236.59,462.16h-5.2C232.64,460.53,234.26,460.56,236.59,462.16Z" transform="translate(-218.14 -237.74)"/><path class="cls-1" d="M378.13,352.43l-1.57.57c-1.2-1.24-1.42-1.25-2.61,0l-1.21-.58C374.45,350.46,376.12,352,378.13,352.43Z" transform="translate(-218.14 -237.74)"/><path class="cls-1" d="M397.86,406.9v-3.22l1,1.28.62-.72,1.79,1.17a6.81,6.81,0,0,1-1,.58C399.28,404.73,398.63,405.6,397.86,406.9Z" transform="translate(-218.14 -237.74)"/><path class="cls-1" d="M400.45,367.33l-.82.23v.23l.81.16v2l-.38.2c-.66-1.13-1.31-2.27-2.05-3.57l2.38.38Z" transform="translate(-218.14 -237.74)"/><path class="cls-1" d="M418.46,481.9l1.59-2.26.77,2.65-1.55-.37.42,1.41-.48.23-.78-1.69Z" transform="translate(-218.14 -237.74)"/><path class="cls-1" d="M340.55,260.77l.93-.62.49,1.53.49-2.09,1.92.78v.2h-1.32l.17,1.34-2.7-.63Z" transform="translate(-218.14 -237.74)"/><path class="cls-1" d="M328.84,351.81l.81-.76c1,1.67,2.08.62,3.31.16l.85,1.44-4.93-.31Z" transform="translate(-218.14 -237.74)"/><path class="cls-1" d="M343,363.12h-4.88l.77-1.1,4.15.63Z" transform="translate(-218.14 -237.74)"/><path class="cls-1" d="M372.45,499.49l.82,1.33L374,499c.27,1.45.48,2.61.7,3.83-.81-.06-.49-2.63-2.05-.67l-.62-2.53Z" transform="translate(-218.14 -237.74)"/><path class="cls-1" d="M230.71,430.41l-.88.51-.44-1.7,4.82,1.32-.12.57Z" transform="translate(-218.14 -237.74)"/><path class="cls-1" d="M333.68,256.79l3.73-2.13.23.39A3.48,3.48,0,0,1,333.68,256.79Z" transform="translate(-218.14 -237.74)"/><path class="cls-1" d="M250.63,533.25c-.11-.39-.2-.71-.2-.68l-2.22-.61,2.35-1.28C251.66,531.34,251.77,531.89,250.63,533.25Z" transform="translate(-218.14 -237.74)"/><path class="cls-1" d="M384.3,377l-.74,1.6-1.91-.83c.1-.24.27-1.1.48-1.11a9.6,9.6,0,0,1,2.21.39Z" transform="translate(-218.14 -237.74)"/><path class="cls-1" d="M412.75,466.44l-1.59,1.71c-.15-1.5-.29-2.87-.46-4.57Z" transform="translate(-218.14 -237.74)"/><path class="cls-1" d="M405.22,412.92l-.7.78-.27-.1.28-1.71,1.29.62,1.3-1.15c-.42,1.38-.77,2.57-1.18,3.95C404.27,415.26,406.41,413.38,405.22,412.92Z" transform="translate(-218.14 -237.74)"/><path class="cls-1" d="M385,338.87c-1.75,1-1.75,1-3.1,0l1.12-1Z" transform="translate(-218.14 -237.74)"/><path class="cls-1" d="M402.05,534.28l1.95-1.43,1.13,1-.11.28-1.18-.22c.1.58.2,1.09.31,1.68l-1.25.25.48-1.21h-1.15Z" transform="translate(-218.14 -237.74)"/><path class="cls-1" d="M375.76,382.27l.44-1.39.46,0c0,.88.09,1.77.15,2.87l-1.89-.79v-1.79l.23-.06Z" transform="translate(-218.14 -237.74)"/><path class="cls-1" d="M391.44,383.06c-1.75-1.77-.6-3.3.47-5.29C391.73,379.81,391.59,381.4,391.44,383.06Z" transform="translate(-218.14 -237.74)"/><path class="cls-1" d="M418.14,472l.27,4.2-.81,0V472Z" transform="translate(-218.14 -237.74)"/><path class="cls-1" d="M397.59,378.12l-1.41.82c.31-1.55.53-2.69.8-4,1.06,1,.85,2,.35,3.12,0,0,.06.08.1.09a.44.44,0,0,0,.16,0Z" transform="translate(-218.14 -237.74)"/><path class="cls-1" d="M338.72,350.31c.43-.33.84-.67,1.29-1s1-.64,1.68-1l.75,2.06C341.05,348.38,340.13,350.93,338.72,350.31Z" transform="translate(-218.14 -237.74)"/><path class="cls-1" d="M404,380.93l1.59,1.24c-.4.83-.38,1.61,1.1,1.67C404.9,384.66,403.78,383.51,404,380.93Z" transform="translate(-218.14 -237.74)"/><path class="cls-1" d="M415.79,466.63l2.32-2.18c.14.74.43,1.53.28,1.62a16.37,16.37,0,0,1-2.41,1.08Z" transform="translate(-218.14 -237.74)"/><path class="cls-1" d="M355,349.21h5.3c-.05.5-1.34,1.19-2.33.94l-2.9-.73Z" transform="translate(-218.14 -237.74)"/><path class="cls-1" d="M271.14,312.25l.44,1.45-1.84.28-.27-.23a11.16,11.16,0,0,1,1.84-1.8c.26-.17.95.33,1.44.53l-.24.5Z" transform="translate(-218.14 -237.74)"/><path class="cls-1" d="M370.28,531.12c-.07-.85-.15-1.71-.21-2.57a4.06,4.06,0,0,1,0-1.1c.05-.24.32-.43.49-.64.19.24.56.49.56.73,0,1.07-.09,2.14-.17,3.2,0,.13-.16.24-.25.35Z" transform="translate(-218.14 -237.74)"/><path class="cls-1" d="M366.53,528l1.25.46,1.11-1.69.48.29c-.44.68-.73,1.58-1.35,2a5.82,5.82,0,0,1-2.29.3Z" transform="translate(-218.14 -237.74)"/><path class="cls-1" d="M342.43,262.27l-1.51,1v-.72l-2.41,1.1C339.3,261.67,339.63,261.55,342.43,262.27Z" transform="translate(-218.14 -237.74)"/><path class="cls-1" d="M390.37,534.16c.09.61.18,1.22.26,1.84s.12,1.06.18,1.59l-.6.11-1.39-3.35,1.58-.16Z" transform="translate(-218.14 -237.74)"/><path class="cls-1" d="M399.65,372.81l3.1-.93-1.53,3-.37-.18.5-1.21-1.68-.32Z" transform="translate(-218.14 -237.74)"/><path class="cls-1" d="M228.11,446.84c1.11-.88,1.46.15,1.91,1.06l1.36-.7.37.22-1,1.61Z" transform="translate(-218.14 -237.74)"/><path class="cls-1" d="M337.77,259.3l-1.2.25-.11-.25,2.53-1.46c-.45,1.3-.85,2.43-1.24,3.57l-.49-.14Z" transform="translate(-218.14 -237.74)"/><path class="cls-1" d="M277.68,303.88l.17-2.15c.38.78.82,1.3.7,1.52-.19.38-.74.59-1.16.82-.09.05-.31-.17-.43-.14-.49.14-1,.33-1.46.5.12-.47.24-.94.38-1.53Z" transform="translate(-218.14 -237.74)"/><path class="cls-1" d="M387.75,348.57c-1.07,2.07-.91,2.47,1.1,3.11a4.34,4.34,0,0,1-1.25,0c-.43-.15-1.13-.55-1.1-.75a16.07,16.07,0,0,1,.74-2.58Z" transform="translate(-218.14 -237.74)"/><path class="cls-1" d="M413.07,440.56l1.78.65-2.7,2.59-.08-1.5,2.05-.79-1.21-.54Z" transform="translate(-218.14 -237.74)"/><path class="cls-1" d="M372.91,542.53l1.47-1.26,1.14,2.29c.07-.12-.09.14-.23.39Z" transform="translate(-218.14 -237.74)"/><path class="cls-1" d="M407.17,405.23l1.25-1.74.38.19-.26-1.07,1.73.67-2.69,2.25Z" transform="translate(-218.14 -237.74)"/><path class="cls-1" d="M365.09,489.73l-.67-1.09c-.14.26-.23.44-.33.61l-.71-1.21a13.5,13.5,0,0,1,2.31.07,8.28,8.28,0,0,1,0,1.57Z" transform="translate(-218.14 -237.74)"/><path class="cls-1" d="M230.33,442.7l1.26-1.71.39.25-1.38,2.29-1.95-2.6.33-.32Z" transform="translate(-218.14 -237.74)"/><path class="cls-1" d="M363.05,552.14l-.2-1.6-.85,1.1-1.56-1c1.07-.2,1.86-.59,2.41-.38s.56,1.1.82,1.69Z" transform="translate(-218.14 -237.74)"/><path class="cls-1" d="M415.25,501.74l2.24-.78a6.6,6.6,0,0,1,.31,1.82c0,.22-.67.38-1.22.3l.85-1.32-2.05.45Z" transform="translate(-218.14 -237.74)"/><path class="cls-1" d="M278.77,312.71l.6,1.37a16.37,16.37,0,0,1-1.9.65c-.23.06-.74-.13-.77-.26a9.72,9.72,0,0,1,0-1.62h.47l.13,1C278.29,314.32,278.65,313.83,278.77,312.71Z" transform="translate(-218.14 -237.74)"/><path class="cls-1" d="M329.07,352.83c.28,1,.53,1.78.77,2.6l.45,0-1.07,1.22C329.82,355.37,327.55,354.09,329.07,352.83Z" transform="translate(-218.14 -237.74)"/><path class="cls-1" d="M393.06,535.64l-1,.63.26-1.38-1,.53v-1.26h-.95l0,0,1.23-1.57c.42.94.91,2,1.39,3.07Z" transform="translate(-218.14 -237.74)"/><path class="cls-1" d="M383.51,539.39l-.66.76,2.18-.21-1.35.84,1,.6-2,.56a14.46,14.46,0,0,1,0-2.12c0-.17.53-.26.81-.39Z" transform="translate(-218.14 -237.74)"/><path class="cls-1" d="M371.1,538.13c-.24.47-.47.94-.72,1.41s-.59,1-1,1.75v-2.92l.31-.09.48.64c.14-.33.28-.68.42-1Z" transform="translate(-218.14 -237.74)"/><path class="cls-1" d="M381.47,334.43c1.18,1.56,1.07,2.83-.11,3l.53-2.14-1.6,1-.45-.56Z" transform="translate(-218.14 -237.74)"/><path class="cls-1" d="M295.23,551.42c-.47-1.67-.81-2.85-1.2-4.23l1.08-.31a3.63,3.63,0,0,0-.23,1c0,.4.3.79.34,1.2C295.28,549.74,295.23,550.42,295.23,551.42Z" transform="translate(-218.14 -237.74)"/><path class="cls-1" d="M373.81,345.3c-.68-.22-1.37-1.1-1.63.54a26.05,26.05,0,0,1-.7-2.84,9.67,9.67,0,0,1,1.5-.52C371.25,344.43,373.81,344.13,373.81,345.3Z" transform="translate(-218.14 -237.74)"/><path class="cls-1" d="M265.2,539.19c.79-.54,1.41-.32,1.75.9.15.54.39,1.06.66,1.76-.5.47-1,.19-1.44-1.22A6.28,6.28,0,0,0,265.2,539.19Z" transform="translate(-218.14 -237.74)"/><path class="cls-1" d="M336.56,251.19l1.47-1.63c.68.46,2.39.21,1.11,2.15l-.86-1.44-1.46,1.2Z" transform="translate(-218.14 -237.74)"/><path class="cls-1" d="M389.81,542.07,388,541l.56-.62-1.14-1.25.45-.36c1,.88,2,1.72,1.9,3.27Z" transform="translate(-218.14 -237.74)"/><path class="cls-1" d="M321.27,510.15l.66,1.47,2-.79c-.13,1.06-.22,1.11-2.91,1.32v-1.69Z" transform="translate(-218.14 -237.74)"/><path class="cls-1" d="M378.18,339.45c.32,1,.6,1.81.92,2.82l-1.72.65C377.64,341.82,377.88,340.75,378.18,339.45Z" transform="translate(-218.14 -237.74)"/><path class="cls-1" d="M409.53,394.65l-3,2.61-.35-.28c.84-.81,1.67-1.65,2.56-2.41C408.9,394.43,409.34,394.62,409.53,394.65Z" transform="translate(-218.14 -237.74)"/><path class="cls-1" d="M231.12,468.16l-1.84-.84-.05-.46,3.09-.17Z" transform="translate(-218.14 -237.74)"/><path d="M375.72,374.84c-1.25.39-1.05,1-.43,1.79-.36-.45-1.09-1.16-1-1.3a9,9,0,0,1,1.63-1.5c.06.2.12.39.17.58Z" transform="translate(-218.14 -237.74)"/><path class="cls-1" d="M386.31,538.59c-.59-.11-1.43,0-1.72-.37a2.23,2.23,0,0,1,0-1.93c.56.78,1.13,1.56,1.69,2.35Z" transform="translate(-218.14 -237.74)"/><path class="cls-1" d="M358.14,283.82l-2,.12,1,1.19-.45-.74-.49.95-.26-.06a10.2,10.2,0,0,1,.37-1.47,8.88,8.88,0,0,1,.73-1.23Z" transform="translate(-218.14 -237.74)"/><path class="cls-1" d="M372.71,383l1.5-1.87c.09,1.22.17,2.24.28,3.64C373.56,384,374.12,382.48,372.71,383Z" transform="translate(-218.14 -237.74)"/><path class="cls-1" d="M278.82,301.61l.45-2.56,2,.24C280.62,299.92,279.85,300.65,278.82,301.61Z" transform="translate(-218.14 -237.74)"/><path class="cls-1" d="M383.55,539.43,381.88,538c1.43-.94,2.05.12,2.87,1.12l-1.25.28Z" transform="translate(-218.14 -237.74)"/><path class="cls-1" d="M380.39,378.42c-.88.37-1.59.68-2.3,1a3.17,3.17,0,0,1-.86.2c-.06,0-.24-.3-.2-.35.16-.22.38-.56.58-.56.94,0,1.65-1.59,2.73-.39C380.43,378.38,380.43,378.56,380.39,378.42Z" transform="translate(-218.14 -237.74)"/><path class="cls-1" d="M343.46,264.59a8.33,8.33,0,0,0-1.17-.24,14.62,14.62,0,0,0-1.48,0l0-.48h4.08Z" transform="translate(-218.14 -237.74)"/><path class="cls-1" d="M316.51,245.28,320,245l-1.07,1.55Z" transform="translate(-218.14 -237.74)"/><path class="cls-1" d="M374,332l1.14.45q-.56,1.52-1.11,3l-.28,0C373.79,334.3,373.87,333.17,374,332Z" transform="translate(-218.14 -237.74)"/><path class="cls-1" d="M389,549.67l1.45-1.92,1.42,1.27-.15.4c-.95-.35-1.95-.91-2.41.66Z" transform="translate(-218.14 -237.74)"/><path class="cls-1" d="M303.51,268.47l.2-2.1c.5.59,1,1.11,1,1.14-.55.61-1.17,1.15-2,1.88l-.51-1.69Z" transform="translate(-218.14 -237.74)"/><path class="cls-1" d="M369.41,343.36l1.4,1-.89,2.13h-.27C369.57,345.56,369.5,344.59,369.41,343.36Z" transform="translate(-218.14 -237.74)"/><path class="cls-1" d="M409.49,477.39c0-.76-.08-1.52-.12-2.38l1.78,1.08-1.43.23.78,1.8-.23.14-.83-.92Z" transform="translate(-218.14 -237.74)"/><path class="cls-1" d="M235.08,465c-.42.66-.42.66-3.41-.82a12.32,12.32,0,0,1,2.15,0C234.21,464.24,234.55,464.61,235.08,465Z" transform="translate(-218.14 -237.74)"/><path class="cls-1" d="M404.27,409.58l-2.18,2.79-.5-.32,2-2.87Z" transform="translate(-218.14 -237.74)"/><path class="cls-1" d="M381.69,329.78a5.31,5.31,0,0,0,.65,1,9.23,9.23,0,0,0,1.24.81l-1.58.81-.67-2.24Z" transform="translate(-218.14 -237.74)"/><path class="cls-1" d="M356,286.28c0,1.13.1,2,1.57,1.81l-1.46.72C355.81,287.9,354.74,287.19,356,286.28Z" transform="translate(-218.14 -237.74)"/><path class="cls-1" d="M349,337l4-.82c-.26.37-.41.84-.63.88-1.15.2-2.32.29-3.48.42Z" transform="translate(-218.14 -237.74)"/><path d="M276.62,450.09a3,3,0,0,1-3.29-1.58,4.42,4.42,0,0,1,.53-4.58c1-.95,1.54-.16,2.06.67.83,1.34,1.78,1.66,2.86,1,.91-.58,1-1.28.06-1.83a11.93,11.93,0,0,0-2.58-1.08,3.26,3.26,0,0,1-2.39-2.69c-.22-1.17-.3-2.49.91-3.14a26.77,26.77,0,0,1,3.9-1.47c.18-.06.42,0,.63,0,2.58-.4,3-.07,2.73,2.53A6.86,6.86,0,0,1,281,440a7.82,7.82,0,0,1-1.57-1.76c-.58-1.28-1.56-1.6-2.65-.65-.93.81-.87,1.7.21,2.27a21.4,21.4,0,0,0,2.31,1,4,4,0,0,1,2.48,5.09,10.94,10.94,0,0,1-.52,2.37C280.43,449.73,279.61,450,276.62,450.09Zm-.92-2.19c2.45,1,4.56.6,4.63-1a13.85,13.85,0,0,1-2.22.4c-1.06,0-2.39.17-3.1-.38s-.4-1.85-.55-2.74c-1,.64-.71,3.39.83,5.18Z" transform="translate(-218.14 -237.74)"/><path d="M349.51,447.36c1.27.82,1.36,1.39.34,2.27-1.45,1.27-4.6,1.71-5.49,0-.28-.56-.47-1.66-.17-1.95,1.27-1.2,1.34-2.69,1.36-4.21s-.08-3.17-.13-4.76l-.63,0a8.84,8.84,0,0,0-.27,1.32c0,.94-.09,2-1.33,1.93s-.82-1.23-.95-2a3,3,0,0,1,.05-.79c.21-2.61.37-2.76,2.91-2.77a34.61,34.61,0,0,1,4.44,0,2.3,2.3,0,0,1,1.57,1.29,9.05,9.05,0,0,1,.25,3.4c-.06.47-.84.86-1.29,1.28a5,5,0,0,1-.92-1.22,18.66,18.66,0,0,0-.78-2.44,14.05,14.05,0,0,0,1.08,8.69c-3,2.39-1.73-1.2-2.45-1.84l-.74,3.53a13.63,13.63,0,0,1,1.69,0C349.45,449.27,349.87,448.65,349.51,447.36Z" transform="translate(-218.14 -237.74)"/><path d="M374,554.31c.18-.25.36-.51.55-.76,1.58.56,1.7.77,1.45,2.35.51-.4,1-.87,1.63-1.25s1.32-.74,2-1.09c1.45,5.1-1.24,9-7.84,11a2.26,2.26,0,0,1-.26-.16c-1.91-1.74-2.11-3.38-.21-5.42,1.09-1.18,1.62-2.88,2.41-4.34Zm4.85,3.88a5.25,5.25,0,0,0-1.11-.46c-1.11-.15-1.53.44-1.39,1.53l.67-.86.21.85Z" transform="translate(-218.14 -237.74)"/><path d="M333.36,440.68c.14-1.05.22-1.93.39-2.78.14-.67.37-1.85.62-1.87a13.12,13.12,0,0,1,3,.4,4.58,4.58,0,0,1-.33,1.47c-1.11,1.76-2.58,3.35-3.35,5.24a3.29,3.29,0,0,0,1.21,3.65c.45.36,1,1.32.8,1.6a2.66,2.66,0,0,1-1.71,1,7,7,0,0,1-2.73,0c-1.32-.3-1.58-1.3-.62-2.28,1.78-1.81,1.26-3.94.36-5.72-.13-.28-.42-.62-.35-.83.38-1.16-.38-1.5-1.19-1.85-.09,0-.22-.08-.27-.16-.37-.62-.73-1.24-1.09-1.87a8.06,8.06,0,0,1,2.54-.75c.77,0,1.26.62.88,1.73S331.59,439.88,333.36,440.68Z" transform="translate(-218.14 -237.74)"/><path d="M363.23,437.08h-4.14v.33a13.64,13.64,0,0,1,1.92,0,9.57,9.57,0,0,1,1.57.45,12.09,12.09,0,0,0-.75,2.54,33.07,33.07,0,0,0,0,5.36c0,.56.92,1,1.37,1.58s1,1,.94,1.43a1.76,1.76,0,0,1-1.08,1.3,17.32,17.32,0,0,1-4.65.2,1.49,1.49,0,0,1-.69-2.66,5,5,0,0,0,1.75-4.37c0-.84,0-1.7.07-2.54s0-1.63-1.09-2a1.53,1.53,0,0,1-.72-1.23c0-.26.68-.72,1.07-.74,1.46-.09,2.92,0,4.39,0Z" transform="translate(-218.14 -237.74)"/><path d="M316.86,445.14c-.22-.32-.59-.62-.63-1-.17-1.24-.13-2.52-.36-3.75a8.17,8.17,0,0,0-1-2.26c-.66-1.21-.21-2.12,1.14-2.14,1.85,0,3.71-.08,5.56.06.7.06,1.82.53,1.94,1a4.8,4.8,0,0,1-.38,2.85c-.33.77-1.08.73-1.6-.07-.23-.36-.45-.87-.78-1-.67-.19-1.71-.44-2-.11-.48.48-.47,1.46-.66,2.23.48,0,1.15.23,1.4,0s.34-1,.49-1.48l1,.76c-.13.6-.26,1.21-.38,1.72l1,2-.44.21-.36-1.15-.93.77c-1.67-1.35-2-.32-1.87,1.5l-1-1.29-.13,1.12Z" transform="translate(-218.14 -237.74)"/><path d="M387.31,463l5.17-3c.87,3.5-.09,6.31-.63,9.66Z" transform="translate(-218.14 -237.74)"/><path d="M302,441.7c-1.84-3.41-.2-5.94,3.52-5.95h.8c2.78-.11,2.79-.11,2.51,2.71-.06.65-.14,1.29-.21,1.93-.51-.49-1-1-1.52-1.47a3,3,0,0,0-5.16,1A5.13,5.13,0,0,0,302,441.7Z" transform="translate(-218.14 -237.74)"/><path d="M309.43,449.14l-5.28.4,0-.34,1.37-1-2.42-1.26.12-.35,1.41.29c2.07.42,3.07-.69,2.52-2.72a8.84,8.84,0,0,1-.06-1.86c1.09,0,2.18,0,3.26,0,0,0,.17.91,0,1-1.4.74-.88,2-.92,3.1C309.41,447.22,309.43,448.06,309.43,449.14Zm-.71-5.87-.51.06c.19.93-.75,2.09.7,2.95Z" transform="translate(-218.14 -237.74)"/><path d="M316.83,445.18a9.91,9.91,0,0,0,2.46,1.75,9.28,9.28,0,0,0,2.94.07v.44H318.4c.34,1.56,1.55,1.2,2.5,1.27a11.12,11.12,0,0,0,1.62-.11l0,.55c-2.24.07-4.47.18-6.7.16a1.62,1.62,0,0,1-1.15-.82c-.12-.24.24-.83.51-1.14.62-.69,1.68-1,1.65-2.2Z" transform="translate(-218.14 -237.74)"/><path d="M374,554.31l-.3.36c-2.13-.44-2.23-.18-3.21,1.94-.3-4,.09-5.58,1.6-6.17-.42,1.2-.11,1.9,1.15,2.2C373.93,552.81,374.51,553.38,374,554.31Z" transform="translate(-218.14 -237.74)"/><path d="M290.77,446.49l3.1,1.3-.11.43-1.39.11-.09.33,1.18.4-.06.45a7.44,7.44,0,0,1-2.78-.5c-.4-.24-.23-1.43-.32-2.2Z" transform="translate(-218.14 -237.74)"/><path d="M367.3,498.69l2.06,2.48c-1.09.76-1.87,0-2.48-2.1Z" transform="translate(-218.14 -237.74)"/><path d="M316.63,320.27c1.14.16,2.31,2.71,2.69,6.59C318.43,324.69,317.49,322.38,316.63,320.27Z" transform="translate(-218.14 -237.74)"/><path d="M381.35,361.31l4.39-1c-.3,1.34-.6,2.62-.84,3.69l-1.72,1c-.19-.47-.46-1.11-.72-1.76l.14-.18Z" transform="translate(-218.14 -237.74)"/><path d="M382,368.58l.7-1.24c.35.89.46,1.19.55,1.43l1-1,.33.28-.51,1,.23.26,1.4-1.06.29.24c-.48.47-1,1.4-1.42,1.33-2.14-.39-2.45,1.11-3,2.51,0,.07-.15.11-.4.28l-.49-4.8.39-.2Z" transform="translate(-218.14 -237.74)"/><path d="M362.28,363.23l2-.84v2.16a7.36,7.36,0,0,1,1.29.9c.15.16,0,.63-.43,1l-.35-1-.75.55C363.53,365.19,363,364.35,362.28,363.23Z" transform="translate(-218.14 -237.74)"/><path d="M367.1,368.78l.07-1.14-1.21.24c0-.28,0-.51.05-.56a7.75,7.75,0,0,1,4.94-.94c.2,0,.32.91.47,1.41l-.44.09-.14-1.05c-1.23.23-2.55.1-3.09,1.63-.05.16-.45.19-.7.29Z" transform="translate(-218.14 -237.74)"/><path d="M373.47,370.6c.13-.9.2-1.4.29-2.05l-.95.53c.14-1.87.58-2.27,2.21-1.94l-.91,1.84.22.16.95-.77.54.8Z" transform="translate(-218.14 -237.74)"/><path d="M385.23,365.4l-.42-.1a12.11,12.11,0,0,1,1.26-2.15c.15-.18.92.18,1.72.36l-3.6,4-.5-.3a3.41,3.41,0,0,1,.51-1.16c.24-.23.73-.2,1.11-.28Z" transform="translate(-218.14 -237.74)"/><path d="M390.73,358.21l1.28,2.36-.94.56,2,.09c-3.94,1.08-3.94,1.08-3.54,2.11l-1.61-.7,2.48-1.81.38.26v-2.91Z" transform="translate(-218.14 -237.74)"/><path d="M365.1,359.19c.31-.21.65-.62.92-.58a1.1,1.1,0,0,1,.65.84,5.56,5.56,0,0,1-.31,1.52L363,362.08l-.21-.41,1.08-1.41.36.9c1.95-1.42,1.95-1.42.91-2Z" transform="translate(-218.14 -237.74)"/><path d="M368.08,364l-.26-.91c.23,0,.48-.05.51,0a2.58,2.58,0,0,0,3.54,1.39c.36-.13,1,.51,1.49.79a6.55,6.55,0,0,1-2.3.18A17.47,17.47,0,0,1,368.08,364Z" transform="translate(-218.14 -237.74)"/><path d="M380.41,364.19l.17,2.22c-1.16-.33-1.76-1.48-1.63-3.33l1.5,1.15Z" transform="translate(-218.14 -237.74)"/><path d="M380.45,364.23l.59-.77a3.65,3.65,0,0,1,.66.77,7.3,7.3,0,0,1,.31,1.3l-.59.22,1.7,1.17-.56.56-1.32-2c-.28-.42-.55-.86-.83-1.29Z" transform="translate(-218.14 -237.74)"/><path d="M369.39,369.75l.56-1.65,1.62.6L371.3,370Z" transform="translate(-218.14 -237.74)"/><path d="M363.11,367.2c1.7-.83,2-.61,2.05,1.35l-.94-.72-.31.19.5,1.44-.3.17a10.81,10.81,0,0,1-.57-1.06c-.18-.44-.29-.91-.43-1.38Z" transform="translate(-218.14 -237.74)"/><path d="M384.08,370.56l-1.4,3.32-.58-.28C383,372.7,382.23,371,384.08,370.56Z" transform="translate(-218.14 -237.74)"/><path d="M365.09,359.19a9.8,9.8,0,0,0-1.29.55,4.41,4.41,0,0,1-1.64.8,11.66,11.66,0,0,1,1.56-2c.16-.14.9.39,1.38.62Z" transform="translate(-218.14 -237.74)"/><path d="M376.7,366.21c-.69-1.85,1.29-.86,1.85-1.52v1.11Z" transform="translate(-218.14 -237.74)"/><path d="M257.43,503c-.8-2-1.55-3.62-2.08-5.34-.09-.28.82-1.25,1.25-1.24a3.34,3.34,0,0,1,2.43.83C260.58,499.33,260.4,499.78,257.43,503Z" transform="translate(-218.14 -237.74)"/><path d="M400.45,393.21l-3.29-.93c1.45-1.91,1.45-1.91,3.45.51Z" transform="translate(-218.14 -237.74)"/><path d="M406.39,392.62l-.67.48,1.5,1-.58.67h-1.39l-.23-.19.75-.27c-1.27-.35-1.27-.35-1.1,2-.4-.82-.63-1.3-.89-1.81l2.22-2.36Z" transform="translate(-218.14 -237.74)"/><path d="M406.32,390.43l1.52.09-1.1.83,1.54.35c-.23.69-.46,1.38-.76,2.26-.28-.78-.4-1.17-.56-1.53C406.66,391.79,405.66,391.38,406.32,390.43Z" transform="translate(-218.14 -237.74)"/><path d="M397.81,394.65l-2.11-.51,1.59-1a12.27,12.27,0,0,1,.75,2.08c0,.29-.32.68-.56,1a4.15,4.15,0,0,1-.61-.32Z" transform="translate(-218.14 -237.74)"/><path class="cls-1" d="M275.7,447.9l-.41,1.46c-1.54-1.79-1.82-4.54-.83-5.18.15.89,0,2.29.55,2.74s2,.38,3.1.38a13.85,13.85,0,0,0,2.22-.4C280.26,448.5,278.15,448.93,275.7,447.9Z" transform="translate(-218.14 -237.74)"/><path class="cls-1" d="M349.51,447.36c.36,1.29-.06,1.91-1.46,1.75a13.63,13.63,0,0,0-1.69,0l.74-3.53c.72.64-.53,4.23,2.45,1.84Z" transform="translate(-218.14 -237.74)"/><path class="cls-1" d="M378.8,558.19l-1.62,1.06-.21-.85-.67.86c-.14-1.09.28-1.68,1.39-1.53A5.25,5.25,0,0,1,378.8,558.19Z" transform="translate(-218.14 -237.74)"/><path class="cls-1" d="M308.72,443.27l.19,3c-1.45-.86-.51-2-.7-2.95Z" transform="translate(-218.14 -237.74)"/></svg>
