<svg id="Øsm" xmlns="http://www.w3.org/2000/svg" width="399.44mm" height="20.79mm" viewBox="0 0 1132.28 58.94"><defs><style>.cls-1{fill:#b5bfbc;}</style></defs><title>headersissel</title><rect class="cls-1" width="1132.28" height="58.94"/><path d="M13.17,48.54l-.17.38a1,1,0,0,0-.69-.38c-.18,0-.26-.07-.26-.28,0-.4-.45-.6-.93-.43l-.06,0a2.07,2.07,0,0,0-1,.07s-.11-.06-.14-.11a15.93,15.93,0,0,1-1-1.39,13.56,13.56,0,0,1-1-2C7.44,43.2,7,42,6.67,40.71A13.3,13.3,0,0,1,6.35,39c-.06-.35-.13-.7-.17-1a5.33,5.33,0,0,1,0-.8c0-.55,0-1.09,0-1.64s0-1,.07-1.56a6,6,0,0,1,.23-.93c.12-.51.22-1,.35-1.53s.27-.94.4-1.41c.2-.74.35-1.49.61-2.22.32-.91.73-1.8,1.09-2.7.23-.57.44-1.14.62-1.72a22.88,22.88,0,0,1,1.31-3.26c.14-.28.25-.57.39-.86s.36-.72.53-1.09c.43-1,.85-2,1.3-2.93.19-.4.48-.76.69-1.15.33-.59.65-1.18,1-1.78a2.84,2.84,0,0,1,.59-.84,6.25,6.25,0,0,0,.69-1c.87-1.32,1.7-2.66,2.64-3.94a12.63,12.63,0,0,1,1.86-2c.29-.24.56-.15.86-.22l-.06.2a1.9,1.9,0,0,0,.4-.12.55.55,0,0,0,.27-.2c.16-.28.42-.25.69-.21a1,1,0,0,0,.21,0,.71.71,0,0,0,.29.22.68.68,0,0,0,.55,0l-.45-.13c.1,0,.16-.06.22,0l.84.14a.2.2,0,0,1,.11,0c.47.29.95.55,1.38.87a3.78,3.78,0,0,1,.66.77c.27.37.51.77.79,1.14a13.61,13.61,0,0,1,1.58,2.35c.12.25.3.48.43.73l1.88,3.52c.24.45.5.88.72,1.29l-.58-.09c-.06,0-.15,0-.18-.06a.83.83,0,0,0-.56-.29c-.25,0-.31,0-.3.22a.2.2,0,0,1-.07.17,1.83,1.83,0,0,0-.08-.25.76.76,0,0,0-.16-.14v.39h-.34c.17.31.17.31.27.21l.41.09a.75.75,0,0,0,.77.41,5.79,5.79,0,0,1,.72,0c.29,0,.34,0,.24-.29a.09.09,0,0,1,0-.1,1.57,1.57,0,0,1,.19.26c.38.67.78,1.33,1.12,2s.45,1.14.7,1.71c.17.4.38.78.57,1.18s.43,1,.68,1.49c.32.65.68,1.28,1,1.94.41.86.79,1.73,1.16,2.61.19.45.32.92.47,1.39.29.86.59,1.73.85,2.6a14.42,14.42,0,0,1,.31,1.42c.16.88.32,1.76.45,2.65.06.4,0,.82.06,1.24s.08,1.06.1,1.59c0,.16-.07.33-.08.51-.05.45-.08.91-.12,1.37s-.07,1.08-.13,1.62c0,.15-.14.29-.18.45-.18.63-.34,1.26-.52,1.9-.12.42-.26.85-.42,1.27-.07.17-.25.3-.32.46-.19.4-.34.81-.52,1.2a2.51,2.51,0,0,1-.51.81A7.06,7.06,0,0,0,36.06,48a9.61,9.61,0,0,1-1.79,2.14c-.37.28-.78.52-1.17.79L31.55,52a5.64,5.64,0,0,1-.81.42c-.63.28-1.29.52-1.91.82a1.44,1.44,0,0,1-.6.13c-.5,0-1,.17-1.47.26a14.89,14.89,0,0,1-1.6.28c-.54,0-1.08,0-1.63-.05-.3,0-.6,0-.9,0a3.16,3.16,0,0,1-.32,0c-.65-.05-1.3-.09-1.94-.15a8.14,8.14,0,0,1-2.44-.59l-2.34-.93a10.86,10.86,0,0,1-2-1.07,4,4,0,0,1-.51-.39c-.17-.15-.16-.75,0-.85s.13-.21.12-.34-.16-.33.1-.46C13.44,49,13.34,48.66,13.17,48.54ZM32.3,48s-.12,0-.13.05,0,.19,0,.31l.31-.08-.16-.09.22-.12-.35,0,.1-.11.2,0c-.13-.15-.23-.3-.45-.16Zm1.08-.77-.25,0,.22.48h.1l0-.23c0-.09,0-.18,0-.27h.15v.18l.16-.08,0,.21.15-.1c.16.17.32.34.47.52a.17.17,0,0,1,0,.1c0,.34,0,.36.3.45.22-.25.24-.59.57-.75a.6.6,0,0,1-.1-.69,1.55,1.55,0,0,1-.23-.06c-.33-.16-.48-.14-.62.17a.37.37,0,0,1-.42.27L33.58,47Zm-.65.65-.27-.34c0,.1-.05.22,0,.28s.17,0,.27.05l-.12.2a.91.91,0,0,1,.05.26,1.22,1.22,0,0,1-.09.27l.07,0,.1-.25.08.14c0-.11.06-.18,0-.24A2.7,2.7,0,0,0,32.73,47.85Zm.16-1.09-.33,0c.35.13,0,.44.2.59L32.9,47h-.11l.14-.12.23.13,0,0-.14-.15.24-.26,0,0-.36.27a.48.48,0,0,0-.1-.17c-.06-.06-.2-.13-.22-.11s-.15,0-.19-.08a1.71,1.71,0,0,0-.13-.23h-.05l.16.41Zm.4,1.59c0-.23-.15-.35-.3-.48l-.07.06.18.18L33,48.2l.28.15-.37.2a1,1,0,0,0,.79-.19l-.1-.59s-.18.06-.18.08a2.4,2.4,0,0,0,.12.44Zm4.53-8.76c-.28-.08.06-.22,0-.31s-.17.13-.19.11c-.2-.11-.27,0-.38.11l0,0,.24-.14.14.27-.29-.1v.05l.58.52.11-.08s-.06-.11-.11-.13c-.24-.08-.19-.21-.1-.35l.13.24.07,0L38,39.59l.24.06-.12-.39Zm-1.42-.66-.25.17,0-.17-.36.25.39,0v.05l-.31.11-.25-.19,0,0,.11.14c-.22,0-.29.12-.19.17a.55.55,0,0,0,.43,0,.47.47,0,0,1,.64,0l-.44,0c.13,0,.2,0,.25,0,.22.12.26.1.33-.15l-.44-.14v-.05l.14,0a1.7,1.7,0,0,0,0-.22l.13.13,0,0-.12-.26.22,0-.28-.15Zm-1.35-14,0-.24-.33-.06-.07.64-.16-.09.22-.83-.16.13h0a.33.33,0,0,0-.06-.46l-.12.59.22-.12c-.16.38-.25,0-.41,0l.12.3h.2l-.09.23L34,25l.23.11-.29.07v0h.22l-.09.3.41-.16c-.07.42-.07.42-.33.27l0,.52-.17.28.3.15c-.45.27-.13.48.06.7l0,0L33.9,27l0,0h.18v-.09l-.45.08.56.46.28-.08a.69.69,0,0,0,0,.2.87.87,0,0,0,.07.17l.17-.35.24,0-.14.23.13.21c.17-.52.17-.52.37-.6l.15.2a3,3,0,0,1,.36-.41c.1-.08.27-.1.37-.19s.08-.21.12-.32H36.2c0-.12.07-.25-.13-.29,0,0,0-.1,0-.15s.07-.3.1-.44l-.07,0c-.14.21-.09.48-.16.71,0,0-.09,0-.09,0,0-.24-.19-.27-.36-.35l-.05.13c-.15-.12-.14-.21,0-.28s.14-.11,0-.19l0-.23c-.06-.18-.19-.2-.37-.13L35,24.92l.25.19.07-.35.51.17c-.06-.11-.1-.14-.11-.19a.77.77,0,0,1,0-.2l-.11.18-.18-.2.11-.1v-.07a1.09,1.09,0,0,1-.26,0s-.08-.09-.08-.13,0-.11.07-.17c-.26.2-.29.32-.14.41l-.17.23.16,0C35.17,24.72,35.24,24.85,35.05,24.93Zm-4.29-2.31v-.24c-.14,0-.29,0-.43,0s-.4.06-.24-.23c0,0-.05-.08-.08-.12l-.05,0v.17l-.13-.17-.13.35h.16l-.3.16s0-.06,0-.07a2.76,2.76,0,0,0,.08-.27c.08-.29.32-.35.6-.16,0,0,.09,0,.1,0l-.16-.72-.2.13.06-.2-.05,0-.16.19-.45-.24.11-.14-.06,0-.14.22a4.28,4.28,0,0,1-.26.42c-.08.08-.27.1-.15.28,0,0-.06.1-.11.12s-.24,0-.34.08-.28.18-.42.27l0,.08c.3-.09.56-.09.62.25l-.27,0c.24.24.46.31.73.13h0a2.09,2.09,0,0,0-.2.22s0,.14,0,.14c.22.1.3.15.32.19l.51-.32h0l-.32.44h.13v.2l.19-.12-.08-.19.08-.05.35.3-.06.08-.23-.07c.05.27.17.46.51.46a2.58,2.58,0,0,1-.34.07s-.07.05-.11.08l.11.07h.33v.11l-.37,0,.56.36-.13.1a.19.19,0,0,0,.32,0,.39.39,0,0,1,.42-.16c.05,0,.11,0,.19-.06l-.54-.13,0-.06c.3,0,.91-.25,1-.45l-.41.12c.23-.14.24-.17.1-.41l-.18.28L31.06,24l.06-.06.22-.11-.19-.23.16,0,.05.12.45-.11c.05.23-.41.13-.26.41l.2-.11.05.48c.26-.13,0-.4.12-.56l.22.39.23-.07-.07,0,.16-.47.07,0c0,.23-.07.46-.1.7a1.51,1.51,0,0,0-.35-.06s-.06.13-.08.16l.3.12.12-.23.23-.17c0,.08,0,.13,0,.18a1.6,1.6,0,0,1-.11.19c.46-.26.46-.26.64-.22l-.09-.49.31.29.08-.05-.19-.38.34,0c.05-.12.09-.28.29-.18l.3-.36,0,.3-.2.13.08.07.29-.3,0,.52c.07-.07.15-.12.14-.16a.83.83,0,0,0-.1-.48c-.08-.12-.09-.15,0-.23s0-.06.07-.15l-.24.18.08-.55-.22-.1.27-.11L34.29,22l.06,0,.2.19c0-.24-.17-.38-.44-.32l.1.1L34,22v-.34a.44.44,0,0,0-.16-.06c-.25,0-.39-.08-.23-.34,0,0-.06-.11-.09-.16l-.1,0,.06.46h0l-.28,0,.15-.38-.26-.56-.17.22,0,0,.12-.09c0,.18,0,.18-.21.21l-.13.32.15.06-.16.1.41.36,0-.05-.06-.11.07,0,.19.28-.48,0-.24-.42-.17.35-.21-.16.15,0-.06-.64-.28.15.31-.38a2.35,2.35,0,0,0-.24,0c-.05,0-.14,0-.14.07,0,.28-.19.21-.39.11l.11.19-.1.28-.12-.11.07.27h0l-.12-.27h-.07l0,.5h.06l-.08.12.2.08c-.11,0-.19,0-.2,0a2.52,2.52,0,0,1-.15-.27l-.38.39,0,0,.13-.09.06.57-.12-.08ZM28.3,42.82h1.43V43l.72,0-.17.16,0,0,.4-.21,0,.13c.27-.05.53-.11.79-.14s.55-.05.81-.08v.3c0,.13,0,.27,0,.41a1.11,1.11,0,0,0,.41,1c.08,0,.13.14.21.18.3.17.59.34.9.48.1,0,.18.06.17.2a4.73,4.73,0,0,0,0,.65s.07.05.13.1v-.21l.06,0,.21.36.36-.1,0,.28.22,0-.11.14.23.33.14-.07c.15-.08.18-.21.05-.23l-.1.16-.12-.23c.18-.11.28-.32.52-.36a.41.41,0,0,0,.38-.53,1.71,1.71,0,0,1,0-.39h.08l.1.36c0-.11,0-.24,0-.33s.24-.33.33-.5.18-.48-.07-.68a.57.57,0,0,1-.09-.84,2.25,2.25,0,0,0,.3-1.23.74.74,0,0,0-.38-.79c-.45-.27-.66-.3-1,.11a.86.86,0,0,0-.12.3,1.49,1.49,0,0,0-.12.6.7.7,0,0,1-.11.58c-.11.17-.29.36-.15.58-.25.5-.91.74-.92,1.36l-.61-.17a.39.39,0,0,1-.13-.06,2.79,2.79,0,0,0-.42-.35.5.5,0,0,1-.27-.42,1,1,0,0,1,.32-.82s.12-.07.15,0a2,2,0,0,0,.76.23s0,0,.06,0a.18.18,0,0,0,.32,0s-.06-.2-.14-.25a5.61,5.61,0,0,0-.54-.29c-.16-.08-.25-.17-.07-.32a.55.55,0,0,0,.11-.2l.57-1.4a1.24,1.24,0,0,1,.19-.21c.25-.34.5-.69.76-1a2.12,2.12,0,0,1,.27-.21l-.1-.2-.15.22-.09-.2,0,0-.22-.16a3.28,3.28,0,0,0,.49,0c.31-.07.31-.08.38-.24l-.28.14c-.22-.12-.18-.23,0-.32-.23-.13-.25.39-.51.09l0,.22h-.05l-.88-.88a.28.28,0,0,1-.06-.14c0-.37,0-.74,0-1.11a1.46,1.46,0,0,1,.43-1.2c.24-.23.38-.56.62-.8s.16-.23.1-.38c-.2-.48-.37-1-.57-1.43a8.32,8.32,0,0,0-1-1.92,2.45,2.45,0,0,0-.57-.66.78.78,0,0,1-.4-.69c0-.07,0-.14,0-.2a7.44,7.44,0,0,1-.33-2.3,1,1,0,0,0-.65-.92,2.59,2.59,0,0,0-1.58-.33.21.21,0,0,1-.14,0,10.33,10.33,0,0,1-.77-.7,1.48,1.48,0,0,1-.35-.6c0-.23-.15-.3-.36-.34s-.2,0-.3,0a6.9,6.9,0,0,1-1.75-.24.42.42,0,0,0-.27,0,.23.23,0,0,1-.32-.08c-.26-.28-.54-.56-.77-.85a3.23,3.23,0,0,1-.31-.58,2.28,2.28,0,0,0-.2-.38c-.11-.17-.27-.38-.2-.54a.82.82,0,0,1,.42-.52.58.58,0,0,0,.35-.57c-.11.07-.26.15-.39.25a6.26,6.26,0,0,0-.57.45.91.91,0,0,0-.19.29c-.17.43-.33.87-.5,1.3-.08.21-.18.41-.28.61s-.16.16-.22.25a.56.56,0,0,1-.72.3.35.35,0,0,0-.38.11,1.31,1.31,0,0,0-.28.35c-.08.23-.25.29-.48.33-.95.16-1.89.32-2.84.5a.71.71,0,0,0-.38.18c-.23.31-.42.65-.62,1s-.49.83-.73,1.26a.54.54,0,0,0-.08.21.3.3,0,0,1-.25.3l-1.6.43c-.66.19-1.32.4-2,.61a.45.45,0,0,0-.22.23c-.19.43-.35.86-.53,1.29a7.36,7.36,0,0,1-1,1.43,2.49,2.49,0,0,0-.59.87c-.07.37-.34.4-.58.5s-.3,0-.48,0l-.27,0a.47.47,0,0,0,.54.11l.4.07c-.45.44-1.08.25-1.68.31,0,.06,0,.11,0,.11.49,0,1,0,1.47.1.06,0,.13-.05.2-.07-.07-.18.47-.91.72-1,.15.11.3.2.43.31a1,1,0,0,1,.25.29,3,3,0,0,1,.43,1.39c0,.51,0,1,.06,1.52a.3.3,0,0,0,.1.22c.21.2.43.38.66.57s.4.3.58.47.48.45.73.66a6,6,0,0,0,.79.62.78.78,0,0,0,.44,0,1.78,1.78,0,0,0,.39-.07,2.64,2.64,0,0,1,1.76.47,1.16,1.16,0,0,1,.5.43.86.86,0,0,0,.9.32A13.7,13.7,0,0,0,21,39.67c.75-.38.76-.37,1.45.07l.1.07c.62.42,1.25.84,1.87,1.28a.3.3,0,0,1,.1.27,2.91,2.91,0,0,1-.15.58.54.54,0,0,1-.17.2c-.14.1-.3.17-.44.27s0,.07,0,.11.08,0,.11,0a1,1,0,0,0,.69-.63,1.39,1.39,0,0,1,.5-.77c.58-.47,1.14-.95,1.71-1.43l.08-.09c.07-.18.22-.21.4-.19l.25,0h1v0l-.57.14,0,.09h.21l1.49-.2c.52-.07,1-.16,1.55-.25a.63.63,0,0,0,.53-.42c.16-.4.35-.79.52-1.19a1.07,1.07,0,0,1,.47-.56c.15-.09.24-.07.32.07a6.6,6.6,0,0,0,1,1.45s.05.09.08.14a4.25,4.25,0,0,1,.32.54.45.45,0,0,1,.05.37,2.08,2.08,0,0,1-.4.61c-.53.52-.6,1.24-.93,1.84-.1.19-.35.46-.53.48l-.9.11a2.71,2.71,0,0,1-.38.06c-.39,0-.76-.07-1.14-.11,0-.41,0-.41-.31-.73l-.31-.26.13-.17,0-.07a3.58,3.58,0,0,0-.45.09.5.5,0,0,0-.37.38c.17.15.32.27.44.4a1.05,1.05,0,0,1,.13.26,1.71,1.71,0,0,1-.3.09c-.28,0-.63.1-.82,0s-.27-.44-.37-.69-.25-.71-.36-1.07-.18-.65-.28-1c-.07.08-.13.11-.13.15l0,.89a1,1,0,0,0,.06.38c.17.34.38.67.56,1a2.61,2.61,0,0,1,.24.54,2.22,2.22,0,0,0,.12.46.4.4,0,0,1-.19.66c-.31.11-.63.22-.93.35a1.1,1.1,0,0,0-.35.26,1.17,1.17,0,0,0-.48,1,.74.74,0,0,1,0,.14c-.13.59-.22,1.19-.4,1.77s-.33,1-1,1.09l-1.12.2c-.05,0-.15,0-.16,0a5.57,5.57,0,0,1-.43-1,3.13,3.13,0,0,0-.54-1.49c-.15-.17-.26-.37-.4-.55a.75.75,0,0,0-.95-.19,3.39,3.39,0,0,0-.84.58l-1.08.9c-.33.26-.65.54-1,.78s-.6.16-.72-.24c0,0,0,0,0-.07l.42-.22a1.78,1.78,0,0,0-.52-.1.47.47,0,0,0-.35.41.88.88,0,0,0,.81.76.66.66,0,0,0,.15,0,5.57,5.57,0,0,0,.57-.37c.24-.19.46-.4.69-.6.07,0,.19-.06.25-.13a8.79,8.79,0,0,1,.66-.7c.31-.25.5-.63,1-.7s.51,0,.65.29c.26.59.49,1.19.74,1.79.17.4.36.8.53,1.19l-.51,0a1.14,1.14,0,0,0-1,.53c-.1.19-.27.35-.37.54a4.59,4.59,0,0,0-.28.64,6.14,6.14,0,0,0-.22.73c-.12.45-.22.91-.36,1.36-.09.28-.25.54-.07.89a2.72,2.72,0,0,0,.32-.45c.24-.71.44-1.42.68-2.13a6.21,6.21,0,0,1,.49-1.16,1.16,1.16,0,0,1,.53-.52,7.82,7.82,0,0,1,1.09-.24.43.43,0,0,0,.31.4c.35.16.72.29,1.07.45.08,0,.12.13.18.2H25l0-.13a3,3,0,0,1,.35.09,2.92,2.92,0,0,0,.34.13c.23,0,.35.1.37.3a3,3,0,0,1,0,.52s-.08.08-.13.09c-.31.11-.62.22-.94.31a.22.22,0,0,1-.16,0c-.23-.13-.44-.27-.67-.39a4.6,4.6,0,0,0-.61-.25.34.34,0,0,0-.22,0l-.65.33c.11.11.12.23-.07.32s-.06.09-.09.14a3.76,3.76,0,0,1-1,1.49,1.54,1.54,0,0,0-.31.47l.06.06c.07-.06.17-.09.21-.16s.26-.21.48-.16a4.28,4.28,0,0,0,1.85.09c.36-.07.73-.08,1.09-.13s.61-.09.91-.15c.08,0,.16-.05.24-.06.76-.11,1.52-.19,2.27-.34a3.39,3.39,0,0,0,1.24-.35,4.47,4.47,0,0,1,.81-.34c.14-.06.35-.09.39-.18a2.36,2.36,0,0,1,.77-.77A1.13,1.13,0,0,0,31.91,50a.56.56,0,0,1,0-.53,3.29,3.29,0,0,0,.29-.63,1.34,1.34,0,0,0,0-.35l-.07,0-.46.72c-.07-.18-.05-.37-.1-.53-.14-.42-.31-.84-.47-1.25-.06-.17,0-.27.17-.34s.34-.21.23-.43l-.4-.06,0,.07.34.2-.36.2c-.19-.13.1-.4-.27-.47a2.33,2.33,0,0,0,0,.29c.06.18,0,.29-.17.36s-.48.18-.72.27l-.07,0,.12-.38-.14,0a1.85,1.85,0,0,0-.1.2.62.62,0,0,1-.52.47,1.16,1.16,0,0,0-.27.14.42.42,0,0,0,.23,0,2.64,2.64,0,0,0,.49-.08c.36-.13.72-.29,1.08-.44.11,0,.19,0,.22.09s.08.38.13.57l.3,1c.07.27.27.54.09.82s-.36.31-.46.11-.28-.25-.41-.38a.56.56,0,0,1-.16-.25c0-.2-.13-.18-.27-.1l-.44.22V50.9l-.07,0c-.25-.28-.5-.56-.76-.83a.61.61,0,0,0-.26-.15c-.18-.05-.38-.06-.56-.11s-.21-.11-.12-.25.09-.25.05-.27a.88.88,0,0,0-.36-.1H27l-.26,0c.21.13.35.29.51.31a1.31,1.31,0,0,0,.51-.16l0,.06-.21.21c-.22.2-.21.31,0,.49a.83.83,0,0,1,.15.19c.24,0,.49-.1.73-.17a.27.27,0,0,1,.35.18,1.85,1.85,0,0,0,.34.41c.14.14.31.26.53.45-.23.19-.44.35-.64.5,0,0-.1.06-.13,0a4.94,4.94,0,0,1-.68-.23,1.59,1.59,0,0,0-.78-.28c-.36,0-.72-.17-1.08,0,0,0-.06,0-.09,0,0-.37.35-.7.12-1.07a1.12,1.12,0,0,1-.26,0,4.4,4.4,0,0,1-1.88-.69h-.06a2.2,2.2,0,0,1-.46-.23c-.1-.07-.08-.19.09-.22l.32,0c.35-.06.7-.12,1-.2s.84-.25,1.26-.35a4.6,4.6,0,0,1,.64-.05A3.33,3.33,0,0,0,28.23,48a.94.94,0,0,0,.56-.75,1.1,1.1,0,0,0,0-.28l-.15.2a1.23,1.23,0,0,1-.91.69L26,48.14c.12-.44.26-.89.35-1.34s.13-1,.26-1.5a1.12,1.12,0,0,1,.84-.84c.29-.07.58-.14.87-.24a.49.49,0,0,0,.27-.79A4.48,4.48,0,0,1,28.3,42.82ZM15.57,18.61l0,.08L16,18.6c.16-.05.23,0,.34.12a1.25,1.25,0,0,1,0,1.32c-.13.3-.34.57-.45.87s-.14.63-.22.94a.67.67,0,0,1-.2.32c-.16.13-.36.22-.52.35s-.31.29-.49.42a.63.63,0,0,0-.35.49c0,.28-.05.56-.09.83a.34.34,0,0,1-.13.22,5.69,5.69,0,0,0-.65.52.63.63,0,0,1-.54.26,1.28,1.28,0,0,0-.31.08c.49.16.63.14.92-.12.1-.09.21-.16.3-.25a.35.35,0,0,1,.43,0c.26.11.54.21.81.31s.36.05.41-.21,0-.24.08-.36a.5.5,0,0,1,.47-.41c.7-.13,1.4-.27,2.1-.43.25-.06.48-.19.73-.27a.61.61,0,0,1,.3-.05,2.42,2.42,0,0,1,.47.07.26.26,0,0,0,.34-.16l.29-.66c0-.06.11-.1.17-.14a3.08,3.08,0,0,1,1.09-.09c.36,0,.37-.05.45-.37s.17-.64.25-1a.38.38,0,0,0,0-.25c-.11-.25.06-.38.24-.5l1.1-.72c.3-.18.32-.24.18-.55a1.09,1.09,0,0,1-.08-.15c-.3-.67-.64-1.34-.87-2A2,2,0,0,0,22,15.91c-.27-.23-.06-.71.3-.81s.52-.13.55-.48l-.29.1c-.34.15-.71.24-.86.63a.63.63,0,0,1-.34.34c-.54.22-1.1.4-1.65.61a.62.62,0,0,0-.31.26c-.11.31-.17.63-.27.93,0,.09-.1.22-.19.24a1.09,1.09,0,0,0-.75.9.33.33,0,0,1-.2.18,7.58,7.58,0,0,0-.81.25c-.25.12-.41.05-.57-.2s-.19-.37-.3-.55-.11-.08-.16-.12l-.09.14a.16.16,0,0,1-.08.06Zm-.13,31.73a3,3,0,0,0-.14.45.21.21,0,0,0,.07.21,2.12,2.12,0,0,0,.51.28.6.6,0,0,0,.42,0,.74.74,0,0,0,.33-.72,1.37,1.37,0,0,1,.14-.51.9.9,0,0,0,.05-.88,7,7,0,0,0-.8-1.38,1.38,1.38,0,0,1-.23-1.38,2.76,2.76,0,0,0,0-.76c0-.12-.12-.29-.07-.35.24-.26.13-.47,0-.71a1.28,1.28,0,0,1-.13-.39c-.07-.25-.12-.5-.2-.74a1.86,1.86,0,0,0-.23-.41c-.12-.18-.3-.07-.46-.08-.52,0-1-.08-1.54-.14-.33,0-.34-.06-.24-.35A.83.83,0,0,1,13,42.3c.09-.16.19-.31,0-.49s-.44-.43-.77-.3c-.53.21-.58.17-.25.65s.23.81-.34,1a1.36,1.36,0,0,0-.9.73c-.07.14,0,.21.11.3A1.51,1.51,0,0,1,12.26,43l.07-.26c.11.07.18.16.27.17.34,0,.69.08,1,.11l1.14.09a.28.28,0,0,1,.18.09,1.66,1.66,0,0,1,.35,1.11c0,.39,0,.78,0,1.17,0,.06,0,.12.06.18s0,.28,0,.42a1.21,1.21,0,0,0,0,.18c0,.32,0,.63,0,.95l-.2.08-.06.12c.29-.2.27,0,.33.09s.2.32.33.45a4.74,4.74,0,0,1,.9,1.42c0,.08,0,.22-.06.32s-.39.48-.21.81l0,.05ZM39.17,33.26a1.48,1.48,0,0,0-.33-.28c-.43-.21-.86-.41-1.3-.6-.14-.06-.22-.1-.11-.27s0-.18-.1-.27-.11,0-.19-.06l.1.35-.11,0-.25-.37-.06.09-.21-.32.38.07.25-.67h.07v.19l.24-.17c-.17-.09-.4-.11-.31-.3a1.82,1.82,0,0,1-.29-.21,1.89,1.89,0,0,1-.19-.3l-.23.1-.08-.18c-.09.1-.21.18-.25.28a1.11,1.11,0,0,0-.08.89c.06.15,0,.15-.21.13l.18-.1a.77.77,0,0,1-.65-.4,3.47,3.47,0,0,0-1.16-1.22,3.71,3.71,0,0,0-.61-.26c-.08-.14-.14-.16-.4-.12a1.64,1.64,0,0,0-.23,0,.55.55,0,0,0-.15.08s.12.08.17.07a1.12,1.12,0,0,1,.83.24A4.74,4.74,0,0,1,35,31c.13.18.28.35.42.52l.15,0,0,.17c.37,0,.48.31.67.47l-.12.06.07.08.29-.1.07.27h.07l.06-.18.18.24-.29,0v.1a.82.82,0,0,0,.27,0c.22,0,.22-.06.35.1-.25,0-.54-.09-.67.19l1-.18C38.05,32.83,38.46,33.3,39.17,33.26ZM9,45.87l.09,0,0-.38A6.54,6.54,0,0,1,9,44.38a1,1,0,0,1,.5-.85,1,1,0,0,0,.44-.65c.07-.27-.09-.47-.38-.54s-.41-.18-.36-.45a.58.58,0,0,0-.28-.62,1.55,1.55,0,0,1-.21,0c-.29,0-.42.13-.31.37s.24.6,0,.89a.78.78,0,0,0-.16.21c-.07.14-.21.28,0,.48.11-.13.19-.24.28-.33.23-.25.46-.52.88-.33.1,0,.27.1.28.16s.1.4-.17.51a.65.65,0,0,0-.22.11,1.76,1.76,0,0,0-.6,1.1.77.77,0,0,0,0,.37,8.23,8.23,0,0,0,.19.86C8.81,45.78,8.92,45.82,9,45.87ZM14,45c-.41-.1-.48,0-.44.34,0,.1,0,.26,0,.29a2,2,0,0,1-1,.37.56.56,0,0,0-.37.06,4.1,4.1,0,0,0-.63.62c0,.06,0,.2,0,.27l.77-.32s.06-.14.13-.17a2.74,2.74,0,0,1,.63-.21,2.16,2.16,0,0,0,.87-.55.15.15,0,0,0,0-.07C14,45.38,14,45.17,14,45ZM8.56,39.2a3.67,3.67,0,0,0-.07.42,1.7,1.7,0,0,0,0,.39c0,.12-.13.27.12.38.06-.37.11-.7.18-1A.7.7,0,0,1,9,39a6.05,6.05,0,0,1,1-.7,2,2,0,0,0,.87-1.34c0-.08,0-.19,0-.28a1.2,1.2,0,0,0-.22.5A1.4,1.4,0,0,1,9.8,38.2l-2,1.15c-.16.09-.18.14-.13.26ZM29.73,14.33c-.22-.06-.28-.21-.3-.42a.53.53,0,0,0-.23-.37.28.28,0,0,0-.39.18.36.36,0,0,0,.05.34c.13.11.1.17,0,.23s0,.13,0,.15l-.1.26.05,0,.06-.13.41.25.08-.12.1.12ZM16.9,11.52c-.2,0-.25-.32-.57-.22l.31.14c-.49,0-.49,0-.46.29l.34.08v.08l-.35,0,.06.08-.31.25,0,.07c.2-.19.34-.08.5,0l-.1-.21.4,0,.12.19c.22-.2.23,0,.3.14l.07,0-.09-.32.33-.21,0,0-.21.08c-.18-.4.32-.06.32-.26l-.4-.21.11.17,0,0L17,11.44ZM36.24,29.73l-.15.5.11,0,.06-.25.32,0,.1-.57.28.23a1.63,1.63,0,0,1,0-.18c0-.05,0-.1,0-.14h.14l-.13-.44-.24,0-.23-.45-.19.15c.07.08.16.14.15.17-.08.25-.19.49-.29.73l-.07,0Zm-10-8.38,0-.08-1,.22c0-.08-.1-.18-.23,0s-.09,0-.13.06a2.73,2.73,0,0,0-.31.15l.74.31c.13-.11.3-.23.47-.36a1.51,1.51,0,0,1,.2-.17A1.69,1.69,0,0,1,26.2,21.35ZM28,42.76a6.75,6.75,0,0,0-2.35.31.14.14,0,0,0,.12.06l2-.23C27.84,42.89,27.9,42.81,28,42.76ZM23.85,5.88l.2.14-.34.2,0,0,.5-.17-.11.27a.35.35,0,0,0,.07-.64L24,5.84l0-.44c-.26.13-.56,0-.68.28.2.26.37-.13.58,0Zm-16,27.49,0,.08,1-.11c.08,0,.18-.06.23,0s.22,0,.33-.13l-.63-.09c-.11.24-.38.18-.59.17L8,32.9l-.09,0C8.15,33.09,8.07,33.23,7.89,33.37Zm28.21-.29-.09.19.05,0,.23-.3.05,0-.05.14.3.07v.06l-.25,0c0,.28.23,0,.3.17l-.1.51c.31-.09.23-.36.34-.56l-.2,0,0,0,.2-.13c-.32,0-.39-.4-.73-.27l.09-.18-.05,0L36,33ZM8.94,32.77l0-.08-1.21-.12-.08.17a1.32,1.32,0,0,0,.26,0,2.89,2.89,0,0,1,.88.07S8.87,32.8,8.94,32.77Zm16.81-12c.14.16.14.16.34-.08-.18-.12-.19-.13-.41,0a.57.57,0,0,1-.47.09c-.24,0-.28,0-.2.25l.1-.2h.09l.11.46c.05-.23,0-.47.37-.42C25.7,20.88,25.72,20.81,25.75,20.77Zm9.52,7.82c-.34.08-.12.55-.52.58l.12.23.12-.24.07.06-.19.2a.11.11,0,0,0,0,.1.22.22,0,0,0,.1.09s.08,0,.09-.05l.3-.71-.06,0-.15.27h0l.07-.35h.22Zm.48-1.28-.28.39-.3-.07,0,.07.34.12.18-.2c.06.19-.15.39.06.49l.46-.46,0,0-.32.21Zm-7.4-9h.1a1.85,1.85,0,0,1,0-.23.65.65,0,0,1,.08-.17l.08.21.11-.28.21,0-.34-.17-.12.2h0l0-.24-.07,0-.07.21-.21-.07,0,.05C28.41,17.88,28.4,18.09,28.35,18.31ZM18.21,10.62v-.07l.35,0c-.06-.12-.07-.11-.26-.06s-.16.23,0,.43L18,10.75l-.18.11.11.15-.13.06.12.17.11-.31c.32.08.25-.23.45-.33Zm1.4,40.47.2.4.14-.28-.13-.09,0,0,.3.08c-.12-.15-.29-.26-.16-.47l-.13-.1-.07,0C19.94,50.86,19.77,51,19.61,51.09Zm-8.37-5.61L11,45.06l-.19,0-.3.35.28.12,0-.34Zm24.84-5.57c-.09-.1-.12-.18-.19-.2a.54.54,0,0,0-.33,0c-.11,0-.18.15-.26.22Zm-3.23-21s0,0-.05,0q-.36.09-.72.21s-.07.11-.1.16c.17,0,.3-.2.41,0Zm-5,27.68-.06,0c-.05,0-.14.1-.13.15s.09.1.14.15.45,0,.41.33l.07,0-.18-.47h-.21l.09.18-.22-.08Zm3-29.3h.06s0-.07,0-.1c0-.2.08-.29.31-.28.06,0,.12-.12.18-.19-.12,0-.19.09-.28.12s-.38.1-.57.15l0,.11.23,0ZM17.21,11.35l.1-.07-.3-.73h-.07a3,3,0,0,0,.08.32l.12.32-.17.06ZM25.05,45,25,45l.1.45-.1.1.33.23.05-.06c-.27-.1-.18-.28-.11-.42l-.19-.12.17-.07ZM17,13.81l0-.05-.61.07.2.09-.25.14.06.08Zm6.38,31.72-.22.31.1.19h0l0-.19.17.16.07,0-.11-.24c.12-.18.1-.23-.21-.32ZM9.08,36.72c-.37-.24-.63-.24-.83,0Zm22.37-16c-.32-.06-.59-.29-.86,0l.19.08c.19-.18.23-.18.42,0Zm3.11,7.93c.12-.19.23-.32.39-.13l.15-.09-.28-.17-.1.11-.16-.19ZM35,22.91v-.06l-.37-.05.32.52.06,0V23l-.13,0v0ZM25.51,7.4v.07l.43.09,0-.19h.21v0l-.3-.12-.08.31-.08-.23ZM23.66,20.65v.08l.78,0-.13-.21c-.2.07-.38.22-.53,0Zm2.23,1.65v-.07l-.66-.09-.12.16Zm4.66,19.85-.06,0,.1.36c.24-.28.19.09.32.1l-.11-.56-.12.26ZM8.15,32.09l.53.1,0-.08-.76-.19.07.25ZM24.42,6.82a.58.58,0,0,0,.63-.26l0-.06ZM11.3,47.07c.18-.2.16-.28,0-.38l-.37.19.35.09Zm25.62-9.73-.33-.42.07.67Zm-1.19-7.79c.18.06-.15.34.11.34l.19-.57-.21.17-.2-.09,0,.25h0ZM32.54,18.77l-.32-.15-.17.14C32.26,18.91,32.26,18.91,32.54,18.77Zm2.68,28.45,0,.05h.19l-.08.18.2,0-.05-.24.18,0,0,0L35.53,47ZM31.07,25.08l-.1-.16h0v.26l.3.12,0-.42h-.07Zm2.48.12.07-.77C33.45,24.72,33.27,24.94,33.55,25.2Zm4.22,13h-.09v.61h.13ZM25.22,20.43c.22.09.36-.28.58,0l-.11-.3-.27.15Zm10.31,4.46c0,.37.14.54.42.42-.23,0-.24-.12-.17-.24ZM37.4,37.37l0,.07c.13,0,.26-.09.38-.15s0-.13-.05-.24Zm-9.61-17.1v0l.46.11c.16,0,.36-.07.37-.14ZM14.54,14.89l.21.11,0-.08c-.08,0-.18-.1-.23-.07a1.75,1.75,0,0,0-.29.26l.05,0,.29,0ZM30.2,46.76h.07s0,0,0,0,0-.31,0-.47,0-.07-.08-.1-.07.06-.08.09a.86.86,0,0,0,0,.16Zm-.59-.46-.12.19a1,1,0,0,0,.36,0c.09-.06.14-.19.21-.29l-.07,0-.18.24ZM25.8,7.61c-.44-.1-.49-.08-.62.2l.38-.16v.1Zm9.05,16.1v.05l.26,0L35,24l.05,0,.25-.44ZM7.74,34.49l.42.31.15-.23-.06,0-.21.1C8,34.51,7.91,34.36,7.74,34.49ZM25.07,7.18,25,7.47l.07,0,.2-.52-.4.21,0,0Zm-9.5,6.49-.28-.14-.06.22.23-.07s0,0,.06,0a.44.44,0,0,0,.19-.12s-.05-.11-.11-.22ZM33,20.18l-.08,0a1.86,1.86,0,0,0-.12.38s.1.09.17.11a.67.67,0,0,0,.2,0C32.82,20.54,32.8,20.48,33,20.18Zm4,13.39,0,.06.19.08-.32.11V34l.43-.37ZM30.62,48.42l.38.2,0,0-.18-.34Zm5.41-20,.07,0,.42-.33-.27-.09,0,.15-.06,0Zm-6.65,12.3h.1a1.67,1.67,0,0,0,0-.23h-.37l.12.18.05-.09ZM8.09,33.88l-.22-.3,0,.05.31.37.22-.33-.06,0Zm21,15.94.1,0c0-.09-.06-.22-.13-.25s-.21,0-.38.06l.25.14.13-.16Zm8.25-7.34,0,.07.32-.07-.13.19c.09,0,.19,0,.19,0a.66.66,0,0,0-.05-.26ZM15.74,15c0,.16-.07.23-.24.16l0-.14h-.07a.87.87,0,0,0,0,.23s.08,0,.12,0,.2-.06.3-.09Zm8,5.84c-.24.18.12.37,0,.55l.17-.18h-.07Zm6.64,27-.08,0-.06.15-.08-.09h-.05v.43l.16-.26ZM32,18.12l-.26.19.08.08.25-.14-.08.31C32.14,18.53,32.16,18.35,32,18.12ZM18.34,49.71c0-.14,0-.24,0-.34s-.05-.12-.05-.18a.43.43,0,0,1,0-.14l-.18.05Zm12.42-30c0-.17-.4-.13-.13-.41a2,2,0,0,0-.24.08c0,.12.06.23.11.41C30.55,19.54,30.66,19.67,30.76,19.7ZM13.6,47.93a1,1,0,0,1,.15.21c.08.21.15.25.23.18l-.11-.26C13.82,47.88,13.72,47.85,13.6,47.93ZM24.88,6l0,0,.23-.17.13.21c.21-.29-.06-.25-.17-.32ZM22.46,43.7l0,0V44c.42,0,.44,0,.46-.19l-.32.12Zm9-24.85-.12.5.27-.09Zm5,8s-.1,0-.13,0-.27.23-.4.35l0,0ZM8.21,37.59l.19-.21-.49,0v.07ZM28.29,10.75l-.18-.18a1.42,1.42,0,0,0-.11.18.83.83,0,0,0-.06.21h0l.08-.14.07.11L28,10.77Zm2.3,14.43c.22-.07.13.16.28.26l0-.53ZM15.75,13.34l.39-.34-.32,0ZM31.8,24.52s0,0,0,0c-.17-.17-.28.06-.43.06s-.06.05-.09.08,0,.05,0,.05a.32.32,0,0,0,.14,0ZM26,8l.22-.11h-.65v.07h.23A.75.75,0,0,1,26,8ZM21.71,5.14l.38.18.17-.22Zm9.08,12.62,0,.5h0l.18-.44Zm2.37,31.7.05.06c.07-.23.23-.15.38-.1l0-.06-.22-.18ZM19.65,8.52l-.2-.12.08.25.31-.27s-.08-.08-.16-.17Zm10.42,10.9,0,.46h0l.14-.31ZM8.84,37.12a.83.83,0,0,0-.2-.11,1.81,1.81,0,0,0-.34,0C8.77,37.22,8.77,37.22,8.84,37.12Zm26.74-8.06L35.47,29l-.32.42.08,0ZM32,17.44l-.06,0,.11.33.25-.12a1.49,1.49,0,0,1-.2-.12A.71.71,0,0,1,32,17.44ZM28,11.11c-.2.13,0,.23,0,.37l.23-.11C28,11.39,28,11.27,28,11.11ZM26.84,18.5v.07c.18,0,.37,0,.55-.06s.06-.08.1-.13Z" transform="translate(0.96 2.53)"/><path class="cls-1" d="M18.67,31.87l-.09.26c-.36-.32-.43-.82-.19-.94,0,.16,0,.42.12.5a1.64,1.64,0,0,0,.72.07,4.46,4.46,0,0,0,.51-.07C19.73,32,19.24,32.05,18.67,31.87Z" transform="translate(0.96 2.53)"/><path d="M47.08,50A2.11,2.11,0,0,1,45,49.24,1.83,1.83,0,0,1,45.33,47c.63-.47,1-.08,1.3.33a1.35,1.35,0,0,0,1.82.49c.57-.29.63-.63,0-.91a9.44,9.44,0,0,0-1.63-.54A1.8,1.8,0,0,1,45.34,45c-.14-.58-.19-1.24.57-1.56a19.6,19.6,0,0,1,2.47-.73,2.67,2.67,0,0,1,.4,0c1.63-.2,1.9,0,1.73,1.26,0,.36-.44.7-.68,1a4.74,4.74,0,0,1-1-.88,1.06,1.06,0,0,0-1.67-.32c-.59.4-.55.84.13,1.13.47.19,1,.34,1.47.49,1.37.42,2,1.39,1.56,2.54-.14.38-.09.84-.33,1.17C49.49,49.85,49,50,47.08,50Zm-.58-1.1c1.55.52,2.88.31,2.93-.49a10.13,10.13,0,0,1-1.41.19,4.21,4.21,0,0,1-2-.19c-.36-.22-.25-.92-.34-1.36-.63.32-.46,1.69.52,2.58Z" transform="translate(0.96 2.53)"/><path d="M93.2,48.67c.81.41.86.69.22,1.13-.92.63-2.92.85-3.48,0-.18-.28-.3-.82-.1-1a2.33,2.33,0,0,0,.86-2.09c0-.79-.06-1.58-.09-2.37l-.39,0A4,4,0,0,0,90,45c0,.46-.05,1-.83,1s-.53-.62-.61-1a1.35,1.35,0,0,1,0-.4c.14-1.3.24-1.37,1.84-1.37.94,0,1.89-.08,2.81,0a1.44,1.44,0,0,1,1,.65,3.58,3.58,0,0,1,.15,1.69c0,.23-.52.43-.81.64-.2-.2-.48-.38-.58-.61a9,9,0,0,0-.5-1.22,5.67,5.67,0,0,0,.69,4.33c-1.89,1.19-1.1-.59-1.55-.91l-.47,1.75a9.57,9.57,0,0,1,1.07,0C93.17,49.62,93.43,49.31,93.2,48.67Z" transform="translate(0.96 2.53)"/><path d="M83,45.34c.09-.52.14-1,.25-1.38s.23-.93.39-.93a10.31,10.31,0,0,1,1.91.19,1.82,1.82,0,0,1-.21.74,18.73,18.73,0,0,0-2.12,2.6A1.46,1.46,0,0,0,84,48.38c.28.18.62.66.51.8a1.81,1.81,0,0,1-1.09.48,5.51,5.51,0,0,1-1.72,0c-.84-.15-1-.65-.4-1.13,1.13-.9.8-2,.23-2.85-.08-.14-.27-.31-.22-.42.24-.57-.24-.74-.75-.91a.38.38,0,0,1-.17-.08c-.24-.31-.46-.62-.69-.93a5.9,5.9,0,0,1,1.6-.38c.49,0,.8.31.56.86S81.86,44.94,83,45.34Z" transform="translate(0.96 2.53)"/><path d="M101.88,43.55H99.27v.16c.4,0,.81,0,1.21,0a8.24,8.24,0,0,1,1,.23,5.19,5.19,0,0,0-.47,1.26,13.23,13.23,0,0,0,0,2.67c0,.28.58.51.86.79s.62.48.6.71a1,1,0,0,1-.68.65,14.49,14.49,0,0,1-2.94.1c-.84-.09-1.1-.91-.44-1.33a2.26,2.26,0,0,0,1.11-2.17,10.71,10.71,0,0,1,0-1.27c0-.46,0-.81-.69-1a.74.74,0,0,1-.45-.61c0-.13.42-.36.67-.37.92,0,1.85,0,2.78,0Z" transform="translate(0.96 2.53)"/><path d="M72.54,47.56c-.14-.16-.37-.31-.4-.48-.1-.62-.08-1.25-.22-1.87a3.77,3.77,0,0,0-.62-1.12c-.42-.6-.13-1.06.72-1.06,1.17,0,2.35-.05,3.52,0,.44,0,1.15.26,1.23.49A2,2,0,0,1,76.53,45c-.21.38-.69.36-1,0-.15-.17-.29-.43-.49-.47-.43-.09-1.09-.22-1.3-.06s-.29.73-.42,1.11c.31,0,.73.12.89,0s.21-.48.31-.73l.65.38-.24.85.61,1-.28.11L75,46.54l-.59.38c-1.05-.67-1.24-.16-1.18.75L72.61,47l-.09.56Z" transform="translate(0.96 2.53)"/><path d="M63.22,46.11c-1.16-1.74-.12-3,2.23-3H66c1.77,0,1.77,0,1.59,1.39,0,.33-.08.66-.13,1-.32-.25-.65-.49-1-.75a2.16,2.16,0,0,0-3.27.51A2.17,2.17,0,0,0,63.22,46.11Z" transform="translate(0.96 2.53)"/><path d="M67.15,49.21l-2.66.15,0-.13.7-.4-1.23-.5.06-.14.72.12c1,.16,1.54-.28,1.27-1.08a2.28,2.28,0,0,1,0-.74c.55,0,1.1,0,1.64,0,0,0,.09.37,0,.39-.7.3-.44.8-.46,1.23S67.15,48.78,67.15,49.21Zm-.36-2.34-.25,0c.09.37-.38.83.35,1.17Z" transform="translate(0.96 2.53)"/><path d="M72.52,47.58a6.47,6.47,0,0,0,1.56.87,7.64,7.64,0,0,0,1.86,0v.22H73.51c.22.77,1,.59,1.59.63a8.82,8.82,0,0,0,1-.05v.27c-1.41,0-2.82.08-4.23.08a1,1,0,0,1-.73-.41c-.08-.12.15-.41.32-.57.39-.34,1.07-.51,1.05-1.1Z" transform="translate(0.96 2.53)"/><path d="M56,48.23l2,.65-.07.21-.87.06-.06.16.75.2,0,.23a6,6,0,0,1-1.76-.25c-.26-.12-.15-.72-.2-1.1Z" transform="translate(0.96 2.53)"/><path class="cls-1" d="M93.2,48.67c.23.64,0,.95-.92.87a9.57,9.57,0,0,0-1.07,0l.47-1.75c.45.32-.34,2.1,1.55.91Z" transform="translate(0.96 2.53)"/><path class="cls-1" d="M67.39,46.63l.12,1.5c-.92-.43-.32-1-.44-1.47Z" transform="translate(0.96 2.53)"/><path d="M65.48,48.71c-1.1,1.45-2.23.48-2.62-2.05,0-.18,0-.36-.08-.54-.33-1.9-.33-1.9.77-1.87l.74,0c-.13.37-.25.76-.39,1.12-.48,1.23,0,3.09.91,3.46C65,49,65.26,48.77,65.48,48.71Z" transform="translate(0.96 2.53)"/></svg>
