<svg id="Øsm" xmlns="http://www.w3.org/2000/svg" width="399.44mm" height="20.79mm" viewBox="0 0 1132.28 58.94"><defs><style>.cls-1{fill:#e4dfc4;}</style></defs><title>headersisselblackyellow</title><rect class="cls-1" width="1132.28" height="58.94"/><path d="M30.17,45.85l-.17.36a1,1,0,0,0-.69-.36c-.18,0-.26-.07-.26-.26,0-.38-.45-.57-.93-.41l-.06,0a2.19,2.19,0,0,0-1,.06s-.11-.05-.14-.1a13.53,13.53,0,0,1-1-1.31,12.27,12.27,0,0,1-1-1.88c-.46-1.15-.86-2.32-1.23-3.49a11.8,11.8,0,0,1-.32-1.57c-.06-.33-.13-.65-.17-1a4.7,4.7,0,0,1,0-.75c0-.52,0-1,0-1.55s0-1,.07-1.47a5.48,5.48,0,0,1,.23-.86c.12-.48.22-1,.35-1.44s.27-.88.4-1.33c.2-.69.35-1.4.61-2.08.32-.86.73-1.69,1.09-2.54.23-.53.44-1.07.62-1.61a21.13,21.13,0,0,1,1.31-3.07c.14-.26.25-.54.39-.8s.36-.69.53-1c.43-.92.85-1.84,1.3-2.75.19-.38.48-.72.69-1.08.33-.56.65-1.12.95-1.68a2.77,2.77,0,0,1,.59-.79,5.34,5.34,0,0,0,.69-.93c.87-1.23,1.7-2.5,2.64-3.69a11.91,11.91,0,0,1,1.86-1.9c.29-.23.56-.14.86-.22l-.06.19a2.91,2.91,0,0,0,.4-.1A.69.69,0,0,0,39,4.27c.16-.27.42-.24.69-.2l.21,0a.61.61,0,0,0,.29.2.68.68,0,0,0,.55,0l-.45-.12a1.56,1.56,0,0,1,.22-.05l.84.13.11,0c.47.27,1,.51,1.38.81a3.55,3.55,0,0,1,.66.73c.27.35.51.72.79,1.07a12.87,12.87,0,0,1,1.58,2.2c.12.24.3.45.43.69l1.88,3.31c.24.42.5.83.72,1.21l-.58-.09a.43.43,0,0,1-.18,0,.85.85,0,0,0-.56-.27c-.25,0-.31,0-.3.2a.18.18,0,0,1-.07.16,1.55,1.55,0,0,0-.08-.23.53.53,0,0,0-.16-.13v.36h-.34c.17.29.17.29.27.2l.41.08a.75.75,0,0,0,.77.39,5.79,5.79,0,0,1,.72,0c.29,0,.34,0,.24-.27a.09.09,0,0,1,0-.1,1.5,1.5,0,0,1,.19.25c.38.62.78,1.24,1.12,1.89s.45,1.07.7,1.6.38.74.57,1.11.43.94.68,1.4.68,1.21,1,1.82c.41.81.79,1.63,1.16,2.46.19.42.32.86.47,1.3.29.81.59,1.62.85,2.44a12.38,12.38,0,0,1,.31,1.34c.16.83.32,1.65.45,2.48a11.46,11.46,0,0,1,.06,1.17c0,.5.08,1,.1,1.49a4,4,0,0,1-.08.48c-.05.43-.08.86-.12,1.29s-.07,1-.13,1.53c0,.14-.14.27-.18.41-.18.6-.34,1.2-.52,1.79-.12.4-.26.8-.42,1.19-.07.16-.25.28-.32.44-.19.37-.34.75-.52,1.13a2.27,2.27,0,0,1-.51.75,7.71,7.71,0,0,0-.82,1,9,9,0,0,1-1.79,2c-.37.27-.78.49-1.17.75l-1.55,1a5.5,5.5,0,0,1-.81.39c-.63.27-1.29.49-1.91.78a1.83,1.83,0,0,1-.6.12c-.5.05-1,.16-1.47.24a14.8,14.8,0,0,1-1.6.26c-.54,0-1.08,0-1.63,0-.3,0-.6,0-.9,0l-.32,0-1.94-.14a8.76,8.76,0,0,1-2.44-.56l-2.34-.87a11.26,11.26,0,0,1-2-1,5.15,5.15,0,0,1-.51-.37c-.17-.14-.16-.7,0-.8s.13-.19.12-.31-.16-.31.1-.44S30.34,46,30.17,45.85Zm19.13-.54s-.12,0-.13,0a2.8,2.8,0,0,0,0,.29l.31-.07-.16-.09.22-.11-.35,0,.1-.11.2,0c-.13-.13-.23-.28-.45-.15Zm1.08-.72-.25,0,.22.46h.1l0-.22c0-.09,0-.17,0-.25h.15v.17l.16-.07,0,.19.15-.09.47.48a.17.17,0,0,1,0,.1c0,.31,0,.34.3.42.22-.23.24-.55.57-.71a.53.53,0,0,1-.1-.64,1.55,1.55,0,0,1-.23-.06c-.33-.15-.48-.13-.62.17a.39.39,0,0,1-.42.25l-.22-.42Zm-.65.61-.27-.32c0,.09-.05.2,0,.26s.17,0,.27,0l-.12.18a.91.91,0,0,1,.05.26,1.25,1.25,0,0,1-.09.25l.07,0,.1-.23.08.13c0-.1.06-.17,0-.23A2.79,2.79,0,0,0,49.73,45.2Zm.16-1h-.33c.35.13,0,.42.2.55l.14-.35h-.11l.14-.12.23.12,0,0-.14-.13.24-.25,0,0-.36.25a.48.48,0,0,0-.1-.17.5.5,0,0,0-.22-.1c-.16.15-.15,0-.19-.07a1.59,1.59,0,0,0-.13-.22h-.05l.16.38Zm.4,1.49c0-.21-.15-.33-.3-.45l-.07.05.18.17-.09.09.28.14-.37.19a1.09,1.09,0,0,0,.79-.18l-.1-.55s-.18,0-.18.07a2.12,2.12,0,0,0,.12.41Zm4.53-8.23c-.28-.08.06-.2,0-.3s-.17.13-.19.11c-.2-.1-.27,0-.38.11l0,0,.24-.14.14.25-.29-.09v0l.58.49.11-.07s-.06-.1-.11-.12c-.24-.07-.19-.2-.1-.34l.13.24.07,0L55,37.44l.24.05-.12-.36Zm-1.42-.62-.25.16,0-.16-.36.23.39,0v0l-.31.11L52.57,37l0,0,.11.13c-.22,0-.29.11-.19.15a.6.6,0,0,0,.43,0,.51.51,0,0,1,.64,0l-.44,0a1,1,0,0,1,.25,0c.22.11.26.09.33-.13l-.44-.14v0l.14,0a1.62,1.62,0,0,0,0-.21l.13.12,0,0-.12-.24.22,0-.28-.14ZM52.05,23.66l0-.22-.33-.06-.07.61-.16-.09.22-.78-.16.13s0,0,0,0h0a.3.3,0,0,0-.06-.43l-.12.56.22-.12c-.16.36-.25,0-.41,0l.12.28h.2l-.09.22-.3,0,.23.1-.29.07v0h.22l-.09.28.41-.15c-.07.39-.07.39-.33.25l0,.5-.17.25.3.14c-.45.26-.13.46.06.66l0,0-.48-.26,0,0h.18v-.08l-.45.07.56.43.28-.07a.55.55,0,0,0,0,.18c0,.05,0,.09.07.16l.17-.32.24,0-.14.22.13.19c.17-.48.17-.48.37-.56l.15.19a2.77,2.77,0,0,1,.36-.39c.1-.07.27-.09.37-.18a.82.82,0,0,0,.12-.3H53.2c0-.11.07-.23-.13-.27,0,0,0-.09,0-.14s.07-.28.1-.42h-.07c-.14.2-.09.45-.16.66l-.09,0c0-.23-.19-.26-.36-.33l-.05.12c-.15-.11-.14-.2,0-.27s.14-.1,0-.17l0-.22c-.06-.17-.19-.18-.37-.12L52,23.66l.25.17.07-.32.51.16a1.21,1.21,0,0,1-.11-.18.75.75,0,0,1,0-.19l-.11.17-.18-.18.11-.1v-.07a2.06,2.06,0,0,1-.26,0,.18.18,0,0,1-.08-.13c0-.05,0-.1.07-.15-.26.18-.29.29-.14.38L52,23.4l.16,0C52.17,23.47,52.24,23.6,52.05,23.66Zm-4.29-2.17v-.22c-.14,0-.29,0-.43,0s-.4.06-.24-.21c0,0-.05-.08-.08-.12l0,0v.16L46.83,21l-.13.33h.16l-.3.15,0-.07a2.41,2.41,0,0,0,.08-.25c.08-.27.32-.33.6-.16,0,0,.09,0,.1,0l-.16-.68-.2.12.06-.18,0,0-.16.17-.45-.22.11-.13-.06,0c0,.07-.1.14-.14.21a3.77,3.77,0,0,1-.26.39c-.08.08-.27.1-.15.26s-.06.11-.11.12a3.38,3.38,0,0,0-.34.08,3.58,3.58,0,0,0-.42.25l0,.07c.3-.08.56-.08.62.24l-.27,0a.53.53,0,0,0,.73.12h0a2,2,0,0,0-.2.21s0,.13,0,.13c.22.09.3.14.32.18l.51-.3h0l-.32.42h.13v.19l.19-.11-.08-.18.08-.05.35.28-.06.07-.23-.06a.46.46,0,0,0,.51.43,2.45,2.45,0,0,1-.34.06s-.07,0-.11.08.08.06.11.06h.33v.1l-.37,0,.56.34-.13.09c.12.12.23.11.32,0a.41.41,0,0,1,.42-.15s.11,0,.19-.06l-.54-.12,0-.05c.3,0,.91-.24,1-.42l-.41.11c.23-.13.24-.16.1-.39l-.18.27-.15-.11.06-.06.22-.11-.19-.22.16,0,0,.12.45-.11c0,.21-.41.12-.26.38l.2-.1,0,.45c.26-.12,0-.37.12-.53l.22.37.23-.07-.07,0,.16-.44h.07c0,.22-.07.44-.1.66a1.48,1.48,0,0,0-.35-.05s-.06.11-.08.15l.3.11.12-.22.23-.16c0,.08,0,.13,0,.17a1.08,1.08,0,0,1-.11.18c.46-.24.46-.24.64-.21l-.09-.46.31.27.08,0-.19-.36.34,0c.05-.12.09-.26.29-.17l.3-.34,0,.28-.2.13.08.06.29-.28,0,.49c.07-.07.15-.11.14-.15a.78.78,0,0,0-.1-.46c-.08-.1-.09-.13,0-.2a.71.71,0,0,0,.07-.15l-.24.17.08-.51-.22-.1.27-.1-.12-.24.06,0,.2.18c0-.22-.17-.35-.44-.3l.1.1-.25,0v-.33a.43.43,0,0,0-.16,0c-.25,0-.39-.07-.23-.32,0,0-.06-.1-.09-.15l-.1,0,.06.43h0l-.28,0,.15-.36-.26-.53-.17.21,0,0,.12-.09c0,.17,0,.17-.21.2l-.13.3.15.06-.16.09.41.34,0,0-.06-.1.07,0,.19.26-.48,0-.24-.4-.17.33-.21-.15.15,0-.06-.6-.28.14.31-.36a2.35,2.35,0,0,0-.24,0c-.05,0-.14,0-.14.06-.05.27-.19.2-.39.11l.11.17-.1.27-.12-.11.07.26h0l-.12-.25h-.07l0,.47h.06l-.08.11.2.08c-.11,0-.19,0-.2,0a1.65,1.65,0,0,1-.15-.25l-.38.37,0,0,.13-.09.06.54-.12-.08Zm-2.46,19h1.43v.18l.72,0-.17.15,0,0,.4-.2,0,.12c.27,0,.53-.1.79-.13s.55-.05.81-.07v.27c0,.13,0,.26,0,.39,0,.36,0,.72.41,1,.08.05.13.13.21.17.3.16.59.32.9.46.1,0,.18,0,.17.18a4.16,4.16,0,0,0,0,.61.65.65,0,0,0,.13.09v-.2h.06l.21.34.36-.1,0,.27.22,0-.11.13.23.31.14-.06c.15-.08.18-.2.05-.22l-.1.15-.12-.21c.18-.11.28-.3.52-.34s.44-.23.38-.5a1.54,1.54,0,0,1,0-.37h.08l.1.34c0-.11,0-.23,0-.32s.24-.31.33-.47.18-.44-.07-.64a.5.5,0,0,1-.09-.78,2,2,0,0,0,.3-1.16.68.68,0,0,0-.38-.74c-.45-.26-.66-.28-1,.1a.74.74,0,0,0-.12.29,1.26,1.26,0,0,0-.12.56.62.62,0,0,1-.11.54c-.11.17-.29.34-.15.55-.25.47-.91.69-.92,1.28l-.61-.17-.13,0a2.65,2.65,0,0,0-.42-.33.48.48,0,0,1-.27-.39.88.88,0,0,1,.32-.77.19.19,0,0,1,.15-.06,2,2,0,0,0,.76.22s0,0,.06,0a.19.19,0,0,0,.32,0s-.06-.19-.14-.24-.36-.18-.54-.27-.25-.15-.07-.29a.72.72,0,0,0,.11-.19l.57-1.32a1.75,1.75,0,0,1,.19-.2c.25-.32.5-.65.76-1a1.43,1.43,0,0,1,.27-.19l-.1-.19-.15.21L52,37.16l0,0-.22-.14c.21,0,.35,0,.49,0,.31-.07.31-.07.38-.23l-.28.13c-.22-.11-.18-.21,0-.3-.23-.12-.25.37-.51.09l0,.2h-.05l-.88-.83a.25.25,0,0,1-.06-.14c0-.35,0-.69,0-1a1.3,1.3,0,0,1,.43-1.12c.24-.23.38-.53.62-.76s.16-.21.1-.36c-.2-.44-.37-.9-.57-1.34a7.73,7.73,0,0,0-1-1.8,2.42,2.42,0,0,0-.57-.62.73.73,0,0,1-.4-.65c0-.06,0-.13,0-.19a6.59,6.59,0,0,1-.33-2.16c.06-.38-.29-.7-.65-.86a2.82,2.82,0,0,0-1.58-.32.17.17,0,0,1-.14,0A8,8,0,0,1,46,24a1.29,1.29,0,0,1-.35-.56c0-.22-.15-.28-.36-.32s-.2,0-.3,0a6.89,6.89,0,0,1-1.75-.23.41.41,0,0,0-.27,0,.25.25,0,0,1-.32-.08c-.26-.26-.54-.52-.77-.8a2.9,2.9,0,0,1-.31-.54,2.08,2.08,0,0,0-.2-.36c-.11-.16-.27-.35-.2-.51a.82.82,0,0,1,.42-.49c.27-.1.4-.43.35-.53a4.35,4.35,0,0,0-.39.23c-.2.14-.39.28-.57.43a.74.74,0,0,0-.19.27c-.17.4-.33.81-.5,1.22a6,6,0,0,1-.28.57c0,.09-.16.16-.22.24a.58.58,0,0,1-.72.28.37.37,0,0,0-.38.1,1.41,1.41,0,0,0-.28.33c-.08.21-.25.27-.48.31-.95.15-1.89.3-2.84.47a.65.65,0,0,0-.38.18c-.23.29-.42.6-.62.91s-.49.78-.73,1.18a.5.5,0,0,0-.08.2.28.28,0,0,1-.25.28c-.54.13-1.07.26-1.6.41s-1.32.37-2,.57a.43.43,0,0,0-.22.22c-.19.4-.35.81-.53,1.21a6.78,6.78,0,0,1-1,1.34c-.22.27-.53.53-.59.82s-.34.37-.58.47-.3,0-.48,0l-.27.05a.48.48,0,0,0,.54.1l.4.07c-.45.41-1.08.23-1.68.29,0,0,0,.1,0,.1.49,0,1,0,1.47.1.06,0,.13-.05.2-.07-.07-.17.47-.86.72-1a4.67,4.67,0,0,1,.43.3.88.88,0,0,1,.25.26,2.75,2.75,0,0,1,.43,1.32c0,.47,0,1,.06,1.42a.3.3,0,0,0,.1.21c.21.18.43.36.66.53s.4.29.58.44l.73.63a6.7,6.7,0,0,0,.79.58c.1.07.29,0,.44,0s.26-.05.39-.07a2.74,2.74,0,0,1,1.76.44,1.05,1.05,0,0,1,.5.41.91.91,0,0,0,.9.3A14.39,14.39,0,0,0,38,37.51c.75-.36.76-.34,1.45.07l.1.07,1.87,1.19a.29.29,0,0,1,.1.26,2.39,2.39,0,0,1-.15.54.39.39,0,0,1-.17.19l-.44.26s0,.07,0,.11.08,0,.11,0a1,1,0,0,0,.69-.59,1.33,1.33,0,0,1,.5-.73c.58-.43,1.14-.89,1.71-1.34a.6.6,0,0,0,.08-.08c.07-.17.22-.2.4-.19a2.09,2.09,0,0,0,.25,0h1v0l-.57.13,0,.08h.21c.5-.06,1-.11,1.49-.18s1-.16,1.55-.24a.63.63,0,0,0,.53-.39c.16-.38.35-.75.52-1.13a1.07,1.07,0,0,1,.47-.52c.15-.08.24-.06.32.07a6.33,6.33,0,0,0,1,1.36,1.48,1.48,0,0,1,.08.13,3.94,3.94,0,0,1,.32.51.41.41,0,0,1,.05.35,2,2,0,0,1-.4.57c-.53.49-.6,1.16-.93,1.73a1,1,0,0,1-.53.45c-.3,0-.6.06-.9.1a1.76,1.76,0,0,1-.38.06c-.39,0-.76-.07-1.14-.1,0-.39,0-.39-.31-.69l-.31-.25.13-.15,0-.07a3.54,3.54,0,0,0-.45.08.49.49,0,0,0-.37.36,4.48,4.48,0,0,1,.44.38.92.92,0,0,1,.13.24,1.11,1.11,0,0,1-.3.08c-.28,0-.63.1-.82,0s-.27-.42-.37-.65-.25-.67-.36-1-.18-.61-.28-1c-.07.08-.13.11-.13.14l0,.85a.81.81,0,0,0,.06.35c.17.32.38.63.56,1a2.55,2.55,0,0,1,.24.5,1.89,1.89,0,0,0,.12.44.36.36,0,0,1-.19.61c-.31.11-.63.22-.93.34a1,1,0,0,0-.35.24c-.26.25-.53.51-.48.9a.56.56,0,0,1,0,.12c-.13.56-.22,1.12-.4,1.67s-.33.92-1,1L40.66,46s-.15,0-.16,0a5,5,0,0,1-.43-1,2.78,2.78,0,0,0-.54-1.39c-.15-.17-.26-.35-.4-.52a.77.77,0,0,0-1-.18,3.56,3.56,0,0,0-.84.54l-1.08.84a10.46,10.46,0,0,1-1,.74c-.37.24-.6.15-.72-.22,0,0,0,0,0-.07l.42-.2a1.5,1.5,0,0,0-.52-.1.46.46,0,0,0-.35.38c0,.32.46.75.81.72a.66.66,0,0,0,.15,0,5.43,5.43,0,0,0,.57-.35c.24-.17.46-.37.69-.56.07,0,.19-.06.25-.12a8.22,8.22,0,0,1,.66-.66c.31-.24.5-.59,1-.66s.51,0,.65.27c.26.56.49,1.12.74,1.68.17.38.36.76.53,1.12l-.51,0a1.18,1.18,0,0,0-1,.5c-.1.17-.27.33-.37.5a4.78,4.78,0,0,0-.28.61,5.39,5.39,0,0,0-.22.68c-.12.43-.22.86-.36,1.28-.09.26-.25.51-.07.84a2.27,2.27,0,0,0,.32-.43c.24-.66.44-1.33.68-2a5.88,5.88,0,0,1,.49-1.09,1.13,1.13,0,0,1,.53-.48,6.59,6.59,0,0,1,1.09-.23.41.41,0,0,0,.31.38c.35.14.72.27,1.07.42.08,0,.12.12.18.19H42l0-.12.35.07a1.81,1.81,0,0,0,.34.13c.23,0,.35.09.37.28a2.68,2.68,0,0,1,0,.49s-.08.07-.13.09l-.94.29a.18.18,0,0,1-.16,0c-.23-.11-.44-.25-.67-.36a4.49,4.49,0,0,0-.61-.23.34.34,0,0,0-.22,0l-.65.3c.11.11.12.22-.07.31s-.06.08-.09.13a3.61,3.61,0,0,1-1,1.4c-.15.1-.21.29-.31.44l.06.05c.07-.05.17-.08.21-.15s.26-.2.48-.15a4.44,4.44,0,0,0,1.85.09c.36-.07.73-.08,1.09-.12l.91-.14c.08,0,.16-.05.24-.06.76-.11,1.52-.18,2.27-.32a3.56,3.56,0,0,0,1.24-.33,4.41,4.41,0,0,1,.81-.32c.14-.05.35-.08.39-.17a2.31,2.31,0,0,1,.77-.72,1,1,0,0,0,.35-1.09.48.48,0,0,1,0-.49,3.23,3.23,0,0,0,.29-.59,1.2,1.2,0,0,0,0-.33l-.07,0-.46.68c-.07-.18,0-.35-.1-.5-.14-.4-.31-.79-.47-1.18-.06-.16,0-.25.17-.32s.34-.19.23-.4l-.4,0,0,.06.34.19-.36.18c-.19-.11.1-.37-.27-.44a2.16,2.16,0,0,0,0,.28c.06.17,0,.27-.17.34s-.48.16-.72.25l-.07,0,.12-.36-.14,0a.87.87,0,0,0-.1.19.59.59,0,0,1-.52.43,1.16,1.16,0,0,0-.27.14.42.42,0,0,0,.23,0,2.64,2.64,0,0,0,.49-.08c.36-.12.72-.27,1.08-.41.11-.05.19,0,.22.09s.08.35.13.53l.3.92c.07.26.27.51.09.77s-.36.29-.46.1-.28-.23-.41-.35a.51.51,0,0,1-.16-.23c0-.19-.13-.18-.27-.1s-.29.14-.44.21v1.42l-.07,0c-.25-.26-.5-.53-.76-.78a.72.72,0,0,0-.26-.14l-.56-.1c-.15,0-.21-.1-.12-.24s.09-.23.05-.25a.74.74,0,0,0-.36-.09c-.25,0-.5,0-.75,0l-.26,0c.21.12.35.27.51.29a1.73,1.73,0,0,0,.51-.15l0,0a2,2,0,0,1-.21.2c-.22.19-.21.29,0,.46a.8.8,0,0,1,.15.18l.73-.16a.28.28,0,0,1,.35.16,1.41,1.41,0,0,0,.34.39c.14.14.31.25.53.43l-.64.47a.18.18,0,0,1-.13,0,4.89,4.89,0,0,1-.68-.21,1.69,1.69,0,0,0-.78-.27c-.36,0-.72-.16-1.08,0,0,0-.06,0-.09,0,0-.34.35-.65.12-1a1.12,1.12,0,0,1-.26,0,4.63,4.63,0,0,1-1.88-.65h-.06a2.17,2.17,0,0,1-.46-.22c-.1-.06-.08-.17.09-.2l.32,0c.35-.06.7-.11,1-.19s.84-.23,1.26-.32a4.62,4.62,0,0,1,.64-.06,3.29,3.29,0,0,0,1.13-.33.89.89,0,0,0,.56-.7,1,1,0,0,0,0-.27,2.25,2.25,0,0,0-.15.19,1.23,1.23,0,0,1-.91.65L43,45.47c.12-.41.26-.83.35-1.26s.13-1,.26-1.41a1.07,1.07,0,0,1,.84-.78c.29-.08.58-.14.87-.23a.46.46,0,0,0,.27-.75A3.36,3.36,0,0,1,45.3,40.47ZM32.57,17.73l0,.07c.13,0,.26,0,.39-.08a.26.26,0,0,1,.34.11,1.12,1.12,0,0,1,0,1.24c-.13.28-.34.54-.45.82a8.26,8.26,0,0,0-.22.89.63.63,0,0,1-.2.29c-.16.13-.36.21-.52.33s-.31.28-.49.39-.34.25-.35.47,0,.52-.09.78a.32.32,0,0,1-.13.2,4.66,4.66,0,0,0-.65.5.7.7,0,0,1-.54.24,1.19,1.19,0,0,0-.31.07c.49.15.63.13.92-.11.1-.08.21-.15.3-.23a.35.35,0,0,1,.43-.05l.81.29c.26.1.36.05.41-.2s0-.22.08-.34a.49.49,0,0,1,.47-.38c.7-.13,1.4-.26,2.1-.41a7,7,0,0,0,.73-.25.76.76,0,0,1,.3-.05,2.42,2.42,0,0,1,.47.07.27.27,0,0,0,.34-.15c.1-.21.19-.42.29-.62a.45.45,0,0,1,.17-.13,3.33,3.33,0,0,1,1.09-.09c.36,0,.37,0,.45-.35s.17-.6.25-.9c0-.08.07-.17,0-.23-.11-.24.06-.36.24-.47l1.1-.68c.3-.17.32-.23.18-.52l-.08-.13a20.58,20.58,0,0,1-.87-1.92,1.86,1.86,0,0,0-.56-1c-.27-.21-.06-.66.3-.76s.52-.12.55-.45l-.29.09c-.34.14-.71.23-.86.59a.65.65,0,0,1-.34.33c-.54.2-1.1.37-1.65.57a.56.56,0,0,0-.31.25c-.11.28-.17.58-.27.87a.33.33,0,0,1-.19.22,1,1,0,0,0-.75.84.36.36,0,0,1-.2.18,7.49,7.49,0,0,0-.81.23.41.41,0,0,1-.57-.19c-.11-.16-.19-.35-.3-.52a.62.62,0,0,0-.16-.1l-.09.12a.16.16,0,0,1-.08.06Zm-.13,29.81a2.59,2.59,0,0,0-.14.42.19.19,0,0,0,.07.2,1.76,1.76,0,0,0,.51.26.67.67,0,0,0,.42,0,.7.7,0,0,0,.33-.68,1.17,1.17,0,0,1,.14-.48.8.8,0,0,0,0-.83,6.68,6.68,0,0,0-.8-1.3,1.22,1.22,0,0,1-.23-1.29,2.48,2.48,0,0,0,0-.72c0-.11-.12-.27-.07-.32.24-.25.13-.45,0-.67a1.16,1.16,0,0,1-.13-.37c-.07-.23-.12-.47-.2-.7a1.68,1.68,0,0,0-.23-.38c-.12-.16-.3-.06-.46-.07-.52,0-1-.08-1.54-.14-.33,0-.34-.05-.24-.33A1.19,1.19,0,0,1,30,40c.09-.15.19-.29,0-.46s-.44-.4-.77-.28c-.53.2-.58.17-.25.61s.23.76-.34.91a1.4,1.4,0,0,0-.9.69c-.07.13,0,.19.11.28a1.49,1.49,0,0,1,1.4-1.08l.07-.24c.11.07.18.15.27.16.34,0,.69.07,1,.1l1.14.09a.23.23,0,0,1,.18.08,1.49,1.49,0,0,1,.35,1c0,.37,0,.74,0,1.1,0,.06,0,.11.06.17s0,.27,0,.4a1,1,0,0,0-.05.16c0,.3,0,.6,0,.9l-.2.08L32,44.8c.29-.19.27,0,.33.08s.2.3.33.43a4.43,4.43,0,0,1,.9,1.32c0,.08,0,.21-.06.3-.13.25-.39.45-.21.77l0,0Zm23.73-16a1.6,1.6,0,0,0-.33-.26c-.43-.2-.86-.38-1.3-.57-.14-.05-.22-.09-.11-.24s0-.18-.1-.26-.11,0-.19-.06l.1.33-.11,0-.25-.35-.06.09-.21-.3L54,30l.25-.63h.07v.18l.24-.16c-.17-.09-.4-.11-.31-.28a1.82,1.82,0,0,1-.29-.2,1.45,1.45,0,0,1-.19-.29l-.23.1-.08-.16c-.09.09-.21.16-.25.26a1,1,0,0,0-.08.83c.06.14,0,.14-.21.12l.18-.09a.77.77,0,0,1-.65-.38,3.45,3.45,0,0,0-1.16-1.15,5.19,5.19,0,0,0-.61-.24c-.08-.13-.14-.15-.4-.11a1.64,1.64,0,0,0-.23,0,1,1,0,0,0-.15.07s.12.08.17.07a1.16,1.16,0,0,1,.83.23A4.43,4.43,0,0,1,52,29.37c.13.17.28.33.42.49l.15,0,0,.16c.37,0,.48.29.67.44l-.12.06.07.07.29-.09.07.25h.07l.06-.17.18.23-.29,0v.09a1.22,1.22,0,0,0,.27,0c.22-.06.22-.06.35.08-.25,0-.54-.08-.67.18l1-.16C55.05,31.08,55.46,31.53,56.17,31.49ZM26,43.34l.09,0L26,43a5.84,5.84,0,0,1-.08-1,.88.88,0,0,1,.5-.8.87.87,0,0,0,.44-.61c.07-.25-.09-.45-.38-.51s-.41-.17-.36-.42a.52.52,0,0,0-.28-.58.76.76,0,0,1-.21,0c-.29,0-.42.12-.31.35s.24.56,0,.84a.7.7,0,0,0-.16.19c-.07.13-.21.27,0,.45l.28-.31c.23-.23.46-.48.88-.31.1.05.27.1.28.16s.1.37-.17.47a.91.91,0,0,0-.22.11,1.62,1.62,0,0,0-.6,1,.69.69,0,0,0,0,.35,7.91,7.91,0,0,0,.19.81C25.81,43.25,25.92,43.29,26,43.34Zm5-.87c-.41-.09-.48,0-.44.32,0,.1,0,.25-.05.28a2,2,0,0,1-1,.34.72.72,0,0,0-.37.06,4.34,4.34,0,0,0-.63.58c-.05.06,0,.19,0,.26L29.3,44s.06-.13.13-.15a2.72,2.72,0,0,1,.63-.2,2.22,2.22,0,0,0,.87-.52.13.13,0,0,0,0-.06C31,42.88,31,42.68,31,42.47Zm-5.42-5.4a3.38,3.38,0,0,0-.07.4,1.45,1.45,0,0,0,0,.36c0,.11-.13.26.12.36.06-.34.11-.66.18-1a.61.61,0,0,1,.2-.37,5.83,5.83,0,0,1,1-.66,1.85,1.85,0,0,0,.87-1.26c0-.08,0-.17,0-.26a1,1,0,0,0-.22.47,1.31,1.31,0,0,1-.74,1l-1.95,1.08c-.16.08-.18.13-.13.25ZM46.73,13.71c-.22-.05-.28-.2-.3-.4A.51.51,0,0,0,46.2,13a.29.29,0,0,0-.39.17.33.33,0,0,0,0,.32c.13.11.1.17,0,.22s0,.12,0,.14-.07.17-.1.25l0,0,.06-.12.41.24.08-.12.1.12ZM33.9,11.07c-.2,0-.25-.3-.57-.21l.31.13c-.49,0-.49,0-.46.27l.34.08v.07l-.35,0,.06.08-.31.24,0,.06c.2-.17.34-.07.5,0l-.1-.2.4,0,.12.18c.22-.19.23,0,.3.14l.07,0-.09-.3.33-.19,0-.05-.21.08c-.18-.38.32-.06.32-.25l-.4-.19.11.15,0,0L34,11ZM53.24,28.18l-.15.47.11,0,.06-.24.32,0,.1-.54.28.22a1.2,1.2,0,0,1,0-.17s0-.09,0-.14h.14l-.13-.41-.24,0L53.47,27l-.19.14c.07.07.16.13.15.16-.08.23-.19.46-.29.68h-.07Zm-10-7.87,0-.09-1,.22c0-.08-.1-.17-.23,0s-.09,0-.13,0a2.39,2.39,0,0,0-.31.14l.74.29.47-.34c.07,0,.13-.12.2-.16A1.63,1.63,0,0,1,43.2,20.31ZM45,40.42a7,7,0,0,0-2.35.29.13.13,0,0,0,.12,0c.68-.07,1.36-.13,2-.21C44.84,40.54,44.9,40.46,45,40.42ZM40.85,5.77l.2.13-.34.19,0,0,.5-.16-.11.25a.33.33,0,0,0,.07-.61L41,5.73l0-.41c-.26.12-.56,0-.68.26.2.24.37-.12.58,0Zm-16,25.83,0,.07,1-.11c.08,0,.18,0,.23,0s.22,0,.33-.13l-.63-.08c-.11.22-.38.17-.59.16L25,31.15l-.09,0C25.15,31.34,25.07,31.47,24.89,31.6Zm28.21-.28L53,31.5l.05,0,.23-.28.05,0-.05.14.3.06v.06l-.25,0c0,.25.23,0,.3.16l-.1.47c.31-.08.23-.34.34-.53l-.2,0,0-.05.2-.13c-.32,0-.39-.37-.73-.25l.09-.17-.05,0-.19.23ZM25.94,31,25.89,31l-1.21-.11L24.6,31a.85.85,0,0,0,.26.05,3.24,3.24,0,0,1,.88.06C25.79,31.12,25.87,31.06,25.94,31ZM42.75,19.76c.14.15.14.15.34-.08-.18-.11-.19-.12-.41,0a.6.6,0,0,1-.47.08c-.24,0-.28,0-.2.24l.1-.19h.09l.11.42c0-.21,0-.44.37-.39C42.7,19.86,42.72,19.79,42.75,19.76Zm9.52,7.35c-.34.07-.12.51-.52.54l.12.22.12-.23.07.06-.19.18a.11.11,0,0,0,0,.1.2.2,0,0,0,.1.08s.08,0,.09,0l.3-.66-.06,0-.15.26h0l.07-.32h.22Zm.48-1.21-.28.37-.3-.07,0,.06.34.12.18-.19c.06.18-.15.37.06.46l.46-.43,0,0-.32.2Zm-7.4-8.46.1,0a1.7,1.7,0,0,1,0-.22.48.48,0,0,1,.08-.16l.08.19.11-.26L46,17l-.34-.15-.12.19h0l0-.23-.07,0-.07.2-.21-.06,0,0C45.41,17,45.4,17.24,45.35,17.44ZM35.21,10.22v-.07l.35,0c-.06-.12-.07-.11-.26-.06s-.16.22,0,.4L35,10.34l-.18.11.11.14-.13.05.12.17.11-.3c.32.08.25-.21.45-.3Zm1.4,38,.2.38.14-.27-.13-.08,0,0,.3.07c-.12-.14-.29-.24-.16-.44l-.13-.09h-.07C36.94,48,36.77,48.15,36.61,48.24ZM28.24,43,28,42.58l-.19,0-.3.34.28.11,0-.32Zm24.84-5.23c-.09-.09-.12-.17-.19-.19a.63.63,0,0,0-.33,0,.89.89,0,0,0-.26.21ZM49.85,18s0,0-.05,0c-.24.06-.48.12-.72.2,0,0-.07.1-.1.15.17,0,.3-.19.41,0Zm-5,26-.06,0c-.05,0-.14.1-.13.14s.09.1.14.14.45,0,.41.31l.07,0-.18-.44-.21,0,.09.17-.22-.07Zm3-27.53.06,0s0-.06,0-.09c0-.19.08-.27.31-.27.06,0,.12-.11.18-.17a2.74,2.74,0,0,0-.28.11l-.57.14,0,.1.23,0ZM34.21,10.91l.1-.07-.3-.69-.07,0c0,.1.05.2.08.3l.12.29-.17.07Zm7.84,31.57-.06,0,.1.41L42,43l.33.22,0-.06c-.27-.1-.18-.26-.11-.39l-.19-.11.17-.07ZM34,13.22l0-.05-.61.07.2.08-.25.13.06.08ZM40.39,43l-.22.29.1.18h0l0-.18.17.15.07,0-.11-.22c.12-.17.1-.22-.21-.3ZM26.08,34.74c-.37-.22-.63-.22-.83,0Zm22.37-15c-.32-.06-.59-.27-.86,0l.19.08c.19-.17.23-.17.42,0Zm3.11,7.45c.12-.18.23-.3.39-.12L52.1,27l-.28-.16-.1.09-.16-.17ZM52,21.77v-.05l-.37-.06.32.49.06,0v-.27l-.13,0v0ZM42.51,7.19v.07l.43.09,0-.19h.21v0L42.81,7l-.08.29-.08-.21ZM40.66,19.65v.07l.78,0-.13-.2c-.2.07-.38.21-.53,0Zm2.23,1.54v-.06L42.24,21l-.12.15Zm4.66,18.65-.06,0,.1.34c.24-.26.19.09.32.1l-.11-.53-.12.25ZM25.15,30.4l.53.09,0-.08-.76-.18.07.24ZM41.42,6.65a.6.6,0,0,0,.63-.24l0,0ZM28.3,44.46c.18-.18.16-.26,0-.35l-.37.18.35.08Zm25.62-9.14-.33-.39.07.63ZM52.73,28c.18.07-.15.32.11.33l.19-.54-.21.16-.2-.09,0,.24h0ZM49.54,17.87l-.32-.14-.17.14C49.26,18,49.26,18,49.54,17.87ZM52.22,44.6l0,.06h.19l-.08.16.2,0-.05-.23.18,0,0,0-.18-.14ZM48.07,23.81l-.1-.15h0v.24l.3.11,0-.39h-.07Zm2.48.11.07-.72C50.45,23.47,50.27,23.68,50.55,23.92Zm4.22,12.16h-.09v.57h.13ZM42.22,19.44c.22.08.36-.26.58,0l-.11-.28-.27.15A1.37,1.37,0,0,0,42.22,19.44Zm10.31,4.19c0,.35.14.51.42.4-.23,0-.24-.12-.17-.23ZM54.4,35.35l0,.07a1.77,1.77,0,0,0,.38-.15s0-.12-.05-.22ZM44.79,19.29v0l.46.1c.16,0,.36-.06.37-.13ZM31.54,14.23l.21.1,0-.07c-.08,0-.18-.09-.23-.07a1.68,1.68,0,0,0-.29.25l.05,0,.29,0ZM47.2,44.17h.07s0,0,0-.05,0-.29,0-.44,0-.06-.08-.1-.07.06-.08.09a.75.75,0,0,0,0,.15Zm-.59-.43-.12.18a1,1,0,0,0,.36,0c.09-.05.14-.18.21-.27l-.07,0-.18.23ZM42.8,7.4c-.44-.1-.49-.08-.62.18l.38-.15v.1Zm9.05,15.12v.05l.26,0-.07.17.05,0,.25-.41ZM24.74,32.64l.42.3.15-.22-.06,0-.21.1C25,32.66,24.91,32.52,24.74,32.64ZM42.07,7,42,7.26l.07,0,.2-.49-.4.2,0,0Zm-9.5,6.1L32.29,13l-.06.21a1.55,1.55,0,0,1,.23-.06s0,0,.06,0,.16-.06.19-.11-.05-.1-.11-.2ZM50,19.2l-.08,0a1.61,1.61,0,0,0-.12.35s.1.08.17.1a.66.66,0,0,0,.2,0C49.82,19.54,49.8,19.48,50,19.2Zm4,12.58,0,.06.19.07-.32.11v.21l.43-.36ZM47.62,45.73l.38.2,0-.06-.18-.31ZM53,27l.07,0,.42-.3-.27-.1,0,.15-.06,0ZM46.38,38.51h.1a1.38,1.38,0,0,0,0-.21,2.26,2.26,0,0,0-.37,0,1.77,1.77,0,0,1,.12.17l.05-.09ZM25.09,32.08l-.22-.29-.05.05.31.35.22-.31-.06,0Zm21,15,.1,0c0-.08-.06-.21-.13-.23s-.21,0-.38.05l.25.14.13-.15Zm8.25-6.9,0,.07.32-.06-.13.18c.09,0,.19,0,.19,0a.59.59,0,0,0-.05-.25ZM32.74,14.3c0,.15-.07.22-.24.15l0-.13h-.07a.83.83,0,0,0,0,.22s.08,0,.12,0l.3-.09Zm7.95,5.48c-.24.18.12.35,0,.52l.17-.17h-.07Zm6.64,25.35-.08,0-.06.14-.08-.09h0v.4l.16-.24ZM49,17.27l-.26.17.08.08.25-.13-.08.29C49.14,17.65,49.16,17.48,49,17.27ZM35.34,47c0-.14,0-.23,0-.32s-.05-.11-.05-.17a.33.33,0,0,1,0-.13l-.18,0Zm12.42-28.2c0-.16-.4-.12-.13-.38a1.26,1.26,0,0,0-.24.07c0,.11.06.22.11.39C47.55,18.6,47.66,18.72,47.76,18.75ZM30.6,45.28a.9.9,0,0,1,.15.19c.08.2.15.23.23.17s-.08-.17-.11-.24S30.72,45.2,30.6,45.28ZM41.88,5.88l0,0,.23-.16.13.19c.21-.26-.06-.23-.17-.29ZM39.46,41.3l0,.05v.23c.42,0,.44,0,.46-.18l-.32.1Zm9-23.35-.12.48.27-.09Zm5,7.55a.57.57,0,0,0-.13,0l-.4.33,0,0ZM25.21,35.56l.19-.2-.49,0v.06ZM45.29,10.35l-.18-.17a1.11,1.11,0,0,0-.11.16.89.89,0,0,0-.06.2h0l.08-.13.07.1L45,10.36Zm2.3,13.56c.22-.07.13.14.28.24l0-.5ZM32.75,12.78l.39-.32-.32,0Zm16,10.5s0,0,0,0c-.17-.17-.28.05-.43.05s-.06.05-.09.08,0,0,0,0l.14,0ZM43,7.71l.22-.1h-.65v.07h.23ZM38.71,5.07l.38.18L39.26,5Zm9.08,11.86,0,.47h0L48,17Zm2.37,29.78.05,0c.07-.21.23-.13.38-.08l0-.06-.22-.17ZM36.65,8.25l-.2-.11.08.23c.12-.1.22-.17.31-.26L36.68,8ZM47.07,18.49l0,.43h0l.14-.29ZM25.84,35.12a.83.83,0,0,0-.2-.11H25.3C25.77,35.21,25.77,35.21,25.84,35.12Zm26.74-7.57-.11-.06-.32.39.08.05ZM49,16.63l-.06.05.11.3.25-.11a1.63,1.63,0,0,1-.2-.11A.45.45,0,0,1,49,16.63ZM45,10.68c-.2.13,0,.22,0,.35l.23-.1C45,11,45,10.84,45,10.68Zm-1.11,6.94v.07c.18,0,.37,0,.55-.06,0,0,.06-.07.1-.12Z" transform="translate(1.1 0.06)"/><path d="M73.4,38.25c-1.22,0-3.35.21-4.57-1.73a4,4,0,0,1,.73-5c1.38-1,2.14-.18,2.85.73,1.16,1.47,2.48,1.81,4,1.07,1.27-.63,1.39-1.39.08-2a19.51,19.51,0,0,0-3.58-1.18,4,4,0,0,1-3.32-2.94c-.3-1.27-.42-2.72,1.26-3.43a43.69,43.69,0,0,1,5.42-1.6,6.31,6.31,0,0,1,.87,0c3.58-.44,4.18-.09,3.8,2.76-.11.8-1,1.54-1.48,2.3a9.37,9.37,0,0,1-2.18-1.92c-.8-1.39-2.16-1.74-3.68-.71-1.28.88-1.2,1.86.29,2.48,1,.43,2.13.75,3.22,1.09,3,.92,4.32,3,3.44,5.56-.3.85-.19,1.85-.72,2.58C78.69,37.86,77.55,38.15,73.4,38.25Zm-1.28-2.4c3.39,1.13,6.32.66,6.42-1.09a22.61,22.61,0,0,1-3.08.44c-1.48,0-3.32.18-4.31-.42-.79-.49-.55-2-.75-3-1.38.7-1,3.7,1.14,5.66Z" transform="translate(1.1 0.06)"/><path d="M174.61,35.26c1.76.9,1.88,1.52.47,2.49-2,1.38-6.39,1.86-7.62,0-.4-.61-.66-1.81-.24-2.12,1.77-1.31,1.86-3,1.89-4.6s-.12-3.47-.19-5.2l-.87,0a7.62,7.62,0,0,0-.37,1.44c-.07,1-.12,2.18-1.84,2.12s-1.15-1.35-1.33-2.18a2.59,2.59,0,0,1,.07-.87c.29-2.85.51-3,4-3,2,0,4.13-.17,6.16,0A3,3,0,0,1,177,24.71a7.72,7.72,0,0,1,.35,3.72c-.07.51-1.16.93-1.78,1.39-.44-.44-1.06-.83-1.28-1.33a18.27,18.27,0,0,0-1.09-2.67,12.43,12.43,0,0,0,1.5,9.5c-4.13,2.61-2.41-1.31-3.4-2l-1,3.85c.76,0,1.56-.06,2.35,0C174.53,37.35,175.1,36.67,174.61,35.26Z" transform="translate(1.1 0.06)"/><path d="M152.18,28c.2-1.15.3-2.11.55-3,.19-.73.51-2,.86-2a23.09,23.09,0,0,1,4.19.43,4.12,4.12,0,0,1-.46,1.61c-1.54,1.92-3.58,3.66-4.66,5.72-.62,1.2,0,2.91,1.68,4,.63.39,1.36,1.44,1.12,1.75a4.08,4.08,0,0,1-2.38,1.06,12.35,12.35,0,0,1-3.79,0c-1.84-.33-2.19-1.42-.86-2.49,2.47-2,1.75-4.31.51-6.26-.2-.3-.59-.67-.5-.9.54-1.26-.52-1.64-1.64-2a.89.89,0,0,1-.38-.17l-1.51-2a12.67,12.67,0,0,1,3.52-.83c1.07,0,1.76.68,1.23,1.9S149.72,27.09,152.18,28Z" transform="translate(1.1 0.06)"/><path d="M193.66,24h-5.75v.37a23.75,23.75,0,0,1,2.67,0,17,17,0,0,1,2.17.48,11.6,11.6,0,0,0-1,2.78,28.69,28.69,0,0,0,0,5.86c.07.61,1.27,1.12,1.9,1.72s1.34,1.06,1.3,1.57a2.1,2.1,0,0,1-1.49,1.42,31.07,31.07,0,0,1-6.46.22c-1.83-.19-2.4-2-1-2.91a4.93,4.93,0,0,0,2.44-4.77,23.41,23.41,0,0,1,.09-2.78c.1-1,0-1.78-1.52-2.15a1.66,1.66,0,0,1-1-1.35c0-.28.94-.78,1.48-.81,2-.1,4.06,0,6.1,0Z" transform="translate(1.1 0.06)"/><path d="M129.26,32.84c-.3-.35-.81-.67-.87-1.05-.23-1.36-.17-2.76-.49-4.1a8,8,0,0,0-1.36-2.47c-.91-1.32-.29-2.31,1.59-2.33,2.57,0,5.16-.09,7.72.06,1,.06,2.53.58,2.69,1.1a4.28,4.28,0,0,1-.52,3.11c-.46.83-1.5.79-2.22-.08-.32-.39-.63-.95-1.08-1-.94-.2-2.39-.48-2.84-.12-.67.53-.65,1.6-.92,2.43.67,0,1.6.26,1.94,0s.48-1.06.68-1.61l1.43.83c-.19.66-.37,1.32-.53,1.89l1.34,2.16-.61.24-.5-1.26-1.29.84c-2.32-1.47-2.72-.35-2.6,1.64l-1.41-1.41-.19,1.23Z" transform="translate(1.1 0.06)"/><path d="M108.81,29.66c-2.55-3.81-.27-6.65,4.9-6.66h1.1c3.87-.12,3.87-.12,3.49,3.05-.08.72-.19,1.43-.29,2.15-.71-.55-1.43-1.08-2.12-1.64-2.29-1.92-6.15-1.35-7.16,1.11C108.48,28.26,108.77,29,108.81,29.66Z" transform="translate(1.1 0.06)"/><path d="M117.45,36.45l-5.85.35,0-.3,1.52-.87-2.68-1.1.13-.3,1.57.25c2.29.36,3.39-.6,2.79-2.37a5.2,5.2,0,0,1-.07-1.63c1.2,0,2.41,0,3.61,0,0,0,.19.8,0,.86-1.55.64-1,1.75-1,2.7C117.42,34.78,117.45,35.51,117.45,36.45Zm-.8-5.12-.56.05c.21.82-.84,1.82.77,2.57Z" transform="translate(1.1 0.06)"/><path d="M129.22,32.89a14.78,14.78,0,0,0,3.42,1.91,16.75,16.75,0,0,0,4.08.07v.48H131.4c.48,1.71,2.15,1.31,3.47,1.39a17.06,17.06,0,0,0,2.25-.12l0,.6c-3.1.07-6.2.19-9.3.18a2.34,2.34,0,0,1-1.6-.9c-.16-.27.33-.9.72-1.24.85-.76,2.33-1.13,2.29-2.42Z" transform="translate(1.1 0.06)"/><path d="M132,34.8a10.5,10.5,0,0,0,2.19,1,13.26,13.26,0,0,0,2.61,0v.24h-3.4c.31.87,1.38.66,2.23.7a11.64,11.64,0,0,0,1.44-.06V37c-2,0-4,.09-5.95.09a1.65,1.65,0,0,1-1-.46c-.11-.13.21-.46.46-.63.55-.38,1.49-.57,1.47-1.22Z" transform="translate(1.1 0.06)"/><path d="M93,34.32l4.3,1.42-.15.46-1.93.13-.13.36,1.65.43-.09.5c-1.31-.15-2.82,0-3.86-.55-.56-.27-.32-1.57-.44-2.4Z" transform="translate(1.1 0.06)"/><path d="M174.61,35.26c.49,1.41-.08,2.09-2,1.91-.79-.07-1.59,0-2.35,0l1-3.85c1,.7-.73,4.62,3.4,2Z" transform="translate(1.1 0.06)"/><path d="M118,30.79l.27,3.29c-2-.94-.71-2.2-1-3.22Z" transform="translate(1.1 0.06)"/><path d="M113.77,35.37c-2.41,3.18-4.88,1-5.74-4.52-.06-.39-.11-.79-.18-1.18-.73-4.15-.73-4.16,1.68-4.11l1.64.08c-.29.82-.56,1.66-.87,2.46-1,2.69,0,6.77,2,7.59C112.78,35.88,113.28,35.49,113.77,35.37Z" transform="translate(1.1 0.06)"/></svg>
