<svg xmlns="http://www.w3.org/2000/svg" width="171.74" height="46.8" viewBox="0 0 171.74 46.8"><defs><style>.cls-1{fill:#f2f2f2;}</style></defs><title>SisselLogoHeader</title><g id="Layer_2" data-name="Layer 2"><g id="Øsm"><path class="cls-1" d="M7,41.8l-.17.36a1,1,0,0,0-.69-.36c-.18,0-.26-.07-.26-.26,0-.38-.45-.57-.93-.41H4.87a2.12,2.12,0,0,0-1,.06.41.41,0,0,1-.14-.1,14.16,14.16,0,0,1-1-1.31,13,13,0,0,1-1-1.88C1.27,36.75.87,35.58.5,34.41a13.64,13.64,0,0,1-.32-1.57c-.06-.33-.13-.65-.17-1s0-.5,0-.75V29.54a9.79,9.79,0,0,1,.07-1.47,8.37,8.37,0,0,1,.23-.86c.12-.48.22-1,.35-1.44s.27-.88.4-1.33c.2-.69.35-1.4.61-2.08.32-.86.73-1.69,1.09-2.54.23-.53.44-1.07.62-1.61a23,23,0,0,1,1.31-3.07c.14-.26.25-.54.39-.8s.36-.69.53-1c.43-.92.85-1.84,1.3-2.75.19-.38.48-.72.69-1.08.33-.56.65-1.12,1-1.68a2.82,2.82,0,0,1,.59-.78,5.09,5.09,0,0,0,.69-.93c.87-1.23,1.7-2.5,2.64-3.69A11.54,11.54,0,0,1,14.33.53c.29-.23.56-.14.86-.22L15.13.5l.4-.1a.88.88,0,0,0,.28-.17C16,0,16.23,0,16.5,0h.21a.72.72,0,0,0,.29.2.75.75,0,0,0,.55,0L17.1.11a.87.87,0,0,1,.22,0l.84.13h.11A12,12,0,0,1,19.65,1a3.06,3.06,0,0,1,.66.73c.27.35.51.72.79,1.07A12.78,12.78,0,0,1,22.68,5c.12.24.3.45.43.69L25,9c.24.42.5.83.72,1.21l-.58-.09a.28.28,0,0,1-.18,0,.88.88,0,0,0-.56-.27c-.25,0-.31,0-.3.2a.16.16,0,0,1-.07.16c0-.07-.05-.15-.08-.23a.7.7,0,0,0-.16-.13v.36h-.34c.17.29.17.29.27.2l.41.08a.75.75,0,0,0,.77.39h.72c.29,0,.34,0,.24-.27a.09.09,0,0,1,0-.1,1.5,1.5,0,0,1,.19.25c.38.62.78,1.24,1.12,1.89s.45,1.07.7,1.6.38.74.57,1.11.43.94.68,1.4.68,1.21,1,1.82c.41.81.79,1.63,1.16,2.46.19.42.32.86.47,1.3.29.81.59,1.62.85,2.44a12.38,12.38,0,0,1,.31,1.34c.16.83.32,1.65.45,2.48a11.46,11.46,0,0,1,.06,1.17c0,.5.08,1,.1,1.49a4,4,0,0,1-.08.48c0,.43-.08.86-.12,1.29s-.07,1-.13,1.53c0,.14-.14.27-.18.41-.18.6-.34,1.2-.52,1.79-.12.4-.26.8-.42,1.19-.07.16-.25.28-.32.44-.19.37-.34.75-.52,1.13a2.27,2.27,0,0,1-.51.75,7.94,7.94,0,0,0-.82,1,9,9,0,0,1-1.79,2c-.37.27-.78.49-1.17.75l-1.55,1a6,6,0,0,1-.81.39c-.63.27-1.29.49-1.91.78a2,2,0,0,1-.6.12c-.5.05-1,.16-1.47.24a14.41,14.41,0,0,1-1.6.26H16.14l-1.94-.14a9,9,0,0,1-2.44-.56l-2.34-.87a12,12,0,0,1-2-1c-.17-.11-.34-.24-.51-.37a.71.71,0,0,1,0-.8c.16-.1.13-.19.12-.31s-.16-.31.1-.44S7.15,42,7,41.8Zm19.13-.54H26v.29l.31-.07-.16-.09.22-.11H26l.1-.11h.2c-.13-.13-.23-.28-.45-.15Zm1.08-.72h-.25l.22.46h.1v-.47h.15v.17l.16-.07v.19l.15-.09.47.48a.17.17,0,0,1,0,.1c0,.31,0,.34.3.42.22-.23.24-.55.57-.71a.55.55,0,0,1-.1-.64,1,1,0,0,1-.23-.06c-.33-.15-.48-.13-.62.17a.39.39,0,0,1-.42.25l-.22-.42Zm-.65.61-.27-.32c0,.09-.05.2,0,.26s.17,0,.27,0l-.12.18a.75.75,0,0,1,0,.26,1.06,1.06,0,0,1-.09.25h.07l.1-.23.08.13c0-.1.06-.17,0-.23A1.71,1.71,0,0,0,26.54,41.15Zm.16-1h-.33c.35.13,0,.42.2.55l.14-.35H26.6l.14-.12.23.12h0l-.14-.13.24-.25h0l-.36.25a.42.42,0,0,0-.1-.17.55.55,0,0,0-.22-.1c-.16.15-.15,0-.19-.07a1.59,1.59,0,0,0-.13-.22H26l.16.38Zm.4,1.49c0-.21-.15-.33-.3-.45l-.07.05.18.17-.09.09.28.14-.37.19a1.1,1.1,0,0,0,.79-.18l-.1-.55s-.18,0-.18.07a2.77,2.77,0,0,0,.12.41Zm4.53-8.23c-.28-.08.06-.2,0-.3s-.17.13-.19.11c-.2-.1-.27,0-.38.11h0l.24-.14.14.25-.29-.09h0l.58.49.11-.07s-.06-.1-.11-.12c-.24-.07-.19-.2-.1-.34l.13.24h.07l0-.16.24,0-.12-.36Zm-1.42-.62L30,33v-.16L29.6,33H30l-.31.11-.3-.18h0l.11.13c-.22,0-.29.11-.19.15a.64.64,0,0,0,.43,0,.51.51,0,0,1,.64,0h-.19c.22.11.26.09.33-.13L30.07,33h.14a.74.74,0,0,0,0-.21l.13.12h0l-.12-.24h.22l-.28-.14ZM28.86,19.61v-.22l-.33-.06-.07.61-.16-.09.22-.78-.16.13h0a.3.3,0,0,0-.05-.42h0l-.12.56.22-.12c-.16.36-.25,0-.41,0l.12.28h.2l-.09.22h-.3l.23.1-.29.07h.22l-.09.28L28.4,20c-.07.39-.07.39-.33.25v.5L27.9,21l.3.14c-.45.26-.13.46.06.66h0l-.48-.26H28v-.08l-.45.07.56.43.28-.07a.54.54,0,0,0,0,.18.19.19,0,0,0,.07.16l.17-.32h.24l-.14.22.13.19c.17-.48.17-.48.37-.56l.15.19a3.33,3.33,0,0,1,.36-.39c.1-.07.27-.09.37-.18a.79.79,0,0,0,.12-.3H30c0-.11.07-.23-.13-.27v-.14c0-.05.07-.28.1-.42h-.07c-.14.2-.09.45-.16.66h-.09c0-.23-.19-.26-.36-.33l-.05.12c-.15-.11-.14-.2,0-.27s.14-.1,0-.17v-.22c-.06-.17-.19-.18-.37-.12l-.07-.32.25.17.07-.32.51.16a.78.78,0,0,1-.11-.18.6.6,0,0,1,0-.19l-.11.17-.18-.18.11-.1v-.07h-.26a.2.2,0,0,1-.08-.13.15.15,0,0,1,.07-.15c-.26.18-.29.29-.14.38l-.13.18H29C29,19.42,29.05,19.55,28.86,19.61Zm-4.29-2.17v-.22h-.43c-.14,0-.4.06-.24-.21l-.08-.12h0v.16l-.18-.1-.13.33h.16l-.3.15v-.07a1.83,1.83,0,0,0,.08-.25c.08-.27.32-.33.6-.16h.1L24,16.27l-.2.12.06-.18h0l-.16.17-.45-.22.11-.13h-.06c0,.07-.1.14-.14.21a2.65,2.65,0,0,1-.26.39c-.08.08-.27.1-.15.26s-.06.11-.11.12l-.34.08-.42.25v.07c.3-.08.56-.08.62.24h-.27a.53.53,0,0,0,.73.12h0l-.2.21v.13c.22.09.3.14.32.18l.51-.3h0l-.32.42h.13v.19l.19-.11-.08-.18.08,0,.35.28-.06.07-.23-.06a.47.47,0,0,0,.49.44h0a1.86,1.86,0,0,1-.34.06.13.13,0,0,0-.11.08c0,.08.08.06.11.06h.33v.1h-.37l.56.34-.13.09c.12.12.23.11.32,0a.42.42,0,0,1,.42-.15.36.36,0,0,0,.19-.06l-.54-.12v-.05a1.62,1.62,0,0,0,1-.42l-.41.11c.23-.13.24-.16.1-.39l-.18.27L25,18.79l.06-.06.22-.11L25,18.4h.16v.12l.45-.11c0,.21-.41.12-.26.38l.2-.1v.45c.26-.12,0-.37.12-.53l.22.37.23-.07h-.07l.16-.44h.07a5,5,0,0,1-.1.66,2,2,0,0,0-.35-.05l-.08.15.3.11.12-.22.23-.16v.17a.78.78,0,0,1-.11.18c.46-.24.46-.24.64-.21l-.09-.46.31.27h.08l-.19-.36h.34c0-.12.09-.26.29-.17L28,18v.28l-.2.13.08.06.29-.28v.49c.07-.07.15-.11.14-.15a.74.74,0,0,0-.1-.46c-.08-.1-.09-.13,0-.2a.52.52,0,0,0,.07-.15l-.24.17.08-.51-.22-.1.27-.1L28.06,17h.06l.2.18c0-.22-.17-.35-.44-.3l.1.1h-.25v-.33h-.16c-.25,0-.39-.07-.23-.32l-.09-.15h-.1l.06.43h-.28l.15-.36-.26-.53-.17.21h0l.12-.09c0,.17,0,.17-.21.2l-.13.3.15.06-.16.09.41.34h0l-.06-.1h.07L27,17h-.48l-.24-.4-.17.33-.21-.15h.15l-.06-.6-.28.14.31-.36h-.24s-.14,0-.14.06c-.05.27-.19.2-.39.11l.11.17-.1.27-.12-.11.07.26h0l-.12-.25h-.07v.47h.06L25,17l.2.08H25a1.28,1.28,0,0,1-.15-.25l-.38.37h0l.13-.09.06.54-.12-.08Zm-2.46,19h1.43v.18h.72l-.17.15h0l.4-.2v.12a6.85,6.85,0,0,0,.79-.13l.81-.07v.66a1,1,0,0,0,.41,1c.08.05.13.13.21.17.3.16.59.32.9.46.1,0,.18,0,.17.18s0,.41,0,.61a.38.38,0,0,0,.13.09v-.2H28l.21.34.36-.1V40h.22l-.11.13.23.31.14-.06c.15-.08.18-.2.05-.22l-.1.15-.12-.21c.18-.11.28-.3.52-.34a.42.42,0,0,0,.38-.5,2.29,2.29,0,0,1,0-.37h.08l.1.34v-.32c0-.09.24-.31.33-.47a.47.47,0,0,0-.07-.64.5.5,0,0,1-.16-.69L30.1,37a2,2,0,0,0,.3-1.16.68.68,0,0,0-.38-.74c-.45-.26-.66-.28-1,.1a.81.81,0,0,0-.12.29,1.38,1.38,0,0,0-.12.56.61.61,0,0,1-.11.54c-.11.17-.29.34-.15.55-.25.47-.91.69-.92,1.28L27,38.24h-.13a3.39,3.39,0,0,0-.42-.33.49.49,0,0,1-.27-.39.88.88,0,0,1,.32-.77.22.22,0,0,1,.15-.06,2.07,2.07,0,0,0,.76.22h.06a.19.19,0,0,0,.26.06.17.17,0,0,0,.06-.06s-.06-.19-.14-.24-.36-.18-.54-.27-.25-.15-.07-.29a.72.72,0,0,0,.11-.19l.57-1.32a1.8,1.8,0,0,1,.19-.2l.76-1a1.31,1.31,0,0,1,.27-.19l-.1-.19-.15.21.13-.12h0L28.59,33h.49c.31-.07.31-.07.38-.23l-.28.13c-.22-.11-.18-.21,0-.3-.23-.12-.25.37-.51.09v.2h-.05L27.74,32a.35.35,0,0,1-.06-.14v-1a1.29,1.29,0,0,1,.43-1.12c.24-.23.38-.53.62-.76s.16-.21.1-.36c-.2-.44-.37-.9-.57-1.34a7.94,7.94,0,0,0-1-1.8,2.24,2.24,0,0,0-.57-.62.73.73,0,0,1-.4-.65v-.19A6.55,6.55,0,0,1,26,21.89c.06-.38-.29-.7-.65-.86a2.87,2.87,0,0,0-1.58-.32.17.17,0,0,1-.14,0,7,7,0,0,1-.78-.76,1.3,1.3,0,0,1-.35-.56c0-.22-.15-.28-.36-.32a.7.7,0,0,0-.3,0,6.89,6.89,0,0,1-1.75-.23.42.42,0,0,0-.27,0,.24.24,0,0,1-.32-.08c-.26-.26-.54-.52-.77-.8a3.16,3.16,0,0,1-.31-.54,2.16,2.16,0,0,0-.2-.36c-.11-.16-.27-.35-.2-.51a.85.85,0,0,1,.42-.49c.27-.1.4-.43.35-.53l-.39.23c-.2.14-.39.28-.57.43a.83.83,0,0,0-.19.27c-.17.4-.33.81-.5,1.22a3.77,3.77,0,0,1-.28.57c0,.09-.16.16-.22.24a.56.56,0,0,1-.72.28.39.39,0,0,0-.38.1,1.75,1.75,0,0,0-.28.33c-.08.21-.25.27-.48.31-1,.15-1.89.3-2.84.47a.71.71,0,0,0-.38.18c-.23.29-.42.6-.62.91s-.49.78-.73,1.18a.7.7,0,0,0-.08.2.27.27,0,0,1-.25.28c-.54.13-1.07.26-1.6.41l-2,.57a.52.52,0,0,0-.22.22c-.19.4-.35.81-.53,1.21a6.24,6.24,0,0,1-1,1.34c-.22.27-.53.53-.59.82s-.34.37-.58.47-.3,0-.48,0l-.27.05a.46.46,0,0,0,.54.1l.4.07c-.45.41-1.08.23-1.68.29v.1a7.17,7.17,0,0,1,1.47.1,1,1,0,0,0,.2-.07c-.07-.17.47-.86.72-1a3.3,3.3,0,0,1,.43.3A.88.88,0,0,1,4.9,28a2.62,2.62,0,0,1,.43,1.32,10.86,10.86,0,0,0,.06,1.42.32.32,0,0,0,.1.21c.21.18.43.36.66.53s.4.29.58.44l.73.63a7.27,7.27,0,0,0,.79.58c.1.07.29,0,.44,0A2.26,2.26,0,0,0,9.08,33a2.74,2.74,0,0,1,1.76.44,1.06,1.06,0,0,1,.5.41.91.91,0,0,0,.9.3,14.2,14.2,0,0,0,2.57-.72c.75-.36.76-.34,1.45.07l.1.07,1.87,1.19a.27.27,0,0,1,.1.26,2.39,2.39,0,0,1-.15.54.35.35,0,0,1-.17.19l-.44.26v.11s.08,0,.11,0a1,1,0,0,0,.69-.59,1.38,1.38,0,0,1,.5-.73c.58-.43,1.14-.89,1.71-1.34l.08-.08c.07-.17.22-.2.4-.19h1.25l-.57.13v.08H22c.5-.06,1-.11,1.49-.18L25,33a.62.62,0,0,0,.53-.39c.16-.38.35-.75.52-1.13a1.13,1.13,0,0,1,.47-.52c.15-.08.24-.06.32.07a6.12,6.12,0,0,0,1,1.36l.08.13a3.36,3.36,0,0,1,.32.51.39.39,0,0,1,.05.35,1.9,1.9,0,0,1-.4.57c-.53.49-.6,1.16-.93,1.73a1,1,0,0,1-.53.45,6.88,6.88,0,0,0-.9.1,1.21,1.21,0,0,1-.38.06c-.39,0-.76-.07-1.14-.1,0-.39,0-.39-.31-.69l-.31-.25.13-.15V35l-.45.08a.5.5,0,0,0-.37.36,5.46,5.46,0,0,1,.44.38.8.8,0,0,1,.13.24,1,1,0,0,1-.3.08c-.28,0-.63.1-.82,0s-.27-.42-.37-.65-.25-.67-.36-1-.18-.61-.28-1c-.07.08-.13.11-.13.14v.85a1,1,0,0,0,.06.35c.17.32.38.63.56,1a2.55,2.55,0,0,1,.24.5,1.69,1.69,0,0,0,.12.44.36.36,0,0,1,0,.51.32.32,0,0,1-.19.1c-.31.11-.63.22-.93.34a1.21,1.21,0,0,0-.35.24c-.26.25-.53.51-.48.9A.24.24,0,0,1,20,39c-.13.56-.22,1.12-.4,1.67s-.33.92-1,1L17.47,42h-.16a5.2,5.2,0,0,1-.43-1,2.75,2.75,0,0,0-.54-1.39c-.15-.17-.26-.35-.4-.52a.77.77,0,0,0-1-.18,3.75,3.75,0,0,0-.84.54L13,40.24A10.33,10.33,0,0,1,12,41c-.37.24-.6.15-.72-.22v-.07l.42-.2a1.5,1.5,0,0,0-.52-.1.46.46,0,0,0-.35.38.88.88,0,0,0,.81.72h.15a4.15,4.15,0,0,0,.57-.35c.24-.17.46-.37.69-.56a.45.45,0,0,0,.25-.12q.31-.35.66-.66c.31-.24.5-.59,1-.66s.51,0,.65.27c.26.56.49,1.12.74,1.68.17.38.36.76.53,1.12h-.51a1.2,1.2,0,0,0-1,.5c-.1.17-.27.33-.37.5s-.2.4-.28.61a5.39,5.39,0,0,0-.22.68c-.12.43-.22.86-.36,1.28-.09.26-.25.51-.07.84a1.92,1.92,0,0,0,.32-.43c.24-.66.44-1.33.68-2a6.27,6.27,0,0,1,.49-1.09,1.17,1.17,0,0,1,.53-.48,6.82,6.82,0,0,1,1.09-.23.42.42,0,0,0,.31.38c.35.14.72.27,1.07.42.08,0,.12.12.18.19h0v-.12l.35.07a2.37,2.37,0,0,0,.34.13c.23,0,.35.09.37.28a2,2,0,0,1,0,.49.65.65,0,0,1-.13.09l-.94.29a.15.15,0,0,1-.16,0c-.23-.11-.44-.25-.67-.36a4,4,0,0,0-.61-.23.41.41,0,0,0-.22,0l-.65.3c.11.11.12.22-.07.31s-.06.08-.09.13a3.57,3.57,0,0,1-1,1.4c-.15.1-.21.29-.31.44l.06,0c.07,0,.17-.08.21-.15a.51.51,0,0,1,.48-.15,4.45,4.45,0,0,0,1.85.09c.36-.07.73-.08,1.09-.12l.91-.14a2.1,2.1,0,0,0,.24-.06c.76-.11,1.52-.18,2.27-.32a3.56,3.56,0,0,0,1.24-.33,4.71,4.71,0,0,1,.81-.32c.14,0,.35-.08.39-.17a2.31,2.31,0,0,1,.77-.72,1,1,0,0,0,.35-1.09.48.48,0,0,1,0-.49,2.69,2.69,0,0,0,.29-.59.92.92,0,0,0,0-.33h-.07l-.46.68c-.07-.18,0-.35-.1-.5-.14-.4-.31-.79-.47-1.18-.06-.16,0-.25.17-.32s.34-.19.23-.4h-.4v.06l.34.19-.36.18c-.19-.11.1-.37-.27-.44v.28c.06.17,0,.27-.17.34s-.48.16-.72.25h-.07l.12-.36h-.14a1.14,1.14,0,0,0-.1.19.58.58,0,0,1-.52.43,1.74,1.74,0,0,0-.27.14.45.45,0,0,0,.23,0,2.64,2.64,0,0,0,.49-.08c.36-.12.72-.27,1.08-.41a.15.15,0,0,1,.22.09c0,.09.08.35.13.53l.3.92c.07.26.27.51.09.77s-.36.29-.46.1-.28-.23-.41-.35a.53.53,0,0,1-.16-.23c0-.19-.13-.18-.27-.1s-.29.14-.44.21v1.42h-.07c-.25-.26-.5-.53-.76-.78a.72.72,0,0,0-.26-.14l-.56-.1c-.15,0-.21-.1-.12-.24s.09-.23.05-.25a.74.74,0,0,0-.36-.09h-1c.21.12.35.27.51.29a1.5,1.5,0,0,0,.51-.15h0a1.34,1.34,0,0,1-.21.2c-.22.19-.21.29,0,.46a.65.65,0,0,1,.15.18l.73-.16a.27.27,0,0,1,.35.16,1.59,1.59,0,0,0,.34.39c.14.14.31.25.53.43l-.64.47a.15.15,0,0,1-.13,0,4.11,4.11,0,0,1-.68-.21,1.66,1.66,0,0,0-.78-.27c-.36,0-.72-.16-1.08,0h-.09c0-.34.35-.65.12-1H19.8a4.69,4.69,0,0,1-1.88-.65h-.06a2.15,2.15,0,0,1-.46-.22c-.1-.06-.08-.17.09-.2h.32c.35-.06.7-.11,1-.19s.84-.23,1.26-.32c.21,0,.43-.05.64-.06a3.14,3.14,0,0,0,1.13-.33.86.86,0,0,0,.56-.7,1.22,1.22,0,0,0,0-.27l-.15.19a1.23,1.23,0,0,1-.91.65l-1.53.16c.12-.41.26-.83.35-1.26s.13-1,.26-1.41a1.08,1.08,0,0,1,.84-.78c.29-.08.58-.14.87-.23a.45.45,0,0,0,.37-.53.44.44,0,0,0-.1-.22,3.81,3.81,0,0,1-.29-.57ZM9.38,13.68v.07a.69.69,0,0,0,.39-.08.26.26,0,0,1,.34.11,1.12,1.12,0,0,1,0,1.24c-.13.28-.34.54-.45.82s-.16.59-.22.89a.5.5,0,0,1-.2.29c-.16.13-.36.21-.52.33s-.31.28-.49.39a.6.6,0,0,0-.35.47,2.75,2.75,0,0,1-.09.78.28.28,0,0,1-.13.2,6.24,6.24,0,0,0-.65.5.65.65,0,0,1-.54.24,1.73,1.73,0,0,0-.31.07c.49.15.63.13.92-.11.1-.08.21-.15.3-.23a.36.36,0,0,1,.43-.05l.81.29c.26.1.36.05.41-.2s0-.22.08-.34A.5.5,0,0,1,9.58,19c.7-.13,1.4-.26,2.1-.41a6.28,6.28,0,0,0,.73-.25,1,1,0,0,1,.3-.05,2.42,2.42,0,0,1,.47.07.26.26,0,0,0,.34-.15c.1-.21.19-.42.29-.62a.7.7,0,0,1,.17-.13,3.36,3.36,0,0,1,1.09-.09c.36,0,.37,0,.45-.35s.17-.6.25-.9c0-.08.07-.17,0-.23-.11-.24.06-.36.24-.47l1.1-.68c.3-.17.32-.23.18-.52l-.08-.13a20.83,20.83,0,0,1-.87-1.92,1.83,1.83,0,0,0-.56-1c-.27-.21-.06-.66.3-.76s.52-.12.55-.45l-.29.09c-.34.14-.71.23-.86.59a.61.61,0,0,1-.34.33c-.54.2-1.1.37-1.65.57a.64.64,0,0,0-.31.25c-.11.28-.17.58-.27.87a.3.3,0,0,1-.19.22,1,1,0,0,0-.75.84.32.32,0,0,1-.2.18c-.27.07-.54.14-.81.23a.4.4,0,0,1-.55-.16l0,0c-.11-.16-.19-.35-.3-.52a.62.62,0,0,0-.16-.1l-.09.12a.12.12,0,0,1-.08.06ZM9.25,43.49c-.05.14-.1.28-.14.42a.2.2,0,0,0,.07.2,2,2,0,0,0,.51.26.61.61,0,0,0,.42,0,.67.67,0,0,0,.33-.68,1.33,1.33,0,0,1,.14-.48.78.78,0,0,0,0-.83,6.23,6.23,0,0,0-.8-1.3,1.22,1.22,0,0,1-.23-1.29,2.17,2.17,0,0,0,0-.72c0-.11-.12-.27-.07-.32.24-.25.13-.45,0-.67a1.47,1.47,0,0,1-.13-.37c-.07-.23-.12-.47-.2-.7a1.48,1.48,0,0,0-.23-.38c-.12-.16-.3-.06-.46-.07a13.76,13.76,0,0,1-1.54-.14c-.33,0-.34-.05-.24-.33L6.81,36c.09-.15.19-.29,0-.46A.76.76,0,0,0,6,35.21c-.53.2-.58.17-.25.61s.23.76-.34.91a1.39,1.39,0,0,0-.9.69c-.07.13,0,.19.11.28a1.5,1.5,0,0,1,1.4-1.08l.07-.24c.11.07.18.15.27.16.34,0,.69.07,1,.1l1.14.09a.23.23,0,0,1,.18.08,1.48,1.48,0,0,1,.35,1v1.1a.2.2,0,0,0,.06.17c.06.06,0,.27,0,.4s0,.11-.05.16v.9l-.2.08-.07.13c.29-.19.27,0,.33.08a3.86,3.86,0,0,0,.33.43,4.24,4.24,0,0,1,.9,1.32.56.56,0,0,1-.06.3c-.13.25-.39.45-.21.77h0ZM33,27.49a1.64,1.64,0,0,0-.33-.26c-.43-.2-.86-.38-1.3-.57-.14-.05-.22-.09-.11-.24s0-.18-.1-.26-.11,0-.19-.06l.1.33h-.11l-.25-.35-.06.09-.21-.3.39.08.25-.63h.07v.18l.24-.16c-.17-.09-.4-.11-.31-.28a1.37,1.37,0,0,1-.29-.2,1.45,1.45,0,0,1-.19-.29l-.23.1-.08-.16c-.09.09-.21.16-.25.26a1,1,0,0,0-.08.83c.06.14,0,.14-.21.12l.18-.09a.76.76,0,0,1-.65-.38A3.54,3.54,0,0,0,28.1,24.1a6.44,6.44,0,0,0-.61-.24c-.08-.13-.14-.15-.4-.11h-.23l-.15.07s.12.08.17.07a1.17,1.17,0,0,1,.83.23,4.49,4.49,0,0,1,1.1,1.2c.13.17.28.33.42.49h.15V26c.37,0,.48.29.67.44l-.12.06.07.07.29-.09.07.25h.07l.06-.17.18.23h-.29v.09h.27c.22-.06.22-.06.35.08-.25,0-.54-.08-.67.18l1-.16c.53.08.94.53,1.65.49ZM2.81,39.29H2.9L2.81,39a6.63,6.63,0,0,1-.08-1,.9.9,0,0,1,.5-.8.84.84,0,0,0,.44-.61c.07-.25-.09-.45-.38-.51s-.41-.17-.36-.42A.51.51,0,0,0,2.65,35H2.44c-.29,0-.42.12-.31.35a.74.74,0,0,1,0,.84,1,1,0,0,0-.16.19c-.07.13-.21.27,0,.45l.28-.31c.23-.23.46-.48.88-.31.1,0,.27.1.28.16s.1.37-.17.47A1.13,1.13,0,0,0,3,37a1.66,1.66,0,0,0-.6,1,.69.69,0,0,0,0,.35c.05.27.12.54.19.81C2.62,39.2,2.73,39.24,2.81,39.29Zm5-.87c-.41-.09-.48,0-.44.32,0,.1,0,.25,0,.28a2,2,0,0,1-1,.34.8.8,0,0,0-.37.06,4.92,4.92,0,0,0-.63.58c-.05.06,0,.19,0,.26L6.11,40s.06-.13.13-.15a3.06,3.06,0,0,1,.63-.2,2.09,2.09,0,0,0,.87-.52.06.06,0,0,0,0-.06A1.71,1.71,0,0,0,7.81,38.42ZM2.39,33c0,.13-.05.27-.07.4a2.16,2.16,0,0,0,0,.36c0,.11-.13.26.12.36.06-.34.11-.66.18-1a.75.75,0,0,1,.2-.37,6.65,6.65,0,0,1,1-.66,1.81,1.81,0,0,0,.87-1.26v-.26a1.19,1.19,0,0,0-.22.47,1.3,1.3,0,0,1-.74,1L1.78,33.14c-.16.08-.18.13-.13.25ZM23.54,9.66c-.22-.05-.28-.2-.3-.4A.51.51,0,0,0,23,9a.3.3,0,0,0-.38.15v0a.36.36,0,0,0,0,.32c.13.11.1.17,0,.22s0,.12,0,.14-.07.17-.1.25h0l.06-.12.41.24.08-.12.1.12ZM10.71,7c-.2,0-.25-.3-.57-.21l.31.13C10,7,10,7,10,7.21l.34.08v.07H10l.06.08-.31.24v.06c.2-.17.34-.07.5,0l-.1-.2h.4l.12.18c.22-.19.23,0,.3.14H11l-.09-.3.33-.19v0l-.21.08c-.18-.37.32-.06.32-.25L11,7l.11.15h0L10.81,7Zm19.34,17.1-.15.47H30l.06-.24h.32l.1-.54.28.22v-.31h.14l-.13-.41h-.24L30.28,23l-.19.14c.07.07.16.13.15.16-.08.23-.19.46-.29.68h-.07Zm-10-7.87v-.09l-1,.22c0-.08-.1-.17-.23,0s-.09,0-.13,0l-.31.14.74.29.47-.34c.07,0,.13-.12.2-.16l.22-.06Zm1.76,20.11a6.93,6.93,0,0,0-2.35.29.13.13,0,0,0,.12,0c.68-.07,1.36-.13,2-.21C21.65,36.49,21.71,36.41,21.81,36.37ZM17.66,1.73l.2.13-.34.19h0l.5-.16-.11.25a.34.34,0,0,0,.24-.41.34.34,0,0,0-.17-.2l-.17.16V1.28c-.26.12-.56,0-.68.26.2.24.37-.12.58,0Zm-16,25.82v.07l1-.11h.23a.42.42,0,0,0,.33-.13l-.63-.08c-.11.22-.38.17-.59.16l-.19-.36H1.72c.24.19.16.32,0,.45Zm28.21-.28-.06.18h.05l.23-.28h.05l-.05.14.3.06v.06h-.25c0,.25.23,0,.3.16l-.1.47c.31-.08.23-.34.34-.53h-.2v-.05l.2-.13c-.32,0-.39-.37-.73-.25l.09-.17H30l-.19.23ZM2.75,27h0l-1.21-.11L1.41,27a.85.85,0,0,0,.26.05,3.21,3.21,0,0,1,.88.06C2.6,27.07,2.68,27,2.75,27ZM19.56,15.71c.14.15.14.15.34-.08-.18-.11-.19-.12-.41,0a.6.6,0,0,1-.47.08c-.24,0-.28,0-.2.24l.1-.19H19l.11.42c0-.21,0-.44.37-.39C19.51,15.81,19.53,15.74,19.56,15.71Zm9.52,7.35c-.34.07-.12.51-.52.54l.12.22.12-.23.07.06-.19.18a.17.17,0,0,0,0,.1.16.16,0,0,0,.1.08h.09l.3-.66h-.06l-.15.26h0l.07-.32h.22Zm.48-1.21-.28.37-.3-.07v.06l.34.12.18-.19c.06.18-.15.37.06.46l.46-.43h0l-.32.2Zm-7.4-8.46h.1v-.22a1.19,1.19,0,0,1,.08-.16l.08.19.11-.26h.28l-.34-.15-.12.19h0v-.23h-.07l-.07.2L22,12.9h0C22.22,13,22.21,13.19,22.16,13.39ZM12,6.18V6.11h.35c-.06-.12-.07-.11-.26-.06s-.16.22,0,.4l-.3-.15-.18.11.11.14-.13,0,.12.17.11-.3c.32.08.25-.21.45-.3Zm1.4,38,.2.38.14-.27-.13-.08h0l.3.07c-.12-.14-.29-.24-.16-.44l-.13-.09h-.07c.18.21,0,.36-.15.45ZM5.05,39l-.24-.42H4.62l-.3.34L4.6,39v-.32Zm24.84-5.23c-.09-.09-.12-.17-.19-.19a.62.62,0,0,0-.33,0,.89.89,0,0,0-.26.21ZM26.66,14h-.05c-.24.06-.48.12-.72.2l-.1.15c.17,0,.3-.19.41,0Zm-5,26H21.6c-.05,0-.14.1-.13.14s.09.1.14.14.45,0,.41.31h.07l-.18-.44H21.7l.09.17-.22-.07Zm3-27.53h.06v-.09c0-.19.08-.27.31-.27.06,0,.12-.11.18-.17l-.28.11-.57.14v.1h.23ZM11,6.87l.1-.07-.3-.69h-.07a1.11,1.11,0,0,0,.08.3L11,6.7l-.17.07Zm7.84,31.56H18.8l.1.41-.09.11.33.22v-.06c-.27-.1-.18-.26-.11-.39l-.19-.11.17-.07Zm-8-29.26V9.12l-.61.07.2.08-.25.13.06.08ZM17.2,39l-.22.29.1.18h0v-.18l.17.15h.07l-.11-.22c.12-.17.1-.22-.21-.3ZM2.89,30.69c-.37-.22-.63-.22-.83,0Zm22.37-15c-.32-.06-.59-.27-.86,0l.19.08c.19-.17.23-.17.42,0Zm3.11,7.45c.12-.18.23-.3.39-.12l.15-.07-.28-.16-.1.09-.16-.17Zm.44-5.42v0l-.37-.06.32.49h.06v-.27h-.13ZM19.32,3.15v.07l.43.09V3.12H20L19.62,3l-.08.29L19.46,3ZM17.47,15.6v.07h.78l-.13-.2c-.2.07-.38.21-.53,0Zm2.23,1.54v-.06L19.05,17l-.12.15Zm4.66,18.65H24.3l.1.34c.24-.26.19.09.32.1l-.11-.53-.12.25ZM2,26.35l.53.09v-.08l-.76-.18.07.24ZM18.23,2.61a.61.61,0,0,0,.63-.24h0ZM5.11,40.41c.18-.18.16-.26,0-.35l-.37.18.35.08Zm25.62-9.14-.33-.39.07.63ZM29.54,24c.18.07-.15.32.11.33l.19-.54-.21.16-.2-.09v.24h0ZM26.35,13.82,26,13.68l-.17.14C26.07,14,26.07,14,26.35,13.82ZM29,40.55v.06h.19l-.08.16h.2l-.05-.23h.18l-.18-.14ZM24.88,19.76l-.1-.15h0v.24l.3.11v-.39H25Zm2.48.11.07-.72C27.26,19.42,27.08,19.63,27.36,19.87ZM31.58,32h-.09v.57h.13ZM19,15.39c.22.08.36-.26.58,0l-.11-.28-.27.15Zm10.31,4.19c0,.35.14.51.42.4-.23,0-.24-.12-.17-.23ZM31.21,31.3v.07a1.37,1.37,0,0,0,.38-.15.56.56,0,0,0-.05-.22ZM21.6,15.24h0l.46.1c.16,0,.36-.06.37-.13ZM8.35,10.18l.21.1v-.07c-.08,0-.18-.09-.23-.07a3.47,3.47,0,0,0-.29.25h.34ZM24,40.12h.07v-.49c0-.15,0-.06-.08-.1s-.07.06-.08.09v.15Zm-.59-.43-.12.18a1.09,1.09,0,0,0,.36,0c.09,0,.14-.18.21-.27H23.8l-.18.23ZM19.61,3.36c-.44-.1-.49-.08-.62.18l.38-.15v.1Zm9.05,15.11v.05h.26l-.07.17h0l.25-.41ZM1.55,28.59l.42.3.15-.22H2.06l-.21.1C1.81,28.61,1.72,28.47,1.55,28.59ZM18.88,3l-.07.26h.07l.2-.49-.4.2h0ZM9.38,9.05,9.1,9,9,9.16l.23-.06h.06A.29.29,0,0,0,9.52,9c0-.05,0-.1-.11-.2Zm17.43,6.1h-.08a2.42,2.42,0,0,0-.12.35.66.66,0,0,0,.17.1H27C26.63,15.49,26.61,15.43,26.81,15.15Zm4,12.58v.06l.19.07-.32.11v.21l.43-.36Zm-6.38,14,.38.2v-.06l-.18-.31ZM29.81,23h.07l.42-.3-.27-.1v.15H30ZM23.19,34.46h.1a.74.74,0,0,0,0-.21h-.37a.88.88,0,0,1,.12.17l.05-.09ZM1.9,28l-.22-.29-.05.05.31.35.22-.31H2.1Zm21,15H23c0-.08-.06-.21-.13-.23a.84.84,0,0,0-.38.05l.25.14.13-.15Zm8.25-6.9v.07l.32-.06-.13.18h.19a.56.56,0,0,0-.05-.25ZM9.55,10.25c0,.15-.07.22-.24.15v-.13H9.24a.81.81,0,0,0,0,.22h.12l.3-.09Zm8,5.48c-.24.18.12.35,0,.52l.17-.17H17.6Zm6.64,25.35h-.08l-.06.14-.08-.09h0v.4l.16-.24Zm1.67-27.86-.26.17.08.08.25-.13-.08.29C26,13.6,26,13.43,25.81,13.22ZM12.15,43v-.32c0-.09-.05-.11-.05-.17a.29.29,0,0,1,0-.13h-.18Zm12.42-28.2c0-.16-.4-.12-.13-.38l-.24.07a1.7,1.7,0,0,0,.11.39c.05-.28.16-.16.26-.13ZM7.41,41.23a.9.9,0,0,1,.15.19c.08.2.15.23.23.17s-.08-.17-.11-.24S7.53,41.15,7.41,41.23ZM18.69,1.84h0l.23-.16.13.19c.21-.26-.06-.23-.17-.29ZM16.27,37.25v.28c.42,0,.44,0,.46-.18l-.32.1Zm9-23.35-.12.48.27-.09Zm5,7.55h-.13l-.4.33h0ZM2,31.51l.19-.2H1.72v.06ZM22.1,6.31l-.18-.17a.91.91,0,0,0-.11.16.66.66,0,0,0-.06.2h0l.08-.13.07.1-.09-.15Zm2.3,13.55c.22-.07.13.14.28.24v-.5ZM9.56,8.73,10,8.41H9.63Zm16,10.5h0c-.17-.17-.28.05-.43.05s-.06,0-.09.08h.14ZM19.81,3.67l.22-.1h-.65v.07h.23ZM15.52,1l.38.18L16.07,1ZM24.6,12.88v.47h0l.21-.4ZM27,42.66H27c.07-.21.23-.13.38-.08v-.06l-.22-.17ZM13.46,4.21l-.2-.11.08.23c.12-.1.22-.17.31-.26L13.49,4ZM23.88,14.44v.43h0l.14-.29ZM2.65,31.07a1,1,0,0,0-.2-.11H2.11C2.58,31.16,2.58,31.16,2.65,31.07ZM29.39,23.5l-.11-.06-.32.39.08.05ZM25.81,12.58l-.06.05.11.3.25-.11a1,1,0,0,1-.2-.11A.45.45,0,0,1,25.81,12.58Zm-4-5.94c-.2.13,0,.22,0,.35l.23-.1C21.81,7,21.81,6.8,21.81,6.64ZM20.7,13.57v.07a1.72,1.72,0,0,0,.55-.06l.1-.12Z"/><path class="cls-1" d="M50.21,34.2c-1.22,0-3.35.21-4.57-1.73a4,4,0,0,1,.73-5c1.38-1,2.14-.18,2.85.73a3,3,0,0,0,4,1.07c1.27-.63,1.39-1.39.08-2a19.5,19.5,0,0,0-3.58-1.18,4,4,0,0,1-3.32-2.94c-.3-1.27-.42-2.72,1.26-3.43a44.33,44.33,0,0,1,5.42-1.6,6.32,6.32,0,0,1,.87,0c3.58-.44,4.18-.09,3.8,2.76-.11.8-1,1.54-1.48,2.3a9.29,9.29,0,0,1-2.18-1.92c-.8-1.39-2.16-1.74-3.68-.71-1.28.88-1.2,1.86.29,2.48a33.78,33.78,0,0,0,3.22,1.09c3,.92,4.32,3,3.44,5.56-.3.85-.19,1.85-.72,2.58C55.5,33.81,54.36,34.1,50.21,34.2Zm-1.28-2.4c3.39,1.13,6.32.66,6.42-1.09a21.55,21.55,0,0,1-3.08.44c-1.48,0-3.32.18-4.31-.42-.79-.49-.55-2-.75-3-1.38.7-1,3.7,1.14,5.66Z"/><path class="cls-1" d="M151.41,31.21c1.75.9,1.87,1.52.47,2.49-2,1.38-6.39,1.86-7.62,0-.4-.61-.66-1.81-.24-2.12,1.77-1.31,1.86-3,1.89-4.6s-.12-3.47-.19-5.2h-.87a7.25,7.25,0,0,0-.37,1.44c-.07,1-.12,2.18-1.84,2.12s-1.15-1.35-1.33-2.18a2.34,2.34,0,0,1,.07-.87c.29-2.85.51-3,4-3,2,0,4.13-.17,6.16,0a3,3,0,0,1,2.25,1.37,7.72,7.72,0,0,1,.35,3.72c-.07.51-1.16.93-1.77,1.39-.44-.44-1.06-.83-1.28-1.33A19.93,19.93,0,0,0,150,21.77a12.38,12.38,0,0,0,1.5,9.5c-4.13,2.61-2.41-1.31-3.4-2l-1,3.85c.76,0,1.56-.06,2.35,0C151.33,33.3,151.9,32.62,151.41,31.21Z"/><path class="cls-1" d="M129,24c.2-1.15.3-2.11.55-3,.19-.73.51-2,.86-2a23.63,23.63,0,0,1,4.19.43,4.09,4.09,0,0,1-.46,1.61c-1.54,1.92-3.58,3.66-4.66,5.72-.62,1.2,0,2.91,1.68,4,.63.39,1.36,1.44,1.12,1.75a4,4,0,0,1-2.38,1.06,12,12,0,0,1-3.79,0c-1.84-.33-2.19-1.42-.86-2.49,2.47-2,1.75-4.31.51-6.26-.2-.3-.59-.67-.5-.9.54-1.26-.52-1.64-1.64-2a.77.77,0,0,1-.38-.17l-1.51-2a12.9,12.9,0,0,1,3.52-.83c1.07,0,1.76.68,1.23,1.9S126.52,23,129,24Z"/><path class="cls-1" d="M170.45,20H164.7v.37a23.78,23.78,0,0,1,2.67,0,19.48,19.48,0,0,1,2.17.48,12,12,0,0,0-1,2.78,28.69,28.69,0,0,0,0,5.86c.07.61,1.27,1.12,1.9,1.72s1.34,1.06,1.3,1.57a2.09,2.09,0,0,1-1.49,1.42,31,31,0,0,1-6.46.22c-1.83-.19-2.4-2-1-2.91a4.91,4.91,0,0,0,2.44-4.77,25.82,25.82,0,0,1,.09-2.78c.1-1,0-1.78-1.52-2.15a1.67,1.67,0,0,1-1-1.35c0-.28.94-.78,1.48-.81,2-.1,4.06,0,6.1,0Z"/><path class="cls-1" d="M106.06,28.79c-.3-.35-.81-.67-.87-1.05-.23-1.36-.17-2.76-.49-4.1a8,8,0,0,0-1.36-2.47c-.91-1.32-.29-2.31,1.59-2.33,2.57,0,5.16-.09,7.72.06,1,.06,2.53.58,2.69,1.1a4.28,4.28,0,0,1-.52,3.11c-.46.83-1.5.79-2.22-.08-.32-.39-.63-1-1.08-1-.94-.2-2.39-.48-2.84-.12-.67.53-.65,1.6-.92,2.43.67,0,1.6.26,1.94,0s.48-1.06.68-1.61l1.43.83c-.19.66-.37,1.32-.53,1.89l1.34,2.16-.61.24-.5-1.26-1.29.84c-2.32-1.47-2.72-.35-2.6,1.64l-1.41-1.41L106,28.89Z"/><path class="cls-1" d="M85.61,25.61C83.06,21.8,85.34,19,90.51,19h1.1c3.87-.12,3.87-.12,3.49,3.05-.08.72-.19,1.43-.29,2.15-.71-.55-1.43-1.08-2.12-1.64-2.29-1.92-6.15-1.35-7.16,1.11C85.28,24.21,85.57,25,85.61,25.61Z"/><path class="cls-1" d="M94.25,32.4l-5.85.35v-.3l1.52-.87-2.68-1.1.13-.3,1.57.25c2.29.36,3.39-.6,2.79-2.37a5.23,5.23,0,0,1-.07-1.63h3.61s.19.8,0,.86c-1.55.64-1,1.75-1,2.7C94.22,30.73,94.25,31.46,94.25,32.4Zm-.8-5.12-.56,0c.21.82-.84,1.82.77,2.57Z"/><path class="cls-1" d="M106,28.84a14.53,14.53,0,0,0,3.42,1.91,16.88,16.88,0,0,0,4.08.07v.48H108.2c.48,1.71,2.15,1.31,3.47,1.39a17,17,0,0,0,2.25-.12v.6c-3.1.07-6.2.19-9.3.18a2.34,2.34,0,0,1-1.6-.9c-.16-.27.33-.9.72-1.24.85-.76,2.33-1.13,2.29-2.42Z"/><path class="cls-1" d="M108.8,30.75a10.32,10.32,0,0,0,2.19,1,12.65,12.65,0,0,0,2.61,0V32h-3.4c.31.87,1.38.66,2.23.7a11.56,11.56,0,0,0,1.44-.06V33c-2,0-4,.09-6,.09a1.63,1.63,0,0,1-1-.46c-.11-.13.21-.46.46-.63.55-.38,1.49-.57,1.47-1.22Z"/><path class="cls-1" d="M69.81,30.27l4.3,1.42-.15.46L72,32.28l-.13.36,1.65.43-.09.5c-1.31-.15-2.82,0-3.86-.55-.56-.27-.32-1.57-.44-2.4Z"/><path class="cls-1" d="M151.41,31.21c.49,1.41-.08,2.09-2,1.91-.79-.07-1.59,0-2.35,0l1-3.85c1,.7-.73,4.62,3.4,2Z"/><path class="cls-1" d="M94.8,26.74,95.07,30c-2-.94-.71-2.2-1-3.22Z"/><path class="cls-1" d="M90.57,31.32c-2.41,3.18-4.88,1-5.74-4.52-.06-.39-.11-.79-.18-1.18-.73-4.15-.73-4.16,1.68-4.11l1.64.08c-.29.82-.56,1.66-.87,2.46-1,2.69,0,6.77,2,7.59C89.58,31.83,90.08,31.44,90.57,31.32Z"/></g></g></svg>
