<svg id="Capa_1" data-name="Capa 1" xmlns="http://www.w3.org/2000/svg" width="742.88mm" height="181.95mm" viewBox="0 0 2105.81 515.76"><defs><style>.cls-1{fill:#a39272;}.cls-2{fill:#fff;}.cls-3{fill:#384039;}.cls-4{fill:#848982;}.cls-5{fill:#f2f2f2;}.cls-6{fill:#202525;}</style></defs><title>start2</title><circle class="cls-1" cx="256" cy="259.76" r="256"/><polygon class="cls-2" points="388.41 259.76 194.21 392.17 194.21 262.17 194.21 127.34 388.41 259.76"/><path class="cls-2" d="M194.21,401a8.84,8.84,0,0,1-8.83-8.83V127.34a8.83,8.83,0,0,1,13.81-7.29l194.2,132.42a8.82,8.82,0,0,1,0,14.58L199.18,399.46A8.83,8.83,0,0,1,194.21,401ZM203,144.05V375.47L372.74,259.76Z"/><circle class="cls-3" cx="789.95" cy="259.76" r="256"/><polygon class="cls-2" points="922.37 259.76 728.16 392.17 728.16 262.17 728.16 127.34 922.37 259.76"/><path class="cls-2" d="M728.16,401a8.86,8.86,0,0,1-8.83-8.83V127.34a8.84,8.84,0,0,1,13.81-7.29l194.2,132.42a8.83,8.83,0,0,1,0,14.58L733.13,399.46A8.8,8.8,0,0,1,728.16,401ZM737,144.05V375.47L906.7,259.76Z"/><circle class="cls-4" cx="1849.81" cy="256" r="256"/><polygon class="cls-2" points="1982.23 256 1788.02 388.41 1788.02 258.41 1788.02 123.59 1982.23 256"/><path class="cls-2" d="M1788,397.24a8.73,8.73,0,0,1-4.12-1,8.82,8.82,0,0,1-4.71-7.81V123.59a8.84,8.84,0,0,1,13.81-7.3l194.21,132.42a8.83,8.83,0,0,1,0,14.58L1793,395.71A8.87,8.87,0,0,1,1788,397.24Zm8.83-256.94V371.71L1966.56,256Z"/><circle class="cls-5" cx="1330.25" cy="259.1" r="256"/><polygon class="cls-6" points="1462.67 259.1 1268.46 391.51 1268.46 261.51 1268.46 126.68 1462.67 259.1"/><path class="cls-6" d="M1268.46,400.34a8.86,8.86,0,0,1-8.83-8.83V126.68a8.84,8.84,0,0,1,13.81-7.29L1467.65,251.8a8.84,8.84,0,0,1,0,14.59L1273.43,398.8A8.8,8.8,0,0,1,1268.46,400.34Zm8.83-256.95V374.81L1447,259.1Z"/></svg>
